<?xml version="1.0" encoding="utf-8" standalone="no"?>
<!DOCTYPE svg PUBLIC "-//W3C//DTD SVG 1.1//EN"
  "http://www.w3.org/Graphics/SVG/1.1/DTD/svg11.dtd">
<svg xmlns:xlink="http://www.w3.org/1999/xlink" width="599.823125pt" height="347.236719pt" viewBox="0 0 599.823125 347.236719" xmlns="http://www.w3.org/2000/svg" version="1.1">
 <metadata>
  <rdf:RDF xmlns:dc="http://purl.org/dc/elements/1.1/" xmlns:cc="http://creativecommons.org/ns#" xmlns:rdf="http://www.w3.org/1999/02/22-rdf-syntax-ns#">
   <cc:Work>
    <dc:type rdf:resource="http://purl.org/dc/dcmitype/StillImage"/>
    <dc:date>2026-05-06T22:05:44.830805</dc:date>
    <dc:format>image/svg+xml</dc:format>
    <dc:creator>
     <cc:Agent>
      <dc:title>Matplotlib v3.10.8, https://matplotlib.org/</dc:title>
     </cc:Agent>
    </dc:creator>
   </cc:Work>
  </rdf:RDF>
 </metadata>
 <defs>
  <style type="text/css">*{stroke-linejoin: round; stroke-linecap: butt}</style>
 </defs>
 <g id="figure_1">
  <g id="patch_1">
   <path d="M 0 347.236719 
L 599.823125 347.236719 
L 599.823125 0 
L 0 0 
z
" style="fill: #ffffff"/>
  </g>
  <g id="axes_1">
   <g id="patch_2">
    <path d="M 51.059375 305.43625 
L 592.623125 305.43625 
L 592.623125 23.16625 
L 51.059375 23.16625 
z
" style="fill: #ffffff"/>
   </g>
   <g id="matplotlib.axis_1">
    <g id="xtick_1">
     <g id="line2d_1">
      <path d="M 75.675909 305.43625 
L 75.675909 23.16625 
" clip-path="url(#p85586a3c33)" style="fill: none; stroke: #cccccc; stroke-linecap: round"/>
     </g>
     <g id="text_1">
      <!-- 2015 -->
      <g style="fill: #262626" transform="translate(64.675909 322.574375) scale(0.11 -0.11)">
       <defs>
        <path id="TimesNewRomanPSMT-32" d="M 2934 816 
L 2638 0 
L 138 0 
L 138 116 
Q 1241 1122 1691 1759 
Q 2141 2397 2141 2925 
Q 2141 3328 1894 3587 
Q 1647 3847 1303 3847 
Q 991 3847 742 3664 
Q 494 3481 375 3128 
L 259 3128 
Q 338 3706 661 4015 
Q 984 4325 1469 4325 
Q 1984 4325 2329 3994 
Q 2675 3663 2675 3213 
Q 2675 2891 2525 2569 
Q 2294 2063 1775 1497 
Q 997 647 803 472 
L 1909 472 
Q 2247 472 2383 497 
Q 2519 522 2628 598 
Q 2738 675 2819 816 
L 2934 816 
z
" transform="scale(0.015625)"/>
        <path id="TimesNewRomanPSMT-30" d="M 231 2094 
Q 231 2819 450 3342 
Q 669 3866 1031 4122 
Q 1313 4325 1613 4325 
Q 2100 4325 2488 3828 
Q 2972 3213 2972 2159 
Q 2972 1422 2759 906 
Q 2547 391 2217 158 
Q 1888 -75 1581 -75 
Q 975 -75 572 641 
Q 231 1244 231 2094 
z
M 844 2016 
Q 844 1141 1059 588 
Q 1238 122 1591 122 
Q 1759 122 1940 273 
Q 2122 425 2216 781 
Q 2359 1319 2359 2297 
Q 2359 3022 2209 3506 
Q 2097 3866 1919 4016 
Q 1791 4119 1609 4119 
Q 1397 4119 1231 3928 
Q 1006 3669 925 3112 
Q 844 2556 844 2016 
z
" transform="scale(0.015625)"/>
        <path id="TimesNewRomanPSMT-31" d="M 750 3822 
L 1781 4325 
L 1884 4325 
L 1884 747 
Q 1884 391 1914 303 
Q 1944 216 2037 169 
Q 2131 122 2419 116 
L 2419 0 
L 825 0 
L 825 116 
Q 1125 122 1212 167 
Q 1300 213 1334 289 
Q 1369 366 1369 747 
L 1369 3034 
Q 1369 3497 1338 3628 
Q 1316 3728 1258 3775 
Q 1200 3822 1119 3822 
Q 1003 3822 797 3725 
L 750 3822 
z
" transform="scale(0.015625)"/>
        <path id="TimesNewRomanPSMT-35" d="M 2778 4238 
L 2534 3706 
L 1259 3706 
L 981 3138 
Q 1809 3016 2294 2522 
Q 2709 2097 2709 1522 
Q 2709 1188 2573 903 
Q 2438 619 2231 419 
Q 2025 219 1772 97 
Q 1413 -75 1034 -75 
Q 653 -75 479 54 
Q 306 184 306 341 
Q 306 428 378 495 
Q 450 563 559 563 
Q 641 563 702 538 
Q 763 513 909 409 
Q 1144 247 1384 247 
Q 1750 247 2026 523 
Q 2303 800 2303 1197 
Q 2303 1581 2056 1914 
Q 1809 2247 1375 2428 
Q 1034 2569 447 2591 
L 1259 4238 
L 2778 4238 
z
" transform="scale(0.015625)"/>
       </defs>
       <use xlink:href="#TimesNewRomanPSMT-32"/>
       <use xlink:href="#TimesNewRomanPSMT-30" transform="translate(50 0)"/>
       <use xlink:href="#TimesNewRomanPSMT-31" transform="translate(100 0)"/>
       <use xlink:href="#TimesNewRomanPSMT-35" transform="translate(150 0)"/>
      </g>
     </g>
    </g>
    <g id="xtick_2">
     <g id="line2d_2">
      <path d="M 146.008864 305.43625 
L 146.008864 23.16625 
" clip-path="url(#p85586a3c33)" style="fill: none; stroke: #cccccc; stroke-linecap: round"/>
     </g>
     <g id="text_2">
      <!-- 2016 -->
      <g style="fill: #262626" transform="translate(135.008864 322.574375) scale(0.11 -0.11)">
       <defs>
        <path id="TimesNewRomanPSMT-36" d="M 2869 4325 
L 2869 4209 
Q 2456 4169 2195 4045 
Q 1934 3922 1679 3669 
Q 1425 3416 1258 3105 
Q 1091 2794 978 2366 
Q 1428 2675 1881 2675 
Q 2316 2675 2634 2325 
Q 2953 1975 2953 1425 
Q 2953 894 2631 456 
Q 2244 -75 1606 -75 
Q 1172 -75 869 213 
Q 275 772 275 1663 
Q 275 2231 503 2743 
Q 731 3256 1154 3653 
Q 1578 4050 1965 4187 
Q 2353 4325 2688 4325 
L 2869 4325 
z
M 925 2138 
Q 869 1716 869 1456 
Q 869 1156 980 804 
Q 1091 453 1309 247 
Q 1469 100 1697 100 
Q 1969 100 2183 356 
Q 2397 613 2397 1088 
Q 2397 1622 2184 2012 
Q 1972 2403 1581 2403 
Q 1463 2403 1327 2353 
Q 1191 2303 925 2138 
z
" transform="scale(0.015625)"/>
       </defs>
       <use xlink:href="#TimesNewRomanPSMT-32"/>
       <use xlink:href="#TimesNewRomanPSMT-30" transform="translate(50 0)"/>
       <use xlink:href="#TimesNewRomanPSMT-31" transform="translate(100 0)"/>
       <use xlink:href="#TimesNewRomanPSMT-36" transform="translate(150 0)"/>
      </g>
     </g>
    </g>
    <g id="xtick_3">
     <g id="line2d_3">
      <path d="M 216.341818 305.43625 
L 216.341818 23.16625 
" clip-path="url(#p85586a3c33)" style="fill: none; stroke: #cccccc; stroke-linecap: round"/>
     </g>
     <g id="text_3">
      <!-- 2017 -->
      <g style="fill: #262626" transform="translate(205.341818 322.574375) scale(0.11 -0.11)">
       <defs>
        <path id="TimesNewRomanPSMT-37" d="M 644 4238 
L 2916 4238 
L 2916 4119 
L 1503 -88 
L 1153 -88 
L 2419 3728 
L 1253 3728 
Q 900 3728 750 3644 
Q 488 3500 328 3200 
L 238 3234 
L 644 4238 
z
" transform="scale(0.015625)"/>
       </defs>
       <use xlink:href="#TimesNewRomanPSMT-32"/>
       <use xlink:href="#TimesNewRomanPSMT-30" transform="translate(50 0)"/>
       <use xlink:href="#TimesNewRomanPSMT-31" transform="translate(100 0)"/>
       <use xlink:href="#TimesNewRomanPSMT-37" transform="translate(150 0)"/>
      </g>
     </g>
    </g>
    <g id="xtick_4">
     <g id="line2d_4">
      <path d="M 286.674773 305.43625 
L 286.674773 23.16625 
" clip-path="url(#p85586a3c33)" style="fill: none; stroke: #cccccc; stroke-linecap: round"/>
     </g>
     <g id="text_4">
      <!-- 2018 -->
      <g style="fill: #262626" transform="translate(275.674773 322.574375) scale(0.11 -0.11)">
       <defs>
        <path id="TimesNewRomanPSMT-38" d="M 1228 2134 
Q 725 2547 579 2797 
Q 434 3047 434 3316 
Q 434 3728 753 4026 
Q 1072 4325 1600 4325 
Q 2113 4325 2425 4047 
Q 2738 3769 2738 3413 
Q 2738 3175 2569 2928 
Q 2400 2681 1866 2347 
Q 2416 1922 2594 1678 
Q 2831 1359 2831 1006 
Q 2831 559 2490 242 
Q 2150 -75 1597 -75 
Q 994 -75 656 303 
Q 388 606 388 966 
Q 388 1247 577 1523 
Q 766 1800 1228 2134 
z
M 1719 2469 
Q 2094 2806 2194 3001 
Q 2294 3197 2294 3444 
Q 2294 3772 2109 3958 
Q 1925 4144 1606 4144 
Q 1288 4144 1088 3959 
Q 888 3775 888 3528 
Q 888 3366 970 3203 
Q 1053 3041 1206 2894 
L 1719 2469 
z
M 1375 2016 
Q 1116 1797 991 1539 
Q 866 1281 866 981 
Q 866 578 1086 336 
Q 1306 94 1647 94 
Q 1984 94 2187 284 
Q 2391 475 2391 747 
Q 2391 972 2272 1150 
Q 2050 1481 1375 2016 
z
" transform="scale(0.015625)"/>
       </defs>
       <use xlink:href="#TimesNewRomanPSMT-32"/>
       <use xlink:href="#TimesNewRomanPSMT-30" transform="translate(50 0)"/>
       <use xlink:href="#TimesNewRomanPSMT-31" transform="translate(100 0)"/>
       <use xlink:href="#TimesNewRomanPSMT-38" transform="translate(150 0)"/>
      </g>
     </g>
    </g>
    <g id="xtick_5">
     <g id="line2d_5">
      <path d="M 357.007727 305.43625 
L 357.007727 23.16625 
" clip-path="url(#p85586a3c33)" style="fill: none; stroke: #cccccc; stroke-linecap: round"/>
     </g>
     <g id="text_5">
      <!-- 2019 -->
      <g style="fill: #262626" transform="translate(346.007727 322.574375) scale(0.11 -0.11)">
       <defs>
        <path id="TimesNewRomanPSMT-39" d="M 338 -88 
L 338 28 
Q 744 34 1094 217 
Q 1444 400 1770 856 
Q 2097 1313 2225 1859 
Q 1734 1544 1338 1544 
Q 891 1544 572 1889 
Q 253 2234 253 2806 
Q 253 3363 572 3797 
Q 956 4325 1575 4325 
Q 2097 4325 2469 3894 
Q 2925 3359 2925 2575 
Q 2925 1869 2578 1258 
Q 2231 647 1613 244 
Q 1109 -88 516 -88 
L 338 -88 
z
M 2275 2091 
Q 2331 2497 2331 2741 
Q 2331 3044 2228 3395 
Q 2125 3747 1936 3934 
Q 1747 4122 1506 4122 
Q 1228 4122 1018 3872 
Q 809 3622 809 3128 
Q 809 2469 1088 2097 
Q 1291 1828 1588 1828 
Q 1731 1828 1928 1897 
Q 2125 1966 2275 2091 
z
" transform="scale(0.015625)"/>
       </defs>
       <use xlink:href="#TimesNewRomanPSMT-32"/>
       <use xlink:href="#TimesNewRomanPSMT-30" transform="translate(50 0)"/>
       <use xlink:href="#TimesNewRomanPSMT-31" transform="translate(100 0)"/>
       <use xlink:href="#TimesNewRomanPSMT-39" transform="translate(150 0)"/>
      </g>
     </g>
    </g>
    <g id="xtick_6">
     <g id="line2d_6">
      <path d="M 427.340682 305.43625 
L 427.340682 23.16625 
" clip-path="url(#p85586a3c33)" style="fill: none; stroke: #cccccc; stroke-linecap: round"/>
     </g>
     <g id="text_6">
      <!-- 2020 -->
      <g style="fill: #262626" transform="translate(416.340682 322.574375) scale(0.11 -0.11)">
       <use xlink:href="#TimesNewRomanPSMT-32"/>
       <use xlink:href="#TimesNewRomanPSMT-30" transform="translate(50 0)"/>
       <use xlink:href="#TimesNewRomanPSMT-32" transform="translate(100 0)"/>
       <use xlink:href="#TimesNewRomanPSMT-30" transform="translate(150 0)"/>
      </g>
     </g>
    </g>
    <g id="xtick_7">
     <g id="line2d_7">
      <path d="M 497.673636 305.43625 
L 497.673636 23.16625 
" clip-path="url(#p85586a3c33)" style="fill: none; stroke: #cccccc; stroke-linecap: round"/>
     </g>
     <g id="text_7">
      <!-- 2021 -->
      <g style="fill: #262626" transform="translate(486.673636 322.574375) scale(0.11 -0.11)">
       <use xlink:href="#TimesNewRomanPSMT-32"/>
       <use xlink:href="#TimesNewRomanPSMT-30" transform="translate(50 0)"/>
       <use xlink:href="#TimesNewRomanPSMT-32" transform="translate(100 0)"/>
       <use xlink:href="#TimesNewRomanPSMT-31" transform="translate(150 0)"/>
      </g>
     </g>
    </g>
    <g id="xtick_8">
     <g id="line2d_8">
      <path d="M 568.006591 305.43625 
L 568.006591 23.16625 
" clip-path="url(#p85586a3c33)" style="fill: none; stroke: #cccccc; stroke-linecap: round"/>
     </g>
     <g id="text_8">
      <!-- 2022 -->
      <g style="fill: #262626" transform="translate(557.006591 322.574375) scale(0.11 -0.11)">
       <use xlink:href="#TimesNewRomanPSMT-32"/>
       <use xlink:href="#TimesNewRomanPSMT-30" transform="translate(50 0)"/>
       <use xlink:href="#TimesNewRomanPSMT-32" transform="translate(100 0)"/>
       <use xlink:href="#TimesNewRomanPSMT-32" transform="translate(150 0)"/>
      </g>
     </g>
    </g>
    <g id="text_9">
     <!-- 年份 -->
     <g style="fill: #262626" transform="translate(309.84125 337.469844) scale(0.12 -0.12)">
      <defs>
       <path id="SimSun-5e74" d="M 1775 2675 
L 1775 1375 
L 3225 1375 
L 3225 2675 
L 1775 2675 
z
M 1825 5275 
L 2375 4925 
L 2150 4825 
Q 1950 4525 1750 4225 
L 5000 4225 
L 5375 4600 
L 5900 4075 
L 3600 4075 
L 3600 2825 
L 4625 2825 
L 4975 3175 
L 5475 2675 
L 3600 2675 
L 3600 1375 
L 5225 1375 
L 5600 1750 
L 6125 1225 
L 3600 1225 
L 3600 275 
Q 3600 -150 3625 -475 
L 3200 -650 
Q 3225 125 3225 475 
L 3225 1225 
L 1100 1225 
Q 775 1225 500 1150 
L 275 1375 
L 1400 1375 
Q 1400 2525 1375 3050 
L 1775 2825 
L 3225 2825 
L 3225 4075 
L 1675 4075 
Q 1425 3700 1150 3387 
Q 875 3075 400 2700 
L 325 2750 
Q 775 3225 1175 3862 
Q 1575 4500 1825 5275 
z
" transform="scale(0.015625)"/>
       <path id="SimSun-4efd" d="M 1625 500 
Q 1625 -125 1650 -500 
L 1250 -650 
Q 1275 -75 1275 375 
L 1275 2975 
Q 825 2350 300 1875 
L 250 1975 
Q 800 2600 1212 3425 
Q 1625 4250 1850 5050 
L 2400 4725 
L 2175 4600 
Q 1725 3750 1475 3275 
L 1825 3100 
L 1625 2925 
L 1625 500 
z
M 2550 2400 
L 4650 2400 
L 4875 2625 
L 5200 2300 
L 5000 2150 
Q 4950 425 4887 50 
Q 4825 -325 4300 -550 
Q 4200 -225 3525 -25 
L 3525 75 
Q 4200 -25 4350 0 
Q 4500 25 4550 162 
Q 4600 300 4675 2250 
L 3575 2250 
Q 3500 1450 3350 950 
Q 3200 450 2850 75 
Q 2500 -300 1725 -650 
L 1700 -550 
Q 2350 -200 2650 225 
Q 2950 650 3062 1187 
Q 3175 1725 3200 2250 
L 3050 2250 
L 2750 2200 
L 2550 2400 
z
M 4150 5175 
L 4575 5000 
L 4375 4850 
Q 4525 4150 4812 3700 
Q 5100 3250 5450 3000 
Q 5800 2750 6125 2650 
L 6125 2575 
Q 5675 2500 5600 2300 
Q 4975 2750 4612 3525 
Q 4250 4300 4150 5175 
z
M 3225 4850 
L 3750 4525 
L 3525 4400 
Q 3125 3475 2737 2950 
Q 2350 2425 1850 2025 
L 1775 2100 
Q 2325 2625 2712 3437 
Q 3100 4250 3225 4850 
z
" transform="scale(0.015625)"/>
      </defs>
      <use xlink:href="#SimSun-5e74"/>
      <use xlink:href="#SimSun-4efd" transform="translate(100 0)"/>
     </g>
    </g>
   </g>
   <g id="matplotlib.axis_2">
    <g id="ytick_1">
     <g id="line2d_9">
      <path d="M 51.059375 259.39251 
L 592.623125 259.39251 
" clip-path="url(#p85586a3c33)" style="fill: none; stroke: #cccccc; stroke-linecap: round"/>
     </g>
     <g id="text_10">
      <!-- 0.48 -->
      <g style="fill: #262626" transform="translate(22.309375 263.211573) scale(0.11 -0.11)">
       <defs>
        <path id="TimesNewRomanPSMT-2e" d="M 800 606 
Q 947 606 1047 504 
Q 1147 403 1147 259 
Q 1147 116 1045 14 
Q 944 -88 800 -88 
Q 656 -88 554 14 
Q 453 116 453 259 
Q 453 406 554 506 
Q 656 606 800 606 
z
" transform="scale(0.015625)"/>
        <path id="TimesNewRomanPSMT-34" d="M 2978 1563 
L 2978 1119 
L 2409 1119 
L 2409 0 
L 1894 0 
L 1894 1119 
L 100 1119 
L 100 1519 
L 2066 4325 
L 2409 4325 
L 2409 1563 
L 2978 1563 
z
M 1894 1563 
L 1894 3666 
L 406 1563 
L 1894 1563 
z
" transform="scale(0.015625)"/>
       </defs>
       <use xlink:href="#TimesNewRomanPSMT-30"/>
       <use xlink:href="#TimesNewRomanPSMT-2e" transform="translate(50 0)"/>
       <use xlink:href="#TimesNewRomanPSMT-34" transform="translate(75 0)"/>
       <use xlink:href="#TimesNewRomanPSMT-38" transform="translate(125 0)"/>
      </g>
     </g>
    </g>
    <g id="ytick_2">
     <g id="line2d_10">
      <path d="M 51.059375 202.16327 
L 592.623125 202.16327 
" clip-path="url(#p85586a3c33)" style="fill: none; stroke: #cccccc; stroke-linecap: round"/>
     </g>
     <g id="text_11">
      <!-- 0.50 -->
      <g style="fill: #262626" transform="translate(22.309375 205.982333) scale(0.11 -0.11)">
       <use xlink:href="#TimesNewRomanPSMT-30"/>
       <use xlink:href="#TimesNewRomanPSMT-2e" transform="translate(50 0)"/>
       <use xlink:href="#TimesNewRomanPSMT-35" transform="translate(75 0)"/>
       <use xlink:href="#TimesNewRomanPSMT-30" transform="translate(125 0)"/>
      </g>
     </g>
    </g>
    <g id="ytick_3">
     <g id="line2d_11">
      <path d="M 51.059375 144.93403 
L 592.623125 144.93403 
" clip-path="url(#p85586a3c33)" style="fill: none; stroke: #cccccc; stroke-linecap: round"/>
     </g>
     <g id="text_12">
      <!-- 0.52 -->
      <g style="fill: #262626" transform="translate(22.309375 148.753092) scale(0.11 -0.11)">
       <use xlink:href="#TimesNewRomanPSMT-30"/>
       <use xlink:href="#TimesNewRomanPSMT-2e" transform="translate(50 0)"/>
       <use xlink:href="#TimesNewRomanPSMT-35" transform="translate(75 0)"/>
       <use xlink:href="#TimesNewRomanPSMT-32" transform="translate(125 0)"/>
      </g>
     </g>
    </g>
    <g id="ytick_4">
     <g id="line2d_12">
      <path d="M 51.059375 87.70479 
L 592.623125 87.70479 
" clip-path="url(#p85586a3c33)" style="fill: none; stroke: #cccccc; stroke-linecap: round"/>
     </g>
     <g id="text_13">
      <!-- 0.54 -->
      <g style="fill: #262626" transform="translate(22.309375 91.523852) scale(0.11 -0.11)">
       <use xlink:href="#TimesNewRomanPSMT-30"/>
       <use xlink:href="#TimesNewRomanPSMT-2e" transform="translate(50 0)"/>
       <use xlink:href="#TimesNewRomanPSMT-35" transform="translate(75 0)"/>
       <use xlink:href="#TimesNewRomanPSMT-34" transform="translate(125 0)"/>
      </g>
     </g>
    </g>
    <g id="ytick_5">
     <g id="line2d_13">
      <path d="M 51.059375 30.47555 
L 592.623125 30.47555 
" clip-path="url(#p85586a3c33)" style="fill: none; stroke: #cccccc; stroke-linecap: round"/>
     </g>
     <g id="text_14">
      <!-- 0.56 -->
      <g style="fill: #262626" transform="translate(22.309375 34.294612) scale(0.11 -0.11)">
       <use xlink:href="#TimesNewRomanPSMT-30"/>
       <use xlink:href="#TimesNewRomanPSMT-2e" transform="translate(50 0)"/>
       <use xlink:href="#TimesNewRomanPSMT-35" transform="translate(75 0)"/>
       <use xlink:href="#TimesNewRomanPSMT-36" transform="translate(125 0)"/>
      </g>
     </g>
    </g>
    <g id="text_15">
     <!-- 碳排放效率年度均值 -->
     <g style="fill: #262626" transform="translate(15.7425 218.30125) rotate(-90) scale(0.12 -0.12)">
      <defs>
       <path id="SimSun-78b3" d="M 4075 3850 
Q 4075 4800 4050 5250 
L 4550 5025 
L 4375 4875 
L 4375 3850 
L 5325 3850 
Q 5325 4475 5300 4950 
L 5825 4700 
L 5625 4550 
Q 5625 4050 5650 3625 
L 5325 3475 
L 5325 3700 
L 3500 3700 
L 3900 3475 
Q 3725 3425 3575 2850 
L 5400 2850 
L 5700 3150 
L 6125 2700 
L 4450 2700 
L 4825 2475 
L 4625 2375 
L 4550 1900 
Q 4625 1475 4800 1125 
Q 5225 1675 5375 2025 
L 5775 1675 
Q 5500 1625 4850 1000 
Q 5125 475 5450 200 
Q 5775 -75 6150 -175 
L 6150 -250 
Q 5850 -275 5675 -500 
Q 5200 -100 4887 437 
Q 4575 975 4500 1625 
Q 4350 750 3912 225 
Q 3475 -300 2675 -625 
L 2625 -550 
Q 3275 -175 3650 325 
Q 4025 825 4137 1462 
Q 4250 2100 4275 2700 
L 3550 2700 
Q 3250 1425 2775 637 
Q 2300 -150 1650 -600 
L 1575 -550 
Q 2250 125 2625 900 
Q 3000 1675 3225 2700 
Q 2975 2700 2700 2625 
L 2475 2850 
L 3250 2850 
Q 3350 3250 3425 3700 
L 3200 3700 
L 3025 3500 
L 2700 3775 
L 2875 3925 
Q 2875 4575 2850 4975 
L 3350 4725 
L 3175 4575 
L 3175 3850 
L 4075 3850 
z
M 3750 1975 
Q 3800 1325 3712 1125 
Q 3625 925 3475 900 
Q 3325 875 3262 912 
Q 3200 950 3200 975 
Q 3200 1050 3325 1200 
Q 3500 1400 3650 1975 
L 3750 1975 
z
M 2275 2675 
Q 2275 950 2300 450 
L 1950 275 
L 1950 500 
L 1225 500 
L 1225 -75 
L 900 -225 
Q 925 825 925 2100 
Q 625 1550 325 1250 
L 250 1300 
Q 975 2475 1250 4300 
L 1075 4300 
Q 750 4300 475 4225 
L 250 4450 
L 1975 4450 
L 2250 4725 
L 2650 4300 
L 1625 4300 
Q 1450 3400 1250 2850 
L 1900 2850 
L 2050 3100 
L 2425 2825 
L 2275 2675 
z
M 1225 2700 
L 1225 650 
L 1950 650 
L 1950 2700 
L 1225 2700 
z
" transform="scale(0.015625)"/>
       <path id="SimSun-6392" d="M 3400 -575 
Q 3425 75 3425 1200 
L 2500 1200 
L 2275 1150 
L 2075 1350 
L 3425 1350 
L 3425 2500 
L 2900 2500 
L 2675 2450 
L 2475 2650 
L 3425 2650 
L 3425 3775 
L 2775 3775 
L 2525 3725 
L 2325 3925 
L 3425 3925 
Q 3425 4850 3400 5225 
L 3975 4925 
L 3750 4750 
L 3750 -400 
L 3400 -575 
z
M 4725 1175 
Q 4725 200 4750 -400 
L 4400 -575 
L 4400 4050 
Q 4400 4750 4375 5200 
L 4975 4925 
L 4725 4750 
L 4725 3900 
L 5450 3900 
L 5700 4150 
L 6100 3750 
L 4725 3750 
L 4725 2625 
L 5375 2625 
L 5625 2875 
L 6025 2475 
L 4725 2475 
L 4725 1325 
L 5450 1325 
L 5725 1600 
L 6150 1175 
L 4725 1175 
z
M 1325 3750 
Q 1325 4775 1300 5250 
L 1875 4975 
L 1650 4825 
L 1650 3750 
L 1850 3750 
L 2100 4000 
L 2500 3600 
L 1650 3600 
L 1650 2575 
L 2425 2925 
L 2475 2850 
L 1650 2325 
L 1650 200 
Q 1675 -325 1125 -550 
Q 1150 -275 475 -25 
L 475 75 
Q 950 0 1137 0 
Q 1325 0 1325 300 
L 1325 2150 
Q 675 1775 550 1575 
L 250 2050 
Q 525 2100 1325 2450 
L 1325 3600 
L 725 3600 
L 475 3550 
L 275 3750 
L 1325 3750 
z
" transform="scale(0.015625)"/>
       <path id="SimSun-653e" d="M 3750 3300 
Q 3950 2300 4400 1375 
Q 4800 2075 5025 3700 
L 3925 3700 
Q 3825 3500 3750 3300 
z
M 4225 1075 
Q 3775 1975 3650 3125 
Q 3300 2400 3225 2375 
L 3150 2425 
Q 3700 3725 3950 5250 
L 4525 4925 
L 4300 4800 
Q 4125 4275 3975 3850 
L 5300 3850 
L 5600 4150 
L 6050 3700 
L 5400 3700 
Q 5175 1975 4600 1075 
Q 5325 125 6150 -75 
L 6150 -175 
Q 5700 -175 5625 -425 
Q 4925 50 4400 800 
Q 3550 -150 2325 -600 
L 2300 -525 
Q 3550 125 4225 1075 
z
M 1350 5125 
Q 1925 4825 2062 4675 
Q 2200 4525 2200 4400 
Q 2200 4325 2162 4212 
Q 2125 4100 2012 4075 
Q 1900 4050 1825 4325 
Q 1725 4575 1300 5050 
L 1350 5125 
z
M 1450 350 
Q 2000 225 2150 237 
Q 2300 250 2362 525 
Q 2425 800 2462 1375 
Q 2500 1950 2525 2600 
L 1550 2600 
Q 1500 1525 1262 812 
Q 1025 100 300 -550 
L 250 -475 
Q 825 275 987 950 
Q 1150 1625 1175 2262 
Q 1200 2900 1200 3725 
L 725 3725 
L 500 3675 
L 300 3875 
L 2725 3875 
L 3000 4150 
L 3425 3725 
L 1550 3725 
L 1550 2750 
L 2500 2750 
L 2725 2975 
L 3050 2650 
L 2850 2500 
Q 2775 800 2725 537 
Q 2675 275 2600 125 
Q 2525 -25 2400 -125 
Q 2275 -225 2000 -300 
Q 1950 75 1425 250 
L 1450 350 
z
" transform="scale(0.015625)"/>
       <path id="SimSun-6548" d="M 575 4025 
L 1975 4025 
Q 1950 4250 1837 4500 
Q 1725 4750 1450 5100 
L 1525 5150 
Q 2000 4875 2175 4687 
Q 2350 4500 2350 4350 
Q 2350 4200 2200 4025 
L 2850 4025 
L 3150 4325 
L 3600 3875 
L 1400 3875 
Q 1075 3875 800 3800 
L 575 4025 
z
M 1425 3675 
L 1900 3350 
L 1675 3250 
Q 950 2225 475 1875 
L 400 1925 
Q 1075 2700 1425 3675 
z
M 2300 3575 
L 2350 3650 
Q 2900 3400 3075 3250 
Q 3250 3100 3250 2950 
Q 3250 2850 3187 2700 
Q 3125 2550 3075 2550 
Q 3000 2550 2900 2775 
Q 2725 3150 2300 3575 
z
M 1250 2225 
Q 1675 1950 2075 1625 
Q 2375 2250 2450 2650 
L 2900 2275 
Q 2725 2225 2300 1425 
Q 2700 1075 2862 862 
Q 3025 650 3025 475 
Q 3025 375 2962 237 
Q 2900 100 2875 100 
Q 2800 100 2700 350 
Q 2525 700 2150 1175 
Q 1425 100 475 -475 
L 425 -400 
Q 1300 300 1950 1400 
Q 1525 1850 1200 2150 
L 1250 2225 
z
M 4050 3500 
L 3950 3250 
Q 4150 2050 4525 1275 
Q 4950 2100 5125 3500 
L 4050 3500 
z
M 4175 5250 
L 4775 4950 
Q 4600 4875 4525 4725 
Q 4450 4575 4100 3650 
L 5375 3650 
L 5675 3950 
L 6125 3500 
L 5475 3500 
Q 5275 1975 4700 950 
Q 5350 0 6100 -125 
L 6100 -225 
Q 5650 -250 5550 -500 
Q 4975 -75 4475 725 
Q 3650 -125 2450 -625 
L 2400 -550 
Q 3650 125 4325 1000 
Q 3925 2025 3850 3050 
Q 3550 2400 3225 2000 
L 3150 2050 
Q 3825 3350 4175 5250 
z
" transform="scale(0.015625)"/>
       <path id="SimSun-7387" d="M 875 3725 
L 925 3800 
Q 1375 3650 1550 3525 
Q 1725 3400 1725 3250 
Q 1725 3175 1662 3025 
Q 1600 2875 1550 2875 
Q 1500 2875 1425 3050 
Q 1275 3325 875 3725 
z
M 550 1850 
Q 875 1925 2000 2575 
L 2050 2500 
Q 1675 2225 1337 1937 
Q 1000 1650 875 1425 
L 550 1850 
z
M 5200 3450 
Q 4800 3150 4275 2800 
L 4225 2875 
Q 4775 3400 5050 3925 
L 5450 3525 
L 5200 3450 
z
M 4325 2500 
L 4350 2575 
Q 5225 2350 5375 2212 
Q 5525 2075 5525 1900 
Q 5525 1775 5487 1662 
Q 5450 1550 5400 1550 
Q 5325 1550 5200 1800 
Q 4975 2150 4325 2500 
z
M 3150 3900 
Q 2500 3300 2300 3150 
Q 2800 3150 3400 3175 
Q 3700 3500 3850 3825 
L 4250 3450 
Q 4050 3400 3450 2825 
Q 2850 2250 2475 1950 
Q 3150 1975 3850 2000 
Q 3750 2175 3550 2450 
L 3600 2500 
Q 4050 2250 4200 2100 
Q 4350 1950 4350 1850 
Q 4350 1775 4250 1625 
Q 4150 1475 4100 1475 
Q 4075 1475 4050 1550 
Q 4000 1700 3900 1900 
Q 3650 1875 3075 1800 
L 3500 1550 
L 3325 1425 
L 3325 975 
L 5325 975 
L 5650 1300 
L 6100 825 
L 3325 825 
Q 3325 -275 3350 -525 
L 2975 -650 
Q 3000 0 3000 825 
L 1125 825 
Q 800 825 525 750 
L 300 975 
L 3000 975 
L 3000 1775 
Q 2450 1700 2200 1525 
L 1950 1950 
Q 2275 1950 2675 2350 
Q 3075 2750 3325 3050 
Q 2400 2950 2150 2775 
L 1950 3175 
Q 2150 3150 2475 3575 
Q 2800 4000 2900 4225 
L 1450 4225 
Q 1125 4225 850 4150 
L 625 4375 
L 3100 4375 
Q 3050 4800 2675 5200 
L 2725 5250 
Q 3225 5050 3337 4912 
Q 3450 4775 3450 4700 
Q 3450 4550 3250 4375 
L 5025 4375 
L 5350 4675 
L 5775 4225 
L 3050 4225 
L 3375 3950 
L 3150 3900 
z
" transform="scale(0.015625)"/>
       <path id="SimSun-5ea6" d="M 2550 2025 
Q 2575 2525 2575 3175 
L 1925 3175 
L 1625 3125 
L 1425 3325 
L 2575 3325 
Q 2575 3700 2550 4150 
L 3100 3875 
L 2900 3750 
L 2900 3325 
L 4300 3325 
Q 4300 3750 4275 4125 
L 4850 3875 
L 4625 3725 
L 4625 3325 
L 5100 3325 
L 5425 3650 
L 5900 3175 
L 4625 3175 
Q 4625 2450 4650 2225 
L 4300 2075 
L 4300 2300 
L 2900 2300 
L 2900 2175 
L 2550 2025 
z
M 4875 1500 
Q 4300 775 3900 425 
Q 4700 -75 6025 -125 
L 6025 -225 
Q 5625 -300 5550 -550 
Q 4375 -325 3675 225 
Q 2475 -450 1075 -625 
L 1050 -525 
Q 2375 -275 3450 450 
Q 2975 925 2575 1625 
L 2325 1625 
L 2100 1575 
L 1900 1775 
L 4525 1775 
L 4750 2000 
L 5125 1625 
L 4875 1500 
z
M 2700 1625 
Q 3175 975 3650 625 
Q 4150 1100 4500 1625 
L 2700 1625 
z
M 2900 3175 
L 2900 2450 
L 4300 2450 
L 4300 3175 
L 2900 3175 
z
M 975 4650 
L 1400 4400 
L 3375 4400 
Q 3350 4550 3262 4725 
Q 3175 4900 2900 5225 
L 2975 5275 
Q 3550 5025 3637 4887 
Q 3725 4750 3725 4725 
Q 3725 4575 3525 4400 
L 5150 4400 
L 5500 4750 
L 6000 4250 
L 1375 4250 
Q 1400 2750 1287 1912 
Q 1175 1075 925 475 
Q 675 -125 300 -625 
L 225 -575 
Q 725 300 862 1250 
Q 1000 2200 1012 3187 
Q 1025 4175 975 4650 
z
" transform="scale(0.015625)"/>
       <path id="SimSun-5747" d="M 4075 4875 
L 3825 4725 
Q 3650 4325 3475 3925 
L 5400 3925 
L 5625 4175 
L 5975 3850 
L 5775 3675 
Q 5725 800 5612 337 
Q 5500 -125 5275 -312 
Q 5050 -500 4725 -625 
Q 4625 -250 3800 -25 
L 3800 100 
Q 4575 -50 4887 -12 
Q 5200 25 5287 750 
Q 5375 1475 5425 3775 
L 3425 3775 
Q 2975 2950 2500 2450 
L 2400 2500 
Q 2875 3200 3150 3950 
Q 3425 4700 3475 5200 
L 4075 4875 
z
M 3500 3175 
Q 4075 2850 4237 2637 
Q 4400 2425 4400 2300 
Q 4400 2175 4287 2025 
Q 4175 1875 4125 1875 
Q 4050 1875 3975 2125 
Q 3875 2500 3425 3100 
L 3500 3175 
z
M 4975 1750 
Q 4525 1425 3850 1000 
Q 3150 550 2900 225 
L 2525 700 
Q 2875 800 3462 1075 
Q 4050 1350 4925 1850 
L 4975 1750 
z
M 1700 1100 
L 2775 1500 
L 2825 1375 
Q 1875 925 1325 637 
Q 775 350 650 175 
L 275 675 
Q 950 850 1350 1000 
L 1350 3150 
L 750 3150 
L 525 3100 
L 325 3300 
L 1350 3300 
Q 1350 4700 1325 5175 
L 1925 4875 
L 1700 4675 
L 1700 3300 
L 1975 3300 
L 2250 3575 
L 2650 3150 
L 1700 3150 
L 1700 1100 
z
" transform="scale(0.015625)"/>
       <path id="SimSun-503c" d="M 1525 650 
Q 1525 -225 1550 -525 
L 1175 -650 
Q 1200 250 1200 550 
L 1200 3025 
Q 750 2300 325 1850 
L 250 1900 
Q 725 2625 1100 3525 
Q 1475 4425 1675 5200 
L 2200 4875 
L 1950 4725 
Q 1550 3800 1425 3475 
L 1725 3300 
L 1525 3150 
L 1525 650 
z
M 2875 3225 
L 2875 2475 
L 4800 2475 
L 4800 3225 
L 2875 3225 
z
M 2875 2325 
L 2875 1575 
L 4800 1575 
L 4800 2325 
L 2875 2325 
z
M 2875 1425 
L 2875 675 
L 4800 675 
L 4800 1425 
L 2875 1425 
z
M 2875 525 
L 2875 -225 
L 4800 -225 
L 4800 525 
L 2875 525 
z
M 3550 4250 
Q 3575 4825 3550 5225 
L 4125 4950 
L 3925 4800 
L 3900 4250 
L 5025 4250 
L 5350 4575 
L 5825 4100 
L 3900 4100 
L 3875 3375 
L 4750 3375 
L 4975 3625 
L 5350 3300 
L 5125 3150 
L 5125 -225 
L 5350 -225 
L 5675 100 
L 6150 -375 
L 2450 -375 
Q 2125 -375 1850 -450 
L 1625 -225 
L 2550 -225 
L 2550 2550 
Q 2550 2850 2525 3575 
L 2875 3375 
L 3525 3375 
L 3550 4100 
L 2800 4100 
Q 2475 4100 2200 4025 
L 1975 4250 
L 3550 4250 
z
" transform="scale(0.015625)"/>
      </defs>
      <use xlink:href="#SimSun-78b3"/>
      <use xlink:href="#SimSun-6392" transform="translate(100 0)"/>
      <use xlink:href="#SimSun-653e" transform="translate(200 0)"/>
      <use xlink:href="#SimSun-6548" transform="translate(300 0)"/>
      <use xlink:href="#SimSun-7387" transform="translate(400 0)"/>
      <use xlink:href="#SimSun-5e74" transform="translate(500 0)"/>
      <use xlink:href="#SimSun-5ea6" transform="translate(600 0)"/>
      <use xlink:href="#SimSun-5747" transform="translate(700 0)"/>
      <use xlink:href="#SimSun-503c" transform="translate(800 0)"/>
     </g>
    </g>
   </g>
   <g id="FillBetweenPolyCollection_1"/>
   <g id="line2d_14">
    <path d="M 75.675909 241.842683 
L 146.008864 292.605795 
L 216.341818 288.511307 
L 286.674773 221.1082 
L 357.007727 157.91312 
L 427.340682 135.808947 
L 497.673636 92.559671 
L 568.006591 35.996705 
" clip-path="url(#p85586a3c33)" style="fill: none; stroke: #2e8b57; stroke-width: 2.4; stroke-linecap: round"/>
    <defs>
     <path id="m228f00b4de" d="M 0 3 
C 0.795609 3 1.55874 2.683901 2.12132 2.12132 
C 2.683901 1.55874 3 0.795609 3 0 
C 3 -0.795609 2.683901 -1.55874 2.12132 -2.12132 
C 1.55874 -2.683901 0.795609 -3 0 -3 
C -0.795609 -3 -1.55874 -2.683901 -2.12132 -2.12132 
C -2.683901 -1.55874 -3 -0.795609 -3 0 
C -3 0.795609 -2.683901 1.55874 -2.12132 2.12132 
C -1.55874 2.683901 -0.795609 3 0 3 
z
" style="stroke: #ffffff; stroke-width: 0.75"/>
    </defs>
    <g clip-path="url(#p85586a3c33)">
     <use xlink:href="#m228f00b4de" x="75.675909" y="241.842683" style="fill: #2e8b57; stroke: #ffffff; stroke-width: 0.75"/>
     <use xlink:href="#m228f00b4de" x="146.008864" y="292.605795" style="fill: #2e8b57; stroke: #ffffff; stroke-width: 0.75"/>
     <use xlink:href="#m228f00b4de" x="216.341818" y="288.511307" style="fill: #2e8b57; stroke: #ffffff; stroke-width: 0.75"/>
     <use xlink:href="#m228f00b4de" x="286.674773" y="221.1082" style="fill: #2e8b57; stroke: #ffffff; stroke-width: 0.75"/>
     <use xlink:href="#m228f00b4de" x="357.007727" y="157.91312" style="fill: #2e8b57; stroke: #ffffff; stroke-width: 0.75"/>
     <use xlink:href="#m228f00b4de" x="427.340682" y="135.808947" style="fill: #2e8b57; stroke: #ffffff; stroke-width: 0.75"/>
     <use xlink:href="#m228f00b4de" x="497.673636" y="92.559671" style="fill: #2e8b57; stroke: #ffffff; stroke-width: 0.75"/>
     <use xlink:href="#m228f00b4de" x="568.006591" y="35.996705" style="fill: #2e8b57; stroke: #ffffff; stroke-width: 0.75"/>
    </g>
   </g>
   <g id="patch_3">
    <path d="M 51.059375 305.43625 
L 51.059375 23.16625 
" style="fill: none; stroke: #cccccc; stroke-width: 1.25; stroke-linejoin: miter; stroke-linecap: square"/>
   </g>
   <g id="patch_4">
    <path d="M 592.623125 305.43625 
L 592.623125 23.16625 
" style="fill: none; stroke: #cccccc; stroke-width: 1.25; stroke-linejoin: miter; stroke-linecap: square"/>
   </g>
   <g id="patch_5">
    <path d="M 51.059375 305.43625 
L 592.623125 305.43625 
" style="fill: none; stroke: #cccccc; stroke-width: 1.25; stroke-linejoin: miter; stroke-linecap: square"/>
   </g>
   <g id="patch_6">
    <path d="M 51.059375 23.16625 
L 592.623125 23.16625 
" style="fill: none; stroke: #cccccc; stroke-width: 1.25; stroke-linejoin: miter; stroke-linecap: square"/>
   </g>
   <g id="text_16">
    <!-- 全国碳排放效率年度均值折线图 -->
    <g style="fill: #262626" transform="translate(223.84125 17.16625) scale(0.14 -0.14)">
     <defs>
      <path id="SimSun-5168" d="M 3125 4725 
Q 2375 3475 1525 2800 
L 4225 2800 
L 4500 3050 
Q 3675 3725 3125 4725 
z
M 2900 5250 
L 3425 4950 
L 3225 4825 
Q 3550 4275 4275 3650 
Q 5000 3025 6100 2850 
L 6100 2750 
Q 5725 2675 5625 2400 
Q 5075 2600 4500 3050 
L 4925 2650 
L 3350 2650 
L 3350 1425 
L 4400 1425 
L 4700 1725 
L 5150 1275 
L 3350 1275 
L 3350 -150 
L 5075 -150 
L 5425 225 
L 5950 -300 
L 1325 -300 
Q 1000 -300 725 -375 
L 500 -150 
L 3000 -150 
L 3000 1275 
L 2075 1275 
Q 1750 1275 1475 1200 
L 1250 1425 
L 3000 1425 
L 3000 2650 
L 2200 2650 
Q 1875 2650 1625 2575 
L 1450 2750 
Q 900 2350 275 2100 
L 250 2175 
Q 1225 2750 1875 3550 
Q 2525 4350 2900 5250 
z
" transform="scale(0.015625)"/>
      <path id="SimSun-56fd" d="M 1550 4150 
L 4250 4150 
L 4550 4450 
L 5000 4000 
L 3350 4000 
L 3350 2825 
L 4025 2825 
L 4325 3125 
L 4775 2675 
L 3350 2675 
L 3350 1025 
L 4200 1025 
L 4550 1375 
L 5050 875 
L 2225 875 
Q 1900 875 1625 800 
L 1400 1025 
L 3000 1025 
L 3000 2675 
L 2325 2675 
L 1975 2600 
L 1750 2825 
L 3000 2825 
L 3000 4000 
L 2125 4000 
L 1775 3925 
L 1550 4150 
z
M 3625 2475 
Q 4175 2225 4337 2075 
Q 4500 1925 4500 1775 
Q 4500 1650 4425 1512 
Q 4350 1375 4300 1375 
Q 4225 1375 4150 1600 
Q 4025 1925 3550 2400 
L 3625 2475 
z
M 875 -550 
Q 900 0 900 525 
L 900 4075 
Q 900 4550 875 5175 
L 1250 4950 
L 5150 4950 
L 5350 5175 
L 5750 4850 
L 5525 4700 
L 5525 750 
Q 5525 250 5550 -275 
L 5175 -425 
L 5175 75 
L 1250 75 
L 1250 -375 
L 875 -550 
z
M 1250 4800 
L 1250 225 
L 5175 225 
L 5175 4800 
L 1250 4800 
z
" transform="scale(0.015625)"/>
      <path id="SimSun-6298" d="M 4625 -625 
Q 4650 125 4650 500 
L 4650 2825 
L 3450 2825 
Q 3400 525 2000 -600 
L 1950 -525 
Q 2475 50 2775 925 
Q 3075 1800 3087 2950 
Q 3100 4100 3075 4750 
L 3450 4500 
Q 5075 4800 5425 5125 
L 5850 4650 
Q 5425 4625 4850 4550 
Q 4275 4475 3450 4375 
L 3450 2975 
L 5300 2975 
L 5625 3300 
L 6100 2825 
L 5000 2825 
L 5000 300 
Q 5000 -75 5025 -475 
L 4625 -625 
z
M 300 1975 
Q 500 1975 1550 2375 
L 1550 3625 
L 825 3625 
L 525 3575 
L 325 3775 
L 1550 3775 
Q 1550 4600 1525 5225 
L 2125 4950 
L 1900 4775 
L 1900 3775 
L 2225 3775 
L 2500 4050 
L 2925 3625 
L 1900 3625 
L 1900 2500 
L 2825 2850 
L 2850 2750 
L 1900 2250 
L 1900 225 
Q 1925 -375 1350 -575 
Q 1350 -250 600 25 
L 600 125 
Q 1150 25 1350 25 
Q 1550 25 1550 300 
L 1550 2075 
Q 675 1650 600 1500 
L 300 1975 
z
" transform="scale(0.015625)"/>
      <path id="SimSun-7ebf" d="M 3900 3400 
Q 3900 3050 3950 2475 
L 5125 2600 
L 5450 2975 
L 5950 2550 
L 3975 2350 
Q 4050 1575 4225 1125 
Q 4775 1625 5100 2175 
L 5550 1725 
L 5325 1700 
Q 4850 1250 4375 800 
Q 4825 175 5425 -75 
L 5775 1125 
L 5875 1100 
Q 5825 525 5812 150 
Q 5800 -225 5925 -450 
Q 5950 -500 5950 -525 
Q 5950 -625 5687 -587 
Q 5425 -550 4987 -287 
Q 4550 -25 4100 550 
Q 3650 250 3187 50 
Q 2725 -150 2025 -350 
L 2000 -250 
Q 3075 150 3925 850 
Q 3700 1525 3625 2300 
L 2600 2175 
L 2400 2075 
L 2125 2275 
L 3600 2425 
Q 3575 2775 3550 3375 
L 2825 3325 
L 2675 3225 
L 2450 3425 
L 3550 3500 
Q 3525 4375 3500 5250 
L 4075 4975 
L 3875 4800 
Q 3875 4275 3900 3525 
L 4975 3625 
L 5300 4000 
L 5800 3550 
L 3900 3400 
z
M 4275 4825 
L 4300 4900 
Q 5075 4700 5150 4562 
Q 5225 4425 5225 4325 
Q 5225 4200 5175 4075 
Q 5125 3950 5075 3950 
Q 5025 3950 4925 4150 
Q 4750 4425 4275 4825 
z
M 1525 5150 
L 2025 4825 
Q 1825 4750 1600 4325 
Q 1375 3875 775 3050 
L 1800 3150 
Q 2100 3650 2275 4150 
L 2725 3825 
Q 2550 3725 2125 3100 
Q 1700 2475 1025 1600 
Q 1375 1650 2575 1875 
L 2575 1775 
Q 1900 1600 1525 1462 
Q 1150 1325 775 1075 
L 475 1600 
Q 750 1675 1112 2137 
Q 1475 2600 1750 3050 
Q 1475 3000 1175 2912 
Q 875 2825 625 2600 
L 350 3075 
Q 625 3125 987 3787 
Q 1350 4450 1525 5150 
z
M 325 375 
Q 1025 475 1450 550 
Q 1875 625 2825 825 
L 2850 725 
Q 1725 400 1212 212 
Q 700 25 575 -100 
L 325 375 
z
" transform="scale(0.015625)"/>
      <path id="SimSun-56fe" d="M 5675 4700 
L 5675 550 
Q 5675 50 5700 -350 
L 5325 -550 
L 5325 -50 
L 1250 -50 
L 1250 -450 
L 875 -600 
Q 900 -100 900 425 
L 900 4200 
Q 900 4625 875 5150 
L 1250 4925 
L 5275 4925 
L 5450 5175 
L 5850 4850 
L 5675 4700 
z
M 1250 4775 
L 1250 1700 
Q 2425 2200 3075 2825 
Q 2750 3275 2500 3850 
Q 2100 3225 1650 2800 
L 1575 2850 
Q 1975 3375 2250 3937 
Q 2525 4500 2575 4775 
L 1250 4775 
z
M 1250 100 
L 5325 100 
L 5325 4775 
L 2625 4775 
L 3050 4550 
L 2900 4475 
Q 2750 4250 2675 4125 
L 4000 4125 
L 4175 4350 
L 4550 4000 
L 4350 3875 
Q 3925 3275 3475 2775 
Q 4250 2200 5250 2100 
L 5250 2000 
Q 4875 1975 4775 1700 
Q 3900 2025 3250 2600 
Q 2375 1900 1250 1575 
L 1250 100 
z
M 2600 3975 
Q 2950 3350 3275 3000 
Q 3625 3400 3975 3975 
L 2600 3975 
z
M 2750 2050 
Q 3350 1925 3600 1825 
Q 3850 1725 3825 1487 
Q 3800 1250 3725 1250 
Q 3650 1250 3550 1375 
Q 3300 1625 2725 1975 
L 2750 2050 
z
M 2275 1150 
Q 3425 1025 3787 912 
Q 4150 800 4175 525 
Q 4200 250 4075 250 
Q 4000 250 3825 400 
Q 3450 700 2275 1050 
L 2275 1150 
z
" transform="scale(0.015625)"/>
     </defs>
     <use xlink:href="#SimSun-5168"/>
     <use xlink:href="#SimSun-56fd" transform="translate(100 0)"/>
     <use xlink:href="#SimSun-78b3" transform="translate(200 0)"/>
     <use xlink:href="#SimSun-6392" transform="translate(300 0)"/>
     <use xlink:href="#SimSun-653e" transform="translate(400 0)"/>
     <use xlink:href="#SimSun-6548" transform="translate(500 0)"/>
     <use xlink:href="#SimSun-7387" transform="translate(600 0)"/>
     <use xlink:href="#SimSun-5e74" transform="translate(700 0)"/>
     <use xlink:href="#SimSun-5ea6" transform="translate(800 0)"/>
     <use xlink:href="#SimSun-5747" transform="translate(900 0)"/>
     <use xlink:href="#SimSun-503c" transform="translate(1000 0)"/>
     <use xlink:href="#SimSun-6298" transform="translate(1100 0)"/>
     <use xlink:href="#SimSun-7ebf" transform="translate(1200 0)"/>
     <use xlink:href="#SimSun-56fe" transform="translate(1300 0)"/>
    </g>
   </g>
   <g id="legend_1">
    <g id="patch_7">
     <path d="M 58.759375 47.649844 
L 159.959375 47.649844 
Q 162.159375 47.649844 162.159375 45.449844 
L 162.159375 30.86625 
Q 162.159375 28.66625 159.959375 28.66625 
L 58.759375 28.66625 
Q 56.559375 28.66625 56.559375 30.86625 
L 56.559375 45.449844 
Q 56.559375 47.649844 58.759375 47.649844 
z
" style="fill: #ffffff; opacity: 0.8; stroke: #cccccc; stroke-linejoin: miter"/>
    </g>
    <g id="line2d_15">
     <path d="M 60.959375 37.046875 
L 71.959375 37.046875 
L 82.959375 37.046875 
" style="fill: none; stroke: #2e8b57; stroke-width: 2.4; stroke-linecap: round"/>
     <g>
      <use xlink:href="#m228f00b4de" x="71.959375" y="37.046875" style="fill: #2e8b57; stroke: #ffffff; stroke-width: 0.75"/>
     </g>
    </g>
    <g id="text_17">
     <!-- 全国年度均值 -->
     <g style="fill: #262626" transform="translate(91.759375 40.896875) scale(0.11 -0.11)">
      <use xlink:href="#SimSun-5168"/>
      <use xlink:href="#SimSun-56fd" transform="translate(100 0)"/>
      <use xlink:href="#SimSun-5e74" transform="translate(200 0)"/>
      <use xlink:href="#SimSun-5ea6" transform="translate(300 0)"/>
      <use xlink:href="#SimSun-5747" transform="translate(400 0)"/>
      <use xlink:href="#SimSun-503c" transform="translate(500 0)"/>
     </g>
    </g>
   </g>
  </g>
 </g>
 <defs>
  <clipPath id="p85586a3c33">
   <rect x="51.059375" y="23.16625" width="541.56375" height="282.27"/>
  </clipPath>
 </defs>
</svg>
