<?xml version="1.0" encoding="utf-8" standalone="no"?>
<!DOCTYPE svg PUBLIC "-//W3C//DTD SVG 1.1//EN"
  "http://www.w3.org/Graphics/SVG/1.1/DTD/svg11.dtd">
<svg xmlns:xlink="http://www.w3.org/1999/xlink" width="671.67625pt" height="404.936094pt" viewBox="0 0 671.67625 404.936094" xmlns="http://www.w3.org/2000/svg" version="1.1">
 <metadata>
  <rdf:RDF xmlns:dc="http://purl.org/dc/elements/1.1/" xmlns:cc="http://creativecommons.org/ns#" xmlns:rdf="http://www.w3.org/1999/02/22-rdf-syntax-ns#">
   <cc:Work>
    <dc:type rdf:resource="http://purl.org/dc/dcmitype/StillImage"/>
    <dc:date>2026-05-06T22:05:45.117284</dc:date>
    <dc:format>image/svg+xml</dc:format>
    <dc:creator>
     <cc:Agent>
      <dc:title>Matplotlib v3.10.8, https://matplotlib.org/</dc:title>
     </cc:Agent>
    </dc:creator>
   </cc:Work>
  </rdf:RDF>
 </metadata>
 <defs>
  <style type="text/css">*{stroke-linejoin: round; stroke-linecap: butt}</style>
 </defs>
 <g id="figure_1">
  <g id="patch_1">
   <path d="M 0 404.936094 
L 671.67625 404.936094 
L 671.67625 0 
L 0 0 
z
" style="fill: #ffffff"/>
  </g>
  <g id="axes_1">
   <g id="patch_2">
    <path d="M 45.5125 363.1825 
L 664.47625 363.1825 
L 664.47625 23.16625 
L 45.5125 23.16625 
z
" style="fill: #ffffff"/>
   </g>
   <g id="matplotlib.axis_1">
    <g id="xtick_1">
     <g id="line2d_1">
      <path d="M 45.5125 363.1825 
L 45.5125 23.16625 
" clip-path="url(#p47cdb5ac06)" style="fill: none; stroke: #cccccc; stroke-linecap: round"/>
     </g>
     <g id="text_1">
      <!-- 0.0 -->
      <g style="fill: #262626" transform="translate(38.6375 380.320625) scale(0.11 -0.11)">
       <defs>
        <path id="TimesNewRomanPSMT-30" d="M 231 2094 
Q 231 2819 450 3342 
Q 669 3866 1031 4122 
Q 1313 4325 1613 4325 
Q 2100 4325 2488 3828 
Q 2972 3213 2972 2159 
Q 2972 1422 2759 906 
Q 2547 391 2217 158 
Q 1888 -75 1581 -75 
Q 975 -75 572 641 
Q 231 1244 231 2094 
z
M 844 2016 
Q 844 1141 1059 588 
Q 1238 122 1591 122 
Q 1759 122 1940 273 
Q 2122 425 2216 781 
Q 2359 1319 2359 2297 
Q 2359 3022 2209 3506 
Q 2097 3866 1919 4016 
Q 1791 4119 1609 4119 
Q 1397 4119 1231 3928 
Q 1006 3669 925 3112 
Q 844 2556 844 2016 
z
" transform="scale(0.015625)"/>
        <path id="TimesNewRomanPSMT-2e" d="M 800 606 
Q 947 606 1047 504 
Q 1147 403 1147 259 
Q 1147 116 1045 14 
Q 944 -88 800 -88 
Q 656 -88 554 14 
Q 453 116 453 259 
Q 453 406 554 506 
Q 656 606 800 606 
z
" transform="scale(0.015625)"/>
       </defs>
       <use xlink:href="#TimesNewRomanPSMT-30"/>
       <use xlink:href="#TimesNewRomanPSMT-2e" transform="translate(50 0)"/>
       <use xlink:href="#TimesNewRomanPSMT-30" transform="translate(75 0)"/>
      </g>
     </g>
    </g>
    <g id="xtick_2">
     <g id="line2d_2">
      <path d="M 138.707477 363.1825 
L 138.707477 23.16625 
" clip-path="url(#p47cdb5ac06)" style="fill: none; stroke: #cccccc; stroke-linecap: round"/>
     </g>
     <g id="text_2">
      <!-- 0.2 -->
      <g style="fill: #262626" transform="translate(131.832477 380.320625) scale(0.11 -0.11)">
       <defs>
        <path id="TimesNewRomanPSMT-32" d="M 2934 816 
L 2638 0 
L 138 0 
L 138 116 
Q 1241 1122 1691 1759 
Q 2141 2397 2141 2925 
Q 2141 3328 1894 3587 
Q 1647 3847 1303 3847 
Q 991 3847 742 3664 
Q 494 3481 375 3128 
L 259 3128 
Q 338 3706 661 4015 
Q 984 4325 1469 4325 
Q 1984 4325 2329 3994 
Q 2675 3663 2675 3213 
Q 2675 2891 2525 2569 
Q 2294 2063 1775 1497 
Q 997 647 803 472 
L 1909 472 
Q 2247 472 2383 497 
Q 2519 522 2628 598 
Q 2738 675 2819 816 
L 2934 816 
z
" transform="scale(0.015625)"/>
       </defs>
       <use xlink:href="#TimesNewRomanPSMT-30"/>
       <use xlink:href="#TimesNewRomanPSMT-2e" transform="translate(50 0)"/>
       <use xlink:href="#TimesNewRomanPSMT-32" transform="translate(75 0)"/>
      </g>
     </g>
    </g>
    <g id="xtick_3">
     <g id="line2d_3">
      <path d="M 231.902454 363.1825 
L 231.902454 23.16625 
" clip-path="url(#p47cdb5ac06)" style="fill: none; stroke: #cccccc; stroke-linecap: round"/>
     </g>
     <g id="text_3">
      <!-- 0.4 -->
      <g style="fill: #262626" transform="translate(225.027454 380.320625) scale(0.11 -0.11)">
       <defs>
        <path id="TimesNewRomanPSMT-34" d="M 2978 1563 
L 2978 1119 
L 2409 1119 
L 2409 0 
L 1894 0 
L 1894 1119 
L 100 1119 
L 100 1519 
L 2066 4325 
L 2409 4325 
L 2409 1563 
L 2978 1563 
z
M 1894 1563 
L 1894 3666 
L 406 1563 
L 1894 1563 
z
" transform="scale(0.015625)"/>
       </defs>
       <use xlink:href="#TimesNewRomanPSMT-30"/>
       <use xlink:href="#TimesNewRomanPSMT-2e" transform="translate(50 0)"/>
       <use xlink:href="#TimesNewRomanPSMT-34" transform="translate(75 0)"/>
      </g>
     </g>
    </g>
    <g id="xtick_4">
     <g id="line2d_4">
      <path d="M 325.09743 363.1825 
L 325.09743 23.16625 
" clip-path="url(#p47cdb5ac06)" style="fill: none; stroke: #cccccc; stroke-linecap: round"/>
     </g>
     <g id="text_4">
      <!-- 0.6 -->
      <g style="fill: #262626" transform="translate(318.22243 380.320625) scale(0.11 -0.11)">
       <defs>
        <path id="TimesNewRomanPSMT-36" d="M 2869 4325 
L 2869 4209 
Q 2456 4169 2195 4045 
Q 1934 3922 1679 3669 
Q 1425 3416 1258 3105 
Q 1091 2794 978 2366 
Q 1428 2675 1881 2675 
Q 2316 2675 2634 2325 
Q 2953 1975 2953 1425 
Q 2953 894 2631 456 
Q 2244 -75 1606 -75 
Q 1172 -75 869 213 
Q 275 772 275 1663 
Q 275 2231 503 2743 
Q 731 3256 1154 3653 
Q 1578 4050 1965 4187 
Q 2353 4325 2688 4325 
L 2869 4325 
z
M 925 2138 
Q 869 1716 869 1456 
Q 869 1156 980 804 
Q 1091 453 1309 247 
Q 1469 100 1697 100 
Q 1969 100 2183 356 
Q 2397 613 2397 1088 
Q 2397 1622 2184 2012 
Q 1972 2403 1581 2403 
Q 1463 2403 1327 2353 
Q 1191 2303 925 2138 
z
" transform="scale(0.015625)"/>
       </defs>
       <use xlink:href="#TimesNewRomanPSMT-30"/>
       <use xlink:href="#TimesNewRomanPSMT-2e" transform="translate(50 0)"/>
       <use xlink:href="#TimesNewRomanPSMT-36" transform="translate(75 0)"/>
      </g>
     </g>
    </g>
    <g id="xtick_5">
     <g id="line2d_5">
      <path d="M 418.292407 363.1825 
L 418.292407 23.16625 
" clip-path="url(#p47cdb5ac06)" style="fill: none; stroke: #cccccc; stroke-linecap: round"/>
     </g>
     <g id="text_5">
      <!-- 0.8 -->
      <g style="fill: #262626" transform="translate(411.417407 380.320625) scale(0.11 -0.11)">
       <defs>
        <path id="TimesNewRomanPSMT-38" d="M 1228 2134 
Q 725 2547 579 2797 
Q 434 3047 434 3316 
Q 434 3728 753 4026 
Q 1072 4325 1600 4325 
Q 2113 4325 2425 4047 
Q 2738 3769 2738 3413 
Q 2738 3175 2569 2928 
Q 2400 2681 1866 2347 
Q 2416 1922 2594 1678 
Q 2831 1359 2831 1006 
Q 2831 559 2490 242 
Q 2150 -75 1597 -75 
Q 994 -75 656 303 
Q 388 606 388 966 
Q 388 1247 577 1523 
Q 766 1800 1228 2134 
z
M 1719 2469 
Q 2094 2806 2194 3001 
Q 2294 3197 2294 3444 
Q 2294 3772 2109 3958 
Q 1925 4144 1606 4144 
Q 1288 4144 1088 3959 
Q 888 3775 888 3528 
Q 888 3366 970 3203 
Q 1053 3041 1206 2894 
L 1719 2469 
z
M 1375 2016 
Q 1116 1797 991 1539 
Q 866 1281 866 981 
Q 866 578 1086 336 
Q 1306 94 1647 94 
Q 1984 94 2187 284 
Q 2391 475 2391 747 
Q 2391 972 2272 1150 
Q 2050 1481 1375 2016 
z
" transform="scale(0.015625)"/>
       </defs>
       <use xlink:href="#TimesNewRomanPSMT-30"/>
       <use xlink:href="#TimesNewRomanPSMT-2e" transform="translate(50 0)"/>
       <use xlink:href="#TimesNewRomanPSMT-38" transform="translate(75 0)"/>
      </g>
     </g>
    </g>
    <g id="xtick_6">
     <g id="line2d_6">
      <path d="M 511.487384 363.1825 
L 511.487384 23.16625 
" clip-path="url(#p47cdb5ac06)" style="fill: none; stroke: #cccccc; stroke-linecap: round"/>
     </g>
     <g id="text_6">
      <!-- 1.0 -->
      <g style="fill: #262626" transform="translate(504.612384 380.320625) scale(0.11 -0.11)">
       <defs>
        <path id="TimesNewRomanPSMT-31" d="M 750 3822 
L 1781 4325 
L 1884 4325 
L 1884 747 
Q 1884 391 1914 303 
Q 1944 216 2037 169 
Q 2131 122 2419 116 
L 2419 0 
L 825 0 
L 825 116 
Q 1125 122 1212 167 
Q 1300 213 1334 289 
Q 1369 366 1369 747 
L 1369 3034 
Q 1369 3497 1338 3628 
Q 1316 3728 1258 3775 
Q 1200 3822 1119 3822 
Q 1003 3822 797 3725 
L 750 3822 
z
" transform="scale(0.015625)"/>
       </defs>
       <use xlink:href="#TimesNewRomanPSMT-31"/>
       <use xlink:href="#TimesNewRomanPSMT-2e" transform="translate(50 0)"/>
       <use xlink:href="#TimesNewRomanPSMT-30" transform="translate(75 0)"/>
      </g>
     </g>
    </g>
    <g id="xtick_7">
     <g id="line2d_7">
      <path d="M 604.682361 363.1825 
L 604.682361 23.16625 
" clip-path="url(#p47cdb5ac06)" style="fill: none; stroke: #cccccc; stroke-linecap: round"/>
     </g>
     <g id="text_7">
      <!-- 1.2 -->
      <g style="fill: #262626" transform="translate(597.807361 380.320625) scale(0.11 -0.11)">
       <use xlink:href="#TimesNewRomanPSMT-31"/>
       <use xlink:href="#TimesNewRomanPSMT-2e" transform="translate(50 0)"/>
       <use xlink:href="#TimesNewRomanPSMT-32" transform="translate(75 0)"/>
      </g>
     </g>
    </g>
    <g id="text_8">
     <!-- 碳排放效率 -->
     <g style="fill: #262626" transform="translate(324.994375 395.169219) scale(0.12 -0.12)">
      <defs>
       <path id="SimSun-78b3" d="M 4075 3850 
Q 4075 4800 4050 5250 
L 4550 5025 
L 4375 4875 
L 4375 3850 
L 5325 3850 
Q 5325 4475 5300 4950 
L 5825 4700 
L 5625 4550 
Q 5625 4050 5650 3625 
L 5325 3475 
L 5325 3700 
L 3500 3700 
L 3900 3475 
Q 3725 3425 3575 2850 
L 5400 2850 
L 5700 3150 
L 6125 2700 
L 4450 2700 
L 4825 2475 
L 4625 2375 
L 4550 1900 
Q 4625 1475 4800 1125 
Q 5225 1675 5375 2025 
L 5775 1675 
Q 5500 1625 4850 1000 
Q 5125 475 5450 200 
Q 5775 -75 6150 -175 
L 6150 -250 
Q 5850 -275 5675 -500 
Q 5200 -100 4887 437 
Q 4575 975 4500 1625 
Q 4350 750 3912 225 
Q 3475 -300 2675 -625 
L 2625 -550 
Q 3275 -175 3650 325 
Q 4025 825 4137 1462 
Q 4250 2100 4275 2700 
L 3550 2700 
Q 3250 1425 2775 637 
Q 2300 -150 1650 -600 
L 1575 -550 
Q 2250 125 2625 900 
Q 3000 1675 3225 2700 
Q 2975 2700 2700 2625 
L 2475 2850 
L 3250 2850 
Q 3350 3250 3425 3700 
L 3200 3700 
L 3025 3500 
L 2700 3775 
L 2875 3925 
Q 2875 4575 2850 4975 
L 3350 4725 
L 3175 4575 
L 3175 3850 
L 4075 3850 
z
M 3750 1975 
Q 3800 1325 3712 1125 
Q 3625 925 3475 900 
Q 3325 875 3262 912 
Q 3200 950 3200 975 
Q 3200 1050 3325 1200 
Q 3500 1400 3650 1975 
L 3750 1975 
z
M 2275 2675 
Q 2275 950 2300 450 
L 1950 275 
L 1950 500 
L 1225 500 
L 1225 -75 
L 900 -225 
Q 925 825 925 2100 
Q 625 1550 325 1250 
L 250 1300 
Q 975 2475 1250 4300 
L 1075 4300 
Q 750 4300 475 4225 
L 250 4450 
L 1975 4450 
L 2250 4725 
L 2650 4300 
L 1625 4300 
Q 1450 3400 1250 2850 
L 1900 2850 
L 2050 3100 
L 2425 2825 
L 2275 2675 
z
M 1225 2700 
L 1225 650 
L 1950 650 
L 1950 2700 
L 1225 2700 
z
" transform="scale(0.015625)"/>
       <path id="SimSun-6392" d="M 3400 -575 
Q 3425 75 3425 1200 
L 2500 1200 
L 2275 1150 
L 2075 1350 
L 3425 1350 
L 3425 2500 
L 2900 2500 
L 2675 2450 
L 2475 2650 
L 3425 2650 
L 3425 3775 
L 2775 3775 
L 2525 3725 
L 2325 3925 
L 3425 3925 
Q 3425 4850 3400 5225 
L 3975 4925 
L 3750 4750 
L 3750 -400 
L 3400 -575 
z
M 4725 1175 
Q 4725 200 4750 -400 
L 4400 -575 
L 4400 4050 
Q 4400 4750 4375 5200 
L 4975 4925 
L 4725 4750 
L 4725 3900 
L 5450 3900 
L 5700 4150 
L 6100 3750 
L 4725 3750 
L 4725 2625 
L 5375 2625 
L 5625 2875 
L 6025 2475 
L 4725 2475 
L 4725 1325 
L 5450 1325 
L 5725 1600 
L 6150 1175 
L 4725 1175 
z
M 1325 3750 
Q 1325 4775 1300 5250 
L 1875 4975 
L 1650 4825 
L 1650 3750 
L 1850 3750 
L 2100 4000 
L 2500 3600 
L 1650 3600 
L 1650 2575 
L 2425 2925 
L 2475 2850 
L 1650 2325 
L 1650 200 
Q 1675 -325 1125 -550 
Q 1150 -275 475 -25 
L 475 75 
Q 950 0 1137 0 
Q 1325 0 1325 300 
L 1325 2150 
Q 675 1775 550 1575 
L 250 2050 
Q 525 2100 1325 2450 
L 1325 3600 
L 725 3600 
L 475 3550 
L 275 3750 
L 1325 3750 
z
" transform="scale(0.015625)"/>
       <path id="SimSun-653e" d="M 3750 3300 
Q 3950 2300 4400 1375 
Q 4800 2075 5025 3700 
L 3925 3700 
Q 3825 3500 3750 3300 
z
M 4225 1075 
Q 3775 1975 3650 3125 
Q 3300 2400 3225 2375 
L 3150 2425 
Q 3700 3725 3950 5250 
L 4525 4925 
L 4300 4800 
Q 4125 4275 3975 3850 
L 5300 3850 
L 5600 4150 
L 6050 3700 
L 5400 3700 
Q 5175 1975 4600 1075 
Q 5325 125 6150 -75 
L 6150 -175 
Q 5700 -175 5625 -425 
Q 4925 50 4400 800 
Q 3550 -150 2325 -600 
L 2300 -525 
Q 3550 125 4225 1075 
z
M 1350 5125 
Q 1925 4825 2062 4675 
Q 2200 4525 2200 4400 
Q 2200 4325 2162 4212 
Q 2125 4100 2012 4075 
Q 1900 4050 1825 4325 
Q 1725 4575 1300 5050 
L 1350 5125 
z
M 1450 350 
Q 2000 225 2150 237 
Q 2300 250 2362 525 
Q 2425 800 2462 1375 
Q 2500 1950 2525 2600 
L 1550 2600 
Q 1500 1525 1262 812 
Q 1025 100 300 -550 
L 250 -475 
Q 825 275 987 950 
Q 1150 1625 1175 2262 
Q 1200 2900 1200 3725 
L 725 3725 
L 500 3675 
L 300 3875 
L 2725 3875 
L 3000 4150 
L 3425 3725 
L 1550 3725 
L 1550 2750 
L 2500 2750 
L 2725 2975 
L 3050 2650 
L 2850 2500 
Q 2775 800 2725 537 
Q 2675 275 2600 125 
Q 2525 -25 2400 -125 
Q 2275 -225 2000 -300 
Q 1950 75 1425 250 
L 1450 350 
z
" transform="scale(0.015625)"/>
       <path id="SimSun-6548" d="M 575 4025 
L 1975 4025 
Q 1950 4250 1837 4500 
Q 1725 4750 1450 5100 
L 1525 5150 
Q 2000 4875 2175 4687 
Q 2350 4500 2350 4350 
Q 2350 4200 2200 4025 
L 2850 4025 
L 3150 4325 
L 3600 3875 
L 1400 3875 
Q 1075 3875 800 3800 
L 575 4025 
z
M 1425 3675 
L 1900 3350 
L 1675 3250 
Q 950 2225 475 1875 
L 400 1925 
Q 1075 2700 1425 3675 
z
M 2300 3575 
L 2350 3650 
Q 2900 3400 3075 3250 
Q 3250 3100 3250 2950 
Q 3250 2850 3187 2700 
Q 3125 2550 3075 2550 
Q 3000 2550 2900 2775 
Q 2725 3150 2300 3575 
z
M 1250 2225 
Q 1675 1950 2075 1625 
Q 2375 2250 2450 2650 
L 2900 2275 
Q 2725 2225 2300 1425 
Q 2700 1075 2862 862 
Q 3025 650 3025 475 
Q 3025 375 2962 237 
Q 2900 100 2875 100 
Q 2800 100 2700 350 
Q 2525 700 2150 1175 
Q 1425 100 475 -475 
L 425 -400 
Q 1300 300 1950 1400 
Q 1525 1850 1200 2150 
L 1250 2225 
z
M 4050 3500 
L 3950 3250 
Q 4150 2050 4525 1275 
Q 4950 2100 5125 3500 
L 4050 3500 
z
M 4175 5250 
L 4775 4950 
Q 4600 4875 4525 4725 
Q 4450 4575 4100 3650 
L 5375 3650 
L 5675 3950 
L 6125 3500 
L 5475 3500 
Q 5275 1975 4700 950 
Q 5350 0 6100 -125 
L 6100 -225 
Q 5650 -250 5550 -500 
Q 4975 -75 4475 725 
Q 3650 -125 2450 -625 
L 2400 -550 
Q 3650 125 4325 1000 
Q 3925 2025 3850 3050 
Q 3550 2400 3225 2000 
L 3150 2050 
Q 3825 3350 4175 5250 
z
" transform="scale(0.015625)"/>
       <path id="SimSun-7387" d="M 875 3725 
L 925 3800 
Q 1375 3650 1550 3525 
Q 1725 3400 1725 3250 
Q 1725 3175 1662 3025 
Q 1600 2875 1550 2875 
Q 1500 2875 1425 3050 
Q 1275 3325 875 3725 
z
M 550 1850 
Q 875 1925 2000 2575 
L 2050 2500 
Q 1675 2225 1337 1937 
Q 1000 1650 875 1425 
L 550 1850 
z
M 5200 3450 
Q 4800 3150 4275 2800 
L 4225 2875 
Q 4775 3400 5050 3925 
L 5450 3525 
L 5200 3450 
z
M 4325 2500 
L 4350 2575 
Q 5225 2350 5375 2212 
Q 5525 2075 5525 1900 
Q 5525 1775 5487 1662 
Q 5450 1550 5400 1550 
Q 5325 1550 5200 1800 
Q 4975 2150 4325 2500 
z
M 3150 3900 
Q 2500 3300 2300 3150 
Q 2800 3150 3400 3175 
Q 3700 3500 3850 3825 
L 4250 3450 
Q 4050 3400 3450 2825 
Q 2850 2250 2475 1950 
Q 3150 1975 3850 2000 
Q 3750 2175 3550 2450 
L 3600 2500 
Q 4050 2250 4200 2100 
Q 4350 1950 4350 1850 
Q 4350 1775 4250 1625 
Q 4150 1475 4100 1475 
Q 4075 1475 4050 1550 
Q 4000 1700 3900 1900 
Q 3650 1875 3075 1800 
L 3500 1550 
L 3325 1425 
L 3325 975 
L 5325 975 
L 5650 1300 
L 6100 825 
L 3325 825 
Q 3325 -275 3350 -525 
L 2975 -650 
Q 3000 0 3000 825 
L 1125 825 
Q 800 825 525 750 
L 300 975 
L 3000 975 
L 3000 1775 
Q 2450 1700 2200 1525 
L 1950 1950 
Q 2275 1950 2675 2350 
Q 3075 2750 3325 3050 
Q 2400 2950 2150 2775 
L 1950 3175 
Q 2150 3150 2475 3575 
Q 2800 4000 2900 4225 
L 1450 4225 
Q 1125 4225 850 4150 
L 625 4375 
L 3100 4375 
Q 3050 4800 2675 5200 
L 2725 5250 
Q 3225 5050 3337 4912 
Q 3450 4775 3450 4700 
Q 3450 4550 3250 4375 
L 5025 4375 
L 5350 4675 
L 5775 4225 
L 3050 4225 
L 3375 3950 
L 3150 3900 
z
" transform="scale(0.015625)"/>
      </defs>
      <use xlink:href="#SimSun-78b3"/>
      <use xlink:href="#SimSun-6392" transform="translate(100 0)"/>
      <use xlink:href="#SimSun-653e" transform="translate(200 0)"/>
      <use xlink:href="#SimSun-6548" transform="translate(300 0)"/>
      <use xlink:href="#SimSun-7387" transform="translate(400 0)"/>
     </g>
    </g>
   </g>
   <g id="matplotlib.axis_2">
    <g id="ytick_1">
     <g id="line2d_8">
      <path d="M 45.5125 363.1825 
L 664.47625 363.1825 
" clip-path="url(#p47cdb5ac06)" style="fill: none; stroke: #cccccc; stroke-linecap: round"/>
     </g>
     <g id="text_9">
      <!-- 0.0 -->
      <g style="fill: #262626" transform="translate(22.2625 367.001562) scale(0.11 -0.11)">
       <use xlink:href="#TimesNewRomanPSMT-30"/>
       <use xlink:href="#TimesNewRomanPSMT-2e" transform="translate(50 0)"/>
       <use xlink:href="#TimesNewRomanPSMT-30" transform="translate(75 0)"/>
      </g>
     </g>
    </g>
    <g id="ytick_2">
     <g id="line2d_9">
      <path d="M 45.5125 300.851797 
L 664.47625 300.851797 
" clip-path="url(#p47cdb5ac06)" style="fill: none; stroke: #cccccc; stroke-linecap: round"/>
     </g>
     <g id="text_10">
      <!-- 0.5 -->
      <g style="fill: #262626" transform="translate(22.2625 304.670859) scale(0.11 -0.11)">
       <defs>
        <path id="TimesNewRomanPSMT-35" d="M 2778 4238 
L 2534 3706 
L 1259 3706 
L 981 3138 
Q 1809 3016 2294 2522 
Q 2709 2097 2709 1522 
Q 2709 1188 2573 903 
Q 2438 619 2231 419 
Q 2025 219 1772 97 
Q 1413 -75 1034 -75 
Q 653 -75 479 54 
Q 306 184 306 341 
Q 306 428 378 495 
Q 450 563 559 563 
Q 641 563 702 538 
Q 763 513 909 409 
Q 1144 247 1384 247 
Q 1750 247 2026 523 
Q 2303 800 2303 1197 
Q 2303 1581 2056 1914 
Q 1809 2247 1375 2428 
Q 1034 2569 447 2591 
L 1259 4238 
L 2778 4238 
z
" transform="scale(0.015625)"/>
       </defs>
       <use xlink:href="#TimesNewRomanPSMT-30"/>
       <use xlink:href="#TimesNewRomanPSMT-2e" transform="translate(50 0)"/>
       <use xlink:href="#TimesNewRomanPSMT-35" transform="translate(75 0)"/>
      </g>
     </g>
    </g>
    <g id="ytick_3">
     <g id="line2d_10">
      <path d="M 45.5125 238.521093 
L 664.47625 238.521093 
" clip-path="url(#p47cdb5ac06)" style="fill: none; stroke: #cccccc; stroke-linecap: round"/>
     </g>
     <g id="text_11">
      <!-- 1.0 -->
      <g style="fill: #262626" transform="translate(22.2625 242.340156) scale(0.11 -0.11)">
       <use xlink:href="#TimesNewRomanPSMT-31"/>
       <use xlink:href="#TimesNewRomanPSMT-2e" transform="translate(50 0)"/>
       <use xlink:href="#TimesNewRomanPSMT-30" transform="translate(75 0)"/>
      </g>
     </g>
    </g>
    <g id="ytick_4">
     <g id="line2d_11">
      <path d="M 45.5125 176.19039 
L 664.47625 176.19039 
" clip-path="url(#p47cdb5ac06)" style="fill: none; stroke: #cccccc; stroke-linecap: round"/>
     </g>
     <g id="text_12">
      <!-- 1.5 -->
      <g style="fill: #262626" transform="translate(22.2625 180.009453) scale(0.11 -0.11)">
       <use xlink:href="#TimesNewRomanPSMT-31"/>
       <use xlink:href="#TimesNewRomanPSMT-2e" transform="translate(50 0)"/>
       <use xlink:href="#TimesNewRomanPSMT-35" transform="translate(75 0)"/>
      </g>
     </g>
    </g>
    <g id="ytick_5">
     <g id="line2d_12">
      <path d="M 45.5125 113.859687 
L 664.47625 113.859687 
" clip-path="url(#p47cdb5ac06)" style="fill: none; stroke: #cccccc; stroke-linecap: round"/>
     </g>
     <g id="text_13">
      <!-- 2.0 -->
      <g style="fill: #262626" transform="translate(22.2625 117.678749) scale(0.11 -0.11)">
       <use xlink:href="#TimesNewRomanPSMT-32"/>
       <use xlink:href="#TimesNewRomanPSMT-2e" transform="translate(50 0)"/>
       <use xlink:href="#TimesNewRomanPSMT-30" transform="translate(75 0)"/>
      </g>
     </g>
    </g>
    <g id="ytick_6">
     <g id="line2d_13">
      <path d="M 45.5125 51.528983 
L 664.47625 51.528983 
" clip-path="url(#p47cdb5ac06)" style="fill: none; stroke: #cccccc; stroke-linecap: round"/>
     </g>
     <g id="text_14">
      <!-- 2.5 -->
      <g style="fill: #262626" transform="translate(22.2625 55.348046) scale(0.11 -0.11)">
       <use xlink:href="#TimesNewRomanPSMT-32"/>
       <use xlink:href="#TimesNewRomanPSMT-2e" transform="translate(50 0)"/>
       <use xlink:href="#TimesNewRomanPSMT-35" transform="translate(75 0)"/>
      </g>
     </g>
    </g>
    <g id="text_15">
     <!-- 核密度 -->
     <g style="fill: #262626" transform="translate(15.695625 211.174375) rotate(-90) scale(0.12 -0.12)">
      <defs>
       <path id="SimSun-6838" d="M 3625 5200 
L 3700 5250 
Q 4225 4950 4287 4837 
Q 4350 4725 4350 4625 
Q 4350 4475 4262 4362 
Q 4175 4250 4125 4250 
Q 4050 4250 4000 4500 
Q 3900 4850 3625 5200 
z
M 3100 2575 
L 4300 2575 
Q 4475 2825 4587 3025 
Q 4700 3225 4825 3525 
L 5300 3125 
L 5050 3025 
Q 3875 1300 2325 525 
L 2300 625 
Q 3350 1275 4225 2450 
Q 3150 2350 2950 2125 
L 2725 2600 
Q 2975 2625 3275 3075 
Q 3575 3525 3750 4025 
L 2950 4025 
L 2725 3975 
L 2525 4175 
L 5275 4175 
L 5575 4475 
L 6025 4025 
L 3850 4025 
L 4275 3725 
L 4050 3650 
Q 3625 3050 3100 2575 
z
M 5250 2375 
L 5725 2000 
L 5500 1925 
Q 5050 1350 4550 875 
Q 5425 375 5600 175 
Q 5775 -25 5775 -200 
Q 5775 -275 5712 -400 
Q 5650 -525 5600 -525 
Q 5500 -525 5350 -200 
Q 5100 275 4450 775 
Q 3400 -175 2100 -575 
L 2075 -475 
Q 4175 425 5250 2375 
z
M 1700 775 
Q 1700 450 1725 -425 
L 1325 -625 
Q 1350 850 1350 2425 
Q 950 1475 375 800 
L 325 875 
Q 1000 2025 1325 3575 
L 775 3575 
L 550 3525 
L 350 3725 
L 1350 3725 
Q 1350 4550 1325 5275 
L 1900 5000 
L 1700 4825 
L 1700 3725 
L 2025 3725 
L 2300 4000 
L 2725 3575 
L 1700 3575 
L 1700 2950 
Q 2225 2750 2362 2612 
Q 2500 2475 2500 2325 
Q 2500 2200 2450 2075 
Q 2400 1950 2375 1950 
Q 2275 1950 2150 2225 
Q 1950 2600 1700 2825 
L 1700 775 
z
" transform="scale(0.015625)"/>
       <path id="SimSun-5bc6" d="M 1050 4650 
L 1075 4375 
L 3075 4375 
Q 3050 4775 2775 5175 
L 2825 5225 
Q 3325 4975 3375 4862 
Q 3425 4750 3425 4675 
Q 3425 4525 3275 4375 
L 5325 4375 
L 5575 4625 
L 6000 4150 
Q 5650 4200 5100 3575 
L 5025 3625 
L 5350 4225 
L 1075 4225 
Q 1075 3850 1025 3725 
Q 975 3600 850 3562 
Q 725 3525 650 3525 
Q 575 3525 525 3550 
Q 475 3575 475 3600 
Q 475 3675 625 3850 
Q 850 4100 950 4650 
L 1050 4650 
z
M 1500 3275 
Q 1475 2600 1387 2462 
Q 1300 2325 1162 2275 
Q 1025 2225 887 2275 
Q 750 2325 750 2375 
Q 750 2425 925 2575 
Q 1175 2775 1400 3300 
L 1500 3275 
z
M 2050 2700 
Q 2050 3225 2025 3625 
L 2625 3375 
L 2375 3200 
L 2375 2350 
Q 2800 2575 3350 3012 
Q 3900 3450 4325 4000 
L 4700 3550 
L 4450 3500 
Q 3900 3025 3462 2712 
Q 3025 2400 2425 2100 
Q 2400 2050 2800 2050 
L 4025 2050 
Q 4175 2075 4225 2237 
Q 4275 2400 4300 2825 
L 4400 2825 
Q 4400 2500 4437 2325 
Q 4475 2150 4700 2050 
Q 4550 1750 3950 1775 
L 2575 1775 
Q 2400 1775 2262 1775 
Q 2125 1775 2075 1950 
Q 1350 1700 300 1550 
L 275 1625 
Q 1175 1825 2050 2200 
L 2050 2700 
z
M 2600 4050 
L 2650 4100 
Q 3200 3775 3237 3662 
Q 3275 3550 3275 3500 
Q 3275 3350 3175 3237 
Q 3075 3125 3025 3125 
Q 2950 3125 2900 3375 
Q 2825 3725 2600 4050 
z
M 4725 3200 
L 4775 3275 
Q 5350 3000 5525 2837 
Q 5700 2675 5712 2525 
Q 5725 2375 5625 2250 
Q 5525 2125 5475 2125 
Q 5400 2125 5325 2350 
Q 5200 2700 4725 3200 
z
M 2975 -50 
Q 2975 1200 2950 1625 
L 3550 1350 
L 3300 1175 
L 3300 -50 
L 4750 -50 
Q 4750 950 4725 1300 
L 5275 1025 
L 5075 850 
Q 5075 75 5100 -400 
L 4750 -500 
L 4750 -200 
L 1575 -200 
L 1400 -375 
L 1075 -75 
L 1250 50 
Q 1250 850 1225 1275 
L 1800 1025 
L 1575 875 
L 1575 -50 
L 2975 -50 
z
" transform="scale(0.015625)"/>
       <path id="SimSun-5ea6" d="M 2550 2025 
Q 2575 2525 2575 3175 
L 1925 3175 
L 1625 3125 
L 1425 3325 
L 2575 3325 
Q 2575 3700 2550 4150 
L 3100 3875 
L 2900 3750 
L 2900 3325 
L 4300 3325 
Q 4300 3750 4275 4125 
L 4850 3875 
L 4625 3725 
L 4625 3325 
L 5100 3325 
L 5425 3650 
L 5900 3175 
L 4625 3175 
Q 4625 2450 4650 2225 
L 4300 2075 
L 4300 2300 
L 2900 2300 
L 2900 2175 
L 2550 2025 
z
M 4875 1500 
Q 4300 775 3900 425 
Q 4700 -75 6025 -125 
L 6025 -225 
Q 5625 -300 5550 -550 
Q 4375 -325 3675 225 
Q 2475 -450 1075 -625 
L 1050 -525 
Q 2375 -275 3450 450 
Q 2975 925 2575 1625 
L 2325 1625 
L 2100 1575 
L 1900 1775 
L 4525 1775 
L 4750 2000 
L 5125 1625 
L 4875 1500 
z
M 2700 1625 
Q 3175 975 3650 625 
Q 4150 1100 4500 1625 
L 2700 1625 
z
M 2900 3175 
L 2900 2450 
L 4300 2450 
L 4300 3175 
L 2900 3175 
z
M 975 4650 
L 1400 4400 
L 3375 4400 
Q 3350 4550 3262 4725 
Q 3175 4900 2900 5225 
L 2975 5275 
Q 3550 5025 3637 4887 
Q 3725 4750 3725 4725 
Q 3725 4575 3525 4400 
L 5150 4400 
L 5500 4750 
L 6000 4250 
L 1375 4250 
Q 1400 2750 1287 1912 
Q 1175 1075 925 475 
Q 675 -125 300 -625 
L 225 -575 
Q 725 300 862 1250 
Q 1000 2200 1012 3187 
Q 1025 4175 975 4650 
z
" transform="scale(0.015625)"/>
      </defs>
      <use xlink:href="#SimSun-6838"/>
      <use xlink:href="#SimSun-5bc6" transform="translate(100 0)"/>
      <use xlink:href="#SimSun-5ea6" transform="translate(200 0)"/>
     </g>
    </g>
   </g>
   <g id="line2d_14">
    <path d="M 45.5125 356.285418 
L 51.437015 354.252115 
L 54.399273 353.057438 
L 57.361531 351.730622 
L 60.323789 350.261138 
L 63.286046 348.638178 
L 66.248304 346.850723 
L 69.210562 344.88763 
L 72.172819 342.737725 
L 75.135077 340.389909 
L 78.097335 337.833275 
L 81.059593 335.057235 
L 84.02185 332.051658 
L 86.984108 328.807014 
L 89.946366 325.31453 
L 92.908623 321.566347 
L 95.870881 317.555685 
L 98.833139 313.277008 
L 101.795397 308.726188 
L 104.757654 303.900672 
L 107.719912 298.799633 
L 110.68217 293.424126 
L 113.644427 287.77722 
L 116.606685 281.86413 
L 122.531201 269.271587 
L 128.455716 255.734641 
L 134.380232 241.380364 
L 140.304747 226.374743 
L 149.19152 203.098199 
L 161.040551 171.937394 
L 166.965066 156.930461 
L 172.889582 142.695485 
L 175.85184 135.957895 
L 178.814097 129.520103 
L 181.776355 123.415355 
L 184.738613 117.675181 
L 187.70087 112.329083 
L 190.663128 107.404242 
L 193.625386 102.925256 
L 196.587644 98.9139 
L 199.549901 95.388923 
L 202.512159 92.365877 
L 205.474417 89.856988 
L 208.436674 87.871063 
L 211.398932 86.413437 
L 214.36119 85.485967 
L 217.323448 85.087058 
L 220.285705 85.211736 
L 223.247963 85.851755 
L 226.210221 86.99574 
L 229.172478 88.629365 
L 232.134736 90.735556 
L 235.096994 93.294729 
L 238.059252 96.285037 
L 241.021509 99.682645 
L 243.983767 103.462013 
L 246.946025 107.596189 
L 249.908282 112.057106 
L 252.87054 116.815877 
L 255.832798 121.843088 
L 261.757313 132.584223 
L 267.681829 144.045081 
L 273.606344 155.998406 
L 300.266664 210.687582 
L 306.191179 222.148335 
L 312.115695 233.135113 
L 318.04021 243.589617 
L 323.964725 253.473232 
L 329.889241 262.763937 
L 335.813756 271.453067 
L 341.738272 279.542111 
L 347.662787 287.039715 
L 353.587303 293.958969 
L 359.511818 300.315091 
L 365.436333 306.123531 
L 371.360849 311.398514 
L 377.285364 316.152051 
L 383.20988 320.393372 
L 389.134395 324.128801 
L 395.058911 327.362006 
L 398.021168 328.790844 
L 400.983426 330.09463 
L 403.945684 331.273408 
L 406.907941 332.327225 
L 409.870199 333.256177 
L 412.832457 334.060453 
L 415.794715 334.740384 
L 418.756972 335.296489 
L 421.71923 335.729527 
L 424.681488 336.040545 
L 427.643746 336.230924 
L 430.606003 336.302427 
L 433.568261 336.257244 
L 439.492776 335.827939 
L 445.417292 334.970447 
L 451.341807 333.721076 
L 457.266323 332.125478 
L 463.190838 330.238631 
L 469.115354 328.124291 
L 478.002127 324.684173 
L 492.813415 318.897529 
L 498.737931 316.803144 
L 504.662446 314.952194 
L 510.586962 313.414265 
L 516.511477 312.249018 
L 522.435992 311.503897 
L 525.39825 311.299922 
L 528.360508 311.212359 
L 531.322766 311.243018 
L 534.285023 311.392728 
L 537.247281 311.661339 
L 540.209539 312.047743 
L 543.171796 312.549893 
L 549.096312 313.888786 
L 555.020827 315.644519 
L 560.945343 317.771866 
L 566.869858 320.216216 
L 572.794374 322.916211 
L 581.681147 327.302298 
L 608.341466 340.883993 
L 614.265982 343.644338 
L 620.190497 346.22699 
L 626.115013 348.609303 
L 632.039528 350.777044 
L 635.001786 351.778142 
L 635.001786 351.778142 
" clip-path="url(#p47cdb5ac06)" style="fill: none; stroke: #c1e6ba; stroke-width: 2.2; stroke-linecap: round"/>
   </g>
   <g id="line2d_15">
    <path d="M 45.5125 360.097391 
L 51.437015 358.9082 
L 57.361531 357.333407 
L 60.323789 356.371829 
L 63.286046 355.276567 
L 66.248304 354.033372 
L 69.210562 352.627187 
L 72.172819 351.042212 
L 75.135077 349.261999 
L 78.097335 347.269564 
L 81.059593 345.047523 
L 84.02185 342.578263 
L 86.984108 339.844124 
L 89.946366 336.827624 
L 92.908623 333.511694 
L 95.870881 329.879947 
L 98.833139 325.916961 
L 101.795397 321.608588 
L 104.757654 316.942268 
L 107.719912 311.907367 
L 110.68217 306.495506 
L 113.644427 300.700897 
L 116.606685 294.520671 
L 119.568943 287.955193 
L 122.531201 281.008351 
L 125.493458 273.687819 
L 128.455716 266.005286 
L 131.417974 257.976634 
L 137.342489 240.966202 
L 143.267005 222.870952 
L 149.19152 203.97431 
L 166.965066 146.198901 
L 172.889582 128.024571 
L 175.85184 119.398397 
L 178.814097 111.154315 
L 181.776355 103.345864 
L 184.738613 96.023717 
L 187.70087 89.235024 
L 190.663128 83.022791 
L 193.625386 77.425327 
L 196.587644 72.47575 
L 199.549901 68.201578 
L 202.512159 64.624401 
L 205.474417 61.759653 
L 208.436674 59.616476 
L 211.398932 58.197685 
L 214.36119 57.499833 
L 217.323448 57.513373 
L 220.285705 58.222914 
L 223.247963 59.607555 
L 226.210221 61.641306 
L 229.172478 64.293572 
L 232.134736 67.52969 
L 235.096994 71.311512 
L 238.059252 75.598022 
L 241.021509 80.345962 
L 243.983767 85.510471 
L 246.946025 91.045709 
L 249.908282 96.905467 
L 255.832798 109.415252 
L 261.757313 122.683521 
L 273.606344 150.211581 
L 282.493117 170.679541 
L 288.417633 183.860849 
L 294.342148 196.509171 
L 300.266664 208.53318 
L 306.191179 219.877795 
L 312.115695 230.518029 
L 318.04021 240.45273 
L 323.964725 249.698663 
L 329.889241 258.285193 
L 335.813756 266.249686 
L 341.738272 273.633603 
L 347.662787 280.479234 
L 353.587303 286.82699 
L 359.511818 292.713175 
L 365.436333 298.168256 
L 371.360849 303.215636 
L 377.285364 307.870991 
L 383.20988 312.142249 
L 389.134395 316.030225 
L 395.058911 319.529905 
L 400.983426 322.632312 
L 406.907941 325.326787 
L 412.832457 327.60351 
L 418.756972 329.45602 
L 424.681488 330.883515 
L 430.606003 331.892728 
L 436.530519 332.499232 
L 442.455034 332.728083 
L 448.37955 332.613807 
L 454.304065 332.199765 
L 460.22858 331.537002 
L 466.153096 330.682713 
L 475.039869 329.177542 
L 489.851158 326.606344 
L 495.775673 325.737527 
L 501.700188 325.044812 
L 507.624704 324.57632 
L 513.549219 324.372055 
L 519.473735 324.462615 
L 525.39825 324.868137 
L 531.322766 325.597561 
L 537.247281 326.648285 
L 543.171796 328.006276 
L 549.096312 329.646701 
L 555.020827 331.535063 
L 560.945343 333.628845 
L 569.832116 337.047542 
L 596.492435 347.672283 
L 605.379209 350.822391 
L 611.303724 352.718658 
L 617.228239 354.432351 
L 623.152755 355.955703 
L 629.07727 357.288123 
L 635.001786 358.435152 
L 635.001786 358.435152 
" clip-path="url(#p47cdb5ac06)" style="fill: none; stroke: #a4da9e; stroke-width: 2.2; stroke-linecap: round"/>
   </g>
   <g id="line2d_16">
    <path d="M 45.5125 362.004577 
L 51.300178 361.446875 
L 57.087855 360.661903 
L 62.875533 359.574333 
L 68.663211 358.09115 
L 71.55705 357.166942 
L 74.450889 356.100268 
L 77.344728 354.874068 
L 80.238566 353.470107 
L 83.132405 351.869047 
L 86.026244 350.050542 
L 88.920083 347.99338 
L 91.813922 345.675643 
L 94.707761 343.074923 
L 97.6016 340.168568 
L 100.495439 336.933967 
L 103.389277 333.348882 
L 106.283116 329.391809 
L 109.176955 325.042379 
L 112.070794 320.281787 
L 114.964633 315.093248 
L 117.858472 309.462474 
L 120.752311 303.378155 
L 123.646149 296.832445 
L 126.539988 289.821444 
L 129.433827 282.345654 
L 132.327666 274.410404 
L 135.221505 266.026237 
L 138.115344 257.209234 
L 141.009183 247.981274 
L 146.79686 228.409975 
L 152.584538 207.607808 
L 161.266055 174.972415 
L 169.947571 142.118956 
L 175.735249 121.046784 
L 178.629088 110.985372 
L 181.522927 101.34015 
L 184.416766 92.183524 
L 187.310605 83.584691 
L 190.204443 75.608604 
L 193.098282 68.314967 
L 195.992121 61.757324 
L 198.88596 55.98222 
L 201.779799 51.028497 
L 204.673638 46.926703 
L 207.567477 43.698656 
L 210.461316 41.357164 
L 213.355154 39.90591 
L 216.248993 39.339497 
L 219.142832 39.643668 
L 222.036671 40.795685 
L 224.93051 42.76485 
L 227.824349 45.513176 
L 230.718188 48.996173 
L 233.612027 53.163729 
L 236.505865 57.961081 
L 239.399704 63.329828 
L 242.293543 69.20898 
L 245.187382 75.536005 
L 248.081221 82.247857 
L 253.868899 96.577109 
L 259.656576 111.717529 
L 277.01961 157.999892 
L 282.807287 172.725609 
L 288.594965 186.785592 
L 294.382643 200.08433 
L 300.170321 212.571276 
L 305.957998 224.226578 
L 311.745676 235.048002 
L 317.533354 245.040523 
L 323.321031 254.209474 
L 326.21487 258.486046 
L 329.108709 262.557469 
L 332.002548 266.423693 
L 334.896387 270.084675 
L 337.790226 273.54051 
L 340.684065 276.791568 
L 343.577904 279.838632 
L 346.471742 282.683034 
L 349.365581 285.326772 
L 352.25942 287.772604 
L 355.153259 290.024125 
L 358.047098 292.085798 
L 360.940937 293.962972 
L 363.834776 295.661851 
L 366.728615 297.189444 
L 369.622453 298.553488 
L 372.516292 299.762341 
L 375.410131 300.824861 
L 378.30397 301.75028 
L 381.197809 302.548061 
L 386.985487 303.798922 
L 392.773164 304.652875 
L 398.560842 305.181563 
L 404.34852 305.450766 
L 410.136198 305.519844 
L 418.817714 305.36508 
L 441.968425 304.646755 
L 447.756103 304.694622 
L 453.543781 304.955004 
L 459.331458 305.489463 
L 465.119136 306.354128 
L 470.906814 307.594936 
L 476.694492 309.243033 
L 482.482169 311.311004 
L 488.269847 313.790466 
L 494.057525 316.65142 
L 499.845203 319.843474 
L 505.63288 323.29885 
L 514.314397 328.796902 
L 528.783591 338.061984 
L 534.571269 341.559425 
L 540.358947 344.834364 
L 546.146624 347.837773 
L 551.934302 350.5369 
L 557.72198 352.915013 
L 563.509658 354.970023 
L 569.297335 356.712294 
L 575.085013 358.161951 
L 580.872691 359.346007 
L 586.660369 360.29559 
L 592.448046 361.043467 
L 601.129563 361.857408 
L 609.81108 362.389947 
L 621.386435 362.804428 
L 621.386435 362.804428 
" clip-path="url(#p47cdb5ac06)" style="fill: none; stroke: #84cc83; stroke-width: 2.2; stroke-linecap: round"/>
   </g>
   <g id="line2d_17">
    <path d="M 45.5125 361.439465 
L 51.437015 360.70878 
L 57.361531 359.71734 
L 63.286046 358.39119 
L 66.248304 357.575718 
L 69.210562 356.642552 
L 72.172819 355.578535 
L 75.135077 354.369676 
L 78.097335 353.001196 
L 81.059593 351.457602 
L 84.02185 349.722769 
L 86.984108 347.780063 
L 89.946366 345.612467 
L 92.908623 343.202749 
L 95.870881 340.533646 
L 98.833139 337.588072 
L 101.795397 334.34935 
L 104.757654 330.801471 
L 107.719912 326.929365 
L 110.68217 322.719195 
L 113.644427 318.158657 
L 116.606685 313.237302 
L 119.568943 307.946844 
L 122.531201 302.281487 
L 125.493458 296.238227 
L 128.455716 289.817154 
L 131.417974 283.021728 
L 134.380232 275.859027 
L 137.342489 268.339966 
L 140.304747 260.479472 
L 146.229262 243.814685 
L 152.153778 226.067925 
L 158.078293 207.509096 
L 178.814097 141.395999 
L 184.738613 123.93315 
L 187.70087 115.720042 
L 190.663128 107.924842 
L 193.625386 100.598999 
L 196.587644 93.790928 
L 199.549901 87.545398 
L 202.512159 81.902966 
L 205.474417 76.899463 
L 208.436674 72.565548 
L 211.398932 68.926333 
L 214.36119 66.001089 
L 217.323448 63.803039 
L 220.285705 62.339236 
L 223.247963 61.610537 
L 226.210221 61.611668 
L 229.172478 62.331378 
L 232.134736 63.752672 
L 235.096994 65.853136 
L 238.059252 68.605327 
L 241.021509 71.977222 
L 243.983767 75.932737 
L 246.946025 80.432272 
L 249.908282 85.433296 
L 252.87054 90.890957 
L 255.832798 96.758691 
L 258.795056 102.988831 
L 264.719571 116.343709 
L 270.644087 130.574183 
L 279.53086 152.772905 
L 288.417633 175.038995 
L 294.342148 189.479145 
L 300.266664 203.356598 
L 306.191179 216.519075 
L 312.115695 228.857544 
L 318.04021 240.300595 
L 321.002468 245.672675 
L 323.964725 250.807758 
L 326.926983 255.704472 
L 329.889241 260.362523 
L 332.851499 264.782503 
L 335.813756 268.965714 
L 338.776014 272.914019 
L 341.738272 276.629701 
L 344.700529 280.115356 
L 347.662787 283.373798 
L 350.625045 286.407994 
L 353.587303 289.221012 
L 356.54956 291.815997 
L 359.511818 294.19616 
L 362.474076 296.364791 
L 365.436333 298.325278 
L 368.398591 300.081146 
L 371.360849 301.636108 
L 374.323107 302.994116 
L 377.285364 304.159431 
L 380.247622 305.136683 
L 383.20988 305.930942 
L 386.172137 306.547787 
L 389.134395 306.993368 
L 392.096653 307.274461 
L 395.058911 307.398528 
L 398.021168 307.373749 
L 400.983426 307.209061 
L 403.945684 306.914173 
L 409.870199 305.97652 
L 415.794715 304.653776 
L 421.71923 303.050109 
L 433.568261 299.459609 
L 439.492776 297.714361 
L 445.417292 296.163166 
L 451.341807 294.919317 
L 454.304065 294.445005 
L 457.266323 294.084494 
L 460.22858 293.847927 
L 463.190838 293.744179 
L 466.153096 293.780752 
L 469.115354 293.963686 
L 472.077611 294.297493 
L 475.039869 294.785102 
L 478.002127 295.427835 
L 480.964384 296.225403 
L 483.926642 297.175915 
L 486.8889 298.275924 
L 489.851158 299.520482 
L 492.813415 300.903224 
L 498.737931 304.051328 
L 504.662446 307.64518 
L 510.586962 311.595058 
L 516.511477 315.801629 
L 543.171796 335.205588 
L 549.096312 339.100155 
L 555.020827 342.703646 
L 560.945343 345.980583 
L 566.869858 348.910949 
L 572.794374 351.488868 
L 578.718889 353.720692 
L 584.643405 355.622719 
L 590.56792 357.218743 
L 596.492435 358.53764 
L 602.416951 359.611131 
L 608.341466 360.471842 
L 614.265982 361.151726 
L 623.152755 361.897574 
L 632.039528 362.393254 
L 635.001786 362.516034 
L 635.001786 362.516034 
" clip-path="url(#p47cdb5ac06)" style="fill: none; stroke: #62bb6d; stroke-width: 2.2; stroke-linecap: round"/>
   </g>
   <g id="line2d_18">
    <path d="M 45.5125 360.49413 
L 51.437015 359.52771 
L 57.361531 358.269276 
L 63.286046 356.650833 
L 66.248304 355.682823 
L 69.210562 354.595167 
L 72.172819 353.376895 
L 75.135077 352.016593 
L 78.097335 350.502466 
L 81.059593 348.822417 
L 84.02185 346.964135 
L 86.984108 344.915204 
L 89.946366 342.663221 
L 92.908623 340.195924 
L 95.870881 337.501344 
L 98.833139 334.567958 
L 101.795397 331.384858 
L 104.757654 327.941927 
L 107.719912 324.230026 
L 110.68217 320.24118 
L 113.644427 315.968769 
L 116.606685 311.407722 
L 119.568943 306.5547 
L 122.531201 301.408283 
L 125.493458 295.969131 
L 128.455716 290.240152 
L 131.417974 284.226632 
L 134.380232 277.936363 
L 140.304747 264.569796 
L 146.229262 250.255795 
L 152.153778 235.152929 
L 158.078293 219.46165 
L 178.814097 163.626378 
L 184.738613 148.634464 
L 190.663128 134.640501 
L 193.625386 128.112 
L 196.587644 121.943379 
L 199.549901 116.168005 
L 202.512159 110.81701 
L 205.474417 105.918989 
L 208.436674 101.49973 
L 211.398932 97.581973 
L 214.36119 94.1852 
L 217.323448 91.325466 
L 220.285705 89.015266 
L 223.247963 87.26345 
L 226.210221 86.075163 
L 229.172478 85.451842 
L 232.134736 85.391245 
L 235.096994 85.887515 
L 238.059252 86.931293 
L 241.021509 88.509856 
L 243.983767 90.607288 
L 246.946025 93.204684 
L 249.908282 96.280378 
L 252.87054 99.81019 
L 255.832798 103.767698 
L 258.795056 108.124514 
L 261.757313 112.850582 
L 264.719571 117.914473 
L 267.681829 123.283686 
L 273.606344 134.804523 
L 279.53086 147.142942 
L 285.455375 160.030118 
L 306.191179 205.876283 
L 312.115695 218.309065 
L 318.04021 230.137499 
L 323.964725 241.242587 
L 329.889241 251.535509 
L 332.851499 256.357511 
L 335.813756 260.955954 
L 338.776014 265.327337 
L 341.738272 269.469586 
L 344.700529 273.381946 
L 347.662787 277.064863 
L 350.625045 280.519869 
L 353.587303 283.749464 
L 356.54956 286.756998 
L 359.511818 289.546559 
L 362.474076 292.122863 
L 365.436333 294.491152 
L 368.398591 296.657093 
L 371.360849 298.626695 
L 374.323107 300.406223 
L 377.285364 302.002132 
L 380.247622 303.421006 
L 383.20988 304.669504 
L 386.172137 305.754326 
L 389.134395 306.682177 
L 392.096653 307.459752 
L 395.058911 308.093722 
L 398.021168 308.590734 
L 400.983426 308.957413 
L 403.945684 309.200382 
L 409.870199 309.341752 
L 415.794715 309.068489 
L 421.71923 308.435692 
L 427.643746 307.500832 
L 433.568261 306.324565 
L 442.455034 304.249456 
L 460.22858 299.856661 
L 466.153096 298.594449 
L 472.077611 297.557965 
L 478.002127 296.81717 
L 483.926642 296.435098 
L 489.851158 296.465133 
L 492.813415 296.648098 
L 495.775673 296.948452 
L 498.737931 297.369082 
L 501.700188 297.911868 
L 504.662446 298.577656 
L 507.624704 299.366235 
L 510.586962 300.276327 
L 516.511477 302.45067 
L 522.435992 305.069749 
L 528.360508 308.087415 
L 534.285023 311.444413 
L 540.209539 315.071186 
L 549.096312 320.848673 
L 566.869858 332.639298 
L 572.794374 336.372036 
L 578.718889 339.906183 
L 584.643405 343.198096 
L 590.56792 346.216199 
L 596.492435 348.940899 
L 602.416951 351.363873 
L 608.341466 353.486862 
L 614.265982 355.320104 
L 620.190497 356.880568 
L 626.115013 358.190131 
L 632.039528 359.273819 
L 635.001786 359.739244 
L 635.001786 359.739244 
" clip-path="url(#p47cdb5ac06)" style="fill: none; stroke: #3fa85b; stroke-width: 2.2; stroke-linecap: round"/>
   </g>
   <g id="line2d_19">
    <path d="M 45.5125 358.970688 
L 51.437015 357.645671 
L 57.361531 355.975523 
L 63.286046 353.893663 
L 66.248304 352.675849 
L 69.210562 351.327467 
L 72.172819 349.838716 
L 75.135077 348.199619 
L 78.097335 346.400098 
L 81.059593 344.430059 
L 84.02185 342.279487 
L 86.984108 339.938548 
L 89.946366 337.397706 
L 92.908623 334.647842 
L 95.870881 331.68038 
L 98.833139 328.487425 
L 101.795397 325.061897 
L 104.757654 321.397676 
L 107.719912 317.489742 
L 110.68217 313.334319 
L 113.644427 308.92901 
L 116.606685 304.272934 
L 119.568943 299.366851 
L 122.531201 294.213277 
L 125.493458 288.81659 
L 131.417974 277.321213 
L 137.342489 264.955927 
L 143.267005 251.829527 
L 149.19152 238.084347 
L 158.078293 216.695471 
L 172.889582 180.799721 
L 178.814097 167.065811 
L 184.738613 154.07089 
L 187.70087 147.928736 
L 190.663128 142.063476 
L 193.625386 136.50361 
L 196.587644 131.276111 
L 199.549901 126.406189 
L 202.512159 121.917065 
L 205.474417 117.82977 
L 208.436674 114.162966 
L 211.398932 110.932793 
L 214.36119 108.152741 
L 217.323448 105.833557 
L 220.285705 103.983172 
L 223.247963 102.606664 
L 226.210221 101.706252 
L 229.172478 101.281316 
L 232.134736 101.328445 
L 235.096994 101.841516 
L 238.059252 102.811793 
L 241.021509 104.228058 
L 243.983767 106.076749 
L 246.946025 108.342136 
L 249.908282 111.006492 
L 252.87054 114.050294 
L 255.832798 117.452426 
L 258.795056 121.190391 
L 261.757313 125.240527 
L 264.719571 129.578228 
L 267.681829 134.17816 
L 273.606344 144.061031 
L 279.53086 154.679939 
L 285.455375 165.827053 
L 294.342148 183.101781 
L 306.191179 206.216884 
L 312.115695 217.455221 
L 318.04021 228.307226 
L 323.964725 238.668986 
L 329.889241 248.45733 
L 335.813756 257.608835 
L 341.738272 266.0783 
L 347.662787 273.836824 
L 350.625045 277.44438 
L 353.587303 280.869643 
L 356.54956 284.112602 
L 359.511818 287.173843 
L 362.474076 290.054483 
L 365.436333 292.756101 
L 368.398591 295.280683 
L 371.360849 297.630559 
L 374.323107 299.808353 
L 377.285364 301.816939 
L 380.247622 303.659397 
L 383.20988 305.338983 
L 386.172137 306.859101 
L 389.134395 308.22328 
L 392.096653 309.435164 
L 395.058911 310.498502 
L 398.021168 311.417149 
L 400.983426 312.195071 
L 403.945684 312.836351 
L 406.907941 313.345208 
L 409.870199 313.726017 
L 412.832457 313.983325 
L 415.794715 314.12188 
L 421.71923 314.062877 
L 427.643746 313.591959 
L 433.568261 312.75686 
L 439.492776 311.610691 
L 445.417292 310.212259 
L 454.304065 307.783994 
L 475.039869 301.845945 
L 480.964384 300.421208 
L 486.8889 299.25203 
L 492.813415 298.403289 
L 498.737931 297.930832 
L 504.662446 297.879258 
L 507.624704 298.021706 
L 510.586962 298.280101 
L 513.549219 298.656132 
L 516.511477 299.150544 
L 519.473735 299.763133 
L 522.435992 300.492753 
L 528.360508 302.293891 
L 534.285023 304.526817 
L 540.209539 307.151432 
L 546.134054 310.116589 
L 552.05857 313.362454 
L 560.945343 318.612575 
L 590.56792 336.679851 
L 596.492435 339.956814 
L 602.416951 343.020788 
L 608.341466 345.846738 
L 614.265982 348.418847 
L 620.190497 350.729897 
L 626.115013 352.78035 
L 632.039528 354.57722 
L 635.001786 355.38424 
L 635.001786 355.38424 
" clip-path="url(#p47cdb5ac06)" style="fill: none; stroke: #289049; stroke-width: 2.2; stroke-linecap: round"/>
   </g>
   <g id="line2d_20">
    <path d="M 45.5125 360.46189 
L 51.437015 359.527822 
L 57.361531 358.324618 
L 63.286046 356.792837 
L 69.210562 354.865613 
L 72.172819 353.730954 
L 75.135077 352.469395 
L 78.097335 351.070915 
L 81.059593 349.525278 
L 84.02185 347.822109 
L 86.984108 345.950982 
L 89.946366 343.901522 
L 92.908623 341.663514 
L 95.870881 339.227022 
L 98.833139 336.582521 
L 101.795397 333.72103 
L 104.757654 330.634261 
L 107.719912 327.314764 
L 110.68217 323.756083 
L 113.644427 319.952906 
L 116.606685 315.901222 
L 119.568943 311.598466 
L 122.531201 307.043668 
L 125.493458 302.237584 
L 128.455716 297.182823 
L 131.417974 291.883953 
L 137.342489 280.582517 
L 143.267005 268.412118 
L 149.19152 255.48678 
L 155.116036 241.955378 
L 164.002809 220.927246 
L 175.85184 192.68941 
L 181.776355 179.039261 
L 187.70087 166.043718 
L 193.625386 153.953494 
L 196.587644 148.322072 
L 199.549901 143.003192 
L 202.512159 138.022179 
L 205.474417 133.402274 
L 208.436674 129.164418 
L 211.398932 125.327054 
L 214.36119 121.905971 
L 217.323448 118.914166 
L 220.285705 116.361748 
L 223.247963 114.255874 
L 226.210221 112.600718 
L 229.172478 111.397473 
L 232.134736 110.644396 
L 235.096994 110.33687 
L 238.059252 110.467519 
L 241.021509 111.026328 
L 243.983767 112.000812 
L 246.946025 113.376195 
L 249.908282 115.135615 
L 252.87054 117.260346 
L 255.832798 119.730034 
L 258.795056 122.522947 
L 261.757313 125.616224 
L 264.719571 128.986136 
L 267.681829 132.608339 
L 270.644087 136.458131 
L 276.568602 144.741325 
L 282.493117 153.639935 
L 288.417633 162.966827 
L 300.266664 182.233046 
L 312.115695 201.398265 
L 321.002468 215.220467 
L 326.926983 224.050341 
L 332.851499 232.526336 
L 338.776014 240.625249 
L 344.700529 248.333884 
L 350.625045 255.644953 
L 356.54956 262.55323 
L 362.474076 269.052195 
L 368.398591 275.13145 
L 374.323107 280.77505 
L 380.247622 285.960886 
L 386.172137 290.661145 
L 392.096653 294.843804 
L 395.058911 296.730453 
L 398.021168 298.475044 
L 400.983426 300.073583 
L 403.945684 301.522389 
L 406.907941 302.818206 
L 409.870199 303.958331 
L 412.832457 304.940729 
L 415.794715 305.764147 
L 418.756972 306.428227 
L 421.71923 306.933598 
L 424.681488 307.28197 
L 427.643746 307.4762 
L 430.606003 307.520359 
L 433.568261 307.419764 
L 436.530519 307.181006 
L 439.492776 306.811952 
L 445.417292 305.720667 
L 451.341807 304.233142 
L 457.266323 302.453716 
L 478.002127 295.697709 
L 483.926642 294.146259 
L 489.851158 292.983299 
L 492.813415 292.578835 
L 495.775673 292.306604 
L 498.737931 292.175498 
L 501.700188 292.192862 
L 504.662446 292.364422 
L 507.624704 292.694228 
L 510.586962 293.184626 
L 513.549219 293.836253 
L 516.511477 294.648052 
L 519.473735 295.61732 
L 522.435992 296.739765 
L 525.39825 298.009597 
L 528.360508 299.419631 
L 534.285023 302.625336 
L 540.209539 306.276477 
L 546.134054 310.279432 
L 555.020827 316.720484 
L 572.794374 329.918913 
L 578.718889 334.081412 
L 584.643405 338.007112 
L 590.56792 341.646979 
L 596.492435 344.967282 
L 602.416951 347.948909 
L 608.341466 350.586012 
L 614.265982 352.884156 
L 620.190497 354.85819 
L 626.115013 356.529997 
L 632.039528 357.926306 
L 635.001786 358.530324 
L 635.001786 358.530324 
" clip-path="url(#p47cdb5ac06)" style="fill: none; stroke: #107a37; stroke-width: 2.2; stroke-linecap: round"/>
   </g>
   <g id="line2d_21">
    <path d="M 45.5125 357.294227 
L 51.437015 355.754235 
L 57.361531 353.886445 
L 63.286046 351.641747 
L 69.210562 348.968814 
L 72.172819 347.455401 
L 75.135077 345.815296 
L 78.097335 344.042041 
L 81.059593 342.129313 
L 84.02185 340.070996 
L 86.984108 337.861234 
L 89.946366 335.49451 
L 92.908623 332.965713 
L 95.870881 330.270213 
L 98.833139 327.403935 
L 101.795397 324.363437 
L 104.757654 321.145983 
L 107.719912 317.749618 
L 110.68217 314.173242 
L 116.606685 306.480727 
L 122.531201 298.079202 
L 128.455716 288.99697 
L 134.380232 279.281186 
L 140.304747 268.998599 
L 146.229262 258.235587 
L 155.116036 241.425437 
L 175.85184 201.455537 
L 181.776355 190.535132 
L 187.70087 180.132714 
L 193.625386 170.405288 
L 196.587644 165.841243 
L 199.549901 161.500209 
L 202.512159 157.398391 
L 205.474417 153.550877 
L 208.436674 149.971536 
L 211.398932 146.672919 
L 214.36119 143.666187 
L 217.323448 140.961035 
L 220.285705 138.565648 
L 223.247963 136.486658 
L 226.210221 134.72912 
L 229.172478 133.296508 
L 232.134736 132.190719 
L 235.096994 131.412092 
L 238.059252 130.959443 
L 241.021509 130.830116 
L 243.983767 131.020033 
L 246.946025 131.523772 
L 249.908282 132.334639 
L 252.87054 133.444759 
L 255.832798 134.845167 
L 258.795056 136.525909 
L 261.757313 138.476142 
L 264.719571 140.684237 
L 267.681829 143.13789 
L 270.644087 145.824223 
L 273.606344 148.729886 
L 276.568602 151.841159 
L 279.53086 155.144049 
L 285.455375 162.267862 
L 291.379891 169.987155 
L 297.304406 178.188483 
L 303.228921 186.761031 
L 312.115695 200.083697 
L 335.813756 236.041548 
L 341.738272 244.666305 
L 347.662787 252.995277 
L 353.587303 260.962834 
L 359.511818 268.508636 
L 365.436333 275.577834 
L 371.360849 282.121459 
L 377.285364 288.096988 
L 380.247622 290.860361 
L 383.20988 293.469047 
L 386.172137 295.919872 
L 389.134395 298.210214 
L 392.096653 300.338025 
L 395.058911 302.301859 
L 398.021168 304.100894 
L 400.983426 305.734954 
L 403.945684 307.204526 
L 406.907941 308.510777 
L 409.870199 309.655567 
L 412.832457 310.641453 
L 415.794715 311.471698 
L 418.756972 312.150261 
L 421.71923 312.681798 
L 424.681488 313.071646 
L 427.643746 313.325805 
L 430.606003 313.450915 
L 433.568261 313.454227 
L 439.492776 313.127293 
L 445.417292 312.413738 
L 451.341807 311.389236 
L 457.266323 310.134527 
L 466.153096 308.004075 
L 478.002127 305.13697 
L 483.926642 303.868531 
L 489.851158 302.802731 
L 495.775673 301.99741 
L 501.700188 301.499114 
L 507.624704 301.341903 
L 513.549219 301.546658 
L 519.473735 302.120927 
L 525.39825 303.059323 
L 531.322766 304.344443 
L 537.247281 305.94827 
L 543.171796 307.833972 
L 549.096312 309.958004 
L 557.983085 313.48532 
L 569.832116 318.563351 
L 587.605662 326.242767 
L 596.492435 329.851483 
L 605.379209 333.207068 
L 614.265982 336.278474 
L 623.152755 339.063956 
L 632.039528 341.583438 
L 635.001786 342.369632 
L 635.001786 342.369632 
" clip-path="url(#p47cdb5ac06)" style="fill: none; stroke: #006227; stroke-width: 2.2; stroke-linecap: round"/>
   </g>
   <g id="patch_3">
    <path d="M 45.5125 363.1825 
L 45.5125 23.16625 
" style="fill: none; stroke: #cccccc; stroke-width: 1.25; stroke-linejoin: miter; stroke-linecap: square"/>
   </g>
   <g id="patch_4">
    <path d="M 664.47625 363.1825 
L 664.47625 23.16625 
" style="fill: none; stroke: #cccccc; stroke-width: 1.25; stroke-linejoin: miter; stroke-linecap: square"/>
   </g>
   <g id="patch_5">
    <path d="M 45.5125 363.1825 
L 664.47625 363.1825 
" style="fill: none; stroke: #cccccc; stroke-width: 1.25; stroke-linejoin: miter; stroke-linecap: square"/>
   </g>
   <g id="patch_6">
    <path d="M 45.5125 23.16625 
L 664.47625 23.16625 
" style="fill: none; stroke: #cccccc; stroke-width: 1.25; stroke-linejoin: miter; stroke-linecap: square"/>
   </g>
   <g id="text_16">
    <!-- 省际碳排放效率核密度图 -->
    <g style="fill: #262626" transform="translate(277.994375 17.16625) scale(0.14 -0.14)">
     <defs>
      <path id="SimSun-7701" d="M 2200 2300 
L 2200 1725 
L 4575 1725 
L 4575 2450 
L 2475 2450 
L 2200 2300 
z
M 1825 4825 
L 2300 4450 
L 2050 4325 
Q 1325 3425 500 2850 
L 450 2925 
Q 1425 3925 1825 4825 
z
M 3225 4750 
Q 3225 3825 3250 3525 
L 2875 3300 
Q 2900 3775 2900 4250 
Q 2900 4725 2875 5200 
L 3425 4925 
L 3225 4750 
z
M 4425 4725 
Q 5050 4475 5437 4225 
Q 5825 3975 5825 3675 
Q 5825 3575 5775 3400 
Q 5725 3225 5675 3225 
Q 5600 3225 5450 3525 
Q 5200 3975 4375 4650 
L 4425 4725 
z
M 2200 1575 
L 2200 900 
L 4575 900 
L 4575 1575 
L 2200 1575 
z
M 2200 750 
L 2200 50 
L 4575 50 
L 4575 750 
L 2200 750 
z
M 1825 -650 
Q 1850 150 1850 2100 
Q 1125 1725 375 1500 
L 350 1575 
Q 1300 2025 1850 2375 
L 1850 2825 
L 2225 2650 
L 2275 2650 
Q 3700 3625 4225 4300 
L 4625 3850 
L 4375 3800 
Q 3425 3075 2675 2600 
L 4525 2600 
L 4725 2850 
L 5125 2525 
L 4925 2375 
Q 4925 0 4950 -400 
L 4575 -575 
L 4575 -100 
L 2200 -100 
L 2200 -500 
L 1825 -650 
z
" transform="scale(0.015625)"/>
      <path id="SimSun-9645" d="M 4750 2300 
Q 5600 1475 5762 1187 
Q 5925 900 5925 700 
Q 5925 575 5850 450 
Q 5775 325 5750 325 
Q 5650 325 5550 625 
Q 5400 1050 5200 1412 
Q 5000 1775 4675 2250 
L 4750 2300 
z
M 2750 4725 
L 5000 4725 
L 5275 5000 
L 5675 4575 
L 3450 4575 
Q 3250 4575 2975 4500 
L 2750 4725 
z
M 2275 3200 
L 5400 3200 
L 5700 3500 
L 6125 3050 
L 4325 3050 
L 4325 175 
Q 4325 -50 4225 -212 
Q 4125 -375 3700 -525 
Q 3650 -175 2975 50 
L 2975 150 
Q 3675 25 3825 37 
Q 3975 50 3975 275 
L 3975 3050 
L 3100 3050 
Q 2775 3050 2500 2975 
L 2275 3200 
z
M 3625 2125 
L 3400 1975 
Q 2675 600 1900 50 
L 1850 125 
Q 2375 750 2687 1400 
Q 3000 2050 3100 2450 
L 3625 2125 
z
M 700 -550 
Q 725 700 725 2587 
Q 725 4475 700 5050 
L 1050 4825 
L 1950 4825 
L 2175 5050 
L 2525 4700 
L 2300 4550 
L 1600 3200 
Q 2050 2750 2212 2475 
Q 2375 2200 2387 1912 
Q 2400 1625 2275 1375 
Q 2150 1125 1625 950 
Q 1550 1300 1050 1475 
L 1050 -375 
L 700 -550 
z
M 1475 3200 
L 1975 4675 
L 1050 4675 
L 1050 1575 
Q 1675 1425 1862 1475 
Q 2050 1525 2050 1962 
Q 2050 2400 1475 3200 
z
" transform="scale(0.015625)"/>
      <path id="SimSun-56fe" d="M 5675 4700 
L 5675 550 
Q 5675 50 5700 -350 
L 5325 -550 
L 5325 -50 
L 1250 -50 
L 1250 -450 
L 875 -600 
Q 900 -100 900 425 
L 900 4200 
Q 900 4625 875 5150 
L 1250 4925 
L 5275 4925 
L 5450 5175 
L 5850 4850 
L 5675 4700 
z
M 1250 4775 
L 1250 1700 
Q 2425 2200 3075 2825 
Q 2750 3275 2500 3850 
Q 2100 3225 1650 2800 
L 1575 2850 
Q 1975 3375 2250 3937 
Q 2525 4500 2575 4775 
L 1250 4775 
z
M 1250 100 
L 5325 100 
L 5325 4775 
L 2625 4775 
L 3050 4550 
L 2900 4475 
Q 2750 4250 2675 4125 
L 4000 4125 
L 4175 4350 
L 4550 4000 
L 4350 3875 
Q 3925 3275 3475 2775 
Q 4250 2200 5250 2100 
L 5250 2000 
Q 4875 1975 4775 1700 
Q 3900 2025 3250 2600 
Q 2375 1900 1250 1575 
L 1250 100 
z
M 2600 3975 
Q 2950 3350 3275 3000 
Q 3625 3400 3975 3975 
L 2600 3975 
z
M 2750 2050 
Q 3350 1925 3600 1825 
Q 3850 1725 3825 1487 
Q 3800 1250 3725 1250 
Q 3650 1250 3550 1375 
Q 3300 1625 2725 1975 
L 2750 2050 
z
M 2275 1150 
Q 3425 1025 3787 912 
Q 4150 800 4175 525 
Q 4200 250 4075 250 
Q 4000 250 3825 400 
Q 3450 700 2275 1050 
L 2275 1150 
z
" transform="scale(0.015625)"/>
     </defs>
     <use xlink:href="#SimSun-7701"/>
     <use xlink:href="#SimSun-9645" transform="translate(100 0)"/>
     <use xlink:href="#SimSun-78b3" transform="translate(200 0)"/>
     <use xlink:href="#SimSun-6392" transform="translate(300 0)"/>
     <use xlink:href="#SimSun-653e" transform="translate(400 0)"/>
     <use xlink:href="#SimSun-6548" transform="translate(500 0)"/>
     <use xlink:href="#SimSun-7387" transform="translate(600 0)"/>
     <use xlink:href="#SimSun-6838" transform="translate(700 0)"/>
     <use xlink:href="#SimSun-5bc6" transform="translate(800 0)"/>
     <use xlink:href="#SimSun-5ea6" transform="translate(900 0)"/>
     <use xlink:href="#SimSun-56fe" transform="translate(1000 0)"/>
    </g>
   </g>
   <g id="legend_1">
    <g id="patch_7">
     <path d="M 550.17625 95.024687 
L 658.17625 95.024687 
Q 659.97625 95.024687 659.97625 93.224687 
L 659.97625 29.46625 
Q 659.97625 27.66625 658.17625 27.66625 
L 550.17625 27.66625 
Q 548.37625 27.66625 548.37625 29.46625 
L 548.37625 93.224687 
Q 548.37625 95.024687 550.17625 95.024687 
z
" style="fill: #ffffff; opacity: 0.8; stroke: #cccccc; stroke-linejoin: miter"/>
    </g>
    <g id="text_17">
     <!-- 年份 -->
     <g style="fill: #262626" transform="translate(594.17625 38.385) scale(0.1 -0.1)">
      <defs>
       <path id="SimSun-5e74" d="M 1775 2675 
L 1775 1375 
L 3225 1375 
L 3225 2675 
L 1775 2675 
z
M 1825 5275 
L 2375 4925 
L 2150 4825 
Q 1950 4525 1750 4225 
L 5000 4225 
L 5375 4600 
L 5900 4075 
L 3600 4075 
L 3600 2825 
L 4625 2825 
L 4975 3175 
L 5475 2675 
L 3600 2675 
L 3600 1375 
L 5225 1375 
L 5600 1750 
L 6125 1225 
L 3600 1225 
L 3600 275 
Q 3600 -150 3625 -475 
L 3200 -650 
Q 3225 125 3225 475 
L 3225 1225 
L 1100 1225 
Q 775 1225 500 1150 
L 275 1375 
L 1400 1375 
Q 1400 2525 1375 3050 
L 1775 2825 
L 3225 2825 
L 3225 4075 
L 1675 4075 
Q 1425 3700 1150 3387 
Q 875 3075 400 2700 
L 325 2750 
Q 775 3225 1175 3862 
Q 1575 4500 1825 5275 
z
" transform="scale(0.015625)"/>
       <path id="SimSun-4efd" d="M 1625 500 
Q 1625 -125 1650 -500 
L 1250 -650 
Q 1275 -75 1275 375 
L 1275 2975 
Q 825 2350 300 1875 
L 250 1975 
Q 800 2600 1212 3425 
Q 1625 4250 1850 5050 
L 2400 4725 
L 2175 4600 
Q 1725 3750 1475 3275 
L 1825 3100 
L 1625 2925 
L 1625 500 
z
M 2550 2400 
L 4650 2400 
L 4875 2625 
L 5200 2300 
L 5000 2150 
Q 4950 425 4887 50 
Q 4825 -325 4300 -550 
Q 4200 -225 3525 -25 
L 3525 75 
Q 4200 -25 4350 0 
Q 4500 25 4550 162 
Q 4600 300 4675 2250 
L 3575 2250 
Q 3500 1450 3350 950 
Q 3200 450 2850 75 
Q 2500 -300 1725 -650 
L 1700 -550 
Q 2350 -200 2650 225 
Q 2950 650 3062 1187 
Q 3175 1725 3200 2250 
L 3050 2250 
L 2750 2200 
L 2550 2400 
z
M 4150 5175 
L 4575 5000 
L 4375 4850 
Q 4525 4150 4812 3700 
Q 5100 3250 5450 3000 
Q 5800 2750 6125 2650 
L 6125 2575 
Q 5675 2500 5600 2300 
Q 4975 2750 4612 3525 
Q 4250 4300 4150 5175 
z
M 3225 4850 
L 3750 4525 
L 3525 4400 
Q 3125 3475 2737 2950 
Q 2350 2425 1850 2025 
L 1775 2100 
Q 2325 2625 2712 3437 
Q 3100 4250 3225 4850 
z
" transform="scale(0.015625)"/>
      </defs>
      <use xlink:href="#SimSun-5e74"/>
      <use xlink:href="#SimSun-4efd" transform="translate(100 0)"/>
     </g>
    </g>
    <g id="line2d_22">
     <path d="M 551.97625 48.174062 
L 560.97625 48.174062 
L 569.97625 48.174062 
" style="fill: none; stroke: #c1e6ba; stroke-width: 2.2; stroke-linecap: round"/>
    </g>
    <g id="text_18">
     <!-- 2015 -->
     <g style="fill: #262626" transform="translate(577.17625 51.324062) scale(0.09 -0.09)">
      <use xlink:href="#TimesNewRomanPSMT-32"/>
      <use xlink:href="#TimesNewRomanPSMT-30" transform="translate(50 0)"/>
      <use xlink:href="#TimesNewRomanPSMT-31" transform="translate(100 0)"/>
      <use xlink:href="#TimesNewRomanPSMT-35" transform="translate(150 0)"/>
     </g>
    </g>
    <g id="line2d_23">
     <path d="M 551.97625 60.899219 
L 560.97625 60.899219 
L 569.97625 60.899219 
" style="fill: none; stroke: #a4da9e; stroke-width: 2.2; stroke-linecap: round"/>
    </g>
    <g id="text_19">
     <!-- 2016 -->
     <g style="fill: #262626" transform="translate(577.17625 64.049219) scale(0.09 -0.09)">
      <use xlink:href="#TimesNewRomanPSMT-32"/>
      <use xlink:href="#TimesNewRomanPSMT-30" transform="translate(50 0)"/>
      <use xlink:href="#TimesNewRomanPSMT-31" transform="translate(100 0)"/>
      <use xlink:href="#TimesNewRomanPSMT-36" transform="translate(150 0)"/>
     </g>
    </g>
    <g id="line2d_24">
     <path d="M 551.97625 73.624375 
L 560.97625 73.624375 
L 569.97625 73.624375 
" style="fill: none; stroke: #84cc83; stroke-width: 2.2; stroke-linecap: round"/>
    </g>
    <g id="text_20">
     <!-- 2017 -->
     <g style="fill: #262626" transform="translate(577.17625 76.774375) scale(0.09 -0.09)">
      <defs>
       <path id="TimesNewRomanPSMT-37" d="M 644 4238 
L 2916 4238 
L 2916 4119 
L 1503 -88 
L 1153 -88 
L 2419 3728 
L 1253 3728 
Q 900 3728 750 3644 
Q 488 3500 328 3200 
L 238 3234 
L 644 4238 
z
" transform="scale(0.015625)"/>
      </defs>
      <use xlink:href="#TimesNewRomanPSMT-32"/>
      <use xlink:href="#TimesNewRomanPSMT-30" transform="translate(50 0)"/>
      <use xlink:href="#TimesNewRomanPSMT-31" transform="translate(100 0)"/>
      <use xlink:href="#TimesNewRomanPSMT-37" transform="translate(150 0)"/>
     </g>
    </g>
    <g id="line2d_25">
     <path d="M 551.97625 86.349531 
L 560.97625 86.349531 
L 569.97625 86.349531 
" style="fill: none; stroke: #62bb6d; stroke-width: 2.2; stroke-linecap: round"/>
    </g>
    <g id="text_21">
     <!-- 2018 -->
     <g style="fill: #262626" transform="translate(577.17625 89.499531) scale(0.09 -0.09)">
      <use xlink:href="#TimesNewRomanPSMT-32"/>
      <use xlink:href="#TimesNewRomanPSMT-30" transform="translate(50 0)"/>
      <use xlink:href="#TimesNewRomanPSMT-31" transform="translate(100 0)"/>
      <use xlink:href="#TimesNewRomanPSMT-38" transform="translate(150 0)"/>
     </g>
    </g>
    <g id="line2d_26">
     <path d="M 613.17625 48.174062 
L 622.17625 48.174062 
L 631.17625 48.174062 
" style="fill: none; stroke: #3fa85b; stroke-width: 2.2; stroke-linecap: round"/>
    </g>
    <g id="text_22">
     <!-- 2019 -->
     <g style="fill: #262626" transform="translate(638.37625 51.324062) scale(0.09 -0.09)">
      <defs>
       <path id="TimesNewRomanPSMT-39" d="M 338 -88 
L 338 28 
Q 744 34 1094 217 
Q 1444 400 1770 856 
Q 2097 1313 2225 1859 
Q 1734 1544 1338 1544 
Q 891 1544 572 1889 
Q 253 2234 253 2806 
Q 253 3363 572 3797 
Q 956 4325 1575 4325 
Q 2097 4325 2469 3894 
Q 2925 3359 2925 2575 
Q 2925 1869 2578 1258 
Q 2231 647 1613 244 
Q 1109 -88 516 -88 
L 338 -88 
z
M 2275 2091 
Q 2331 2497 2331 2741 
Q 2331 3044 2228 3395 
Q 2125 3747 1936 3934 
Q 1747 4122 1506 4122 
Q 1228 4122 1018 3872 
Q 809 3622 809 3128 
Q 809 2469 1088 2097 
Q 1291 1828 1588 1828 
Q 1731 1828 1928 1897 
Q 2125 1966 2275 2091 
z
" transform="scale(0.015625)"/>
      </defs>
      <use xlink:href="#TimesNewRomanPSMT-32"/>
      <use xlink:href="#TimesNewRomanPSMT-30" transform="translate(50 0)"/>
      <use xlink:href="#TimesNewRomanPSMT-31" transform="translate(100 0)"/>
      <use xlink:href="#TimesNewRomanPSMT-39" transform="translate(150 0)"/>
     </g>
    </g>
    <g id="line2d_27">
     <path d="M 613.17625 60.899219 
L 622.17625 60.899219 
L 631.17625 60.899219 
" style="fill: none; stroke: #289049; stroke-width: 2.2; stroke-linecap: round"/>
    </g>
    <g id="text_23">
     <!-- 2020 -->
     <g style="fill: #262626" transform="translate(638.37625 64.049219) scale(0.09 -0.09)">
      <use xlink:href="#TimesNewRomanPSMT-32"/>
      <use xlink:href="#TimesNewRomanPSMT-30" transform="translate(50 0)"/>
      <use xlink:href="#TimesNewRomanPSMT-32" transform="translate(100 0)"/>
      <use xlink:href="#TimesNewRomanPSMT-30" transform="translate(150 0)"/>
     </g>
    </g>
    <g id="line2d_28">
     <path d="M 613.17625 73.624375 
L 622.17625 73.624375 
L 631.17625 73.624375 
" style="fill: none; stroke: #107a37; stroke-width: 2.2; stroke-linecap: round"/>
    </g>
    <g id="text_24">
     <!-- 2021 -->
     <g style="fill: #262626" transform="translate(638.37625 76.774375) scale(0.09 -0.09)">
      <use xlink:href="#TimesNewRomanPSMT-32"/>
      <use xlink:href="#TimesNewRomanPSMT-30" transform="translate(50 0)"/>
      <use xlink:href="#TimesNewRomanPSMT-32" transform="translate(100 0)"/>
      <use xlink:href="#TimesNewRomanPSMT-31" transform="translate(150 0)"/>
     </g>
    </g>
    <g id="line2d_29">
     <path d="M 613.17625 86.349531 
L 622.17625 86.349531 
L 631.17625 86.349531 
" style="fill: none; stroke: #006227; stroke-width: 2.2; stroke-linecap: round"/>
    </g>
    <g id="text_25">
     <!-- 2022 -->
     <g style="fill: #262626" transform="translate(638.37625 89.499531) scale(0.09 -0.09)">
      <use xlink:href="#TimesNewRomanPSMT-32"/>
      <use xlink:href="#TimesNewRomanPSMT-30" transform="translate(50 0)"/>
      <use xlink:href="#TimesNewRomanPSMT-32" transform="translate(100 0)"/>
      <use xlink:href="#TimesNewRomanPSMT-32" transform="translate(150 0)"/>
     </g>
    </g>
   </g>
  </g>
 </g>
 <defs>
  <clipPath id="p47cdb5ac06">
   <rect x="45.5125" y="23.16625" width="618.96375" height="340.01625"/>
  </clipPath>
 </defs>
</svg>
