<?xml version="1.0" encoding="utf-8" standalone="no"?>
<!DOCTYPE svg PUBLIC "-//W3C//DTD SVG 1.1//EN"
  "http://www.w3.org/Graphics/SVG/1.1/DTD/svg11.dtd">
<svg xmlns:xlink="http://www.w3.org/1999/xlink" width="743.74125pt" height="419.347344pt" viewBox="0 0 743.74125 419.347344" xmlns="http://www.w3.org/2000/svg" version="1.1">
 <metadata>
  <rdf:RDF xmlns:dc="http://purl.org/dc/elements/1.1/" xmlns:cc="http://creativecommons.org/ns#" xmlns:rdf="http://www.w3.org/1999/02/22-rdf-syntax-ns#">
   <cc:Work>
    <dc:type rdf:resource="http://purl.org/dc/dcmitype/StillImage"/>
    <dc:date>2026-05-06T22:05:46.571451</dc:date>
    <dc:format>image/svg+xml</dc:format>
    <dc:creator>
     <cc:Agent>
      <dc:title>Matplotlib v3.10.8, https://matplotlib.org/</dc:title>
     </cc:Agent>
    </dc:creator>
   </cc:Work>
  </rdf:RDF>
 </metadata>
 <defs>
  <style type="text/css">*{stroke-linejoin: round; stroke-linecap: butt}</style>
 </defs>
 <g id="figure_1">
  <g id="patch_1">
   <path d="M 0 419.347344 
L 743.74125 419.347344 
L 743.74125 0 
L 0 0 
z
" style="fill: #ffffff"/>
  </g>
  <g id="axes_1">
   <g id="patch_2">
    <path d="M 64.66875 376.17625 
L 736.54125 376.17625 
L 736.54125 23.16625 
L 64.66875 23.16625 
z
" style="fill: #ffffff"/>
   </g>
   <g id="matplotlib.axis_1">
    <g id="xtick_1">
     <g id="line2d_1">
      <path d="M 64.66875 376.17625 
L 64.66875 23.16625 
" clip-path="url(#p46caa8e9d9)" style="fill: none; stroke: #cccccc; stroke-linecap: round"/>
     </g>
     <g id="text_1">
      <!-- 0.000 -->
      <g style="fill: #262626" transform="translate(52.29375 393.314375) scale(0.11 -0.11)">
       <defs>
        <path id="TimesNewRomanPSMT-30" d="M 231 2094 
Q 231 2819 450 3342 
Q 669 3866 1031 4122 
Q 1313 4325 1613 4325 
Q 2100 4325 2488 3828 
Q 2972 3213 2972 2159 
Q 2972 1422 2759 906 
Q 2547 391 2217 158 
Q 1888 -75 1581 -75 
Q 975 -75 572 641 
Q 231 1244 231 2094 
z
M 844 2016 
Q 844 1141 1059 588 
Q 1238 122 1591 122 
Q 1759 122 1940 273 
Q 2122 425 2216 781 
Q 2359 1319 2359 2297 
Q 2359 3022 2209 3506 
Q 2097 3866 1919 4016 
Q 1791 4119 1609 4119 
Q 1397 4119 1231 3928 
Q 1006 3669 925 3112 
Q 844 2556 844 2016 
z
" transform="scale(0.015625)"/>
        <path id="TimesNewRomanPSMT-2e" d="M 800 606 
Q 947 606 1047 504 
Q 1147 403 1147 259 
Q 1147 116 1045 14 
Q 944 -88 800 -88 
Q 656 -88 554 14 
Q 453 116 453 259 
Q 453 406 554 506 
Q 656 606 800 606 
z
" transform="scale(0.015625)"/>
       </defs>
       <use xlink:href="#TimesNewRomanPSMT-30"/>
       <use xlink:href="#TimesNewRomanPSMT-2e" transform="translate(50 0)"/>
       <use xlink:href="#TimesNewRomanPSMT-30" transform="translate(75 0)"/>
       <use xlink:href="#TimesNewRomanPSMT-30" transform="translate(125 0)"/>
       <use xlink:href="#TimesNewRomanPSMT-30" transform="translate(175 0)"/>
      </g>
     </g>
    </g>
    <g id="xtick_2">
     <g id="line2d_2">
      <path d="M 140.627186 376.17625 
L 140.627186 23.16625 
" clip-path="url(#p46caa8e9d9)" style="fill: none; stroke: #cccccc; stroke-linecap: round"/>
     </g>
     <g id="text_2">
      <!-- 0.005 -->
      <g style="fill: #262626" transform="translate(128.252186 393.314375) scale(0.11 -0.11)">
       <defs>
        <path id="TimesNewRomanPSMT-35" d="M 2778 4238 
L 2534 3706 
L 1259 3706 
L 981 3138 
Q 1809 3016 2294 2522 
Q 2709 2097 2709 1522 
Q 2709 1188 2573 903 
Q 2438 619 2231 419 
Q 2025 219 1772 97 
Q 1413 -75 1034 -75 
Q 653 -75 479 54 
Q 306 184 306 341 
Q 306 428 378 495 
Q 450 563 559 563 
Q 641 563 702 538 
Q 763 513 909 409 
Q 1144 247 1384 247 
Q 1750 247 2026 523 
Q 2303 800 2303 1197 
Q 2303 1581 2056 1914 
Q 1809 2247 1375 2428 
Q 1034 2569 447 2591 
L 1259 4238 
L 2778 4238 
z
" transform="scale(0.015625)"/>
       </defs>
       <use xlink:href="#TimesNewRomanPSMT-30"/>
       <use xlink:href="#TimesNewRomanPSMT-2e" transform="translate(50 0)"/>
       <use xlink:href="#TimesNewRomanPSMT-30" transform="translate(75 0)"/>
       <use xlink:href="#TimesNewRomanPSMT-30" transform="translate(125 0)"/>
       <use xlink:href="#TimesNewRomanPSMT-35" transform="translate(175 0)"/>
      </g>
     </g>
    </g>
    <g id="xtick_3">
     <g id="line2d_3">
      <path d="M 216.585622 376.17625 
L 216.585622 23.16625 
" clip-path="url(#p46caa8e9d9)" style="fill: none; stroke: #cccccc; stroke-linecap: round"/>
     </g>
     <g id="text_3">
      <!-- 0.010 -->
      <g style="fill: #262626" transform="translate(204.210622 393.314375) scale(0.11 -0.11)">
       <defs>
        <path id="TimesNewRomanPSMT-31" d="M 750 3822 
L 1781 4325 
L 1884 4325 
L 1884 747 
Q 1884 391 1914 303 
Q 1944 216 2037 169 
Q 2131 122 2419 116 
L 2419 0 
L 825 0 
L 825 116 
Q 1125 122 1212 167 
Q 1300 213 1334 289 
Q 1369 366 1369 747 
L 1369 3034 
Q 1369 3497 1338 3628 
Q 1316 3728 1258 3775 
Q 1200 3822 1119 3822 
Q 1003 3822 797 3725 
L 750 3822 
z
" transform="scale(0.015625)"/>
       </defs>
       <use xlink:href="#TimesNewRomanPSMT-30"/>
       <use xlink:href="#TimesNewRomanPSMT-2e" transform="translate(50 0)"/>
       <use xlink:href="#TimesNewRomanPSMT-30" transform="translate(75 0)"/>
       <use xlink:href="#TimesNewRomanPSMT-31" transform="translate(125 0)"/>
       <use xlink:href="#TimesNewRomanPSMT-30" transform="translate(175 0)"/>
      </g>
     </g>
    </g>
    <g id="xtick_4">
     <g id="line2d_4">
      <path d="M 292.544058 376.17625 
L 292.544058 23.16625 
" clip-path="url(#p46caa8e9d9)" style="fill: none; stroke: #cccccc; stroke-linecap: round"/>
     </g>
     <g id="text_4">
      <!-- 0.015 -->
      <g style="fill: #262626" transform="translate(280.169058 393.314375) scale(0.11 -0.11)">
       <use xlink:href="#TimesNewRomanPSMT-30"/>
       <use xlink:href="#TimesNewRomanPSMT-2e" transform="translate(50 0)"/>
       <use xlink:href="#TimesNewRomanPSMT-30" transform="translate(75 0)"/>
       <use xlink:href="#TimesNewRomanPSMT-31" transform="translate(125 0)"/>
       <use xlink:href="#TimesNewRomanPSMT-35" transform="translate(175 0)"/>
      </g>
     </g>
    </g>
    <g id="xtick_5">
     <g id="line2d_5">
      <path d="M 368.502494 376.17625 
L 368.502494 23.16625 
" clip-path="url(#p46caa8e9d9)" style="fill: none; stroke: #cccccc; stroke-linecap: round"/>
     </g>
     <g id="text_5">
      <!-- 0.020 -->
      <g style="fill: #262626" transform="translate(356.127494 393.314375) scale(0.11 -0.11)">
       <defs>
        <path id="TimesNewRomanPSMT-32" d="M 2934 816 
L 2638 0 
L 138 0 
L 138 116 
Q 1241 1122 1691 1759 
Q 2141 2397 2141 2925 
Q 2141 3328 1894 3587 
Q 1647 3847 1303 3847 
Q 991 3847 742 3664 
Q 494 3481 375 3128 
L 259 3128 
Q 338 3706 661 4015 
Q 984 4325 1469 4325 
Q 1984 4325 2329 3994 
Q 2675 3663 2675 3213 
Q 2675 2891 2525 2569 
Q 2294 2063 1775 1497 
Q 997 647 803 472 
L 1909 472 
Q 2247 472 2383 497 
Q 2519 522 2628 598 
Q 2738 675 2819 816 
L 2934 816 
z
" transform="scale(0.015625)"/>
       </defs>
       <use xlink:href="#TimesNewRomanPSMT-30"/>
       <use xlink:href="#TimesNewRomanPSMT-2e" transform="translate(50 0)"/>
       <use xlink:href="#TimesNewRomanPSMT-30" transform="translate(75 0)"/>
       <use xlink:href="#TimesNewRomanPSMT-32" transform="translate(125 0)"/>
       <use xlink:href="#TimesNewRomanPSMT-30" transform="translate(175 0)"/>
      </g>
     </g>
    </g>
    <g id="xtick_6">
     <g id="line2d_6">
      <path d="M 444.460929 376.17625 
L 444.460929 23.16625 
" clip-path="url(#p46caa8e9d9)" style="fill: none; stroke: #cccccc; stroke-linecap: round"/>
     </g>
     <g id="text_6">
      <!-- 0.025 -->
      <g style="fill: #262626" transform="translate(432.085929 393.314375) scale(0.11 -0.11)">
       <use xlink:href="#TimesNewRomanPSMT-30"/>
       <use xlink:href="#TimesNewRomanPSMT-2e" transform="translate(50 0)"/>
       <use xlink:href="#TimesNewRomanPSMT-30" transform="translate(75 0)"/>
       <use xlink:href="#TimesNewRomanPSMT-32" transform="translate(125 0)"/>
       <use xlink:href="#TimesNewRomanPSMT-35" transform="translate(175 0)"/>
      </g>
     </g>
    </g>
    <g id="xtick_7">
     <g id="line2d_7">
      <path d="M 520.419365 376.17625 
L 520.419365 23.16625 
" clip-path="url(#p46caa8e9d9)" style="fill: none; stroke: #cccccc; stroke-linecap: round"/>
     </g>
     <g id="text_7">
      <!-- 0.030 -->
      <g style="fill: #262626" transform="translate(508.044365 393.314375) scale(0.11 -0.11)">
       <defs>
        <path id="TimesNewRomanPSMT-33" d="M 325 3431 
Q 506 3859 782 4092 
Q 1059 4325 1472 4325 
Q 1981 4325 2253 3994 
Q 2459 3747 2459 3466 
Q 2459 3003 1878 2509 
Q 2269 2356 2469 2072 
Q 2669 1788 2669 1403 
Q 2669 853 2319 450 
Q 1863 -75 997 -75 
Q 569 -75 414 31 
Q 259 138 259 259 
Q 259 350 332 419 
Q 406 488 509 488 
Q 588 488 669 463 
Q 722 447 909 348 
Q 1097 250 1169 231 
Q 1284 197 1416 197 
Q 1734 197 1970 444 
Q 2206 691 2206 1028 
Q 2206 1275 2097 1509 
Q 2016 1684 1919 1775 
Q 1784 1900 1550 2001 
Q 1316 2103 1072 2103 
L 972 2103 
L 972 2197 
Q 1219 2228 1467 2375 
Q 1716 2522 1828 2728 
Q 1941 2934 1941 3181 
Q 1941 3503 1739 3701 
Q 1538 3900 1238 3900 
Q 753 3900 428 3381 
L 325 3431 
z
" transform="scale(0.015625)"/>
       </defs>
       <use xlink:href="#TimesNewRomanPSMT-30"/>
       <use xlink:href="#TimesNewRomanPSMT-2e" transform="translate(50 0)"/>
       <use xlink:href="#TimesNewRomanPSMT-30" transform="translate(75 0)"/>
       <use xlink:href="#TimesNewRomanPSMT-33" transform="translate(125 0)"/>
       <use xlink:href="#TimesNewRomanPSMT-30" transform="translate(175 0)"/>
      </g>
     </g>
    </g>
    <g id="xtick_8">
     <g id="line2d_8">
      <path d="M 596.377801 376.17625 
L 596.377801 23.16625 
" clip-path="url(#p46caa8e9d9)" style="fill: none; stroke: #cccccc; stroke-linecap: round"/>
     </g>
     <g id="text_8">
      <!-- 0.035 -->
      <g style="fill: #262626" transform="translate(584.002801 393.314375) scale(0.11 -0.11)">
       <use xlink:href="#TimesNewRomanPSMT-30"/>
       <use xlink:href="#TimesNewRomanPSMT-2e" transform="translate(50 0)"/>
       <use xlink:href="#TimesNewRomanPSMT-30" transform="translate(75 0)"/>
       <use xlink:href="#TimesNewRomanPSMT-33" transform="translate(125 0)"/>
       <use xlink:href="#TimesNewRomanPSMT-35" transform="translate(175 0)"/>
      </g>
     </g>
    </g>
    <g id="xtick_9">
     <g id="line2d_9">
      <path d="M 672.336237 376.17625 
L 672.336237 23.16625 
" clip-path="url(#p46caa8e9d9)" style="fill: none; stroke: #cccccc; stroke-linecap: round"/>
     </g>
     <g id="text_9">
      <!-- 0.040 -->
      <g style="fill: #262626" transform="translate(659.961237 393.314375) scale(0.11 -0.11)">
       <defs>
        <path id="TimesNewRomanPSMT-34" d="M 2978 1563 
L 2978 1119 
L 2409 1119 
L 2409 0 
L 1894 0 
L 1894 1119 
L 100 1119 
L 100 1519 
L 2066 4325 
L 2409 4325 
L 2409 1563 
L 2978 1563 
z
M 1894 1563 
L 1894 3666 
L 406 1563 
L 1894 1563 
z
" transform="scale(0.015625)"/>
       </defs>
       <use xlink:href="#TimesNewRomanPSMT-30"/>
       <use xlink:href="#TimesNewRomanPSMT-2e" transform="translate(50 0)"/>
       <use xlink:href="#TimesNewRomanPSMT-30" transform="translate(75 0)"/>
       <use xlink:href="#TimesNewRomanPSMT-34" transform="translate(125 0)"/>
       <use xlink:href="#TimesNewRomanPSMT-30" transform="translate(175 0)"/>
      </g>
     </g>
    </g>
    <g id="text_10">
     <!-- 单位 GDP 碳排放（Carbon / GDP_constant） -->
     <g style="fill: #262626" transform="translate(286.498125 409.557969) scale(0.12 -0.12)">
      <defs>
       <path id="SimSun-5355" d="M 1600 3800 
L 1600 2975 
L 2950 2975 
L 2950 3800 
L 1600 3800 
z
M 3300 3800 
L 3300 2975 
L 4725 2975 
L 4725 3800 
L 3300 3800 
z
M 1600 2825 
L 1600 1975 
L 2950 1975 
L 2950 2825 
L 1600 2825 
z
M 3300 2825 
L 3300 1975 
L 4725 1975 
L 4725 2825 
L 3300 2825 
z
M 1825 5150 
L 1875 5225 
Q 2225 5025 2487 4812 
Q 2750 4600 2737 4425 
Q 2725 4250 2637 4162 
Q 2550 4075 2525 4075 
Q 2425 4075 2325 4375 
Q 2175 4750 1825 5150 
z
M 3300 900 
Q 3300 -125 3325 -450 
L 2925 -625 
Q 2950 250 2950 900 
L 825 900 
L 500 850 
L 300 1050 
L 2950 1050 
L 2950 1825 
L 1600 1825 
L 1600 1525 
L 1225 1375 
Q 1250 2075 1250 2775 
Q 1250 3475 1225 4175 
L 1625 3950 
L 3525 3950 
Q 3700 4225 3887 4612 
Q 4075 5000 4150 5275 
L 4650 4900 
Q 4450 4825 4212 4575 
Q 3975 4325 3675 3950 
L 4675 3950 
L 4875 4175 
L 5275 3875 
L 5050 3700 
Q 5050 2175 5075 1700 
L 4725 1550 
L 4725 1825 
L 3300 1825 
L 3300 1050 
L 5175 1050 
L 5575 1450 
L 6125 900 
L 3300 900 
z
" transform="scale(0.015625)"/>
       <path id="SimSun-4f4d" d="M 1250 -600 
Q 1275 150 1275 3100 
Q 750 2225 325 1775 
L 250 1825 
Q 725 2575 1112 3450 
Q 1500 4325 1700 5225 
L 2275 4925 
L 2050 4800 
Q 1650 3900 1475 3500 
L 1800 3275 
L 1600 3125 
Q 1600 125 1625 -400 
L 1250 -600 
z
M 3300 5125 
L 3375 5175 
Q 4100 4625 4112 4375 
Q 4125 4125 4000 4025 
Q 3875 3925 3850 3925 
Q 3725 3925 3700 4200 
Q 3625 4575 3300 5125 
z
M 2025 3725 
L 5050 3725 
L 5400 4075 
L 5900 3575 
L 2825 3575 
Q 2525 3575 2250 3500 
L 2025 3725 
z
M 2600 3000 
L 2675 3050 
Q 3300 2050 3400 1712 
Q 3500 1375 3500 1200 
Q 3500 950 3362 800 
Q 3225 650 3175 650 
Q 3100 650 3100 825 
Q 3075 1125 2975 1675 
Q 2875 2225 2600 3000 
z
M 4725 3325 
L 5325 3000 
Q 5100 2875 4875 2125 
Q 4650 1375 4175 -25 
L 5300 -25 
L 5650 325 
L 6150 -175 
L 2700 -175 
Q 2375 -175 2100 -250 
L 1875 -25 
L 4000 -25 
Q 4300 1000 4500 1962 
Q 4700 2925 4725 3325 
z
" transform="scale(0.015625)"/>
       <path id="TimesNewRomanPSMT-20" transform="scale(0.015625)"/>
       <path id="TimesNewRomanPSMT-47" d="M 3928 4334 
L 4038 2997 
L 3928 2997 
Q 3763 3497 3500 3750 
Q 3122 4116 2528 4116 
Q 1719 4116 1297 3475 
Q 944 2934 944 2188 
Q 944 1581 1178 1081 
Q 1413 581 1792 348 
Q 2172 116 2572 116 
Q 2806 116 3025 175 
Q 3244 234 3447 350 
L 3447 1575 
Q 3447 1894 3398 1992 
Q 3350 2091 3248 2142 
Q 3147 2194 2891 2194 
L 2891 2313 
L 4531 2313 
L 4531 2194 
L 4453 2194 
Q 4209 2194 4119 2031 
Q 4056 1916 4056 1575 
L 4056 278 
Q 3697 84 3347 -6 
Q 2997 -97 2569 -97 
Q 1341 -97 703 691 
Q 225 1281 225 2053 
Q 225 2613 494 3125 
Q 813 3734 1369 4063 
Q 1834 4334 2469 4334 
Q 2700 4334 2889 4296 
Q 3078 4259 3425 4131 
Q 3600 4066 3659 4066 
Q 3719 4066 3761 4120 
Q 3803 4175 3813 4334 
L 3928 4334 
z
" transform="scale(0.015625)"/>
       <path id="TimesNewRomanPSMT-44" d="M 109 0 
L 109 116 
L 269 116 
Q 538 116 650 288 
Q 719 391 719 750 
L 719 3488 
Q 719 3884 631 3984 
Q 509 4122 269 4122 
L 109 4122 
L 109 4238 
L 1834 4238 
Q 2784 4238 3279 4022 
Q 3775 3806 4076 3303 
Q 4378 2800 4378 2141 
Q 4378 1256 3841 663 
Q 3238 0 2003 0 
L 109 0 
z
M 1319 306 
Q 1716 219 1984 219 
Q 2709 219 3187 728 
Q 3666 1238 3666 2109 
Q 3666 2988 3187 3494 
Q 2709 4000 1959 4000 
Q 1678 4000 1319 3909 
L 1319 306 
z
" transform="scale(0.015625)"/>
       <path id="TimesNewRomanPSMT-50" d="M 1313 1984 
L 1313 750 
Q 1313 350 1400 253 
Q 1519 116 1759 116 
L 1922 116 
L 1922 0 
L 106 0 
L 106 116 
L 266 116 
Q 534 116 650 291 
Q 713 388 713 750 
L 713 3488 
Q 713 3888 628 3984 
Q 506 4122 266 4122 
L 106 4122 
L 106 4238 
L 1659 4238 
Q 2228 4238 2556 4120 
Q 2884 4003 3109 3725 
Q 3334 3447 3334 3066 
Q 3334 2547 2992 2222 
Q 2650 1897 2025 1897 
Q 1872 1897 1694 1919 
Q 1516 1941 1313 1984 
z
M 1313 2163 
Q 1478 2131 1606 2115 
Q 1734 2100 1825 2100 
Q 2150 2100 2386 2351 
Q 2622 2603 2622 3003 
Q 2622 3278 2509 3514 
Q 2397 3750 2190 3867 
Q 1984 3984 1722 3984 
Q 1563 3984 1313 3925 
L 1313 2163 
z
" transform="scale(0.015625)"/>
       <path id="SimSun-78b3" d="M 4075 3850 
Q 4075 4800 4050 5250 
L 4550 5025 
L 4375 4875 
L 4375 3850 
L 5325 3850 
Q 5325 4475 5300 4950 
L 5825 4700 
L 5625 4550 
Q 5625 4050 5650 3625 
L 5325 3475 
L 5325 3700 
L 3500 3700 
L 3900 3475 
Q 3725 3425 3575 2850 
L 5400 2850 
L 5700 3150 
L 6125 2700 
L 4450 2700 
L 4825 2475 
L 4625 2375 
L 4550 1900 
Q 4625 1475 4800 1125 
Q 5225 1675 5375 2025 
L 5775 1675 
Q 5500 1625 4850 1000 
Q 5125 475 5450 200 
Q 5775 -75 6150 -175 
L 6150 -250 
Q 5850 -275 5675 -500 
Q 5200 -100 4887 437 
Q 4575 975 4500 1625 
Q 4350 750 3912 225 
Q 3475 -300 2675 -625 
L 2625 -550 
Q 3275 -175 3650 325 
Q 4025 825 4137 1462 
Q 4250 2100 4275 2700 
L 3550 2700 
Q 3250 1425 2775 637 
Q 2300 -150 1650 -600 
L 1575 -550 
Q 2250 125 2625 900 
Q 3000 1675 3225 2700 
Q 2975 2700 2700 2625 
L 2475 2850 
L 3250 2850 
Q 3350 3250 3425 3700 
L 3200 3700 
L 3025 3500 
L 2700 3775 
L 2875 3925 
Q 2875 4575 2850 4975 
L 3350 4725 
L 3175 4575 
L 3175 3850 
L 4075 3850 
z
M 3750 1975 
Q 3800 1325 3712 1125 
Q 3625 925 3475 900 
Q 3325 875 3262 912 
Q 3200 950 3200 975 
Q 3200 1050 3325 1200 
Q 3500 1400 3650 1975 
L 3750 1975 
z
M 2275 2675 
Q 2275 950 2300 450 
L 1950 275 
L 1950 500 
L 1225 500 
L 1225 -75 
L 900 -225 
Q 925 825 925 2100 
Q 625 1550 325 1250 
L 250 1300 
Q 975 2475 1250 4300 
L 1075 4300 
Q 750 4300 475 4225 
L 250 4450 
L 1975 4450 
L 2250 4725 
L 2650 4300 
L 1625 4300 
Q 1450 3400 1250 2850 
L 1900 2850 
L 2050 3100 
L 2425 2825 
L 2275 2675 
z
M 1225 2700 
L 1225 650 
L 1950 650 
L 1950 2700 
L 1225 2700 
z
" transform="scale(0.015625)"/>
       <path id="SimSun-6392" d="M 3400 -575 
Q 3425 75 3425 1200 
L 2500 1200 
L 2275 1150 
L 2075 1350 
L 3425 1350 
L 3425 2500 
L 2900 2500 
L 2675 2450 
L 2475 2650 
L 3425 2650 
L 3425 3775 
L 2775 3775 
L 2525 3725 
L 2325 3925 
L 3425 3925 
Q 3425 4850 3400 5225 
L 3975 4925 
L 3750 4750 
L 3750 -400 
L 3400 -575 
z
M 4725 1175 
Q 4725 200 4750 -400 
L 4400 -575 
L 4400 4050 
Q 4400 4750 4375 5200 
L 4975 4925 
L 4725 4750 
L 4725 3900 
L 5450 3900 
L 5700 4150 
L 6100 3750 
L 4725 3750 
L 4725 2625 
L 5375 2625 
L 5625 2875 
L 6025 2475 
L 4725 2475 
L 4725 1325 
L 5450 1325 
L 5725 1600 
L 6150 1175 
L 4725 1175 
z
M 1325 3750 
Q 1325 4775 1300 5250 
L 1875 4975 
L 1650 4825 
L 1650 3750 
L 1850 3750 
L 2100 4000 
L 2500 3600 
L 1650 3600 
L 1650 2575 
L 2425 2925 
L 2475 2850 
L 1650 2325 
L 1650 200 
Q 1675 -325 1125 -550 
Q 1150 -275 475 -25 
L 475 75 
Q 950 0 1137 0 
Q 1325 0 1325 300 
L 1325 2150 
Q 675 1775 550 1575 
L 250 2050 
Q 525 2100 1325 2450 
L 1325 3600 
L 725 3600 
L 475 3550 
L 275 3750 
L 1325 3750 
z
" transform="scale(0.015625)"/>
       <path id="SimSun-653e" d="M 3750 3300 
Q 3950 2300 4400 1375 
Q 4800 2075 5025 3700 
L 3925 3700 
Q 3825 3500 3750 3300 
z
M 4225 1075 
Q 3775 1975 3650 3125 
Q 3300 2400 3225 2375 
L 3150 2425 
Q 3700 3725 3950 5250 
L 4525 4925 
L 4300 4800 
Q 4125 4275 3975 3850 
L 5300 3850 
L 5600 4150 
L 6050 3700 
L 5400 3700 
Q 5175 1975 4600 1075 
Q 5325 125 6150 -75 
L 6150 -175 
Q 5700 -175 5625 -425 
Q 4925 50 4400 800 
Q 3550 -150 2325 -600 
L 2300 -525 
Q 3550 125 4225 1075 
z
M 1350 5125 
Q 1925 4825 2062 4675 
Q 2200 4525 2200 4400 
Q 2200 4325 2162 4212 
Q 2125 4100 2012 4075 
Q 1900 4050 1825 4325 
Q 1725 4575 1300 5050 
L 1350 5125 
z
M 1450 350 
Q 2000 225 2150 237 
Q 2300 250 2362 525 
Q 2425 800 2462 1375 
Q 2500 1950 2525 2600 
L 1550 2600 
Q 1500 1525 1262 812 
Q 1025 100 300 -550 
L 250 -475 
Q 825 275 987 950 
Q 1150 1625 1175 2262 
Q 1200 2900 1200 3725 
L 725 3725 
L 500 3675 
L 300 3875 
L 2725 3875 
L 3000 4150 
L 3425 3725 
L 1550 3725 
L 1550 2750 
L 2500 2750 
L 2725 2975 
L 3050 2650 
L 2850 2500 
Q 2775 800 2725 537 
Q 2675 275 2600 125 
Q 2525 -25 2400 -125 
Q 2275 -225 2000 -300 
Q 1950 75 1425 250 
L 1450 350 
z
" transform="scale(0.015625)"/>
       <path id="SimSun-ff08" d="M 5087 200 
Q 5475 -100 5425 -150 
Q 5375 -200 4950 87 
Q 4525 375 4137 850 
Q 3750 1325 3687 2100 
Q 3625 2875 4000 3487 
Q 4375 4100 4887 4462 
Q 5400 4825 5412 4762 
Q 5425 4700 5075 4425 
Q 4725 4125 4387 3600 
Q 4050 3075 4050 2250 
Q 4050 1425 4375 962 
Q 4700 500 5087 200 
z
" transform="scale(0.015625)"/>
       <path id="TimesNewRomanPSMT-43" d="M 3853 4334 
L 3950 2894 
L 3853 2894 
Q 3659 3541 3300 3825 
Q 2941 4109 2438 4109 
Q 2016 4109 1675 3895 
Q 1334 3681 1139 3212 
Q 944 2744 944 2047 
Q 944 1472 1128 1050 
Q 1313 628 1683 403 
Q 2053 178 2528 178 
Q 2941 178 3256 354 
Q 3572 531 3950 1056 
L 4047 994 
Q 3728 428 3303 165 
Q 2878 -97 2294 -97 
Q 1241 -97 663 684 
Q 231 1266 231 2053 
Q 231 2688 515 3219 
Q 800 3750 1298 4042 
Q 1797 4334 2388 4334 
Q 2847 4334 3294 4109 
Q 3425 4041 3481 4041 
Q 3566 4041 3628 4100 
Q 3709 4184 3744 4334 
L 3853 4334 
z
" transform="scale(0.015625)"/>
       <path id="TimesNewRomanPSMT-61" d="M 1822 413 
Q 1381 72 1269 19 
Q 1100 -59 909 -59 
Q 613 -59 420 144 
Q 228 347 228 678 
Q 228 888 322 1041 
Q 450 1253 767 1440 
Q 1084 1628 1822 1897 
L 1822 2009 
Q 1822 2438 1686 2597 
Q 1550 2756 1291 2756 
Q 1094 2756 978 2650 
Q 859 2544 859 2406 
L 866 2225 
Q 866 2081 792 2003 
Q 719 1925 600 1925 
Q 484 1925 411 2006 
Q 338 2088 338 2228 
Q 338 2497 613 2722 
Q 888 2947 1384 2947 
Q 1766 2947 2009 2819 
Q 2194 2722 2281 2516 
Q 2338 2381 2338 1966 
L 2338 994 
Q 2338 584 2353 492 
Q 2369 400 2405 369 
Q 2441 338 2488 338 
Q 2538 338 2575 359 
Q 2641 400 2828 588 
L 2828 413 
Q 2478 -56 2159 -56 
Q 2006 -56 1915 50 
Q 1825 156 1822 413 
z
M 1822 616 
L 1822 1706 
Q 1350 1519 1213 1441 
Q 966 1303 859 1153 
Q 753 1003 753 825 
Q 753 600 887 451 
Q 1022 303 1197 303 
Q 1434 303 1822 616 
z
" transform="scale(0.015625)"/>
       <path id="TimesNewRomanPSMT-72" d="M 1038 2947 
L 1038 2303 
Q 1397 2947 1775 2947 
Q 1947 2947 2059 2842 
Q 2172 2738 2172 2600 
Q 2172 2478 2090 2393 
Q 2009 2309 1897 2309 
Q 1788 2309 1652 2417 
Q 1516 2525 1450 2525 
Q 1394 2525 1328 2463 
Q 1188 2334 1038 2041 
L 1038 669 
Q 1038 431 1097 309 
Q 1138 225 1241 169 
Q 1344 113 1538 113 
L 1538 0 
L 72 0 
L 72 113 
Q 291 113 397 181 
Q 475 231 506 341 
Q 522 394 522 644 
L 522 1753 
Q 522 2253 501 2348 
Q 481 2444 426 2487 
Q 372 2531 291 2531 
Q 194 2531 72 2484 
L 41 2597 
L 906 2947 
L 1038 2947 
z
" transform="scale(0.015625)"/>
       <path id="TimesNewRomanPSMT-62" d="M 984 2369 
Q 1400 2947 1881 2947 
Q 2322 2947 2650 2570 
Q 2978 2194 2978 1541 
Q 2978 778 2472 313 
Q 2038 -88 1503 -88 
Q 1253 -88 995 3 
Q 738 94 469 275 
L 469 3241 
Q 469 3728 445 3840 
Q 422 3953 372 3993 
Q 322 4034 247 4034 
Q 159 4034 28 3984 
L -16 4094 
L 844 4444 
L 984 4444 
L 984 2369 
z
M 984 2169 
L 984 456 
Q 1144 300 1314 220 
Q 1484 141 1663 141 
Q 1947 141 2192 453 
Q 2438 766 2438 1363 
Q 2438 1913 2192 2208 
Q 1947 2503 1634 2503 
Q 1469 2503 1303 2419 
Q 1178 2356 984 2169 
z
" transform="scale(0.015625)"/>
       <path id="TimesNewRomanPSMT-6f" d="M 1600 2947 
Q 2250 2947 2644 2453 
Q 2978 2031 2978 1484 
Q 2978 1100 2793 706 
Q 2609 313 2286 112 
Q 1963 -88 1566 -88 
Q 919 -88 538 428 
Q 216 863 216 1403 
Q 216 1797 411 2186 
Q 606 2575 925 2761 
Q 1244 2947 1600 2947 
z
M 1503 2744 
Q 1338 2744 1170 2645 
Q 1003 2547 900 2300 
Q 797 2053 797 1666 
Q 797 1041 1045 587 
Q 1294 134 1700 134 
Q 2003 134 2200 384 
Q 2397 634 2397 1244 
Q 2397 2006 2069 2444 
Q 1847 2744 1503 2744 
z
" transform="scale(0.015625)"/>
       <path id="TimesNewRomanPSMT-6e" d="M 1034 2341 
Q 1538 2947 1994 2947 
Q 2228 2947 2397 2830 
Q 2566 2713 2666 2444 
Q 2734 2256 2734 1869 
L 2734 647 
Q 2734 375 2778 278 
Q 2813 200 2889 156 
Q 2966 113 3172 113 
L 3172 0 
L 1756 0 
L 1756 113 
L 1816 113 
Q 2016 113 2095 173 
Q 2175 234 2206 353 
Q 2219 400 2219 647 
L 2219 1819 
Q 2219 2209 2117 2386 
Q 2016 2563 1775 2563 
Q 1403 2563 1034 2156 
L 1034 647 
Q 1034 356 1069 288 
Q 1113 197 1189 155 
Q 1266 113 1500 113 
L 1500 0 
L 84 0 
L 84 113 
L 147 113 
Q 366 113 442 223 
Q 519 334 519 647 
L 519 1709 
Q 519 2225 495 2337 
Q 472 2450 423 2490 
Q 375 2531 294 2531 
Q 206 2531 84 2484 
L 38 2597 
L 900 2947 
L 1034 2947 
L 1034 2341 
z
" transform="scale(0.015625)"/>
       <path id="TimesNewRomanPSMT-2f" d="M 1794 4444 
L 259 -88 
L 9 -88 
L 1544 4444 
L 1794 4444 
z
" transform="scale(0.015625)"/>
       <path id="TimesNewRomanPSMT-5f" d="M 3256 -1381 
L -53 -1381 
L -53 -1119 
L 3256 -1119 
L 3256 -1381 
z
" transform="scale(0.015625)"/>
       <path id="TimesNewRomanPSMT-63" d="M 2631 1088 
Q 2516 522 2178 217 
Q 1841 -88 1431 -88 
Q 944 -88 581 321 
Q 219 731 219 1428 
Q 219 2103 620 2525 
Q 1022 2947 1584 2947 
Q 2006 2947 2278 2723 
Q 2550 2500 2550 2259 
Q 2550 2141 2473 2067 
Q 2397 1994 2259 1994 
Q 2075 1994 1981 2113 
Q 1928 2178 1911 2362 
Q 1894 2547 1784 2644 
Q 1675 2738 1481 2738 
Q 1169 2738 978 2506 
Q 725 2200 725 1697 
Q 725 1184 976 792 
Q 1228 400 1656 400 
Q 1963 400 2206 609 
Q 2378 753 2541 1131 
L 2631 1088 
z
" transform="scale(0.015625)"/>
       <path id="TimesNewRomanPSMT-73" d="M 2050 2947 
L 2050 1972 
L 1947 1972 
Q 1828 2431 1642 2597 
Q 1456 2763 1169 2763 
Q 950 2763 815 2647 
Q 681 2531 681 2391 
Q 681 2216 781 2091 
Q 878 1963 1175 1819 
L 1631 1597 
Q 2266 1288 2266 781 
Q 2266 391 1970 151 
Q 1675 -88 1309 -88 
Q 1047 -88 709 6 
Q 606 38 541 38 
Q 469 38 428 -44 
L 325 -44 
L 325 978 
L 428 978 
Q 516 541 762 319 
Q 1009 97 1316 97 
Q 1531 97 1667 223 
Q 1803 350 1803 528 
Q 1803 744 1651 891 
Q 1500 1038 1047 1263 
Q 594 1488 453 1669 
Q 313 1847 313 2119 
Q 313 2472 555 2709 
Q 797 2947 1181 2947 
Q 1350 2947 1591 2875 
Q 1750 2828 1803 2828 
Q 1853 2828 1881 2850 
Q 1909 2872 1947 2947 
L 2050 2947 
z
" transform="scale(0.015625)"/>
       <path id="TimesNewRomanPSMT-74" d="M 1031 3803 
L 1031 2863 
L 1700 2863 
L 1700 2644 
L 1031 2644 
L 1031 788 
Q 1031 509 1111 412 
Q 1191 316 1316 316 
Q 1419 316 1516 380 
Q 1613 444 1666 569 
L 1788 569 
Q 1678 263 1478 108 
Q 1278 -47 1066 -47 
Q 922 -47 784 33 
Q 647 113 581 261 
Q 516 409 516 719 
L 516 2644 
L 63 2644 
L 63 2747 
Q 234 2816 414 2980 
Q 594 3144 734 3369 
Q 806 3488 934 3803 
L 1031 3803 
z
" transform="scale(0.015625)"/>
       <path id="SimSun-ff09" d="M 2337 875 
Q 1925 350 1437 62 
Q 950 -225 937 -162 
Q 925 -100 1300 175 
Q 1650 425 2037 1012 
Q 2425 1600 2375 2375 
Q 2325 3150 1987 3662 
Q 1650 4175 1300 4475 
Q 925 4775 937 4837 
Q 950 4900 1412 4587 
Q 1875 4275 2325 3662 
Q 2775 3050 2762 2225 
Q 2750 1400 2337 875 
z
" transform="scale(0.015625)"/>
      </defs>
      <use xlink:href="#SimSun-5355"/>
      <use xlink:href="#SimSun-4f4d" transform="translate(100 0)"/>
      <use xlink:href="#TimesNewRomanPSMT-20" transform="translate(200 0)"/>
      <use xlink:href="#TimesNewRomanPSMT-47" transform="translate(225 0)"/>
      <use xlink:href="#TimesNewRomanPSMT-44" transform="translate(297.216797 0)"/>
      <use xlink:href="#TimesNewRomanPSMT-50" transform="translate(369.433594 0)"/>
      <use xlink:href="#TimesNewRomanPSMT-20" transform="translate(421.298828 0)"/>
      <use xlink:href="#SimSun-78b3" transform="translate(446.298828 0)"/>
      <use xlink:href="#SimSun-6392" transform="translate(546.298828 0)"/>
      <use xlink:href="#SimSun-653e" transform="translate(646.298828 0)"/>
      <use xlink:href="#SimSun-ff08" transform="translate(746.298828 0)"/>
      <use xlink:href="#TimesNewRomanPSMT-43" transform="translate(846.298828 0)"/>
      <use xlink:href="#TimesNewRomanPSMT-61" transform="translate(912.998047 0)"/>
      <use xlink:href="#TimesNewRomanPSMT-72" transform="translate(957.382812 0)"/>
      <use xlink:href="#TimesNewRomanPSMT-62" transform="translate(990.683594 0)"/>
      <use xlink:href="#TimesNewRomanPSMT-6f" transform="translate(1040.683594 0)"/>
      <use xlink:href="#TimesNewRomanPSMT-6e" transform="translate(1090.683594 0)"/>
      <use xlink:href="#TimesNewRomanPSMT-20" transform="translate(1140.683594 0)"/>
      <use xlink:href="#TimesNewRomanPSMT-2f" transform="translate(1165.683594 0)"/>
      <use xlink:href="#TimesNewRomanPSMT-20" transform="translate(1193.466797 0)"/>
      <use xlink:href="#TimesNewRomanPSMT-47" transform="translate(1218.466797 0)"/>
      <use xlink:href="#TimesNewRomanPSMT-44" transform="translate(1290.683594 0)"/>
      <use xlink:href="#TimesNewRomanPSMT-50" transform="translate(1362.900391 0)"/>
      <use xlink:href="#TimesNewRomanPSMT-5f" transform="translate(1418.515625 0)"/>
      <use xlink:href="#TimesNewRomanPSMT-63" transform="translate(1468.515625 0)"/>
      <use xlink:href="#TimesNewRomanPSMT-6f" transform="translate(1512.900391 0)"/>
      <use xlink:href="#TimesNewRomanPSMT-6e" transform="translate(1562.900391 0)"/>
      <use xlink:href="#TimesNewRomanPSMT-73" transform="translate(1612.900391 0)"/>
      <use xlink:href="#TimesNewRomanPSMT-74" transform="translate(1651.816406 0)"/>
      <use xlink:href="#TimesNewRomanPSMT-61" transform="translate(1679.599609 0)"/>
      <use xlink:href="#TimesNewRomanPSMT-6e" transform="translate(1723.984375 0)"/>
      <use xlink:href="#TimesNewRomanPSMT-74" transform="translate(1773.984375 0)"/>
      <use xlink:href="#SimSun-ff09" transform="translate(1801.767578 0)"/>
     </g>
    </g>
   </g>
   <g id="matplotlib.axis_2">
    <g id="ytick_1">
     <g id="line2d_10">
      <path d="M 64.66875 348.244482 
L 736.54125 348.244482 
" clip-path="url(#p46caa8e9d9)" style="fill: none; stroke: #cccccc; stroke-linecap: round"/>
     </g>
     <g id="text_11">
      <!-- 四川 -->
      <g style="fill: #262626" transform="translate(33.16875 352.063545) scale(0.11 -0.11)">
       <defs>
        <path id="SimSun-56db" d="M 5525 600 
Q 5525 350 5550 -425 
L 5175 -550 
L 5175 75 
L 1225 75 
L 1225 -400 
L 850 -550 
Q 875 300 875 2300 
Q 875 4300 850 5025 
L 1225 4800 
L 5125 4800 
L 5300 5075 
L 5725 4750 
L 5525 4575 
L 5525 600 
z
M 1225 4650 
L 1225 775 
Q 2050 1475 2225 2325 
Q 2400 3175 2375 4650 
L 1225 4650 
z
M 2725 4650 
Q 2750 3050 2525 2162 
Q 2300 1275 1225 625 
L 1225 225 
L 5175 225 
L 5175 4650 
L 4000 4650 
L 4000 2050 
Q 3975 1575 4275 1600 
L 4525 1600 
Q 4650 1650 4800 1650 
Q 4875 1650 4962 1612 
Q 5050 1575 5100 1412 
Q 5150 1250 4650 1275 
L 4125 1275 
Q 3625 1275 3650 1775 
L 3650 4650 
L 2725 4650 
z
" transform="scale(0.015625)"/>
        <path id="SimSun-5ddd" d="M 1875 4650 
Q 1900 1900 1550 975 
Q 1200 50 500 -650 
L 425 -600 
Q 1450 675 1487 2100 
Q 1525 3525 1525 4150 
Q 1525 4775 1500 5075 
L 2075 4800 
L 1875 4650 
z
M 3650 4150 
L 3650 1550 
Q 3650 1050 3675 700 
L 3275 425 
Q 3300 1150 3300 1437 
Q 3300 1725 3300 2975 
Q 3300 4225 3275 4600 
L 3850 4350 
L 3650 4150 
z
M 5450 4650 
L 5450 650 
Q 5450 150 5475 -350 
L 5075 -600 
Q 5100 425 5100 1050 
Q 5100 4500 5075 5125 
L 5650 4850 
L 5450 4650 
z
" transform="scale(0.015625)"/>
       </defs>
       <use xlink:href="#SimSun-56db"/>
       <use xlink:href="#SimSun-5ddd" transform="translate(100 0)"/>
      </g>
     </g>
    </g>
    <g id="ytick_2">
     <g id="line2d_11">
      <path d="M 64.66875 318.529836 
L 736.54125 318.529836 
" clip-path="url(#p46caa8e9d9)" style="fill: none; stroke: #cccccc; stroke-linecap: round"/>
     </g>
     <g id="text_12">
      <!-- 重庆 -->
      <g style="fill: #262626" transform="translate(33.16875 322.40218) scale(0.11 -0.11)">
       <defs>
        <path id="SimSun-91cd" d="M 3325 2275 
L 3325 1600 
L 4575 1600 
L 4575 2275 
L 3325 2275 
z
M 1400 1150 
Q 1425 1750 1425 2300 
Q 1425 2850 1400 3425 
L 1775 3225 
L 3000 3225 
L 3000 3800 
L 1400 3800 
Q 1075 3800 800 3725 
L 575 3950 
L 3000 3950 
L 3000 4550 
Q 1700 4500 1125 4475 
L 1125 4575 
Q 2350 4650 3350 4812 
Q 4350 4975 4725 5175 
L 5100 4725 
Q 4800 4750 4475 4725 
Q 4125 4675 3325 4600 
L 3325 3950 
L 4975 3950 
L 5350 4300 
L 5825 3800 
L 3325 3800 
L 3325 3225 
L 4550 3225 
L 4725 3475 
L 5100 3175 
L 4900 3000 
Q 4900 1950 4925 1325 
L 4575 1150 
L 4575 1450 
L 3325 1450 
L 3325 775 
L 4675 775 
L 5000 1100 
L 5450 625 
L 3325 625 
L 3325 -125 
L 5200 -125 
L 5600 275 
L 6100 -275 
L 1100 -275 
Q 775 -275 500 -350 
L 275 -125 
L 3000 -125 
L 3000 625 
L 1725 625 
Q 1400 625 1125 550 
L 900 775 
L 3000 775 
L 3000 1450 
L 1775 1450 
L 1775 1300 
L 1400 1150 
z
M 1775 3075 
L 1775 2425 
L 3000 2425 
L 3000 3075 
L 1775 3075 
z
M 1775 2275 
L 1775 1600 
L 3000 1600 
L 3000 2275 
L 1775 2275 
z
M 3325 3075 
L 3325 2425 
L 4575 2425 
L 4575 3075 
L 3325 3075 
z
" transform="scale(0.015625)"/>
        <path id="SimSun-5e86" d="M 1500 2600 
L 3275 2600 
Q 3300 3500 3250 4000 
L 3875 3725 
L 3675 3550 
Q 3650 3100 3625 2600 
L 5200 2600 
L 5525 2925 
L 6000 2450 
L 3800 2450 
Q 4125 1250 4837 637 
Q 5550 25 6100 0 
L 6100 -100 
Q 5625 -200 5525 -450 
Q 3900 650 3675 2450 
L 3625 2450 
Q 3475 825 2725 225 
Q 1975 -375 1000 -625 
L 950 -550 
Q 1775 -275 2437 312 
Q 3100 900 3275 2450 
L 2325 2450 
Q 2000 2450 1725 2375 
L 1500 2600 
z
M 300 -625 
L 225 -575 
Q 725 250 862 1025 
Q 1000 1800 1012 2825 
Q 1025 3850 1000 4525 
L 1425 4275 
L 3325 4275 
Q 3325 4725 2950 5175 
L 3000 5250 
Q 3525 5000 3625 4850 
Q 3725 4700 3725 4600 
Q 3725 4450 3550 4275 
L 5050 4275 
L 5425 4650 
L 5950 4125 
L 1400 4125 
Q 1400 2975 1350 2062 
Q 1300 1150 1050 550 
Q 800 -50 300 -625 
z
" transform="scale(0.015625)"/>
       </defs>
       <use xlink:href="#SimSun-91cd"/>
       <use xlink:href="#SimSun-5e86" transform="translate(100 0)"/>
      </g>
     </g>
    </g>
    <g id="ytick_3">
     <g id="line2d_12">
      <path d="M 64.66875 288.815189 
L 736.54125 288.815189 
" clip-path="url(#p46caa8e9d9)" style="fill: none; stroke: #cccccc; stroke-linecap: round"/>
     </g>
     <g id="text_13">
      <!-- 云南 -->
      <g style="fill: #262626" transform="translate(33.16875 292.634252) scale(0.11 -0.11)">
       <defs>
        <path id="SimSun-4e91" d="M 1200 4450 
L 4500 4450 
L 4850 4800 
L 5350 4300 
L 1975 4300 
Q 1700 4300 1425 4225 
L 1200 4450 
z
M 1600 275 
Q 2300 300 4725 450 
Q 4425 975 3850 1700 
L 3925 1775 
Q 5200 725 5287 500 
Q 5375 275 5375 175 
Q 5375 0 5250 -162 
Q 5125 -325 5075 -325 
Q 5025 -325 4975 -200 
Q 4875 50 4775 300 
Q 1650 -25 1300 -300 
L 975 300 
Q 1225 350 1462 550 
Q 1700 750 2150 1462 
Q 2600 2175 2725 2600 
L 1250 2600 
Q 925 2600 650 2525 
L 425 2750 
L 5025 2750 
L 5450 3175 
L 6025 2600 
L 3250 2600 
Q 3000 2025 2500 1375 
Q 2000 725 1600 275 
z
" transform="scale(0.015625)"/>
        <path id="SimSun-5357" d="M 1325 3150 
L 1325 -375 
L 975 -550 
Q 1000 325 1000 1662 
Q 1000 3000 975 3525 
L 1350 3300 
L 2900 3300 
L 2950 4100 
L 1150 4100 
Q 825 4100 550 4025 
L 325 4250 
L 2975 4250 
Q 3000 4750 3000 5225 
L 3575 4975 
L 3375 4825 
L 3325 4250 
L 5125 4250 
L 5525 4650 
L 6075 4100 
L 3300 4100 
L 3250 3300 
L 5050 3300 
L 5225 3550 
L 5625 3250 
L 5425 3075 
L 5425 275 
Q 5450 -350 4825 -575 
Q 4800 -175 3975 0 
L 3975 125 
Q 4425 75 4762 50 
Q 5100 25 5100 350 
L 5100 3150 
L 1325 3150 
z
M 2125 3025 
Q 2550 2800 2687 2662 
Q 2825 2525 2825 2400 
Q 2825 2275 2737 2150 
Q 2650 2025 2625 2025 
Q 2550 2025 2500 2250 
Q 2400 2575 2075 2975 
L 2125 3025 
z
M 3850 3100 
L 4325 2750 
L 4100 2675 
Q 3800 2325 3450 1975 
L 4050 1975 
L 4325 2250 
L 4750 1825 
L 3300 1825 
L 3300 1175 
L 4175 1175 
L 4475 1475 
L 4925 1025 
L 3300 1025 
L 3300 -250 
L 2975 -425 
L 2975 1025 
L 2300 1025 
Q 1975 1025 1700 950 
L 1475 1175 
L 2975 1175 
L 2975 1825 
L 2525 1825 
Q 2200 1825 1925 1750 
L 1700 1975 
L 3300 1975 
Q 3675 2550 3850 3100 
z
" transform="scale(0.015625)"/>
       </defs>
       <use xlink:href="#SimSun-4e91"/>
       <use xlink:href="#SimSun-5357" transform="translate(100 0)"/>
      </g>
     </g>
    </g>
    <g id="ytick_4">
     <g id="line2d_13">
      <path d="M 64.66875 259.100543 
L 736.54125 259.100543 
" clip-path="url(#p46caa8e9d9)" style="fill: none; stroke: #cccccc; stroke-linecap: round"/>
     </g>
     <g id="text_14">
      <!-- 广西 -->
      <g style="fill: #262626" transform="translate(33.16875 262.951402) scale(0.11 -0.11)">
       <defs>
        <path id="SimSun-5e7f" d="M 1000 4450 
L 1425 4200 
L 5100 4200 
L 5475 4575 
L 6000 4050 
L 1400 4050 
Q 1425 2025 1250 1187 
Q 1075 350 325 -600 
L 250 -550 
Q 1025 700 1037 2362 
Q 1050 4025 1000 4450 
z
M 3000 5250 
Q 3525 4950 3612 4837 
Q 3700 4725 3700 4600 
Q 3700 4525 3662 4437 
Q 3625 4350 3500 4275 
Q 3375 4200 3300 4500 
Q 3225 4775 2925 5175 
L 3000 5250 
z
" transform="scale(0.015625)"/>
        <path id="SimSun-897f" d="M 5675 3275 
L 5475 3075 
Q 5475 200 5500 -275 
L 5150 -450 
L 5150 50 
L 1275 50 
L 1275 -350 
L 925 -525 
Q 950 0 950 1500 
Q 950 3000 925 3500 
L 1275 3300 
L 2400 3300 
L 2400 4475 
L 1100 4475 
Q 900 4475 625 4400 
L 400 4625 
L 5050 4625 
L 5425 4975 
L 5900 4475 
L 4000 4475 
L 4000 3300 
L 5100 3300 
L 5275 3575 
L 5675 3275 
z
M 2725 4475 
L 2725 3300 
L 3675 3300 
L 3675 4475 
L 2725 4475 
z
M 4000 3150 
L 4000 1650 
Q 4000 1425 4150 1425 
Q 4300 1425 4450 1425 
Q 4600 1425 4725 1475 
Q 4825 1525 4900 1462 
Q 4975 1400 5012 1275 
Q 5050 1150 4950 1137 
Q 4850 1125 4650 1125 
L 4125 1125 
Q 3650 1125 3675 1525 
L 3675 3150 
L 2725 3150 
Q 2725 2075 2387 1537 
Q 2050 1000 1450 600 
L 1400 675 
Q 1925 1150 2150 1687 
Q 2375 2225 2400 3150 
L 1275 3150 
L 1275 200 
L 5150 200 
L 5150 3150 
L 4000 3150 
z
" transform="scale(0.015625)"/>
       </defs>
       <use xlink:href="#SimSun-5e7f"/>
       <use xlink:href="#SimSun-897f" transform="translate(100 0)"/>
      </g>
     </g>
    </g>
    <g id="ytick_5">
     <g id="line2d_14">
      <path d="M 64.66875 229.385896 
L 736.54125 229.385896 
" clip-path="url(#p46caa8e9d9)" style="fill: none; stroke: #cccccc; stroke-linecap: round"/>
     </g>
     <g id="text_15">
      <!-- 陕西 -->
      <g style="fill: #262626" transform="translate(33.16875 233.236756) scale(0.11 -0.11)">
       <defs>
        <path id="SimSun-9655" d="M 2575 4575 
L 2350 4450 
L 1625 3050 
Q 2000 2750 2200 2487 
Q 2400 2225 2462 1987 
Q 2525 1750 2525 1675 
Q 2525 1475 2387 1175 
Q 2250 875 1650 725 
Q 1650 1050 1100 1250 
L 1100 -475 
L 725 -650 
Q 750 75 750 2300 
Q 750 4525 725 4900 
L 1100 4675 
L 1975 4675 
L 2175 4925 
L 2575 4575 
z
M 2000 4525 
L 1100 4525 
L 1100 1375 
Q 1500 1275 1700 1275 
Q 1825 1275 1975 1337 
Q 2125 1400 2162 1675 
Q 2200 1950 2025 2287 
Q 1850 2625 1475 3050 
L 2000 4525 
z
M 2525 4000 
L 3825 4000 
Q 3825 4600 3800 5200 
L 4375 4975 
L 4175 4800 
L 4175 4000 
L 5025 4000 
L 5350 4300 
L 5750 3850 
L 4175 3850 
Q 4150 2475 4100 1875 
L 5300 1875 
L 5650 2225 
L 6075 1725 
L 4325 1725 
Q 4600 950 5062 475 
Q 5525 0 6125 -125 
L 6125 -225 
Q 5775 -200 5550 -500 
Q 5125 -175 4762 350 
Q 4400 875 4200 1725 
L 4075 1725 
Q 3825 600 3162 87 
Q 2500 -425 1650 -625 
L 1625 -550 
Q 2450 -225 2987 287 
Q 3525 800 3725 1725 
L 3325 1725 
Q 3000 1725 2725 1650 
L 2500 1875 
L 3750 1875 
Q 3800 2475 3825 3850 
L 3350 3850 
Q 3025 3850 2750 3775 
L 2525 4000 
z
M 2725 3450 
Q 3275 2975 3337 2800 
Q 3400 2625 3400 2575 
Q 3400 2425 3275 2287 
Q 3150 2150 3125 2150 
Q 3025 2150 3000 2450 
Q 2925 2875 2650 3400 
L 2725 3450 
z
M 5000 3525 
L 5500 3175 
L 5300 3075 
Q 4775 2350 4500 2100 
L 4425 2150 
Q 4850 2800 5000 3525 
z
" transform="scale(0.015625)"/>
       </defs>
       <use xlink:href="#SimSun-9655"/>
       <use xlink:href="#SimSun-897f" transform="translate(100 0)"/>
      </g>
     </g>
    </g>
    <g id="ytick_6">
     <g id="line2d_15">
      <path d="M 64.66875 199.67125 
L 736.54125 199.67125 
" clip-path="url(#p46caa8e9d9)" style="fill: none; stroke: #cccccc; stroke-linecap: round"/>
     </g>
     <g id="text_16">
      <!-- 青海 -->
      <g style="fill: #262626" transform="translate(33.16875 203.608047) scale(0.11 -0.11)">
       <defs>
        <path id="SimSun-9752" d="M 1925 1475 
L 1925 825 
L 4450 825 
L 4450 1475 
L 1925 1475 
z
M 2875 5275 
L 3475 5025 
L 3250 4850 
L 3250 4425 
L 4875 4425 
L 5250 4800 
L 5750 4275 
L 3250 4275 
L 3250 3775 
L 4575 3775 
L 4900 4075 
L 5325 3625 
L 3250 3625 
L 3250 2975 
L 5250 2975 
L 5625 3350 
L 6125 2825 
L 1075 2825 
Q 750 2825 475 2750 
L 250 2975 
L 2900 2975 
L 2900 3625 
L 1775 3625 
Q 1450 3625 1175 3550 
L 950 3775 
L 2900 3775 
L 2900 4275 
L 1225 4275 
Q 900 4275 625 4200 
L 400 4425 
L 2900 4425 
Q 2900 4875 2875 5275 
z
M 1550 2575 
L 1975 2375 
L 4400 2375 
L 4575 2600 
L 4975 2300 
L 4800 2150 
L 4800 25 
Q 4825 -475 4250 -625 
Q 4250 -275 3525 -125 
L 3525 -25 
Q 4250 -75 4350 -62 
Q 4450 -50 4450 100 
L 4450 675 
L 1925 675 
L 1925 -500 
L 1550 -675 
Q 1575 -125 1575 962 
Q 1575 2050 1550 2575 
z
M 1925 2225 
L 1925 1625 
L 4450 1625 
L 4450 2225 
L 1925 2225 
z
" transform="scale(0.015625)"/>
        <path id="SimSun-6d77" d="M 4700 2175 
L 4775 3350 
L 2800 3350 
L 2625 2175 
L 4700 2175 
z
M 2050 850 
L 2250 2025 
Q 2000 2025 1725 1950 
L 1500 2175 
L 2275 2175 
L 2500 3750 
L 2800 3500 
L 4725 3500 
L 4975 3750 
L 5300 3425 
L 5100 3275 
L 5025 2175 
L 5450 2175 
L 5725 2450 
L 6125 2025 
L 5025 2025 
L 4950 725 
L 5350 725 
L 5625 1000 
L 6025 575 
L 4950 575 
Q 4900 150 4850 -137 
Q 4800 -425 4225 -600 
Q 4200 -225 3450 25 
L 3450 125 
Q 4175 -25 4325 -12 
Q 4475 0 4525 125 
Q 4575 250 4600 575 
L 2350 575 
L 2150 375 
L 1825 725 
L 2050 850 
z
M 3275 3150 
L 3300 3225 
Q 3800 2975 3887 2837 
Q 3975 2700 3975 2625 
Q 3975 2500 3900 2400 
Q 3825 2300 3800 2300 
Q 3725 2300 3625 2550 
Q 3500 2900 3275 3150 
z
M 3250 1850 
L 3300 1900 
Q 3750 1600 3825 1437 
Q 3900 1275 3900 1225 
Q 3900 1125 3812 1012 
Q 3725 900 3675 900 
Q 3600 900 3550 1125 
Q 3475 1475 3250 1850 
z
M 4625 725 
L 4700 2025 
L 2600 2025 
L 2375 725 
L 4625 725 
z
M 3250 4950 
L 3075 4825 
Q 2950 4600 2800 4325 
L 5075 4325 
L 5375 4625 
L 5800 4175 
L 2750 4175 
Q 2300 3400 1775 2900 
L 1725 2950 
Q 2125 3525 2387 4150 
Q 2650 4775 2725 5225 
L 3250 4950 
z
M 1875 3900 
Q 1225 1450 1150 1137 
Q 1075 825 1087 375 
Q 1100 -75 1125 -250 
Q 1125 -350 1000 -350 
Q 900 -350 750 -300 
Q 600 -250 600 -75 
Q 600 50 675 300 
Q 750 550 750 700 
Q 750 875 637 975 
Q 525 1075 225 1175 
L 250 1275 
Q 600 1225 712 1237 
Q 825 1250 962 1462 
Q 1100 1675 1775 3925 
L 1875 3900 
z
M 300 3725 
Q 975 3350 1012 3100 
Q 1050 2850 962 2775 
Q 875 2700 850 2700 
Q 750 2700 650 2975 
Q 525 3325 250 3650 
L 300 3725 
z
M 800 5000 
Q 1450 4650 1487 4525 
Q 1525 4400 1525 4325 
Q 1525 4175 1437 4075 
Q 1350 3975 1325 3975 
Q 1250 3975 1175 4225 
Q 1050 4575 750 4925 
L 800 5000 
z
" transform="scale(0.015625)"/>
       </defs>
       <use xlink:href="#SimSun-9752"/>
       <use xlink:href="#SimSun-6d77" transform="translate(100 0)"/>
      </g>
     </g>
    </g>
    <g id="ytick_7">
     <g id="line2d_16">
      <path d="M 64.66875 169.956604 
L 736.54125 169.956604 
" clip-path="url(#p46caa8e9d9)" style="fill: none; stroke: #cccccc; stroke-linecap: round"/>
     </g>
     <g id="text_17">
      <!-- 贵州 -->
      <g style="fill: #262626" transform="translate(33.16875 173.871916) scale(0.11 -0.11)">
       <defs>
        <path id="SimSun-8d35" d="M 1600 4400 
L 1600 3675 
L 2975 3675 
L 2975 4400 
L 1600 4400 
z
M 3300 4400 
L 3300 3675 
L 4675 3675 
L 4675 4400 
L 3300 4400 
z
M 1225 3250 
Q 1250 3625 1250 3987 
Q 1250 4350 1225 4725 
L 1600 4550 
L 2975 4550 
Q 2975 4925 2950 5250 
L 3500 4975 
L 3300 4800 
L 3300 4550 
L 4675 4550 
L 4925 4800 
L 5225 4500 
L 5000 4325 
Q 5000 3750 5025 3400 
L 4675 3250 
L 4675 3525 
L 3300 3525 
L 3300 2925 
L 5350 2925 
L 5650 3225 
L 6075 2775 
L 1025 2775 
Q 825 2775 550 2700 
L 325 2925 
L 2975 2925 
L 2975 3525 
L 1600 3525 
L 1600 3350 
L 1225 3250 
z
M 1300 400 
Q 1325 925 1325 1425 
Q 1325 1925 1300 2450 
L 1675 2275 
L 4525 2275 
L 4775 2525 
L 5125 2175 
L 4900 2025 
Q 4900 1050 4925 650 
L 4550 500 
L 4550 2125 
L 1675 2125 
L 1675 550 
L 1300 400 
z
M 2900 1875 
L 3450 1550 
L 3275 1425 
Q 3175 750 2900 362 
Q 2625 -25 2050 -262 
Q 1475 -500 500 -650 
L 475 -550 
Q 1575 -300 2050 0 
Q 2525 300 2700 725 
Q 2875 1150 2900 1875 
z
M 3200 425 
L 3225 525 
Q 4000 400 4625 237 
Q 5250 75 5387 -87 
Q 5525 -250 5525 -375 
Q 5525 -450 5487 -525 
Q 5450 -600 5400 -600 
Q 5325 -600 5175 -475 
Q 4950 -275 4562 -75 
Q 4175 125 3200 425 
z
" transform="scale(0.015625)"/>
        <path id="SimSun-5dde" d="M 1100 3300 
Q 1125 2975 1125 2675 
Q 1125 2450 1100 2262 
Q 1075 2075 900 2000 
Q 725 1925 675 1925 
Q 625 1925 550 1962 
Q 475 2000 475 2025 
Q 475 2125 650 2350 
Q 900 2675 1000 3300 
L 1100 3300 
z
M 1650 4975 
L 2200 4700 
L 2000 4525 
Q 2000 1575 1537 675 
Q 1075 -225 325 -675 
L 275 -600 
Q 1400 450 1550 2150 
Q 1700 3850 1650 4975 
z
M 2375 3300 
Q 2850 2850 2925 2675 
Q 3000 2500 3000 2400 
Q 3000 2300 2900 2137 
Q 2800 1975 2712 2000 
Q 2625 2025 2600 2350 
Q 2550 2675 2325 3250 
L 2375 3300 
z
M 3375 25 
Q 3400 825 3400 1425 
Q 3400 4250 3375 4775 
L 3925 4525 
L 3725 4350 
L 3725 1200 
Q 3725 750 3750 200 
L 3375 25 
z
M 4125 3300 
Q 4650 2775 4687 2662 
Q 4725 2550 4725 2475 
Q 4725 2400 4687 2287 
Q 4650 2175 4575 2125 
Q 4500 2075 4475 2075 
Q 4400 2075 4350 2375 
Q 4275 2750 4050 3250 
L 4125 3300 
z
M 5450 4625 
L 5450 625 
Q 5450 175 5475 -425 
L 5100 -575 
Q 5125 325 5125 925 
Q 5125 4800 5100 5125 
L 5675 4825 
L 5450 4625 
z
" transform="scale(0.015625)"/>
       </defs>
       <use xlink:href="#SimSun-8d35"/>
       <use xlink:href="#SimSun-5dde" transform="translate(100 0)"/>
      </g>
     </g>
    </g>
    <g id="ytick_8">
     <g id="line2d_17">
      <path d="M 64.66875 140.241957 
L 736.54125 140.241957 
" clip-path="url(#p46caa8e9d9)" style="fill: none; stroke: #cccccc; stroke-linecap: round"/>
     </g>
     <g id="text_18">
      <!-- 甘肃 -->
      <g style="fill: #262626" transform="translate(33.16875 144.15727) scale(0.11 -0.11)">
       <defs>
        <path id="SimSun-7518" d="M 1775 3650 
Q 1775 4350 1750 5250 
L 2325 5000 
L 2125 4775 
L 2125 3650 
L 4200 3650 
Q 4200 4625 4175 5200 
L 4750 4975 
L 4550 4750 
L 4550 3650 
L 5175 3650 
L 5600 4050 
L 6100 3500 
L 4550 3500 
Q 4550 425 4600 -400 
L 4200 -575 
L 4200 -25 
L 2125 -25 
L 2125 -475 
L 1725 -625 
Q 1775 700 1775 3500 
L 1050 3500 
Q 725 3500 450 3425 
L 225 3650 
L 1775 3650 
z
M 2125 3500 
L 2125 2000 
L 4200 2000 
L 4200 3500 
L 2125 3500 
z
M 2125 1850 
L 2125 125 
L 4200 125 
L 4200 1850 
L 2125 1850 
z
" transform="scale(0.015625)"/>
        <path id="SimSun-8083" d="M 3350 4250 
L 3350 3650 
L 4775 3650 
L 4775 4250 
L 3350 4250 
z
M 3350 3500 
L 3350 2850 
L 4775 2850 
L 4775 3500 
L 3350 3500 
z
M 300 -575 
Q 725 -75 900 387 
Q 1075 850 1100 1437 
Q 1125 2025 1100 2500 
L 1675 2225 
L 1475 2050 
Q 1475 1200 1312 600 
Q 1150 0 350 -650 
L 300 -575 
z
M 2225 2075 
L 2700 1800 
Q 2525 1725 2250 1100 
Q 1950 475 1525 25 
L 1450 75 
Q 1650 350 1862 887 
Q 2075 1425 2225 2075 
z
M 3675 2000 
Q 4275 1300 4437 1012 
Q 4600 725 4575 537 
Q 4550 350 4462 262 
Q 4375 175 4325 175 
Q 4250 175 4200 400 
Q 4125 725 3975 1125 
Q 3825 1525 3600 1950 
L 3675 2000 
z
M 4850 2425 
L 5400 2200 
L 5225 2000 
L 5225 450 
Q 5225 -75 5225 -500 
L 4850 -675 
Q 4875 -275 4875 900 
Q 4875 2075 4850 2425 
z
M 2975 -650 
Q 3000 -375 3000 2700 
L 1850 2700 
Q 1525 2700 1250 2625 
L 1025 2850 
L 3000 2850 
L 3000 3500 
L 1100 3500 
Q 775 3500 500 3425 
L 275 3650 
L 3000 3650 
L 3000 4250 
L 1900 4250 
Q 1575 4250 1300 4175 
L 1075 4400 
L 3000 4400 
Q 3000 5025 2975 5250 
L 3550 5000 
L 3350 4850 
L 3350 4400 
L 4725 4400 
L 4900 4625 
L 5325 4325 
L 5125 4175 
L 5125 3650 
L 5475 3650 
L 5750 3925 
L 6150 3500 
L 5125 3500 
Q 5125 2925 5150 2600 
L 4775 2475 
L 4775 2700 
L 3350 2700 
L 3350 100 
Q 3350 -225 3375 -500 
L 2975 -650 
z
" transform="scale(0.015625)"/>
       </defs>
       <use xlink:href="#SimSun-7518"/>
       <use xlink:href="#SimSun-8083" transform="translate(100 0)"/>
      </g>
     </g>
    </g>
    <g id="ytick_9">
     <g id="line2d_18">
      <path d="M 64.66875 110.527311 
L 736.54125 110.527311 
" clip-path="url(#p46caa8e9d9)" style="fill: none; stroke: #cccccc; stroke-linecap: round"/>
     </g>
     <g id="text_19">
      <!-- 新疆 -->
      <g style="fill: #262626" transform="translate(33.16875 114.346373) scale(0.11 -0.11)">
       <defs>
        <path id="SimSun-65b0" d="M 5225 2775 
L 5225 475 
Q 5225 75 5250 -450 
L 4875 -625 
Q 4900 700 4900 2775 
L 4100 2775 
Q 4150 1150 3687 450 
Q 3225 -250 2600 -625 
L 2550 -550 
Q 3050 -125 3325 337 
Q 3600 800 3687 1362 
Q 3775 1925 3775 2775 
Q 3775 3625 3750 4700 
L 4100 4475 
Q 5150 4725 5475 5025 
L 5900 4575 
Q 5550 4575 5225 4525 
Q 4900 4475 4100 4350 
L 4100 2925 
L 5325 2925 
L 5650 3250 
L 6125 2775 
L 5225 2775 
z
M 1075 4050 
Q 1425 3825 1562 3675 
Q 1700 3525 1700 3400 
Q 1700 3275 1612 3150 
Q 1525 3025 1500 3025 
Q 1425 3025 1375 3225 
Q 1300 3525 1000 4000 
L 1075 4050 
z
M 2450 1400 
Q 2925 1125 3075 975 
Q 3225 825 3225 700 
Q 3225 600 3150 462 
Q 3075 325 3025 325 
Q 2975 325 2900 550 
Q 2775 875 2400 1325 
L 2450 1400 
z
M 1125 1475 
L 1600 1175 
L 1400 1075 
Q 850 200 350 -225 
L 275 -175 
Q 800 475 1125 1475 
z
M 1075 75 
Q 1525 0 1687 0 
Q 1850 0 1850 200 
L 1850 1775 
L 950 1775 
L 725 1725 
L 525 1925 
L 1850 1925 
L 1850 2800 
L 1125 2800 
Q 800 2800 525 2725 
L 300 2950 
L 2125 2950 
Q 2400 3650 2500 4150 
L 1325 4150 
Q 1000 4150 725 4075 
L 500 4300 
L 1875 4300 
Q 1850 4650 1525 5125 
L 1575 5175 
Q 2025 4925 2112 4787 
Q 2200 4650 2200 4600 
Q 2200 4475 2050 4300 
L 2675 4300 
L 2975 4600 
L 3425 4150 
L 2550 4150 
L 2975 3875 
Q 2800 3800 2637 3562 
Q 2475 3325 2250 2950 
L 2900 2950 
L 3200 3250 
L 3650 2800 
L 2175 2800 
L 2175 1925 
L 2750 1925 
L 3050 2225 
L 3500 1775 
L 2175 1775 
L 2175 25 
Q 2175 -350 1700 -525 
Q 1700 -225 1075 -25 
L 1075 75 
z
" transform="scale(0.015625)"/>
        <path id="SimSun-7586" d="M 2000 1475 
L 2025 2425 
L 1000 2425 
L 825 2225 
L 475 2500 
L 700 2650 
Q 825 3100 925 3800 
L 1200 3550 
L 1925 3550 
L 1925 4575 
L 1275 4575 
Q 950 4575 675 4500 
L 450 4725 
L 1900 4725 
L 2125 4950 
L 2425 4650 
L 2225 4525 
Q 2225 3725 2250 3325 
L 1925 3175 
L 1925 3400 
L 1200 3400 
L 1000 2575 
L 2000 2575 
L 2225 2800 
L 2525 2500 
L 2350 2350 
Q 2300 850 2250 437 
Q 2200 25 2050 -187 
Q 1900 -400 1525 -525 
Q 1375 -175 925 -50 
L 925 50 
Q 1475 -50 1612 -50 
Q 1750 -50 1837 75 
Q 1925 200 1975 875 
Q 850 500 525 250 
L 325 650 
Q 550 675 1000 750 
L 1000 1400 
Q 875 1400 600 1325 
L 375 1550 
L 1000 1550 
Q 1000 1925 975 2275 
L 1475 2050 
L 1300 1900 
L 1300 1550 
L 1475 1550 
L 1700 1775 
L 2000 1475 
z
M 1975 950 
L 2000 1400 
L 1300 1400 
L 1300 800 
L 1975 950 
z
M 2600 4775 
L 5375 4775 
L 5650 5050 
L 6050 4625 
L 3425 4625 
Q 3100 4625 2825 4550 
L 2600 4775 
z
M 3000 2500 
Q 3025 3000 3025 3487 
Q 3025 3975 3000 4450 
L 3325 4275 
L 5150 4275 
L 5350 4475 
L 5650 4175 
L 5450 4025 
Q 5450 3275 5475 2725 
L 5150 2575 
L 5150 2725 
L 3350 2725 
L 3350 2675 
L 3000 2500 
z
M 2650 2375 
L 5450 2375 
L 5725 2650 
L 6125 2225 
L 3475 2225 
Q 3150 2225 2875 2150 
L 2650 2375 
z
M 3000 50 
Q 3025 550 3025 1037 
Q 3025 1525 3000 2025 
L 3350 1850 
L 5200 1850 
L 5425 2075 
L 5725 1775 
L 5525 1650 
Q 5525 750 5550 250 
L 5225 100 
L 5225 300 
L 3325 300 
L 3325 200 
L 3000 50 
z
M 3325 4125 
L 3325 3575 
L 4150 3575 
L 4150 4125 
L 3325 4125 
z
M 4450 4125 
L 4450 3575 
L 5150 3575 
L 5150 4125 
L 4450 4125 
z
M 3325 3425 
L 3325 2875 
L 4150 2875 
L 4150 3425 
L 3325 3425 
z
M 4450 3425 
L 4450 2875 
L 5150 2875 
L 5150 3425 
L 4450 3425 
z
M 3325 1700 
L 3325 1150 
L 4150 1150 
L 4150 1700 
L 3325 1700 
z
M 4450 1700 
L 4450 1150 
L 5225 1150 
L 5225 1700 
L 4450 1700 
z
M 4450 1000 
L 4450 450 
L 5225 450 
L 5225 1000 
L 4450 1000 
z
M 3325 1000 
L 3325 450 
L 4150 450 
L 4150 1000 
L 3325 1000 
z
M 2250 -125 
L 5475 -125 
L 5750 150 
L 6150 -275 
L 3075 -275 
Q 2750 -275 2475 -350 
L 2250 -125 
z
" transform="scale(0.015625)"/>
       </defs>
       <use xlink:href="#SimSun-65b0"/>
       <use xlink:href="#SimSun-7586" transform="translate(100 0)"/>
      </g>
     </g>
    </g>
    <g id="ytick_10">
     <g id="line2d_19">
      <path d="M 64.66875 80.812664 
L 736.54125 80.812664 
" clip-path="url(#p46caa8e9d9)" style="fill: none; stroke: #cccccc; stroke-linecap: round"/>
     </g>
     <g id="text_20">
      <!-- 内蒙古 -->
      <g style="fill: #262626" transform="translate(22.16875 84.727977) scale(0.11 -0.11)">
       <defs>
        <path id="SimSun-5185" d="M 1400 3625 
L 1400 975 
Q 2075 1350 2500 2025 
Q 2925 2700 2975 3625 
L 1400 3625 
z
M 1025 -650 
Q 1050 0 1050 425 
L 1050 2850 
Q 1050 3675 1025 4025 
L 1400 3775 
L 2975 3775 
Q 3000 4475 2975 5250 
L 3625 4950 
L 3375 4775 
Q 3375 4275 3350 3775 
L 4875 3775 
L 5100 4050 
L 5525 3725 
L 5300 3550 
L 5300 200 
Q 5325 -375 4725 -600 
Q 4700 -200 3825 -25 
L 3825 75 
Q 4500 25 4737 25 
Q 4975 25 4950 475 
L 4950 3625 
L 3350 3625 
Q 3300 3100 3200 2700 
Q 4525 1950 4562 1750 
Q 4600 1550 4600 1425 
Q 4600 1225 4525 1112 
Q 4450 1000 4425 1000 
Q 4350 1000 4275 1225 
Q 4125 1550 3812 1912 
Q 3500 2275 3150 2575 
Q 2900 1950 2425 1512 
Q 1950 1075 1400 850 
L 1400 -450 
L 1025 -650 
z
" transform="scale(0.015625)"/>
        <path id="SimSun-8499" d="M 5050 2925 
L 5350 3550 
L 1125 3550 
Q 1150 3125 1000 3000 
Q 850 2875 687 2912 
Q 525 2950 525 3025 
Q 525 3100 650 3225 
Q 900 3475 1025 3975 
L 1125 3975 
L 1125 3700 
L 5300 3700 
L 5525 3950 
L 5975 3500 
Q 5600 3500 5125 2900 
L 5050 2925 
z
M 1550 3050 
L 4100 3050 
L 4450 3375 
L 4900 2900 
L 2375 2900 
Q 2050 2900 1775 2825 
L 1550 3050 
z
M 5075 1725 
Q 4700 1550 4125 1325 
Q 4400 725 4887 350 
Q 5375 -25 6000 -100 
L 6000 -200 
Q 5500 -225 5425 -500 
Q 5050 -275 4662 150 
Q 4275 575 4025 1275 
L 3700 1150 
Q 3825 725 3825 400 
Q 3825 125 3700 -200 
Q 3575 -525 3025 -650 
Q 3025 -400 2325 -150 
L 2350 -50 
Q 2875 -175 3075 -187 
Q 3275 -200 3375 12 
Q 3475 225 3475 525 
Q 3475 725 3450 925 
Q 2850 375 2075 37 
Q 1300 -300 450 -450 
L 425 -375 
Q 1225 -150 2012 262 
Q 2800 675 3350 1300 
Q 3300 1425 3225 1550 
Q 2225 625 700 375 
L 675 450 
Q 2150 850 3025 1800 
L 2850 2025 
Q 2425 1700 1862 1450 
Q 1300 1200 525 1025 
L 500 1100 
Q 1075 1275 1687 1600 
Q 2300 1925 2650 2275 
L 1575 2275 
Q 1250 2275 975 2200 
L 750 2425 
L 4925 2425 
L 5325 2750 
L 5825 2275 
L 3200 2275 
Q 3100 2225 3000 2125 
Q 3350 1825 3675 1275 
Q 4575 1725 4925 2175 
L 5350 1725 
L 5075 1725 
z
M 2175 4550 
Q 2175 4900 2150 5275 
L 2775 5025 
L 2525 4875 
L 2525 4550 
L 3850 4550 
Q 3850 4975 3825 5250 
L 4425 5025 
L 4200 4850 
L 4200 4550 
L 4950 4550 
L 5375 4925 
L 5900 4400 
L 4200 4400 
L 4200 4050 
L 3850 3850 
L 3850 4400 
L 2525 4400 
L 2525 3975 
L 2175 3800 
L 2175 4400 
L 1425 4400 
Q 1100 4400 825 4325 
L 600 4550 
L 2175 4550 
z
" transform="scale(0.015625)"/>
        <path id="SimSun-53e4" d="M 5000 1850 
L 5000 300 
Q 5000 0 5025 -350 
L 4650 -500 
L 4650 25 
L 1850 25 
L 1850 -450 
L 1475 -575 
Q 1500 125 1500 887 
Q 1500 1650 1475 2350 
L 1850 2125 
L 3025 2125 
L 3025 3675 
L 1225 3675 
Q 900 3675 625 3600 
L 400 3825 
L 3025 3825 
Q 3025 4850 3000 5225 
L 3600 4950 
L 3375 4775 
L 3375 3825 
L 5175 3825 
L 5525 4175 
L 6025 3675 
L 3375 3675 
L 3375 2125 
L 4600 2125 
L 4850 2375 
L 5225 2025 
L 5000 1850 
z
M 1850 1975 
L 1850 175 
L 4650 175 
L 4650 1975 
L 1850 1975 
z
" transform="scale(0.015625)"/>
       </defs>
       <use xlink:href="#SimSun-5185"/>
       <use xlink:href="#SimSun-8499" transform="translate(100 0)"/>
       <use xlink:href="#SimSun-53e4" transform="translate(200 0)"/>
      </g>
     </g>
    </g>
    <g id="ytick_11">
     <g id="line2d_20">
      <path d="M 64.66875 51.098018 
L 736.54125 51.098018 
" clip-path="url(#p46caa8e9d9)" style="fill: none; stroke: #cccccc; stroke-linecap: round"/>
     </g>
     <g id="text_21">
      <!-- 宁夏 -->
      <g style="fill: #262626" transform="translate(33.16875 54.927393) scale(0.11 -0.11)">
       <defs>
        <path id="SimSun-5b81" d="M 2625 5150 
L 2675 5225 
Q 3175 5000 3337 4825 
Q 3500 4650 3500 4550 
Q 3500 4425 3375 4262 
Q 3250 4100 3200 4100 
Q 3125 4100 3075 4350 
Q 2975 4750 2625 5150 
z
M 4800 3075 
L 5250 3825 
L 1175 3825 
Q 1225 3300 1075 3162 
Q 925 3025 750 3050 
Q 575 3075 575 3150 
Q 575 3225 650 3300 
Q 800 3500 900 3700 
Q 1000 3900 1050 4275 
L 1150 4275 
L 1175 3975 
L 5200 3975 
L 5450 4250 
L 5900 3750 
Q 5500 3725 4900 3025 
L 4800 3075 
z
M 575 2750 
L 4925 2750 
L 5325 3150 
L 5875 2600 
L 3400 2600 
L 3400 250 
Q 3425 -375 2750 -600 
Q 2750 -225 1900 0 
L 1900 125 
Q 2550 50 2775 50 
Q 3000 50 3025 300 
L 3025 2600 
L 1400 2600 
Q 1075 2600 800 2525 
L 575 2750 
z
" transform="scale(0.015625)"/>
        <path id="SimSun-590f" d="M 2600 4225 
Q 2725 4550 2750 4700 
L 1375 4700 
Q 1050 4700 775 4625 
L 550 4850 
L 4875 4850 
L 5225 5200 
L 5725 4700 
L 3225 4700 
Q 3050 4600 2725 4225 
L 4500 4225 
L 4700 4450 
L 5125 4125 
L 4900 3975 
L 4900 2750 
Q 4900 2525 4925 2075 
L 4550 1925 
L 4550 2125 
L 2775 2125 
Q 2600 1875 2400 1625 
L 4125 1625 
L 4350 1850 
L 4775 1450 
L 4525 1375 
Q 3975 825 3550 475 
Q 4725 -100 6125 -50 
L 6125 -150 
Q 5575 -250 5525 -525 
Q 4275 -300 3300 300 
Q 2250 -350 275 -575 
L 250 -500 
Q 2225 -100 3050 475 
Q 2550 975 2250 1425 
Q 1950 1075 1500 725 
Q 1050 375 600 150 
L 550 225 
Q 1150 650 1612 1125 
Q 2075 1600 2325 2125 
L 1725 2125 
L 1725 1950 
L 1350 1800 
Q 1375 2225 1375 3175 
Q 1375 4125 1350 4425 
L 1725 4225 
L 2600 4225 
z
M 1725 4075 
L 1725 3550 
L 4550 3550 
L 4550 4075 
L 1725 4075 
z
M 1725 3400 
L 1725 2900 
L 4550 2900 
L 4550 3400 
L 1725 3400 
z
M 1725 2750 
L 1725 2275 
L 4550 2275 
L 4550 2750 
L 1725 2750 
z
M 2350 1475 
Q 2725 1000 3275 650 
Q 3750 1025 4100 1475 
L 2350 1475 
z
" transform="scale(0.015625)"/>
       </defs>
       <use xlink:href="#SimSun-5b81"/>
       <use xlink:href="#SimSun-590f" transform="translate(100 0)"/>
      </g>
     </g>
    </g>
    <g id="text_22">
     <!-- 省份 -->
     <g style="fill: #262626" transform="translate(15.601875 211.67125) rotate(-90) scale(0.12 -0.12)">
      <defs>
       <path id="SimSun-7701" d="M 2200 2300 
L 2200 1725 
L 4575 1725 
L 4575 2450 
L 2475 2450 
L 2200 2300 
z
M 1825 4825 
L 2300 4450 
L 2050 4325 
Q 1325 3425 500 2850 
L 450 2925 
Q 1425 3925 1825 4825 
z
M 3225 4750 
Q 3225 3825 3250 3525 
L 2875 3300 
Q 2900 3775 2900 4250 
Q 2900 4725 2875 5200 
L 3425 4925 
L 3225 4750 
z
M 4425 4725 
Q 5050 4475 5437 4225 
Q 5825 3975 5825 3675 
Q 5825 3575 5775 3400 
Q 5725 3225 5675 3225 
Q 5600 3225 5450 3525 
Q 5200 3975 4375 4650 
L 4425 4725 
z
M 2200 1575 
L 2200 900 
L 4575 900 
L 4575 1575 
L 2200 1575 
z
M 2200 750 
L 2200 50 
L 4575 50 
L 4575 750 
L 2200 750 
z
M 1825 -650 
Q 1850 150 1850 2100 
Q 1125 1725 375 1500 
L 350 1575 
Q 1300 2025 1850 2375 
L 1850 2825 
L 2225 2650 
L 2275 2650 
Q 3700 3625 4225 4300 
L 4625 3850 
L 4375 3800 
Q 3425 3075 2675 2600 
L 4525 2600 
L 4725 2850 
L 5125 2525 
L 4925 2375 
Q 4925 0 4950 -400 
L 4575 -575 
L 4575 -100 
L 2200 -100 
L 2200 -500 
L 1825 -650 
z
" transform="scale(0.015625)"/>
       <path id="SimSun-4efd" d="M 1625 500 
Q 1625 -125 1650 -500 
L 1250 -650 
Q 1275 -75 1275 375 
L 1275 2975 
Q 825 2350 300 1875 
L 250 1975 
Q 800 2600 1212 3425 
Q 1625 4250 1850 5050 
L 2400 4725 
L 2175 4600 
Q 1725 3750 1475 3275 
L 1825 3100 
L 1625 2925 
L 1625 500 
z
M 2550 2400 
L 4650 2400 
L 4875 2625 
L 5200 2300 
L 5000 2150 
Q 4950 425 4887 50 
Q 4825 -325 4300 -550 
Q 4200 -225 3525 -25 
L 3525 75 
Q 4200 -25 4350 0 
Q 4500 25 4550 162 
Q 4600 300 4675 2250 
L 3575 2250 
Q 3500 1450 3350 950 
Q 3200 450 2850 75 
Q 2500 -300 1725 -650 
L 1700 -550 
Q 2350 -200 2650 225 
Q 2950 650 3062 1187 
Q 3175 1725 3200 2250 
L 3050 2250 
L 2750 2200 
L 2550 2400 
z
M 4150 5175 
L 4575 5000 
L 4375 4850 
Q 4525 4150 4812 3700 
Q 5100 3250 5450 3000 
Q 5800 2750 6125 2650 
L 6125 2575 
Q 5675 2500 5600 2300 
Q 4975 2750 4612 3525 
Q 4250 4300 4150 5175 
z
M 3225 4850 
L 3750 4525 
L 3525 4400 
Q 3125 3475 2737 2950 
Q 2350 2425 1850 2025 
L 1775 2100 
Q 2325 2625 2712 3437 
Q 3100 4250 3225 4850 
z
" transform="scale(0.015625)"/>
      </defs>
      <use xlink:href="#SimSun-7701"/>
      <use xlink:href="#SimSun-4efd" transform="translate(100 0)"/>
     </g>
    </g>
   </g>
   <g id="patch_3">
    <path d="M 64.66875 360.130341 
L 94.326054 360.130341 
L 94.326054 336.358624 
L 64.66875 336.358624 
z
" clip-path="url(#p46caa8e9d9)" style="fill: #d0edca; stroke: #ffffff; stroke-width: 0.6; stroke-linejoin: miter"/>
   </g>
   <g id="patch_4">
    <path d="M 64.66875 330.415694 
L 116.85431 330.415694 
L 116.85431 306.643977 
L 64.66875 306.643977 
z
" clip-path="url(#p46caa8e9d9)" style="fill: #bce4b5; stroke: #ffffff; stroke-width: 0.6; stroke-linejoin: miter"/>
   </g>
   <g id="patch_5">
    <path d="M 64.66875 300.701048 
L 139.433779 300.701048 
L 139.433779 276.929331 
L 64.66875 276.929331 
z
" clip-path="url(#p46caa8e9d9)" style="fill: #a7dba0; stroke: #ffffff; stroke-width: 0.6; stroke-linejoin: miter"/>
   </g>
   <g id="patch_6">
    <path d="M 64.66875 270.986402 
L 141.439537 270.986402 
L 141.439537 247.214684 
L 64.66875 247.214684 
z
" clip-path="url(#p46caa8e9d9)" style="fill: #8ed08b; stroke: #ffffff; stroke-width: 0.6; stroke-linejoin: miter"/>
   </g>
   <g id="patch_7">
    <path d="M 64.66875 241.271755 
L 181.265198 241.271755 
L 181.265198 217.500038 
L 64.66875 217.500038 
z
" clip-path="url(#p46caa8e9d9)" style="fill: #73c476; stroke: #ffffff; stroke-width: 0.6; stroke-linejoin: miter"/>
   </g>
   <g id="patch_8">
    <path d="M 64.66875 211.557109 
L 189.774978 211.557109 
L 189.774978 187.785391 
L 64.66875 187.785391 
z
" clip-path="url(#p46caa8e9d9)" style="fill: #56b567; stroke: #ffffff; stroke-width: 0.6; stroke-linejoin: miter"/>
   </g>
   <g id="patch_9">
    <path d="M 64.66875 181.842462 
L 213.522246 181.842462 
L 213.522246 158.070745 
L 64.66875 158.070745 
z
" clip-path="url(#p46caa8e9d9)" style="fill: #3da65a; stroke: #ffffff; stroke-width: 0.6; stroke-linejoin: miter"/>
   </g>
   <g id="patch_10">
    <path d="M 64.66875 152.127816 
L 255.154828 152.127816 
L 255.154828 128.356098 
L 64.66875 128.356098 
z
" clip-path="url(#p46caa8e9d9)" style="fill: #2c944c; stroke: #ffffff; stroke-width: 0.6; stroke-linejoin: miter"/>
   </g>
   <g id="patch_11">
    <path d="M 64.66875 122.413169 
L 474.448836 122.413169 
L 474.448836 98.641452 
L 64.66875 98.641452 
z
" clip-path="url(#p46caa8e9d9)" style="fill: #18823d; stroke: #ffffff; stroke-width: 0.6; stroke-linejoin: miter"/>
   </g>
   <g id="patch_12">
    <path d="M 64.66875 92.698523 
L 491.166481 92.698523 
L 491.166481 68.926806 
L 64.66875 68.926806 
z
" clip-path="url(#p46caa8e9d9)" style="fill: #05712f; stroke: #ffffff; stroke-width: 0.6; stroke-linejoin: miter"/>
   </g>
   <g id="patch_13">
    <path d="M 64.66875 62.983876 
L 704.547321 62.983876 
L 704.547321 39.212159 
L 64.66875 39.212159 
z
" clip-path="url(#p46caa8e9d9)" style="fill: #005b25; stroke: #ffffff; stroke-width: 0.6; stroke-linejoin: miter"/>
   </g>
   <g id="patch_14">
    <path d="M 64.66875 376.17625 
L 64.66875 23.16625 
" style="fill: none; stroke: #cccccc; stroke-width: 1.25; stroke-linejoin: miter; stroke-linecap: square"/>
   </g>
   <g id="patch_15">
    <path d="M 736.54125 376.17625 
L 736.54125 23.16625 
" style="fill: none; stroke: #cccccc; stroke-width: 1.25; stroke-linejoin: miter; stroke-linecap: square"/>
   </g>
   <g id="patch_16">
    <path d="M 64.66875 376.17625 
L 736.54125 376.17625 
" style="fill: none; stroke: #cccccc; stroke-width: 1.25; stroke-linejoin: miter; stroke-linecap: square"/>
   </g>
   <g id="patch_17">
    <path d="M 64.66875 23.16625 
L 736.54125 23.16625 
" style="fill: none; stroke: #cccccc; stroke-width: 1.25; stroke-linejoin: miter; stroke-linecap: square"/>
   </g>
   <g id="text_23">
    <!-- 西部各省单位 GDP 碳排放对比图 -->
    <g style="fill: #262626" transform="translate(299.364219 17.16625) scale(0.14 -0.14)">
     <defs>
      <path id="SimSun-90e8" d="M 4025 -650 
L 4025 3650 
Q 4025 4250 4000 4800 
L 4350 4525 
L 5475 4525 
L 5700 4750 
L 6050 4400 
L 5825 4225 
L 5075 2600 
Q 5525 2200 5725 1812 
Q 5925 1425 5925 1087 
Q 5925 750 5725 512 
Q 5525 275 5175 175 
Q 5050 525 4475 675 
L 4475 775 
Q 4975 700 5187 700 
Q 5400 700 5475 875 
Q 5550 1050 5550 1200 
Q 5550 1375 5475 1712 
Q 5400 2050 4925 2600 
L 5500 4375 
L 4350 4375 
L 4350 -475 
L 4025 -650 
z
M 1350 1625 
L 1350 375 
L 2825 375 
L 2825 1625 
L 1350 1625 
z
M 575 4175 
L 2050 4175 
Q 2000 4475 1925 4675 
Q 1850 4875 1675 5100 
L 1725 5175 
Q 2375 4800 2412 4587 
Q 2450 4375 2200 4175 
L 3025 4175 
L 3300 4475 
L 3700 4025 
L 1275 4025 
Q 1075 4025 800 3950 
L 575 4175 
z
M 2325 2575 
Q 2725 3500 2775 3900 
L 3300 3575 
L 3075 3450 
Q 2850 3125 2500 2575 
L 3275 2575 
L 3575 2875 
L 3975 2425 
L 1025 2425 
Q 825 2425 550 2350 
L 325 2575 
L 2325 2575 
z
M 1000 -450 
Q 1025 175 1025 775 
Q 1025 1375 1000 2000 
L 1375 1775 
L 2800 1775 
L 3050 2025 
L 3375 1700 
L 3150 1525 
Q 3150 250 3175 -175 
L 2825 -350 
L 2825 225 
L 1350 225 
L 1350 -300 
L 1000 -450 
z
M 1150 3800 
Q 1600 3475 1725 3300 
Q 1850 3125 1812 2975 
Q 1775 2825 1687 2750 
Q 1600 2675 1575 2675 
Q 1500 2675 1475 2850 
Q 1425 3075 1350 3275 
Q 1275 3475 1100 3725 
L 1150 3800 
z
" transform="scale(0.015625)"/>
      <path id="SimSun-5404" d="M 4750 4425 
L 4500 4250 
Q 3975 3375 3450 2800 
Q 3800 2550 4512 2287 
Q 5225 2025 6100 1925 
L 6100 1825 
Q 5650 1800 5550 1500 
Q 5175 1575 4450 1887 
Q 3725 2200 3200 2600 
Q 2550 2100 1875 1775 
L 2025 1675 
L 4175 1675 
L 4350 1875 
L 4750 1550 
L 4550 1400 
L 4550 350 
Q 4550 -25 4575 -425 
L 4200 -600 
L 4200 -100 
L 2025 -100 
L 2025 -475 
L 1650 -625 
Q 1675 -50 1675 325 
L 1675 1675 
Q 1225 1400 350 1125 
L 325 1225 
Q 1250 1625 1937 2062 
Q 2625 2500 2975 2825 
Q 2475 3400 2100 4125 
Q 1875 3825 1587 3575 
Q 1300 3325 900 3075 
L 850 3175 
Q 1400 3650 1762 4200 
Q 2125 4750 2325 5250 
L 2825 4900 
L 2600 4775 
L 2400 4525 
L 4150 4525 
L 4350 4775 
L 4750 4425 
z
M 2325 4375 
L 2200 4225 
Q 2625 3550 3200 3025 
Q 3700 3600 4125 4375 
L 2325 4375 
z
M 2025 1525 
L 2025 50 
L 4200 50 
L 4200 1525 
L 2025 1525 
z
" transform="scale(0.015625)"/>
      <path id="SimSun-5bf9" d="M 400 4250 
L 2375 4250 
L 2575 4500 
L 3000 4150 
L 2750 3950 
Q 2400 2850 2075 2100 
Q 2575 1375 2675 1062 
Q 2775 750 2762 537 
Q 2750 325 2662 237 
Q 2575 150 2550 150 
Q 2450 150 2375 575 
Q 2250 1075 1925 1800 
Q 1675 1350 1275 875 
Q 875 400 250 -100 
L 225 25 
Q 675 450 1087 1037 
Q 1500 1625 1725 2100 
Q 1000 3125 675 3550 
L 750 3625 
Q 1300 3025 1850 2400 
Q 2100 3050 2375 4100 
L 1225 4100 
Q 900 4100 625 4025 
L 400 4250 
z
M 3600 125 
Q 4375 0 4537 25 
Q 4700 50 4700 225 
L 4700 3350 
L 3525 3350 
Q 3200 3350 2925 3275 
L 2700 3500 
L 4700 3500 
L 4700 4350 
Q 4700 4800 4675 5125 
L 5275 4825 
L 5050 4625 
L 5050 3500 
L 5325 3500 
L 5650 3825 
L 6125 3350 
L 5050 3350 
L 5050 50 
Q 5050 -375 4500 -600 
Q 4500 -300 3600 0 
L 3600 125 
z
M 3100 2775 
L 3175 2825 
Q 3700 2400 3812 2175 
Q 3925 1950 3925 1800 
Q 3925 1625 3800 1462 
Q 3675 1300 3650 1300 
Q 3550 1300 3525 1650 
Q 3450 2125 3100 2775 
z
" transform="scale(0.015625)"/>
      <path id="SimSun-6bd4" d="M 1050 3400 
Q 1050 4525 1025 5075 
L 1625 4800 
L 1400 4600 
L 1400 2925 
L 2400 2925 
L 2700 3225 
L 3150 2775 
L 1400 2775 
L 1400 350 
L 3050 925 
L 3100 825 
Q 1625 150 1250 -250 
L 950 175 
Q 1050 275 1050 525 
L 1050 3400 
z
M 3425 3825 
Q 3425 4575 3400 5125 
L 4025 4825 
L 3775 4625 
L 3775 2525 
Q 4300 2925 4712 3400 
Q 5125 3875 5275 4175 
L 5775 3700 
Q 5475 3650 5025 3250 
Q 4550 2850 3775 2375 
L 3775 425 
Q 3775 125 4100 125 
L 5125 125 
Q 5325 125 5400 350 
Q 5475 575 5500 1425 
L 5625 1425 
Q 5625 825 5712 550 
Q 5800 275 6000 175 
Q 5875 -25 5712 -112 
Q 5550 -200 5275 -200 
L 3975 -200 
Q 3425 -200 3425 275 
L 3425 3825 
z
" transform="scale(0.015625)"/>
      <path id="SimSun-56fe" d="M 5675 4700 
L 5675 550 
Q 5675 50 5700 -350 
L 5325 -550 
L 5325 -50 
L 1250 -50 
L 1250 -450 
L 875 -600 
Q 900 -100 900 425 
L 900 4200 
Q 900 4625 875 5150 
L 1250 4925 
L 5275 4925 
L 5450 5175 
L 5850 4850 
L 5675 4700 
z
M 1250 4775 
L 1250 1700 
Q 2425 2200 3075 2825 
Q 2750 3275 2500 3850 
Q 2100 3225 1650 2800 
L 1575 2850 
Q 1975 3375 2250 3937 
Q 2525 4500 2575 4775 
L 1250 4775 
z
M 1250 100 
L 5325 100 
L 5325 4775 
L 2625 4775 
L 3050 4550 
L 2900 4475 
Q 2750 4250 2675 4125 
L 4000 4125 
L 4175 4350 
L 4550 4000 
L 4350 3875 
Q 3925 3275 3475 2775 
Q 4250 2200 5250 2100 
L 5250 2000 
Q 4875 1975 4775 1700 
Q 3900 2025 3250 2600 
Q 2375 1900 1250 1575 
L 1250 100 
z
M 2600 3975 
Q 2950 3350 3275 3000 
Q 3625 3400 3975 3975 
L 2600 3975 
z
M 2750 2050 
Q 3350 1925 3600 1825 
Q 3850 1725 3825 1487 
Q 3800 1250 3725 1250 
Q 3650 1250 3550 1375 
Q 3300 1625 2725 1975 
L 2750 2050 
z
M 2275 1150 
Q 3425 1025 3787 912 
Q 4150 800 4175 525 
Q 4200 250 4075 250 
Q 4000 250 3825 400 
Q 3450 700 2275 1050 
L 2275 1150 
z
" transform="scale(0.015625)"/>
     </defs>
     <use xlink:href="#SimSun-897f"/>
     <use xlink:href="#SimSun-90e8" transform="translate(100 0)"/>
     <use xlink:href="#SimSun-5404" transform="translate(200 0)"/>
     <use xlink:href="#SimSun-7701" transform="translate(300 0)"/>
     <use xlink:href="#SimSun-5355" transform="translate(400 0)"/>
     <use xlink:href="#SimSun-4f4d" transform="translate(500 0)"/>
     <use xlink:href="#TimesNewRomanPSMT-20" transform="translate(600 0)"/>
     <use xlink:href="#TimesNewRomanPSMT-47" transform="translate(625 0)"/>
     <use xlink:href="#TimesNewRomanPSMT-44" transform="translate(697.216797 0)"/>
     <use xlink:href="#TimesNewRomanPSMT-50" transform="translate(769.433594 0)"/>
     <use xlink:href="#TimesNewRomanPSMT-20" transform="translate(821.298828 0)"/>
     <use xlink:href="#SimSun-78b3" transform="translate(846.298828 0)"/>
     <use xlink:href="#SimSun-6392" transform="translate(946.298828 0)"/>
     <use xlink:href="#SimSun-653e" transform="translate(1046.298828 0)"/>
     <use xlink:href="#SimSun-5bf9" transform="translate(1146.298828 0)"/>
     <use xlink:href="#SimSun-6bd4" transform="translate(1246.298828 0)"/>
     <use xlink:href="#SimSun-56fe" transform="translate(1346.298828 0)"/>
    </g>
   </g>
  </g>
 </g>
 <defs>
  <clipPath id="p46caa8e9d9">
   <rect x="64.66875" y="23.16625" width="671.8725" height="353.01"/>
  </clipPath>
 </defs>
</svg>
