<?xml version="1.0" encoding="utf-8" standalone="no"?>
<!DOCTYPE svg PUBLIC "-//W3C//DTD SVG 1.1//EN"
  "http://www.w3.org/Graphics/SVG/1.1/DTD/svg11.dtd">
<svg xmlns:xlink="http://www.w3.org/1999/xlink" width="621.3325pt" height="390.190312pt" viewBox="0 0 621.3325 390.190312" xmlns="http://www.w3.org/2000/svg" version="1.1">
 <metadata>
  <rdf:RDF xmlns:dc="http://purl.org/dc/elements/1.1/" xmlns:cc="http://creativecommons.org/ns#" xmlns:rdf="http://www.w3.org/1999/02/22-rdf-syntax-ns#">
   <cc:Work>
    <dc:type rdf:resource="http://purl.org/dc/dcmitype/StillImage"/>
    <dc:date>2026-05-06T22:05:46.051060</dc:date>
    <dc:format>image/svg+xml</dc:format>
    <dc:creator>
     <cc:Agent>
      <dc:title>Matplotlib v3.10.8, https://matplotlib.org/</dc:title>
     </cc:Agent>
    </dc:creator>
   </cc:Work>
  </rdf:RDF>
 </metadata>
 <defs>
  <style type="text/css">*{stroke-linejoin: round; stroke-linecap: butt}</style>
 </defs>
 <g id="figure_1">
  <g id="patch_1">
   <path d="M 0 390.190312 
L 621.3325 390.190312 
L 621.3325 0 
L 0 0 
z
" style="fill: #ffffff"/>
  </g>
  <g id="axes_1">
   <g id="patch_2">
    <path d="M 45.5125 348.334062 
L 614.1325 348.334062 
L 614.1325 23.111562 
L 45.5125 23.111562 
z
" style="fill: #ffffff"/>
   </g>
   <g id="matplotlib.axis_1">
    <g id="xtick_1">
     <g id="text_1">
      <!-- 东部 -->
      <g style="fill: #262626" transform="translate(105.59 365.621719) scale(0.11 -0.11)">
       <defs>
        <path id="SimSun-4e1c" d="M 2200 50 
Q 2775 -50 2987 -50 
Q 3200 -50 3200 125 
L 3200 2225 
L 1700 2225 
L 1475 2000 
L 1125 2325 
Q 1350 2450 1637 2812 
Q 1925 3175 2400 4050 
L 1400 4050 
Q 1075 4050 800 3975 
L 575 4200 
L 2450 4200 
Q 2825 5000 2850 5250 
L 3350 4950 
Q 3150 4800 2850 4200 
L 4950 4200 
L 5300 4550 
L 5800 4050 
L 2800 4050 
Q 2250 3025 1725 2375 
L 3200 2375 
Q 3200 3125 3175 3475 
L 3750 3200 
L 3550 3025 
L 3550 2375 
L 4675 2375 
L 5000 2700 
L 5475 2225 
L 3550 2225 
L 3550 0 
Q 3575 -425 3000 -650 
Q 2975 -325 2175 -50 
L 2200 50 
z
M 2250 1950 
L 2750 1550 
Q 2525 1500 1975 975 
Q 1400 425 525 -125 
L 475 -25 
Q 1650 850 2250 1950 
z
M 4075 1800 
Q 5500 950 5662 725 
Q 5825 500 5825 300 
Q 5825 175 5762 62 
Q 5700 -50 5650 -50 
Q 5550 -50 5350 325 
Q 5075 825 4000 1725 
L 4075 1800 
z
" transform="scale(0.015625)"/>
        <path id="SimSun-90e8" d="M 4025 -650 
L 4025 3650 
Q 4025 4250 4000 4800 
L 4350 4525 
L 5475 4525 
L 5700 4750 
L 6050 4400 
L 5825 4225 
L 5075 2600 
Q 5525 2200 5725 1812 
Q 5925 1425 5925 1087 
Q 5925 750 5725 512 
Q 5525 275 5175 175 
Q 5050 525 4475 675 
L 4475 775 
Q 4975 700 5187 700 
Q 5400 700 5475 875 
Q 5550 1050 5550 1200 
Q 5550 1375 5475 1712 
Q 5400 2050 4925 2600 
L 5500 4375 
L 4350 4375 
L 4350 -475 
L 4025 -650 
z
M 1350 1625 
L 1350 375 
L 2825 375 
L 2825 1625 
L 1350 1625 
z
M 575 4175 
L 2050 4175 
Q 2000 4475 1925 4675 
Q 1850 4875 1675 5100 
L 1725 5175 
Q 2375 4800 2412 4587 
Q 2450 4375 2200 4175 
L 3025 4175 
L 3300 4475 
L 3700 4025 
L 1275 4025 
Q 1075 4025 800 3950 
L 575 4175 
z
M 2325 2575 
Q 2725 3500 2775 3900 
L 3300 3575 
L 3075 3450 
Q 2850 3125 2500 2575 
L 3275 2575 
L 3575 2875 
L 3975 2425 
L 1025 2425 
Q 825 2425 550 2350 
L 325 2575 
L 2325 2575 
z
M 1000 -450 
Q 1025 175 1025 775 
Q 1025 1375 1000 2000 
L 1375 1775 
L 2800 1775 
L 3050 2025 
L 3375 1700 
L 3150 1525 
Q 3150 250 3175 -175 
L 2825 -350 
L 2825 225 
L 1350 225 
L 1350 -300 
L 1000 -450 
z
M 1150 3800 
Q 1600 3475 1725 3300 
Q 1850 3125 1812 2975 
Q 1775 2825 1687 2750 
Q 1600 2675 1575 2675 
Q 1500 2675 1475 2850 
Q 1425 3075 1350 3275 
Q 1275 3475 1100 3725 
L 1150 3800 
z
" transform="scale(0.015625)"/>
       </defs>
       <use xlink:href="#SimSun-4e1c"/>
       <use xlink:href="#SimSun-90e8" transform="translate(100 0)"/>
      </g>
     </g>
    </g>
    <g id="xtick_2">
     <g id="text_2">
      <!-- 中部 -->
      <g style="fill: #262626" transform="translate(247.745 365.621719) scale(0.11 -0.11)">
       <defs>
        <path id="SimSun-4e2d" d="M 3325 3625 
L 3325 1975 
L 5125 1975 
L 5125 3625 
L 3325 3625 
z
M 2950 3775 
Q 2950 4750 2925 5250 
L 3525 4975 
L 3325 4775 
L 3325 3775 
L 5075 3775 
L 5275 4075 
L 5700 3750 
L 5475 3550 
L 5475 2100 
Q 5475 1825 5500 1525 
L 5125 1375 
L 5125 1825 
L 3325 1825 
Q 3325 -75 3350 -400 
L 2925 -625 
Q 2950 -50 2950 1825 
L 1225 1825 
L 1225 1525 
L 850 1325 
Q 875 1775 875 2625 
Q 875 3475 850 4000 
L 1225 3775 
L 2950 3775 
z
M 1225 3625 
L 1225 1975 
L 2950 1975 
L 2950 3625 
L 1225 3625 
z
" transform="scale(0.015625)"/>
       </defs>
       <use xlink:href="#SimSun-4e2d"/>
       <use xlink:href="#SimSun-90e8" transform="translate(100 0)"/>
      </g>
     </g>
    </g>
    <g id="xtick_3">
     <g id="text_3">
      <!-- 西部 -->
      <g style="fill: #262626" transform="translate(389.9 365.492812) scale(0.11 -0.11)">
       <defs>
        <path id="SimSun-897f" d="M 5675 3275 
L 5475 3075 
Q 5475 200 5500 -275 
L 5150 -450 
L 5150 50 
L 1275 50 
L 1275 -350 
L 925 -525 
Q 950 0 950 1500 
Q 950 3000 925 3500 
L 1275 3300 
L 2400 3300 
L 2400 4475 
L 1100 4475 
Q 900 4475 625 4400 
L 400 4625 
L 5050 4625 
L 5425 4975 
L 5900 4475 
L 4000 4475 
L 4000 3300 
L 5100 3300 
L 5275 3575 
L 5675 3275 
z
M 2725 4475 
L 2725 3300 
L 3675 3300 
L 3675 4475 
L 2725 4475 
z
M 4000 3150 
L 4000 1650 
Q 4000 1425 4150 1425 
Q 4300 1425 4450 1425 
Q 4600 1425 4725 1475 
Q 4825 1525 4900 1462 
Q 4975 1400 5012 1275 
Q 5050 1150 4950 1137 
Q 4850 1125 4650 1125 
L 4125 1125 
Q 3650 1125 3675 1525 
L 3675 3150 
L 2725 3150 
Q 2725 2075 2387 1537 
Q 2050 1000 1450 600 
L 1400 675 
Q 1925 1150 2150 1687 
Q 2375 2225 2400 3150 
L 1275 3150 
L 1275 200 
L 5150 200 
L 5150 3150 
L 4000 3150 
z
" transform="scale(0.015625)"/>
       </defs>
       <use xlink:href="#SimSun-897f"/>
       <use xlink:href="#SimSun-90e8" transform="translate(100 0)"/>
      </g>
     </g>
    </g>
    <g id="xtick_4">
     <g id="text_4">
      <!-- 东北 -->
      <g style="fill: #262626" transform="translate(532.055 365.621719) scale(0.11 -0.11)">
       <defs>
        <path id="SimSun-5317" d="M 2175 3325 
Q 2175 4625 2150 5175 
L 2750 4925 
L 2525 4700 
L 2525 900 
Q 2525 375 2550 -375 
L 2150 -525 
Q 2175 325 2175 950 
Q 925 400 650 125 
L 350 575 
Q 650 600 2175 1075 
L 2175 3175 
L 850 3175 
L 625 3125 
L 425 3325 
L 2175 3325 
z
M 3625 200 
L 3625 3675 
Q 3625 4425 3600 5150 
L 4200 4850 
L 3975 4675 
L 3975 2675 
Q 4925 3175 5475 3850 
L 5900 3400 
Q 5650 3350 5125 3075 
Q 4575 2800 3975 2525 
L 3975 350 
Q 3975 25 4300 25 
L 5200 25 
Q 5500 25 5537 462 
Q 5575 900 5600 1375 
L 5725 1375 
Q 5750 600 5812 400 
Q 5875 200 6075 100 
Q 5925 -225 5425 -300 
L 4175 -300 
Q 3625 -300 3625 200 
z
" transform="scale(0.015625)"/>
       </defs>
       <use xlink:href="#SimSun-4e1c"/>
       <use xlink:href="#SimSun-5317" transform="translate(100 0)"/>
      </g>
     </g>
    </g>
    <g id="text_5">
     <!-- 区域 -->
     <g style="fill: #262626" transform="translate(317.8225 380.423437) scale(0.12 -0.12)">
      <defs>
       <path id="SimSun-533a" d="M 2025 3850 
Q 2700 3350 3525 2575 
Q 3850 3025 4087 3437 
Q 4325 3850 4450 4150 
L 5025 3750 
Q 4800 3700 4475 3262 
Q 4150 2825 3800 2350 
Q 4700 1500 4775 1275 
Q 4850 1050 4850 925 
Q 4850 800 4787 662 
Q 4725 525 4700 525 
Q 4625 525 4500 775 
Q 4300 1125 4087 1412 
Q 3875 1700 3575 2050 
Q 3050 1475 2575 1075 
Q 2100 675 1725 450 
L 1675 525 
Q 2125 900 2525 1312 
Q 2925 1725 3325 2300 
Q 2650 3100 1950 3775 
L 2025 3850 
z
M 1225 4725 
L 4950 4725 
L 5300 5075 
L 5775 4575 
L 1225 4575 
L 1225 -100 
L 5050 -100 
L 5400 250 
L 5850 -250 
L 1250 -250 
L 1100 -475 
L 725 -175 
L 875 -25 
L 875 4100 
Q 875 4325 850 4950 
L 1225 4725 
z
" transform="scale(0.015625)"/>
       <path id="SimSun-57df" d="M 2500 1375 
Q 2525 1825 2525 2350 
Q 2525 2875 2500 3275 
L 2825 3075 
L 3425 3075 
L 3600 3300 
L 3950 3000 
L 3750 2850 
L 3750 2075 
Q 3750 1925 3775 1600 
L 3450 1450 
L 3450 1700 
L 2825 1700 
L 2825 1500 
L 2500 1375 
z
M 2825 2925 
L 2825 1850 
L 3450 1850 
L 3450 2925 
L 2825 2925 
z
M 1850 625 
Q 2275 625 3975 1075 
L 4000 975 
Q 2325 425 2100 175 
L 1850 625 
z
M 4125 4625 
Q 4125 4900 4100 5250 
L 4625 4950 
L 4450 4775 
L 4450 3925 
L 5325 3925 
L 5650 4250 
L 6125 3775 
L 4450 3775 
Q 4450 2575 4650 1525 
Q 4825 1850 5012 2400 
Q 5200 2950 5250 3275 
L 5725 2875 
Q 5550 2800 5325 2200 
Q 5075 1600 4825 1100 
Q 5125 525 5675 125 
Q 5800 525 5975 1200 
L 6075 1175 
Q 6000 600 5987 212 
Q 5975 -175 6050 -425 
Q 6075 -525 6000 -525 
Q 5900 -525 5512 -300 
Q 5125 -75 4575 800 
Q 3750 -175 2700 -625 
L 2650 -550 
Q 3825 200 4400 1125 
Q 4125 2200 4125 3775 
L 2875 3775 
Q 2550 3775 2275 3700 
L 2050 3925 
L 4125 3925 
L 4125 4625 
z
M 4800 5050 
L 4850 5125 
Q 5375 4925 5525 4800 
Q 5675 4675 5675 4550 
Q 5675 4450 5612 4325 
Q 5550 4200 5525 4200 
Q 5450 4200 5375 4375 
Q 5225 4650 4800 5050 
z
M 275 3350 
L 1200 3350 
L 1200 4275 
Q 1200 4575 1175 5125 
L 1750 4850 
L 1550 4675 
L 1550 3350 
L 1725 3350 
L 2000 3625 
L 2425 3200 
L 1550 3200 
L 1550 1250 
L 2350 1450 
L 2375 1350 
Q 675 725 550 500 
L 275 975 
Q 700 1050 1200 1175 
L 1200 3200 
L 1100 3200 
Q 775 3200 500 3125 
L 275 3350 
z
" transform="scale(0.015625)"/>
      </defs>
      <use xlink:href="#SimSun-533a"/>
      <use xlink:href="#SimSun-57df" transform="translate(100 0)"/>
     </g>
    </g>
   </g>
   <g id="matplotlib.axis_2">
    <g id="ytick_1">
     <g id="line2d_1">
      <path d="M 45.5125 293.283887 
L 614.1325 293.283887 
" clip-path="url(#p7c3dbe79d8)" style="fill: none; stroke: #cccccc; stroke-linecap: round"/>
     </g>
     <g id="text_6">
      <!-- 0.4 -->
      <g style="fill: #262626" transform="translate(22.2625 297.10295) scale(0.11 -0.11)">
       <defs>
        <path id="TimesNewRomanPSMT-30" d="M 231 2094 
Q 231 2819 450 3342 
Q 669 3866 1031 4122 
Q 1313 4325 1613 4325 
Q 2100 4325 2488 3828 
Q 2972 3213 2972 2159 
Q 2972 1422 2759 906 
Q 2547 391 2217 158 
Q 1888 -75 1581 -75 
Q 975 -75 572 641 
Q 231 1244 231 2094 
z
M 844 2016 
Q 844 1141 1059 588 
Q 1238 122 1591 122 
Q 1759 122 1940 273 
Q 2122 425 2216 781 
Q 2359 1319 2359 2297 
Q 2359 3022 2209 3506 
Q 2097 3866 1919 4016 
Q 1791 4119 1609 4119 
Q 1397 4119 1231 3928 
Q 1006 3669 925 3112 
Q 844 2556 844 2016 
z
" transform="scale(0.015625)"/>
        <path id="TimesNewRomanPSMT-2e" d="M 800 606 
Q 947 606 1047 504 
Q 1147 403 1147 259 
Q 1147 116 1045 14 
Q 944 -88 800 -88 
Q 656 -88 554 14 
Q 453 116 453 259 
Q 453 406 554 506 
Q 656 606 800 606 
z
" transform="scale(0.015625)"/>
        <path id="TimesNewRomanPSMT-34" d="M 2978 1563 
L 2978 1119 
L 2409 1119 
L 2409 0 
L 1894 0 
L 1894 1119 
L 100 1119 
L 100 1519 
L 2066 4325 
L 2409 4325 
L 2409 1563 
L 2978 1563 
z
M 1894 1563 
L 1894 3666 
L 406 1563 
L 1894 1563 
z
" transform="scale(0.015625)"/>
       </defs>
       <use xlink:href="#TimesNewRomanPSMT-30"/>
       <use xlink:href="#TimesNewRomanPSMT-2e" transform="translate(50 0)"/>
       <use xlink:href="#TimesNewRomanPSMT-34" transform="translate(75 0)"/>
      </g>
     </g>
    </g>
    <g id="ytick_2">
     <g id="line2d_2">
      <path d="M 45.5125 234.238845 
L 614.1325 234.238845 
" clip-path="url(#p7c3dbe79d8)" style="fill: none; stroke: #cccccc; stroke-linecap: round"/>
     </g>
     <g id="text_7">
      <!-- 0.6 -->
      <g style="fill: #262626" transform="translate(22.2625 238.057908) scale(0.11 -0.11)">
       <defs>
        <path id="TimesNewRomanPSMT-36" d="M 2869 4325 
L 2869 4209 
Q 2456 4169 2195 4045 
Q 1934 3922 1679 3669 
Q 1425 3416 1258 3105 
Q 1091 2794 978 2366 
Q 1428 2675 1881 2675 
Q 2316 2675 2634 2325 
Q 2953 1975 2953 1425 
Q 2953 894 2631 456 
Q 2244 -75 1606 -75 
Q 1172 -75 869 213 
Q 275 772 275 1663 
Q 275 2231 503 2743 
Q 731 3256 1154 3653 
Q 1578 4050 1965 4187 
Q 2353 4325 2688 4325 
L 2869 4325 
z
M 925 2138 
Q 869 1716 869 1456 
Q 869 1156 980 804 
Q 1091 453 1309 247 
Q 1469 100 1697 100 
Q 1969 100 2183 356 
Q 2397 613 2397 1088 
Q 2397 1622 2184 2012 
Q 1972 2403 1581 2403 
Q 1463 2403 1327 2353 
Q 1191 2303 925 2138 
z
" transform="scale(0.015625)"/>
       </defs>
       <use xlink:href="#TimesNewRomanPSMT-30"/>
       <use xlink:href="#TimesNewRomanPSMT-2e" transform="translate(50 0)"/>
       <use xlink:href="#TimesNewRomanPSMT-36" transform="translate(75 0)"/>
      </g>
     </g>
    </g>
    <g id="ytick_3">
     <g id="line2d_3">
      <path d="M 45.5125 175.193803 
L 614.1325 175.193803 
" clip-path="url(#p7c3dbe79d8)" style="fill: none; stroke: #cccccc; stroke-linecap: round"/>
     </g>
     <g id="text_8">
      <!-- 0.8 -->
      <g style="fill: #262626" transform="translate(22.2625 179.012866) scale(0.11 -0.11)">
       <defs>
        <path id="TimesNewRomanPSMT-38" d="M 1228 2134 
Q 725 2547 579 2797 
Q 434 3047 434 3316 
Q 434 3728 753 4026 
Q 1072 4325 1600 4325 
Q 2113 4325 2425 4047 
Q 2738 3769 2738 3413 
Q 2738 3175 2569 2928 
Q 2400 2681 1866 2347 
Q 2416 1922 2594 1678 
Q 2831 1359 2831 1006 
Q 2831 559 2490 242 
Q 2150 -75 1597 -75 
Q 994 -75 656 303 
Q 388 606 388 966 
Q 388 1247 577 1523 
Q 766 1800 1228 2134 
z
M 1719 2469 
Q 2094 2806 2194 3001 
Q 2294 3197 2294 3444 
Q 2294 3772 2109 3958 
Q 1925 4144 1606 4144 
Q 1288 4144 1088 3959 
Q 888 3775 888 3528 
Q 888 3366 970 3203 
Q 1053 3041 1206 2894 
L 1719 2469 
z
M 1375 2016 
Q 1116 1797 991 1539 
Q 866 1281 866 981 
Q 866 578 1086 336 
Q 1306 94 1647 94 
Q 1984 94 2187 284 
Q 2391 475 2391 747 
Q 2391 972 2272 1150 
Q 2050 1481 1375 2016 
z
" transform="scale(0.015625)"/>
       </defs>
       <use xlink:href="#TimesNewRomanPSMT-30"/>
       <use xlink:href="#TimesNewRomanPSMT-2e" transform="translate(50 0)"/>
       <use xlink:href="#TimesNewRomanPSMT-38" transform="translate(75 0)"/>
      </g>
     </g>
    </g>
    <g id="ytick_4">
     <g id="line2d_4">
      <path d="M 45.5125 116.148761 
L 614.1325 116.148761 
" clip-path="url(#p7c3dbe79d8)" style="fill: none; stroke: #cccccc; stroke-linecap: round"/>
     </g>
     <g id="text_9">
      <!-- 1.0 -->
      <g style="fill: #262626" transform="translate(22.2625 119.967824) scale(0.11 -0.11)">
       <defs>
        <path id="TimesNewRomanPSMT-31" d="M 750 3822 
L 1781 4325 
L 1884 4325 
L 1884 747 
Q 1884 391 1914 303 
Q 1944 216 2037 169 
Q 2131 122 2419 116 
L 2419 0 
L 825 0 
L 825 116 
Q 1125 122 1212 167 
Q 1300 213 1334 289 
Q 1369 366 1369 747 
L 1369 3034 
Q 1369 3497 1338 3628 
Q 1316 3728 1258 3775 
Q 1200 3822 1119 3822 
Q 1003 3822 797 3725 
L 750 3822 
z
" transform="scale(0.015625)"/>
       </defs>
       <use xlink:href="#TimesNewRomanPSMT-31"/>
       <use xlink:href="#TimesNewRomanPSMT-2e" transform="translate(50 0)"/>
       <use xlink:href="#TimesNewRomanPSMT-30" transform="translate(75 0)"/>
      </g>
     </g>
    </g>
    <g id="ytick_5">
     <g id="line2d_5">
      <path d="M 45.5125 57.103719 
L 614.1325 57.103719 
" clip-path="url(#p7c3dbe79d8)" style="fill: none; stroke: #cccccc; stroke-linecap: round"/>
     </g>
     <g id="text_10">
      <!-- 1.2 -->
      <g style="fill: #262626" transform="translate(22.2625 60.922781) scale(0.11 -0.11)">
       <defs>
        <path id="TimesNewRomanPSMT-32" d="M 2934 816 
L 2638 0 
L 138 0 
L 138 116 
Q 1241 1122 1691 1759 
Q 2141 2397 2141 2925 
Q 2141 3328 1894 3587 
Q 1647 3847 1303 3847 
Q 991 3847 742 3664 
Q 494 3481 375 3128 
L 259 3128 
Q 338 3706 661 4015 
Q 984 4325 1469 4325 
Q 1984 4325 2329 3994 
Q 2675 3663 2675 3213 
Q 2675 2891 2525 2569 
Q 2294 2063 1775 1497 
Q 997 647 803 472 
L 1909 472 
Q 2247 472 2383 497 
Q 2519 522 2628 598 
Q 2738 675 2819 816 
L 2934 816 
z
" transform="scale(0.015625)"/>
       </defs>
       <use xlink:href="#TimesNewRomanPSMT-31"/>
       <use xlink:href="#TimesNewRomanPSMT-2e" transform="translate(50 0)"/>
       <use xlink:href="#TimesNewRomanPSMT-32" transform="translate(75 0)"/>
      </g>
     </g>
    </g>
    <g id="text_11">
     <!-- 碳排放效率 -->
     <g style="fill: #262626" transform="translate(15.695625 215.722812) rotate(-90) scale(0.12 -0.12)">
      <defs>
       <path id="SimSun-78b3" d="M 4075 3850 
Q 4075 4800 4050 5250 
L 4550 5025 
L 4375 4875 
L 4375 3850 
L 5325 3850 
Q 5325 4475 5300 4950 
L 5825 4700 
L 5625 4550 
Q 5625 4050 5650 3625 
L 5325 3475 
L 5325 3700 
L 3500 3700 
L 3900 3475 
Q 3725 3425 3575 2850 
L 5400 2850 
L 5700 3150 
L 6125 2700 
L 4450 2700 
L 4825 2475 
L 4625 2375 
L 4550 1900 
Q 4625 1475 4800 1125 
Q 5225 1675 5375 2025 
L 5775 1675 
Q 5500 1625 4850 1000 
Q 5125 475 5450 200 
Q 5775 -75 6150 -175 
L 6150 -250 
Q 5850 -275 5675 -500 
Q 5200 -100 4887 437 
Q 4575 975 4500 1625 
Q 4350 750 3912 225 
Q 3475 -300 2675 -625 
L 2625 -550 
Q 3275 -175 3650 325 
Q 4025 825 4137 1462 
Q 4250 2100 4275 2700 
L 3550 2700 
Q 3250 1425 2775 637 
Q 2300 -150 1650 -600 
L 1575 -550 
Q 2250 125 2625 900 
Q 3000 1675 3225 2700 
Q 2975 2700 2700 2625 
L 2475 2850 
L 3250 2850 
Q 3350 3250 3425 3700 
L 3200 3700 
L 3025 3500 
L 2700 3775 
L 2875 3925 
Q 2875 4575 2850 4975 
L 3350 4725 
L 3175 4575 
L 3175 3850 
L 4075 3850 
z
M 3750 1975 
Q 3800 1325 3712 1125 
Q 3625 925 3475 900 
Q 3325 875 3262 912 
Q 3200 950 3200 975 
Q 3200 1050 3325 1200 
Q 3500 1400 3650 1975 
L 3750 1975 
z
M 2275 2675 
Q 2275 950 2300 450 
L 1950 275 
L 1950 500 
L 1225 500 
L 1225 -75 
L 900 -225 
Q 925 825 925 2100 
Q 625 1550 325 1250 
L 250 1300 
Q 975 2475 1250 4300 
L 1075 4300 
Q 750 4300 475 4225 
L 250 4450 
L 1975 4450 
L 2250 4725 
L 2650 4300 
L 1625 4300 
Q 1450 3400 1250 2850 
L 1900 2850 
L 2050 3100 
L 2425 2825 
L 2275 2675 
z
M 1225 2700 
L 1225 650 
L 1950 650 
L 1950 2700 
L 1225 2700 
z
" transform="scale(0.015625)"/>
       <path id="SimSun-6392" d="M 3400 -575 
Q 3425 75 3425 1200 
L 2500 1200 
L 2275 1150 
L 2075 1350 
L 3425 1350 
L 3425 2500 
L 2900 2500 
L 2675 2450 
L 2475 2650 
L 3425 2650 
L 3425 3775 
L 2775 3775 
L 2525 3725 
L 2325 3925 
L 3425 3925 
Q 3425 4850 3400 5225 
L 3975 4925 
L 3750 4750 
L 3750 -400 
L 3400 -575 
z
M 4725 1175 
Q 4725 200 4750 -400 
L 4400 -575 
L 4400 4050 
Q 4400 4750 4375 5200 
L 4975 4925 
L 4725 4750 
L 4725 3900 
L 5450 3900 
L 5700 4150 
L 6100 3750 
L 4725 3750 
L 4725 2625 
L 5375 2625 
L 5625 2875 
L 6025 2475 
L 4725 2475 
L 4725 1325 
L 5450 1325 
L 5725 1600 
L 6150 1175 
L 4725 1175 
z
M 1325 3750 
Q 1325 4775 1300 5250 
L 1875 4975 
L 1650 4825 
L 1650 3750 
L 1850 3750 
L 2100 4000 
L 2500 3600 
L 1650 3600 
L 1650 2575 
L 2425 2925 
L 2475 2850 
L 1650 2325 
L 1650 200 
Q 1675 -325 1125 -550 
Q 1150 -275 475 -25 
L 475 75 
Q 950 0 1137 0 
Q 1325 0 1325 300 
L 1325 2150 
Q 675 1775 550 1575 
L 250 2050 
Q 525 2100 1325 2450 
L 1325 3600 
L 725 3600 
L 475 3550 
L 275 3750 
L 1325 3750 
z
" transform="scale(0.015625)"/>
       <path id="SimSun-653e" d="M 3750 3300 
Q 3950 2300 4400 1375 
Q 4800 2075 5025 3700 
L 3925 3700 
Q 3825 3500 3750 3300 
z
M 4225 1075 
Q 3775 1975 3650 3125 
Q 3300 2400 3225 2375 
L 3150 2425 
Q 3700 3725 3950 5250 
L 4525 4925 
L 4300 4800 
Q 4125 4275 3975 3850 
L 5300 3850 
L 5600 4150 
L 6050 3700 
L 5400 3700 
Q 5175 1975 4600 1075 
Q 5325 125 6150 -75 
L 6150 -175 
Q 5700 -175 5625 -425 
Q 4925 50 4400 800 
Q 3550 -150 2325 -600 
L 2300 -525 
Q 3550 125 4225 1075 
z
M 1350 5125 
Q 1925 4825 2062 4675 
Q 2200 4525 2200 4400 
Q 2200 4325 2162 4212 
Q 2125 4100 2012 4075 
Q 1900 4050 1825 4325 
Q 1725 4575 1300 5050 
L 1350 5125 
z
M 1450 350 
Q 2000 225 2150 237 
Q 2300 250 2362 525 
Q 2425 800 2462 1375 
Q 2500 1950 2525 2600 
L 1550 2600 
Q 1500 1525 1262 812 
Q 1025 100 300 -550 
L 250 -475 
Q 825 275 987 950 
Q 1150 1625 1175 2262 
Q 1200 2900 1200 3725 
L 725 3725 
L 500 3675 
L 300 3875 
L 2725 3875 
L 3000 4150 
L 3425 3725 
L 1550 3725 
L 1550 2750 
L 2500 2750 
L 2725 2975 
L 3050 2650 
L 2850 2500 
Q 2775 800 2725 537 
Q 2675 275 2600 125 
Q 2525 -25 2400 -125 
Q 2275 -225 2000 -300 
Q 1950 75 1425 250 
L 1450 350 
z
" transform="scale(0.015625)"/>
       <path id="SimSun-6548" d="M 575 4025 
L 1975 4025 
Q 1950 4250 1837 4500 
Q 1725 4750 1450 5100 
L 1525 5150 
Q 2000 4875 2175 4687 
Q 2350 4500 2350 4350 
Q 2350 4200 2200 4025 
L 2850 4025 
L 3150 4325 
L 3600 3875 
L 1400 3875 
Q 1075 3875 800 3800 
L 575 4025 
z
M 1425 3675 
L 1900 3350 
L 1675 3250 
Q 950 2225 475 1875 
L 400 1925 
Q 1075 2700 1425 3675 
z
M 2300 3575 
L 2350 3650 
Q 2900 3400 3075 3250 
Q 3250 3100 3250 2950 
Q 3250 2850 3187 2700 
Q 3125 2550 3075 2550 
Q 3000 2550 2900 2775 
Q 2725 3150 2300 3575 
z
M 1250 2225 
Q 1675 1950 2075 1625 
Q 2375 2250 2450 2650 
L 2900 2275 
Q 2725 2225 2300 1425 
Q 2700 1075 2862 862 
Q 3025 650 3025 475 
Q 3025 375 2962 237 
Q 2900 100 2875 100 
Q 2800 100 2700 350 
Q 2525 700 2150 1175 
Q 1425 100 475 -475 
L 425 -400 
Q 1300 300 1950 1400 
Q 1525 1850 1200 2150 
L 1250 2225 
z
M 4050 3500 
L 3950 3250 
Q 4150 2050 4525 1275 
Q 4950 2100 5125 3500 
L 4050 3500 
z
M 4175 5250 
L 4775 4950 
Q 4600 4875 4525 4725 
Q 4450 4575 4100 3650 
L 5375 3650 
L 5675 3950 
L 6125 3500 
L 5475 3500 
Q 5275 1975 4700 950 
Q 5350 0 6100 -125 
L 6100 -225 
Q 5650 -250 5550 -500 
Q 4975 -75 4475 725 
Q 3650 -125 2450 -625 
L 2400 -550 
Q 3650 125 4325 1000 
Q 3925 2025 3850 3050 
Q 3550 2400 3225 2000 
L 3150 2050 
Q 3825 3350 4175 5250 
z
" transform="scale(0.015625)"/>
       <path id="SimSun-7387" d="M 875 3725 
L 925 3800 
Q 1375 3650 1550 3525 
Q 1725 3400 1725 3250 
Q 1725 3175 1662 3025 
Q 1600 2875 1550 2875 
Q 1500 2875 1425 3050 
Q 1275 3325 875 3725 
z
M 550 1850 
Q 875 1925 2000 2575 
L 2050 2500 
Q 1675 2225 1337 1937 
Q 1000 1650 875 1425 
L 550 1850 
z
M 5200 3450 
Q 4800 3150 4275 2800 
L 4225 2875 
Q 4775 3400 5050 3925 
L 5450 3525 
L 5200 3450 
z
M 4325 2500 
L 4350 2575 
Q 5225 2350 5375 2212 
Q 5525 2075 5525 1900 
Q 5525 1775 5487 1662 
Q 5450 1550 5400 1550 
Q 5325 1550 5200 1800 
Q 4975 2150 4325 2500 
z
M 3150 3900 
Q 2500 3300 2300 3150 
Q 2800 3150 3400 3175 
Q 3700 3500 3850 3825 
L 4250 3450 
Q 4050 3400 3450 2825 
Q 2850 2250 2475 1950 
Q 3150 1975 3850 2000 
Q 3750 2175 3550 2450 
L 3600 2500 
Q 4050 2250 4200 2100 
Q 4350 1950 4350 1850 
Q 4350 1775 4250 1625 
Q 4150 1475 4100 1475 
Q 4075 1475 4050 1550 
Q 4000 1700 3900 1900 
Q 3650 1875 3075 1800 
L 3500 1550 
L 3325 1425 
L 3325 975 
L 5325 975 
L 5650 1300 
L 6100 825 
L 3325 825 
Q 3325 -275 3350 -525 
L 2975 -650 
Q 3000 0 3000 825 
L 1125 825 
Q 800 825 525 750 
L 300 975 
L 3000 975 
L 3000 1775 
Q 2450 1700 2200 1525 
L 1950 1950 
Q 2275 1950 2675 2350 
Q 3075 2750 3325 3050 
Q 2400 2950 2150 2775 
L 1950 3175 
Q 2150 3150 2475 3575 
Q 2800 4000 2900 4225 
L 1450 4225 
Q 1125 4225 850 4150 
L 625 4375 
L 3100 4375 
Q 3050 4800 2675 5200 
L 2725 5250 
Q 3225 5050 3337 4912 
Q 3450 4775 3450 4700 
Q 3450 4550 3250 4375 
L 5025 4375 
L 5350 4675 
L 5775 4225 
L 3050 4225 
L 3375 3950 
L 3150 3900 
z
" transform="scale(0.015625)"/>
      </defs>
      <use xlink:href="#SimSun-78b3"/>
      <use xlink:href="#SimSun-6392" transform="translate(100 0)"/>
      <use xlink:href="#SimSun-653e" transform="translate(200 0)"/>
      <use xlink:href="#SimSun-6548" transform="translate(300 0)"/>
      <use xlink:href="#SimSun-7387" transform="translate(400 0)"/>
     </g>
    </g>
   </g>
   <g id="patch_3">
    <path d="M 77.497375 256.672583 
L 155.682625 256.672583 
L 155.682625 139.892147 
L 77.497375 139.892147 
L 77.497375 256.672583 
z
" clip-path="url(#p7c3dbe79d8)" style="fill: #3a7f58; stroke: #373737; stroke-width: 1.1; stroke-linejoin: miter"/>
   </g>
   <g id="line2d_6">
    <path d="M 116.59 256.672583 
L 116.59 333.551222 
" clip-path="url(#p7c3dbe79d8)" style="fill: none; stroke: #373737; stroke-width: 1.1"/>
   </g>
   <g id="line2d_7">
    <path d="M 116.59 139.892147 
L 116.59 37.894403 
" clip-path="url(#p7c3dbe79d8)" style="fill: none; stroke: #373737; stroke-width: 1.1"/>
   </g>
   <g id="line2d_8">
    <path d="M 97.043687 333.551222 
L 136.136312 333.551222 
" clip-path="url(#p7c3dbe79d8)" style="fill: none; stroke: #373737; stroke-width: 1.1; stroke-linecap: round"/>
   </g>
   <g id="line2d_9">
    <path d="M 97.043687 37.894403 
L 136.136312 37.894403 
" clip-path="url(#p7c3dbe79d8)" style="fill: none; stroke: #373737; stroke-width: 1.1; stroke-linecap: round"/>
   </g>
   <g id="line2d_10"/>
   <g id="patch_4">
    <path d="M 361.807375 311.297549 
L 439.992625 311.297549 
L 439.992625 274.380407 
L 361.807375 274.380407 
L 361.807375 311.297549 
z
" clip-path="url(#p7c3dbe79d8)" style="fill: #72b6a0; stroke: #373737; stroke-width: 1.1; stroke-linejoin: miter"/>
   </g>
   <g id="line2d_11">
    <path d="M 400.9 311.297549 
L 400.9 326.434546 
" clip-path="url(#p7c3dbe79d8)" style="fill: none; stroke: #373737; stroke-width: 1.1"/>
   </g>
   <g id="line2d_12">
    <path d="M 400.9 274.380407 
L 400.9 236.047021 
" clip-path="url(#p7c3dbe79d8)" style="fill: none; stroke: #373737; stroke-width: 1.1"/>
   </g>
   <g id="line2d_13">
    <path d="M 381.353687 326.434546 
L 420.446312 326.434546 
" clip-path="url(#p7c3dbe79d8)" style="fill: none; stroke: #373737; stroke-width: 1.1; stroke-linecap: round"/>
   </g>
   <g id="line2d_14">
    <path d="M 381.353687 236.047021 
L 420.446312 236.047021 
" clip-path="url(#p7c3dbe79d8)" style="fill: none; stroke: #373737; stroke-width: 1.1; stroke-linecap: round"/>
   </g>
   <g id="line2d_15">
    <defs>
     <path id="m96daa433a7" d="M 0 1.5 
C 0.397805 1.5 0.77937 1.341951 1.06066 1.06066 
C 1.341951 0.77937 1.5 0.397805 1.5 0 
C 1.5 -0.397805 1.341951 -0.77937 1.06066 -1.06066 
C 0.77937 -1.341951 0.397805 -1.5 0 -1.5 
C -0.397805 -1.5 -0.77937 -1.341951 -1.06066 -1.06066 
C -1.341951 -0.77937 -1.5 -0.397805 -1.5 0 
C -1.5 0.397805 -1.341951 0.77937 -1.06066 1.06066 
C -0.77937 1.341951 -0.397805 1.5 0 1.5 
z
" style="stroke: #373737"/>
    </defs>
    <g clip-path="url(#p7c3dbe79d8)">
     <use xlink:href="#m96daa433a7" x="400.9" y="87.057896" style="fill-opacity: 0; stroke: #373737"/>
     <use xlink:href="#m96daa433a7" x="400.9" y="140.779756" style="fill-opacity: 0; stroke: #373737"/>
     <use xlink:href="#m96daa433a7" x="400.9" y="133.897645" style="fill-opacity: 0; stroke: #373737"/>
     <use xlink:href="#m96daa433a7" x="400.9" y="120.694482" style="fill-opacity: 0; stroke: #373737"/>
     <use xlink:href="#m96daa433a7" x="400.9" y="115.852174" style="fill-opacity: 0; stroke: #373737"/>
     <use xlink:href="#m96daa433a7" x="400.9" y="96.041874" style="fill-opacity: 0; stroke: #373737"/>
     <use xlink:href="#m96daa433a7" x="400.9" y="121.954514" style="fill-opacity: 0; stroke: #373737"/>
     <use xlink:href="#m96daa433a7" x="400.9" y="115.780028" style="fill-opacity: 0; stroke: #373737"/>
    </g>
   </g>
   <g id="patch_5">
    <path d="M 503.962375 309.553273 
L 582.147625 309.553273 
L 582.147625 295.239199 
L 503.962375 295.239199 
L 503.962375 309.553273 
z
" clip-path="url(#p7c3dbe79d8)" style="fill: #a2d3c2; stroke: #373737; stroke-width: 1.1; stroke-linejoin: miter"/>
   </g>
   <g id="line2d_16">
    <path d="M 543.055 309.553273 
L 543.055 313.365634 
" clip-path="url(#p7c3dbe79d8)" style="fill: none; stroke: #373737; stroke-width: 1.1"/>
   </g>
   <g id="line2d_17">
    <path d="M 543.055 295.239199 
L 543.055 283.136194 
" clip-path="url(#p7c3dbe79d8)" style="fill: none; stroke: #373737; stroke-width: 1.1"/>
   </g>
   <g id="line2d_18">
    <path d="M 523.508687 313.365634 
L 562.601312 313.365634 
" clip-path="url(#p7c3dbe79d8)" style="fill: none; stroke: #373737; stroke-width: 1.1; stroke-linecap: round"/>
   </g>
   <g id="line2d_19">
    <path d="M 523.508687 283.136194 
L 562.601312 283.136194 
" clip-path="url(#p7c3dbe79d8)" style="fill: none; stroke: #373737; stroke-width: 1.1; stroke-linecap: round"/>
   </g>
   <g id="line2d_20"/>
   <g id="patch_6">
    <path d="M 219.652375 304.23922 
L 297.837625 304.23922 
L 297.837625 285.149419 
L 219.652375 285.149419 
L 219.652375 304.23922 
z
" clip-path="url(#p7c3dbe79d8)" style="fill: #d3eadd; stroke: #373737; stroke-width: 1.1; stroke-linejoin: miter"/>
   </g>
   <g id="line2d_21">
    <path d="M 258.745 304.23922 
L 258.745 327.233861 
" clip-path="url(#p7c3dbe79d8)" style="fill: none; stroke: #373737; stroke-width: 1.1"/>
   </g>
   <g id="line2d_22">
    <path d="M 258.745 285.149419 
L 258.745 267.90298 
" clip-path="url(#p7c3dbe79d8)" style="fill: none; stroke: #373737; stroke-width: 1.1"/>
   </g>
   <g id="line2d_23">
    <path d="M 239.198687 327.233861 
L 278.291312 327.233861 
" clip-path="url(#p7c3dbe79d8)" style="fill: none; stroke: #373737; stroke-width: 1.1; stroke-linecap: round"/>
   </g>
   <g id="line2d_24">
    <path d="M 239.198687 267.90298 
L 278.291312 267.90298 
" clip-path="url(#p7c3dbe79d8)" style="fill: none; stroke: #373737; stroke-width: 1.1; stroke-linecap: round"/>
   </g>
   <g id="line2d_25">
    <g clip-path="url(#p7c3dbe79d8)">
     <use xlink:href="#m96daa433a7" x="258.745" y="253.487724" style="fill-opacity: 0; stroke: #373737"/>
     <use xlink:href="#m96daa433a7" x="258.745" y="244.528024" style="fill-opacity: 0; stroke: #373737"/>
    </g>
   </g>
   <g id="line2d_26">
    <path d="M 77.497375 217.721042 
L 155.682625 217.721042 
" clip-path="url(#p7c3dbe79d8)" style="fill: none; stroke: #373737; stroke-width: 1.1"/>
   </g>
   <g id="line2d_27">
    <path d="M 361.807375 303.914462 
L 439.992625 303.914462 
" clip-path="url(#p7c3dbe79d8)" style="fill: none; stroke: #373737; stroke-width: 1.1"/>
   </g>
   <g id="line2d_28">
    <path d="M 503.962375 304.977397 
L 582.147625 304.977397 
" clip-path="url(#p7c3dbe79d8)" style="fill: none; stroke: #373737; stroke-width: 1.1"/>
   </g>
   <g id="line2d_29">
    <path d="M 219.652375 299.708463 
L 297.837625 299.708463 
" clip-path="url(#p7c3dbe79d8)" style="fill: none; stroke: #373737; stroke-width: 1.1"/>
   </g>
   <g id="patch_7">
    <path d="M 45.5125 348.334062 
L 45.5125 23.111562 
" style="fill: none; stroke: #cccccc; stroke-width: 1.25; stroke-linejoin: miter; stroke-linecap: square"/>
   </g>
   <g id="patch_8">
    <path d="M 614.1325 348.334062 
L 614.1325 23.111562 
" style="fill: none; stroke: #cccccc; stroke-width: 1.25; stroke-linejoin: miter; stroke-linecap: square"/>
   </g>
   <g id="patch_9">
    <path d="M 45.5125 348.334062 
L 614.1325 348.334062 
" style="fill: none; stroke: #cccccc; stroke-width: 1.25; stroke-linejoin: miter; stroke-linecap: square"/>
   </g>
   <g id="patch_10">
    <path d="M 45.5125 23.111562 
L 614.1325 23.111562 
" style="fill: none; stroke: #cccccc; stroke-width: 1.25; stroke-linejoin: miter; stroke-linecap: square"/>
   </g>
   <g id="PathCollection_1">
    <defs>
     <path id="m59774c8310" d="M 0 1.4 
C 0.371284 1.4 0.727412 1.252487 0.989949 0.989949 
C 1.252487 0.727412 1.4 0.371284 1.4 0 
C 1.4 -0.371284 1.252487 -0.727412 0.989949 -0.989949 
C 0.727412 -1.252487 0.371284 -1.4 0 -1.4 
C -0.371284 -1.4 -0.727412 -1.252487 -0.989949 -0.989949 
C -1.252487 -0.727412 -1.4 -0.371284 -1.4 0 
C -1.4 0.371284 -1.252487 0.727412 -0.989949 0.989949 
C -0.727412 1.252487 -0.371284 1.4 0 1.4 
z
"/>
    </defs>
    <g clip-path="url(#p7c3dbe79d8)">
     <use xlink:href="#m59774c8310" x="129.643501" y="239.83315" style="fill: #1f5133; fill-opacity: 0.28"/>
     <use xlink:href="#m59774c8310" x="107.091471" y="114.108192" style="fill: #1f5133; fill-opacity: 0.28"/>
     <use xlink:href="#m59774c8310" x="125.950624" y="255.265008" style="fill: #1f5133; fill-opacity: 0.28"/>
     <use xlink:href="#m59774c8310" x="95.668087" y="277.202377" style="fill: #1f5133; fill-opacity: 0.28"/>
     <use xlink:href="#m59774c8310" x="126.612537" y="112.14545" style="fill: #1f5133; fill-opacity: 0.28"/>
     <use xlink:href="#m59774c8310" x="107.490525" y="202.895643" style="fill: #1f5133; fill-opacity: 0.28"/>
     <use xlink:href="#m59774c8310" x="99.880524" y="333.380123" style="fill: #1f5133; fill-opacity: 0.28"/>
     <use xlink:href="#m59774c8310" x="136.003454" y="265.499853" style="fill: #1f5133; fill-opacity: 0.28"/>
     <use xlink:href="#m59774c8310" x="119.296748" y="102.056971" style="fill: #1f5133; fill-opacity: 0.28"/>
     <use xlink:href="#m59774c8310" x="94.48854" y="291.496469" style="fill: #1f5133; fill-opacity: 0.28"/>
     <use xlink:href="#m59774c8310" x="137.612574" y="257.085395" style="fill: #1f5133; fill-opacity: 0.28"/>
     <use xlink:href="#m59774c8310" x="117.177771" y="207.860585" style="fill: #1f5133; fill-opacity: 0.28"/>
     <use xlink:href="#m59774c8310" x="95.752065" y="248.816598" style="fill: #1f5133; fill-opacity: 0.28"/>
     <use xlink:href="#m59774c8310" x="107.651477" y="268.634522" style="fill: #1f5133; fill-opacity: 0.28"/>
     <use xlink:href="#m59774c8310" x="137.077489" y="93.368722" style="fill: #1f5133; fill-opacity: 0.28"/>
     <use xlink:href="#m59774c8310" x="126.005667" y="206.130528" style="fill: #1f5133; fill-opacity: 0.28"/>
     <use xlink:href="#m59774c8310" x="136.941341" y="333.551222" style="fill: #1f5133; fill-opacity: 0.28"/>
     <use xlink:href="#m59774c8310" x="113.47003" y="256.033425" style="fill: #1f5133; fill-opacity: 0.28"/>
     <use xlink:href="#m59774c8310" x="121.913098" y="109.190965" style="fill: #1f5133; fill-opacity: 0.28"/>
     <use xlink:href="#m59774c8310" x="137.438944" y="291.198253" style="fill: #1f5133; fill-opacity: 0.28"/>
     <use xlink:href="#m59774c8310" x="135.189264" y="255.866305" style="fill: #1f5133; fill-opacity: 0.28"/>
     <use xlink:href="#m59774c8310" x="134.170348" y="190.803566" style="fill: #1f5133; fill-opacity: 0.28"/>
     <use xlink:href="#m59774c8310" x="98.373596" y="237.745934" style="fill: #1f5133; fill-opacity: 0.28"/>
     <use xlink:href="#m59774c8310" x="98.918203" y="256.534978" style="fill: #1f5133; fill-opacity: 0.28"/>
     <use xlink:href="#m59774c8310" x="118.906189" y="155.114447" style="fill: #1f5133; fill-opacity: 0.28"/>
     <use xlink:href="#m59774c8310" x="134.431332" y="192.320788" style="fill: #1f5133; fill-opacity: 0.28"/>
     <use xlink:href="#m59774c8310" x="133.802474" y="330.692218" style="fill: #1f5133; fill-opacity: 0.28"/>
     <use xlink:href="#m59774c8310" x="132.057426" y="244.471144" style="fill: #1f5133; fill-opacity: 0.28"/>
     <use xlink:href="#m59774c8310" x="92.377102" y="133.218798" style="fill: #1f5133; fill-opacity: 0.28"/>
     <use xlink:href="#m59774c8310" x="104.578552" y="291.719896" style="fill: #1f5133; fill-opacity: 0.28"/>
     <use xlink:href="#m59774c8310" x="125.514614" y="252.134709" style="fill: #1f5133; fill-opacity: 0.28"/>
     <use xlink:href="#m59774c8310" x="134.943377" y="149.952329" style="fill: #1f5133; fill-opacity: 0.28"/>
     <use xlink:href="#m59774c8310" x="110.783556" y="212.958282" style="fill: #1f5133; fill-opacity: 0.28"/>
     <use xlink:href="#m59774c8310" x="111.657493" y="253.214882" style="fill: #1f5133; fill-opacity: 0.28"/>
     <use xlink:href="#m59774c8310" x="126.531587" y="134.206743" style="fill: #1f5133; fill-opacity: 0.28"/>
     <use xlink:href="#m59774c8310" x="98.54677" y="174.811716" style="fill: #1f5133; fill-opacity: 0.28"/>
     <use xlink:href="#m59774c8310" x="97.947699" y="328.136707" style="fill: #1f5133; fill-opacity: 0.28"/>
     <use xlink:href="#m59774c8310" x="131.501215" y="231.882369" style="fill: #1f5133; fill-opacity: 0.28"/>
     <use xlink:href="#m59774c8310" x="112.258376" y="143.753793" style="fill: #1f5133; fill-opacity: 0.28"/>
     <use xlink:href="#m59774c8310" x="100.7228" y="290.062237" style="fill: #1f5133; fill-opacity: 0.28"/>
     <use xlink:href="#m59774c8310" x="120.245784" y="250.878371" style="fill: #1f5133; fill-opacity: 0.28"/>
     <use xlink:href="#m59774c8310" x="92.144965" y="115.004598" style="fill: #1f5133; fill-opacity: 0.28"/>
     <use xlink:href="#m59774c8310" x="106.48741" y="191.82761" style="fill: #1f5133; fill-opacity: 0.28"/>
     <use xlink:href="#m59774c8310" x="121.816531" y="246.864149" style="fill: #1f5133; fill-opacity: 0.28"/>
     <use xlink:href="#m59774c8310" x="103.253678" y="113.707266" style="fill: #1f5133; fill-opacity: 0.28"/>
     <use xlink:href="#m59774c8310" x="113.397865" y="157.162362" style="fill: #1f5133; fill-opacity: 0.28"/>
     <use xlink:href="#m59774c8310" x="128.839629" y="321.862109" style="fill: #1f5133; fill-opacity: 0.28"/>
     <use xlink:href="#m59774c8310" x="105.140613" y="216.748192" style="fill: #1f5133; fill-opacity: 0.28"/>
     <use xlink:href="#m59774c8310" x="131.114534" y="141.333235" style="fill: #1f5133; fill-opacity: 0.28"/>
     <use xlink:href="#m59774c8310" x="103.305791" y="280.858509" style="fill: #1f5133; fill-opacity: 0.28"/>
     <use xlink:href="#m59774c8310" x="121.547365" y="248.60144" style="fill: #1f5133; fill-opacity: 0.28"/>
     <use xlink:href="#m59774c8310" x="111.12607" y="112.216947" style="fill: #1f5133; fill-opacity: 0.28"/>
     <use xlink:href="#m59774c8310" x="110.797508" y="185.212719" style="fill: #1f5133; fill-opacity: 0.28"/>
     <use xlink:href="#m59774c8310" x="110.265929" y="240.101587" style="fill: #1f5133; fill-opacity: 0.28"/>
     <use xlink:href="#m59774c8310" x="125.928971" y="112.183494" style="fill: #1f5133; fill-opacity: 0.28"/>
     <use xlink:href="#m59774c8310" x="122.009739" y="142.379025" style="fill: #1f5133; fill-opacity: 0.28"/>
     <use xlink:href="#m59774c8310" x="136.114471" y="319.518913" style="fill: #1f5133; fill-opacity: 0.28"/>
     <use xlink:href="#m59774c8310" x="124.629072" y="215.401727" style="fill: #1f5133; fill-opacity: 0.28"/>
     <use xlink:href="#m59774c8310" x="131.134202" y="125.558169" style="fill: #1f5133; fill-opacity: 0.28"/>
     <use xlink:href="#m59774c8310" x="105.017732" y="275.951825" style="fill: #1f5133; fill-opacity: 0.28"/>
     <use xlink:href="#m59774c8310" x="125.791442" y="223.415304" style="fill: #1f5133; fill-opacity: 0.28"/>
     <use xlink:href="#m59774c8310" x="124.171824" y="113.638635" style="fill: #1f5133; fill-opacity: 0.28"/>
     <use xlink:href="#m59774c8310" x="93.414864" y="135.568886" style="fill: #1f5133; fill-opacity: 0.28"/>
     <use xlink:href="#m59774c8310" x="99.55073" y="225.793647" style="fill: #1f5133; fill-opacity: 0.28"/>
     <use xlink:href="#m59774c8310" x="132.714619" y="115.919542" style="fill: #1f5133; fill-opacity: 0.28"/>
     <use xlink:href="#m59774c8310" x="111.97683" y="114.835996" style="fill: #1f5133; fill-opacity: 0.28"/>
     <use xlink:href="#m59774c8310" x="98.02782" y="312.486252" style="fill: #1f5133; fill-opacity: 0.28"/>
     <use xlink:href="#m59774c8310" x="100.014893" y="207.884514" style="fill: #1f5133; fill-opacity: 0.28"/>
     <use xlink:href="#m59774c8310" x="116.812526" y="197.353108" style="fill: #1f5133; fill-opacity: 0.28"/>
     <use xlink:href="#m59774c8310" x="99.295359" y="266.045465" style="fill: #1f5133; fill-opacity: 0.28"/>
     <use xlink:href="#m59774c8310" x="111.85684" y="222.75355" style="fill: #1f5133; fill-opacity: 0.28"/>
     <use xlink:href="#m59774c8310" x="121.240876" y="37.894403" style="fill: #1f5133; fill-opacity: 0.28"/>
     <use xlink:href="#m59774c8310" x="128.159135" y="113.950873" style="fill: #1f5133; fill-opacity: 0.28"/>
     <use xlink:href="#m59774c8310" x="118.933005" y="218.693893" style="fill: #1f5133; fill-opacity: 0.28"/>
     <use xlink:href="#m59774c8310" x="133.006532" y="111.245324" style="fill: #1f5133; fill-opacity: 0.28"/>
     <use xlink:href="#m59774c8310" x="121.440555" y="112.086923" style="fill: #1f5133; fill-opacity: 0.28"/>
     <use xlink:href="#m59774c8310" x="91.101407" y="309.186853" style="fill: #1f5133; fill-opacity: 0.28"/>
     <use xlink:href="#m59774c8310" x="136.916116" y="239.878968" style="fill: #1f5133; fill-opacity: 0.28"/>
     <use xlink:href="#m59774c8310" x="141.797236" y="143.790313" style="fill: #1f5133; fill-opacity: 0.28"/>
     <use xlink:href="#m59774c8310" x="117.733308" y="259.831281" style="fill: #1f5133; fill-opacity: 0.28"/>
    </g>
   </g>
   <g id="PathCollection_2">
    <g clip-path="url(#p7c3dbe79d8)">
     <use xlink:href="#m59774c8310" x="264.600722" y="302.952292" style="fill: #1f5133; fill-opacity: 0.28"/>
     <use xlink:href="#m59774c8310" x="254.259035" y="326.377757" style="fill: #1f5133; fill-opacity: 0.28"/>
     <use xlink:href="#m59774c8310" x="283.573116" y="273.03793" style="fill: #1f5133; fill-opacity: 0.28"/>
     <use xlink:href="#m59774c8310" x="245.629572" y="324.135326" style="fill: #1f5133; fill-opacity: 0.28"/>
     <use xlink:href="#m59774c8310" x="266.088381" y="303.455351" style="fill: #1f5133; fill-opacity: 0.28"/>
     <use xlink:href="#m59774c8310" x="284.139702" y="299.920454" style="fill: #1f5133; fill-opacity: 0.28"/>
     <use xlink:href="#m59774c8310" x="239.253825" y="303.807226" style="fill: #1f5133; fill-opacity: 0.28"/>
     <use xlink:href="#m59774c8310" x="275.576633" y="327.233861" style="fill: #1f5133; fill-opacity: 0.28"/>
     <use xlink:href="#m59774c8310" x="254.568807" y="286.18569" style="fill: #1f5133; fill-opacity: 0.28"/>
     <use xlink:href="#m59774c8310" x="258.678569" y="318.888598" style="fill: #1f5133; fill-opacity: 0.28"/>
     <use xlink:href="#m59774c8310" x="257.07552" y="304.000682" style="fill: #1f5133; fill-opacity: 0.28"/>
     <use xlink:href="#m59774c8310" x="237.879815" y="300.771879" style="fill: #1f5133; fill-opacity: 0.28"/>
     <use xlink:href="#m59774c8310" x="258.135541" y="303.234904" style="fill: #1f5133; fill-opacity: 0.28"/>
     <use xlink:href="#m59774c8310" x="270.945872" y="324.179913" style="fill: #1f5133; fill-opacity: 0.28"/>
     <use xlink:href="#m59774c8310" x="233.529328" y="286.513953" style="fill: #1f5133; fill-opacity: 0.28"/>
     <use xlink:href="#m59774c8310" x="271.38928" y="311.718833" style="fill: #1f5133; fill-opacity: 0.28"/>
     <use xlink:href="#m59774c8310" x="236.4496" y="299.830993" style="fill: #1f5133; fill-opacity: 0.28"/>
     <use xlink:href="#m59774c8310" x="256.648012" y="297.475012" style="fill: #1f5133; fill-opacity: 0.28"/>
     <use xlink:href="#m59774c8310" x="245.033646" y="302.210675" style="fill: #1f5133; fill-opacity: 0.28"/>
     <use xlink:href="#m59774c8310" x="246.433743" y="320.607206" style="fill: #1f5133; fill-opacity: 0.28"/>
     <use xlink:href="#m59774c8310" x="271.036853" y="285.208685" style="fill: #1f5133; fill-opacity: 0.28"/>
     <use xlink:href="#m59774c8310" x="241.020759" y="301.824707" style="fill: #1f5133; fill-opacity: 0.28"/>
     <use xlink:href="#m59774c8310" x="273.961795" y="289.435547" style="fill: #1f5133; fill-opacity: 0.28"/>
     <use xlink:href="#m59774c8310" x="239.238154" y="284.971621" style="fill: #1f5133; fill-opacity: 0.28"/>
     <use xlink:href="#m59774c8310" x="241.529291" y="301.777228" style="fill: #1f5133; fill-opacity: 0.28"/>
     <use xlink:href="#m59774c8310" x="239.560047" y="318.397285" style="fill: #1f5133; fill-opacity: 0.28"/>
     <use xlink:href="#m59774c8310" x="282.097484" y="284.367321" style="fill: #1f5133; fill-opacity: 0.28"/>
     <use xlink:href="#m59774c8310" x="283.916299" y="291.009426" style="fill: #1f5133; fill-opacity: 0.28"/>
     <use xlink:href="#m59774c8310" x="253.783938" y="281.135357" style="fill: #1f5133; fill-opacity: 0.28"/>
     <use xlink:href="#m59774c8310" x="275.437175" y="273.902004" style="fill: #1f5133; fill-opacity: 0.28"/>
     <use xlink:href="#m59774c8310" x="248.967683" y="304.954836" style="fill: #1f5133; fill-opacity: 0.28"/>
     <use xlink:href="#m59774c8310" x="238.76342" y="317.205206" style="fill: #1f5133; fill-opacity: 0.28"/>
     <use xlink:href="#m59774c8310" x="284.067648" y="285.418214" style="fill: #1f5133; fill-opacity: 0.28"/>
     <use xlink:href="#m59774c8310" x="268.829728" y="293.161495" style="fill: #1f5133; fill-opacity: 0.28"/>
     <use xlink:href="#m59774c8310" x="240.318938" y="289.372255" style="fill: #1f5133; fill-opacity: 0.28"/>
     <use xlink:href="#m59774c8310" x="242.474426" y="268.754231" style="fill: #1f5133; fill-opacity: 0.28"/>
     <use xlink:href="#m59774c8310" x="246.230978" y="300.476876" style="fill: #1f5133; fill-opacity: 0.28"/>
     <use xlink:href="#m59774c8310" x="240.163422" y="313.594232" style="fill: #1f5133; fill-opacity: 0.28"/>
     <use xlink:href="#m59774c8310" x="257.206752" y="283.346343" style="fill: #1f5133; fill-opacity: 0.28"/>
     <use xlink:href="#m59774c8310" x="242.871838" y="285.542512" style="fill: #1f5133; fill-opacity: 0.28"/>
     <use xlink:href="#m59774c8310" x="276.855458" y="271.619224" style="fill: #1f5133; fill-opacity: 0.28"/>
     <use xlink:href="#m59774c8310" x="273.495816" y="253.487724" style="fill: #1f5133; fill-opacity: 0.28"/>
     <use xlink:href="#m59774c8310" x="238.551895" y="299.585934" style="fill: #1f5133; fill-opacity: 0.28"/>
     <use xlink:href="#m59774c8310" x="257.483667" y="312.772543" style="fill: #1f5133; fill-opacity: 0.28"/>
     <use xlink:href="#m59774c8310" x="268.532541" y="284.941622" style="fill: #1f5133; fill-opacity: 0.28"/>
     <use xlink:href="#m59774c8310" x="259.390813" y="286.447911" style="fill: #1f5133; fill-opacity: 0.28"/>
     <use xlink:href="#m59774c8310" x="242.84549" y="267.90298" style="fill: #1f5133; fill-opacity: 0.28"/>
     <use xlink:href="#m59774c8310" x="283.037411" y="244.528024" style="fill: #1f5133; fill-opacity: 0.28"/>
    </g>
   </g>
   <g id="PathCollection_3">
    <g clip-path="url(#p7c3dbe79d8)">
     <use xlink:href="#m59774c8310" x="398.182136" y="317.897029" style="fill: #1f5133; fill-opacity: 0.28"/>
     <use xlink:href="#m59774c8310" x="415.881927" y="314.284992" style="fill: #1f5133; fill-opacity: 0.28"/>
     <use xlink:href="#m59774c8310" x="375.364031" y="308.882962" style="fill: #1f5133; fill-opacity: 0.28"/>
     <use xlink:href="#m59774c8310" x="398.506969" y="236.047021" style="fill: #1f5133; fill-opacity: 0.28"/>
     <use xlink:href="#m59774c8310" x="423.338542" y="314.767177" style="fill: #1f5133; fill-opacity: 0.28"/>
     <use xlink:href="#m59774c8310" x="394.663739" y="318.034243" style="fill: #1f5133; fill-opacity: 0.28"/>
     <use xlink:href="#m59774c8310" x="410.424704" y="293.531213" style="fill: #1f5133; fill-opacity: 0.28"/>
     <use xlink:href="#m59774c8310" x="398.854238" y="303.158766" style="fill: #1f5133; fill-opacity: 0.28"/>
     <use xlink:href="#m59774c8310" x="381.566154" y="279.300086" style="fill: #1f5133; fill-opacity: 0.28"/>
     <use xlink:href="#m59774c8310" x="412.871054" y="305.042908" style="fill: #1f5133; fill-opacity: 0.28"/>
     <use xlink:href="#m59774c8310" x="421.846441" y="87.057896" style="fill: #1f5133; fill-opacity: 0.28"/>
     <use xlink:href="#m59774c8310" x="390.892308" y="320.103243" style="fill: #1f5133; fill-opacity: 0.28"/>
     <use xlink:href="#m59774c8310" x="409.728514" y="312.400503" style="fill: #1f5133; fill-opacity: 0.28"/>
     <use xlink:href="#m59774c8310" x="426.154013" y="308.509906" style="fill: #1f5133; fill-opacity: 0.28"/>
     <use xlink:href="#m59774c8310" x="419.330799" y="243.534675" style="fill: #1f5133; fill-opacity: 0.28"/>
     <use xlink:href="#m59774c8310" x="386.768597" y="316.650568" style="fill: #1f5133; fill-opacity: 0.28"/>
     <use xlink:href="#m59774c8310" x="384.964535" y="321.01828" style="fill: #1f5133; fill-opacity: 0.28"/>
     <use xlink:href="#m59774c8310" x="375.591847" y="295.129748" style="fill: #1f5133; fill-opacity: 0.28"/>
     <use xlink:href="#m59774c8310" x="378.593056" y="306.79787" style="fill: #1f5133; fill-opacity: 0.28"/>
     <use xlink:href="#m59774c8310" x="420.576952" y="279.158782" style="fill: #1f5133; fill-opacity: 0.28"/>
     <use xlink:href="#m59774c8310" x="391.28094" y="304.527719" style="fill: #1f5133; fill-opacity: 0.28"/>
     <use xlink:href="#m59774c8310" x="423.2116" y="140.779756" style="fill: #1f5133; fill-opacity: 0.28"/>
     <use xlink:href="#m59774c8310" x="390.447063" y="321.517592" style="fill: #1f5133; fill-opacity: 0.28"/>
     <use xlink:href="#m59774c8310" x="423.800166" y="310.466289" style="fill: #1f5133; fill-opacity: 0.28"/>
     <use xlink:href="#m59774c8310" x="409.559316" y="297.482137" style="fill: #1f5133; fill-opacity: 0.28"/>
     <use xlink:href="#m59774c8310" x="384.062683" y="255.742369" style="fill: #1f5133; fill-opacity: 0.28"/>
     <use xlink:href="#m59774c8310" x="397.91685" y="314.954849" style="fill: #1f5133; fill-opacity: 0.28"/>
     <use xlink:href="#m59774c8310" x="412.87047" y="324.293533" style="fill: #1f5133; fill-opacity: 0.28"/>
     <use xlink:href="#m59774c8310" x="417.516071" y="295.095162" style="fill: #1f5133; fill-opacity: 0.28"/>
     <use xlink:href="#m59774c8310" x="413.83384" y="308.883613" style="fill: #1f5133; fill-opacity: 0.28"/>
     <use xlink:href="#m59774c8310" x="403.492034" y="278.5529" style="fill: #1f5133; fill-opacity: 0.28"/>
     <use xlink:href="#m59774c8310" x="386.522992" y="303.080509" style="fill: #1f5133; fill-opacity: 0.28"/>
     <use xlink:href="#m59774c8310" x="387.512266" y="133.897645" style="fill: #1f5133; fill-opacity: 0.28"/>
     <use xlink:href="#m59774c8310" x="393.39103" y="322.911577" style="fill: #1f5133; fill-opacity: 0.28"/>
     <use xlink:href="#m59774c8310" x="377.03132" y="308.536435" style="fill: #1f5133; fill-opacity: 0.28"/>
     <use xlink:href="#m59774c8310" x="386.601343" y="284.288117" style="fill: #1f5133; fill-opacity: 0.28"/>
     <use xlink:href="#m59774c8310" x="419.717176" y="257.914419" style="fill: #1f5133; fill-opacity: 0.28"/>
     <use xlink:href="#m59774c8310" x="394.956253" y="311.018859" style="fill: #1f5133; fill-opacity: 0.28"/>
     <use xlink:href="#m59774c8310" x="415.693458" y="323.868624" style="fill: #1f5133; fill-opacity: 0.28"/>
     <use xlink:href="#m59774c8310" x="393.740199" y="293.244845" style="fill: #1f5133; fill-opacity: 0.28"/>
     <use xlink:href="#m59774c8310" x="415.954655" y="309.376203" style="fill: #1f5133; fill-opacity: 0.28"/>
     <use xlink:href="#m59774c8310" x="414.575564" y="274.440095" style="fill: #1f5133; fill-opacity: 0.28"/>
     <use xlink:href="#m59774c8310" x="388.960485" y="302.163769" style="fill: #1f5133; fill-opacity: 0.28"/>
     <use xlink:href="#m59774c8310" x="407.659177" y="120.694482" style="fill: #1f5133; fill-opacity: 0.28"/>
     <use xlink:href="#m59774c8310" x="408.997575" y="323.580606" style="fill: #1f5133; fill-opacity: 0.28"/>
     <use xlink:href="#m59774c8310" x="396.227562" y="305.389081" style="fill: #1f5133; fill-opacity: 0.28"/>
     <use xlink:href="#m59774c8310" x="410.367344" y="272.057589" style="fill: #1f5133; fill-opacity: 0.28"/>
     <use xlink:href="#m59774c8310" x="388.039955" y="258.897092" style="fill: #1f5133; fill-opacity: 0.28"/>
     <use xlink:href="#m59774c8310" x="407.750641" y="309.92259" style="fill: #1f5133; fill-opacity: 0.28"/>
     <use xlink:href="#m59774c8310" x="388.484479" y="323.426646" style="fill: #1f5133; fill-opacity: 0.28"/>
     <use xlink:href="#m59774c8310" x="398.421336" y="290.534467" style="fill: #1f5133; fill-opacity: 0.28"/>
     <use xlink:href="#m59774c8310" x="423.520324" y="309.988043" style="fill: #1f5133; fill-opacity: 0.28"/>
     <use xlink:href="#m59774c8310" x="422.732112" y="273.863979" style="fill: #1f5133; fill-opacity: 0.28"/>
     <use xlink:href="#m59774c8310" x="384.217259" y="303.301205" style="fill: #1f5133; fill-opacity: 0.28"/>
     <use xlink:href="#m59774c8310" x="398.262425" y="115.852174" style="fill: #1f5133; fill-opacity: 0.28"/>
     <use xlink:href="#m59774c8310" x="403.165587" y="326.434546" style="fill: #1f5133; fill-opacity: 0.28"/>
     <use xlink:href="#m59774c8310" x="378.182779" y="305.423992" style="fill: #1f5133; fill-opacity: 0.28"/>
     <use xlink:href="#m59774c8310" x="389.51466" y="263.37627" style="fill: #1f5133; fill-opacity: 0.28"/>
     <use xlink:href="#m59774c8310" x="426.323061" y="261.888072" style="fill: #1f5133; fill-opacity: 0.28"/>
     <use xlink:href="#m59774c8310" x="375.33917" y="312.133618" style="fill: #1f5133; fill-opacity: 0.28"/>
     <use xlink:href="#m59774c8310" x="388.701201" y="324.284949" style="fill: #1f5133; fill-opacity: 0.28"/>
     <use xlink:href="#m59774c8310" x="401.455408" y="291.074727" style="fill: #1f5133; fill-opacity: 0.28"/>
     <use xlink:href="#m59774c8310" x="397.932823" y="310.64744" style="fill: #1f5133; fill-opacity: 0.28"/>
     <use xlink:href="#m59774c8310" x="397.003794" y="275.230992" style="fill: #1f5133; fill-opacity: 0.28"/>
     <use xlink:href="#m59774c8310" x="416.329135" y="304.895329" style="fill: #1f5133; fill-opacity: 0.28"/>
     <use xlink:href="#m59774c8310" x="412.975974" y="96.041874" style="fill: #1f5133; fill-opacity: 0.28"/>
     <use xlink:href="#m59774c8310" x="405.494033" y="324.629421" style="fill: #1f5133; fill-opacity: 0.28"/>
     <use xlink:href="#m59774c8310" x="383.372998" y="299.821254" style="fill: #1f5133; fill-opacity: 0.28"/>
     <use xlink:href="#m59774c8310" x="413.183837" y="245.158035" style="fill: #1f5133; fill-opacity: 0.28"/>
     <use xlink:href="#m59774c8310" x="378.208898" y="261.806796" style="fill: #1f5133; fill-opacity: 0.28"/>
     <use xlink:href="#m59774c8310" x="420.255108" y="310.403723" style="fill: #1f5133; fill-opacity: 0.28"/>
     <use xlink:href="#m59774c8310" x="407.398" y="324.74523" style="fill: #1f5133; fill-opacity: 0.28"/>
     <use xlink:href="#m59774c8310" x="407.50341" y="289.929653" style="fill: #1f5133; fill-opacity: 0.28"/>
     <use xlink:href="#m59774c8310" x="394.647747" y="309.849161" style="fill: #1f5133; fill-opacity: 0.28"/>
     <use xlink:href="#m59774c8310" x="379.633306" y="274.46751" style="fill: #1f5133; fill-opacity: 0.28"/>
     <use xlink:href="#m59774c8310" x="391.948303" y="304.922722" style="fill: #1f5133; fill-opacity: 0.28"/>
     <use xlink:href="#m59774c8310" x="423.879068" y="121.954514" style="fill: #1f5133; fill-opacity: 0.28"/>
     <use xlink:href="#m59774c8310" x="394.458" y="324.650015" style="fill: #1f5133; fill-opacity: 0.28"/>
     <use xlink:href="#m59774c8310" x="376.284192" y="297.664304" style="fill: #1f5133; fill-opacity: 0.28"/>
     <use xlink:href="#m59774c8310" x="388.059042" y="238.024605" style="fill: #1f5133; fill-opacity: 0.28"/>
     <use xlink:href="#m59774c8310" x="404.141127" y="263.787973" style="fill: #1f5133; fill-opacity: 0.28"/>
     <use xlink:href="#m59774c8310" x="415.307739" y="310.165948" style="fill: #1f5133; fill-opacity: 0.28"/>
     <use xlink:href="#m59774c8310" x="397.965938" y="325.611188" style="fill: #1f5133; fill-opacity: 0.28"/>
     <use xlink:href="#m59774c8310" x="395.420505" y="289.582864" style="fill: #1f5133; fill-opacity: 0.28"/>
     <use xlink:href="#m59774c8310" x="405.832387" y="309.968041" style="fill: #1f5133; fill-opacity: 0.28"/>
     <use xlink:href="#m59774c8310" x="405.748774" y="274.201342" style="fill: #1f5133; fill-opacity: 0.28"/>
     <use xlink:href="#m59774c8310" x="423.236947" y="306.672226" style="fill: #1f5133; fill-opacity: 0.28"/>
     <use xlink:href="#m59774c8310" x="409.386454" y="115.780028" style="fill: #1f5133; fill-opacity: 0.28"/>
    </g>
   </g>
   <g id="PathCollection_4">
    <g clip-path="url(#p7c3dbe79d8)">
     <use xlink:href="#m59774c8310" x="559.796063" y="309.141482" style="fill: #1f5133; fill-opacity: 0.28"/>
     <use xlink:href="#m59774c8310" x="554.606203" y="312.380813" style="fill: #1f5133; fill-opacity: 0.28"/>
     <use xlink:href="#m59774c8310" x="530.938477" y="312.367209" style="fill: #1f5133; fill-opacity: 0.28"/>
     <use xlink:href="#m59774c8310" x="522.93641" y="305.617215" style="fill: #1f5133; fill-opacity: 0.28"/>
     <use xlink:href="#m59774c8310" x="528.798562" y="313.365634" style="fill: #1f5133; fill-opacity: 0.28"/>
     <use xlink:href="#m59774c8310" x="542.420336" y="312.42535" style="fill: #1f5133; fill-opacity: 0.28"/>
     <use xlink:href="#m59774c8310" x="531.054686" y="302.584881" style="fill: #1f5133; fill-opacity: 0.28"/>
     <use xlink:href="#m59774c8310" x="543.312296" y="310.788645" style="fill: #1f5133; fill-opacity: 0.28"/>
     <use xlink:href="#m59774c8310" x="568.200813" y="311.322396" style="fill: #1f5133; fill-opacity: 0.28"/>
     <use xlink:href="#m59774c8310" x="522.607803" y="295.408683" style="fill: #1f5133; fill-opacity: 0.28"/>
     <use xlink:href="#m59774c8310" x="560.110569" y="307.005961" style="fill: #1f5133; fill-opacity: 0.28"/>
     <use xlink:href="#m59774c8310" x="560.130792" y="305.234788" style="fill: #1f5133; fill-opacity: 0.28"/>
     <use xlink:href="#m59774c8310" x="541.30924" y="293.340198" style="fill: #1f5133; fill-opacity: 0.28"/>
     <use xlink:href="#m59774c8310" x="560.489289" y="303.44243" style="fill: #1f5133; fill-opacity: 0.28"/>
     <use xlink:href="#m59774c8310" x="527.429176" y="305.447441" style="fill: #1f5133; fill-opacity: 0.28"/>
     <use xlink:href="#m59774c8310" x="533.423954" y="290.508653" style="fill: #1f5133; fill-opacity: 0.28"/>
     <use xlink:href="#m59774c8310" x="550.686034" y="303.625293" style="fill: #1f5133; fill-opacity: 0.28"/>
     <use xlink:href="#m59774c8310" x="527.913118" y="305.904201" style="fill: #1f5133; fill-opacity: 0.28"/>
     <use xlink:href="#m59774c8310" x="524.161585" y="285.450467" style="fill: #1f5133; fill-opacity: 0.28"/>
     <use xlink:href="#m59774c8310" x="526.159262" y="294.730747" style="fill: #1f5133; fill-opacity: 0.28"/>
     <use xlink:href="#m59774c8310" x="542.726474" y="304.720006" style="fill: #1f5133; fill-opacity: 0.28"/>
     <use xlink:href="#m59774c8310" x="559.809076" y="283.136194" style="fill: #1f5133; fill-opacity: 0.28"/>
     <use xlink:href="#m59774c8310" x="539.713382" y="290.800751" style="fill: #1f5133; fill-opacity: 0.28"/>
     <use xlink:href="#m59774c8310" x="544.982526" y="302.987737" style="fill: #1f5133; fill-opacity: 0.28"/>
    </g>
   </g>
   <g id="text_12">
    <!-- 区域效率差异箱线图 -->
    <g style="fill: #262626" transform="translate(266.8225 17.111562) scale(0.14 -0.14)">
     <defs>
      <path id="SimSun-5dee" d="M 1600 5100 
L 1650 5175 
Q 2300 4925 2400 4775 
Q 2500 4625 2500 4525 
Q 2500 4400 2437 4287 
Q 2375 4175 2325 4175 
Q 2250 4175 2175 4375 
Q 2025 4700 1600 5100 
z
M 3200 3925 
Q 3100 3450 3025 3175 
L 4650 3175 
L 4975 3500 
L 5450 3025 
L 3000 3025 
Q 2900 2675 2725 2275 
L 5075 2275 
L 5475 2675 
L 6025 2125 
L 2675 2125 
Q 1900 675 350 -200 
L 325 -100 
Q 1650 825 2325 2125 
L 950 2125 
L 600 2075 
L 400 2275 
L 2375 2275 
Q 2525 2650 2650 3025 
L 1550 3025 
L 1225 2975 
L 1025 3175 
L 2675 3175 
Q 2775 3575 2825 3925 
L 1250 3925 
L 900 3875 
L 700 4075 
L 3750 4075 
Q 4200 4925 4250 5250 
L 4800 4925 
Q 4550 4900 3900 4075 
L 5050 4075 
L 5425 4450 
L 5950 3925 
L 3200 3925 
z
M 2150 1275 
L 4650 1275 
L 4950 1575 
L 5400 1125 
L 3850 1125 
L 3850 -175 
L 5200 -175 
L 5550 175 
L 6050 -325 
L 2050 -325 
Q 1725 -325 1450 -400 
L 1225 -175 
L 3500 -175 
L 3500 1125 
L 2625 1125 
L 2350 1075 
L 2150 1275 
z
" transform="scale(0.015625)"/>
      <path id="SimSun-5f02" d="M 325 1450 
L 2100 1450 
Q 2125 2050 2075 2475 
L 2675 2225 
L 2475 2075 
L 2450 1450 
L 3950 1450 
Q 3950 2025 3925 2475 
L 4500 2225 
L 4300 2050 
L 4300 1450 
L 5100 1450 
L 5475 1825 
L 6000 1300 
L 4300 1300 
Q 4300 0 4350 -450 
L 3925 -600 
Q 3950 175 3950 1300 
L 2425 1300 
Q 2250 -225 350 -650 
L 325 -575 
Q 1900 0 2075 1300 
L 1150 1300 
Q 825 1300 550 1225 
L 325 1450 
z
M 1350 5100 
L 1725 4875 
L 4425 4875 
L 4600 5125 
L 5000 4800 
L 4825 4675 
Q 4825 3825 4850 3575 
L 4475 3450 
L 4475 3725 
L 1725 3725 
L 1725 3150 
Q 1725 2825 2075 2825 
L 4925 2825 
Q 5100 2850 5162 3075 
Q 5225 3300 5275 3825 
L 5375 3825 
Q 5375 3475 5425 3200 
Q 5475 2925 5725 2825 
Q 5500 2550 5075 2550 
L 1875 2550 
Q 1375 2550 1375 3000 
L 1375 3975 
Q 1375 4675 1350 5100 
z
M 1725 4725 
L 1725 3875 
L 4475 3875 
L 4475 4725 
L 1725 4725 
z
" transform="scale(0.015625)"/>
      <path id="SimSun-7bb1" d="M 400 2625 
L 1600 2625 
Q 1600 3325 1575 3625 
L 2150 3350 
L 1925 3175 
L 1925 2625 
L 2300 2625 
L 2600 2950 
L 2975 2475 
L 1925 2475 
L 1925 1975 
Q 2425 1800 2637 1650 
Q 2850 1500 2825 1312 
Q 2800 1125 2750 1062 
Q 2700 1000 2650 1000 
Q 2600 1000 2550 1100 
Q 2450 1250 2362 1400 
Q 2275 1550 1925 1850 
L 1925 225 
Q 1925 -150 1950 -450 
L 1575 -625 
Q 1600 425 1600 675 
L 1600 1650 
Q 1025 675 350 125 
L 300 200 
Q 1250 1300 1575 2475 
L 1225 2475 
Q 900 2475 625 2400 
L 400 2625 
z
M 1650 5250 
L 2150 4975 
L 1925 4850 
L 1625 4400 
L 2800 4400 
L 3125 4725 
L 3550 4250 
L 2175 4250 
Q 2450 4075 2550 3950 
Q 2650 3825 2650 3725 
Q 2650 3625 2612 3525 
Q 2575 3425 2462 3350 
Q 2350 3275 2325 3475 
Q 2275 3675 2225 3825 
Q 2175 3975 2050 4250 
L 1550 4250 
Q 1050 3600 450 3100 
L 375 3175 
Q 750 3575 1087 4112 
Q 1425 4650 1650 5250 
z
M 4075 5225 
L 4575 4900 
L 4350 4800 
L 4075 4375 
L 5225 4375 
L 5575 4725 
L 6025 4225 
L 4575 4225 
Q 4950 4050 5075 3900 
Q 5200 3750 5175 3625 
Q 5150 3500 5062 3400 
Q 4975 3300 4950 3300 
Q 4900 3300 4875 3450 
Q 4800 3650 4687 3875 
Q 4575 4100 4450 4225 
L 4000 4225 
Q 3525 3625 3025 3225 
L 2950 3275 
Q 3300 3675 3600 4162 
Q 3900 4650 4075 5225 
z
M 3525 850 
L 3525 0 
L 5200 0 
L 5200 850 
L 3525 850 
z
M 3175 -600 
Q 3200 425 3200 1687 
Q 3200 2950 3175 3250 
L 3525 3025 
L 5150 3025 
L 5300 3275 
L 5700 2975 
L 5525 2800 
L 5525 625 
Q 5525 25 5550 -375 
L 5200 -550 
L 5200 -150 
L 3525 -150 
L 3525 -475 
L 3175 -600 
z
M 3525 2875 
L 3525 2000 
L 5200 2000 
L 5200 2875 
L 3525 2875 
z
M 3525 1850 
L 3525 1000 
L 5200 1000 
L 5200 1850 
L 3525 1850 
z
" transform="scale(0.015625)"/>
      <path id="SimSun-7ebf" d="M 3900 3400 
Q 3900 3050 3950 2475 
L 5125 2600 
L 5450 2975 
L 5950 2550 
L 3975 2350 
Q 4050 1575 4225 1125 
Q 4775 1625 5100 2175 
L 5550 1725 
L 5325 1700 
Q 4850 1250 4375 800 
Q 4825 175 5425 -75 
L 5775 1125 
L 5875 1100 
Q 5825 525 5812 150 
Q 5800 -225 5925 -450 
Q 5950 -500 5950 -525 
Q 5950 -625 5687 -587 
Q 5425 -550 4987 -287 
Q 4550 -25 4100 550 
Q 3650 250 3187 50 
Q 2725 -150 2025 -350 
L 2000 -250 
Q 3075 150 3925 850 
Q 3700 1525 3625 2300 
L 2600 2175 
L 2400 2075 
L 2125 2275 
L 3600 2425 
Q 3575 2775 3550 3375 
L 2825 3325 
L 2675 3225 
L 2450 3425 
L 3550 3500 
Q 3525 4375 3500 5250 
L 4075 4975 
L 3875 4800 
Q 3875 4275 3900 3525 
L 4975 3625 
L 5300 4000 
L 5800 3550 
L 3900 3400 
z
M 4275 4825 
L 4300 4900 
Q 5075 4700 5150 4562 
Q 5225 4425 5225 4325 
Q 5225 4200 5175 4075 
Q 5125 3950 5075 3950 
Q 5025 3950 4925 4150 
Q 4750 4425 4275 4825 
z
M 1525 5150 
L 2025 4825 
Q 1825 4750 1600 4325 
Q 1375 3875 775 3050 
L 1800 3150 
Q 2100 3650 2275 4150 
L 2725 3825 
Q 2550 3725 2125 3100 
Q 1700 2475 1025 1600 
Q 1375 1650 2575 1875 
L 2575 1775 
Q 1900 1600 1525 1462 
Q 1150 1325 775 1075 
L 475 1600 
Q 750 1675 1112 2137 
Q 1475 2600 1750 3050 
Q 1475 3000 1175 2912 
Q 875 2825 625 2600 
L 350 3075 
Q 625 3125 987 3787 
Q 1350 4450 1525 5150 
z
M 325 375 
Q 1025 475 1450 550 
Q 1875 625 2825 825 
L 2850 725 
Q 1725 400 1212 212 
Q 700 25 575 -100 
L 325 375 
z
" transform="scale(0.015625)"/>
      <path id="SimSun-56fe" d="M 5675 4700 
L 5675 550 
Q 5675 50 5700 -350 
L 5325 -550 
L 5325 -50 
L 1250 -50 
L 1250 -450 
L 875 -600 
Q 900 -100 900 425 
L 900 4200 
Q 900 4625 875 5150 
L 1250 4925 
L 5275 4925 
L 5450 5175 
L 5850 4850 
L 5675 4700 
z
M 1250 4775 
L 1250 1700 
Q 2425 2200 3075 2825 
Q 2750 3275 2500 3850 
Q 2100 3225 1650 2800 
L 1575 2850 
Q 1975 3375 2250 3937 
Q 2525 4500 2575 4775 
L 1250 4775 
z
M 1250 100 
L 5325 100 
L 5325 4775 
L 2625 4775 
L 3050 4550 
L 2900 4475 
Q 2750 4250 2675 4125 
L 4000 4125 
L 4175 4350 
L 4550 4000 
L 4350 3875 
Q 3925 3275 3475 2775 
Q 4250 2200 5250 2100 
L 5250 2000 
Q 4875 1975 4775 1700 
Q 3900 2025 3250 2600 
Q 2375 1900 1250 1575 
L 1250 100 
z
M 2600 3975 
Q 2950 3350 3275 3000 
Q 3625 3400 3975 3975 
L 2600 3975 
z
M 2750 2050 
Q 3350 1925 3600 1825 
Q 3850 1725 3825 1487 
Q 3800 1250 3725 1250 
Q 3650 1250 3550 1375 
Q 3300 1625 2725 1975 
L 2750 2050 
z
M 2275 1150 
Q 3425 1025 3787 912 
Q 4150 800 4175 525 
Q 4200 250 4075 250 
Q 4000 250 3825 400 
Q 3450 700 2275 1050 
L 2275 1150 
z
" transform="scale(0.015625)"/>
     </defs>
     <use xlink:href="#SimSun-533a"/>
     <use xlink:href="#SimSun-57df" transform="translate(100 0)"/>
     <use xlink:href="#SimSun-6548" transform="translate(200 0)"/>
     <use xlink:href="#SimSun-7387" transform="translate(300 0)"/>
     <use xlink:href="#SimSun-5dee" transform="translate(400 0)"/>
     <use xlink:href="#SimSun-5f02" transform="translate(500 0)"/>
     <use xlink:href="#SimSun-7bb1" transform="translate(600 0)"/>
     <use xlink:href="#SimSun-7ebf" transform="translate(700 0)"/>
     <use xlink:href="#SimSun-56fe" transform="translate(800 0)"/>
    </g>
   </g>
  </g>
 </g>
 <defs>
  <clipPath id="p7c3dbe79d8">
   <rect x="45.5125" y="23.111562" width="568.62" height="325.2225"/>
  </clipPath>
 </defs>
</svg>
