<?xml version="1.0" encoding="utf-8" standalone="no"?>
<!DOCTYPE svg PUBLIC "-//W3C//DTD SVG 1.1//EN"
  "http://www.w3.org/Graphics/SVG/1.1/DTD/svg11.dtd">
<svg xmlns:xlink="http://www.w3.org/1999/xlink" width="903.024pt" height="475.233291pt" viewBox="0 0 903.024 475.233291" xmlns="http://www.w3.org/2000/svg" version="1.1">
 <metadata>
  <rdf:RDF xmlns:dc="http://purl.org/dc/elements/1.1/" xmlns:cc="http://creativecommons.org/ns#" xmlns:rdf="http://www.w3.org/1999/02/22-rdf-syntax-ns#">
   <cc:Work>
    <dc:type rdf:resource="http://purl.org/dc/dcmitype/StillImage"/>
    <dc:date>2026-05-06T22:07:22.588743</dc:date>
    <dc:format>image/svg+xml</dc:format>
    <dc:creator>
     <cc:Agent>
      <dc:title>Matplotlib v3.10.8, https://matplotlib.org/</dc:title>
     </cc:Agent>
    </dc:creator>
   </cc:Work>
  </rdf:RDF>
 </metadata>
 <defs>
  <style type="text/css">*{stroke-linejoin: round; stroke-linecap: butt}</style>
 </defs>
 <g id="figure_1">
  <g id="patch_1">
   <path d="M 0 475.233291 
L 903.024 475.233291 
L 903.024 0 
L 0 0 
z
" style="fill: #ffffff"/>
  </g>
  <g id="axes_1">
   <g id="text_1">
    <!-- 变量 -->
    <g transform="translate(7.2 15.64875) scale(0.12 -0.12)">
     <defs>
      <path id="SimSun-53d8" d="M 2750 4225 
L 2750 2225 
L 3650 2225 
L 3650 4225 
L 2750 4225 
z
M 375 4375 
L 3100 4375 
Q 3050 4750 2650 5200 
L 2700 5275 
Q 3150 5075 3325 4925 
Q 3500 4775 3500 4700 
Q 3500 4550 3300 4375 
L 5125 4375 
L 5525 4775 
L 6075 4225 
L 4000 4225 
L 4000 2225 
L 4425 2225 
L 4675 2500 
L 5100 2100 
L 4825 1975 
Q 4300 1325 3525 650 
Q 4500 -50 6125 -175 
L 6125 -275 
Q 5750 -325 5625 -575 
Q 4175 -250 3300 450 
Q 2150 -300 350 -600 
L 325 -500 
Q 2050 -100 3075 675 
Q 2525 1250 2100 2075 
L 1650 2075 
L 1375 2025 
L 1175 2225 
L 2400 2225 
L 2400 4225 
L 1200 4225 
Q 875 4225 600 4150 
L 375 4375 
z
M 2275 2075 
Q 2725 1350 3300 850 
Q 3800 1300 4425 2075 
L 2275 2075 
z
M 1675 3850 
L 2125 3450 
L 1875 3350 
Q 1150 2575 325 1950 
L 250 2025 
Q 700 2425 1087 2937 
Q 1475 3450 1675 3850 
z
M 4350 3700 
Q 5675 3050 5812 2875 
Q 5950 2700 5950 2575 
Q 5950 2475 5900 2375 
Q 5850 2275 5800 2275 
Q 5700 2275 5500 2550 
Q 5200 2950 4275 3625 
L 4350 3700 
z
" transform="scale(0.015625)"/>
      <path id="SimSun-91cf" d="M 1700 2400 
L 1700 1875 
L 3025 1875 
L 3025 2400 
L 1700 2400 
z
M 3350 2400 
L 3350 1875 
L 4625 1875 
L 4625 2400 
L 3350 2400 
z
M 1700 1725 
L 1700 1225 
L 3025 1225 
L 3025 1725 
L 1700 1725 
z
M 3350 1725 
L 3350 1225 
L 4625 1225 
L 4625 1725 
L 3350 1725 
z
M 4950 2325 
Q 4950 1350 4975 1025 
L 4625 875 
L 4625 1075 
L 3350 1075 
L 3350 525 
L 4700 525 
L 5050 825 
L 5450 375 
L 3350 375 
L 3350 -225 
L 5275 -225 
L 5650 125 
L 6075 -375 
L 1175 -375 
Q 850 -375 575 -450 
L 350 -225 
L 3025 -225 
L 3025 375 
L 1725 375 
Q 1400 375 1125 300 
L 900 525 
L 3025 525 
L 3025 1075 
L 1700 1075 
L 1700 925 
L 1350 800 
Q 1375 1300 1375 1787 
Q 1375 2275 1350 2750 
L 1700 2550 
L 4600 2550 
L 4750 2750 
L 5125 2475 
L 4950 2325 
z
M 1775 4800 
L 1775 4375 
L 4550 4375 
L 4550 4800 
L 1775 4800 
z
M 1775 4225 
L 1775 3775 
L 4550 3775 
L 4550 4225 
L 1775 4225 
z
M 4875 4750 
Q 4875 3825 4900 3525 
L 4550 3375 
L 4550 3625 
L 1775 3625 
L 1775 3400 
L 1425 3250 
Q 1450 3650 1450 4262 
Q 1450 4875 1425 5125 
L 1800 4950 
L 4500 4950 
L 4650 5175 
L 5050 4900 
L 4875 4750 
z
M 250 3125 
L 5375 3125 
L 5725 3450 
L 6150 2975 
L 950 2975 
Q 750 2975 475 2900 
L 250 3125 
z
" transform="scale(0.015625)"/>
     </defs>
     <use xlink:href="#SimSun-53d8"/>
     <use xlink:href="#SimSun-91cf" transform="translate(100 0)"/>
    </g>
   </g>
   <g id="text_2">
    <!-- 能源结构 -->
    <g transform="translate(7.2 395.636209) scale(0.116 -0.116)">
     <defs>
      <path id="SimSun-80fd" d="M 1775 5250 
L 2225 4875 
Q 1950 4800 1550 4375 
Q 1150 3925 900 3700 
L 2800 3750 
Q 2575 4175 2375 4400 
L 2425 4475 
Q 2850 4225 3075 4012 
Q 3300 3800 3287 3612 
Q 3275 3425 3175 3337 
Q 3075 3250 3025 3250 
Q 2975 3250 2975 3325 
Q 2925 3450 2850 3650 
Q 2425 3600 1700 3525 
Q 975 3450 750 3275 
L 500 3750 
Q 750 3750 1175 4275 
Q 1600 4800 1775 5250 
z
M 825 -600 
Q 850 -75 850 1325 
Q 850 2725 825 3100 
L 1200 2900 
L 2475 2900 
L 2675 3150 
L 3050 2825 
L 2850 2650 
L 2850 100 
Q 2900 -375 2350 -600 
Q 2325 -275 1700 -100 
L 1700 0 
Q 2175 -50 2350 -50 
Q 2525 -50 2525 225 
L 2525 1100 
L 1200 1100 
L 1200 -400 
L 825 -600 
z
M 1200 2750 
L 1200 2125 
L 2525 2125 
L 2525 2750 
L 1200 2750 
z
M 1200 1975 
L 1200 1250 
L 2525 1250 
L 2525 1975 
L 1200 1975 
z
M 3700 3075 
Q 3700 4825 3675 5100 
L 4250 4850 
L 4025 4650 
L 4025 3775 
Q 4800 4175 5175 4675 
L 5550 4250 
L 5325 4225 
Q 4600 3850 4025 3650 
L 4025 3175 
Q 4025 2900 4400 2900 
L 5250 2900 
Q 5500 2925 5525 3162 
Q 5550 3400 5550 3800 
L 5650 3800 
Q 5675 3500 5725 3262 
Q 5775 3025 6000 2950 
Q 5850 2625 5275 2625 
L 4225 2625 
Q 3700 2600 3700 3075 
z
M 3625 50 
Q 3625 2000 3600 2300 
L 4175 2025 
L 3950 1850 
L 3950 1050 
Q 4825 1525 5250 2125 
L 5650 1650 
L 5425 1650 
Q 4600 1200 3950 900 
L 3950 275 
Q 3950 -125 4325 -100 
L 5300 -100 
Q 5575 -75 5600 250 
Q 5600 550 5625 925 
L 5725 925 
Q 5750 500 5812 262 
Q 5875 25 6075 -25 
Q 5950 -375 5325 -400 
L 4175 -400 
Q 3650 -400 3625 50 
z
" transform="scale(0.015625)"/>
      <path id="SimSun-6e90" d="M 3575 3525 
L 3575 2800 
L 5225 2800 
L 5225 3525 
L 3575 3525 
z
M 3575 2650 
L 3575 1900 
L 5225 1900 
L 5225 2650 
L 3575 2650 
z
M 3375 1325 
L 3825 975 
Q 3550 850 3250 500 
Q 2925 150 2275 -325 
L 2225 -250 
Q 3125 625 3375 1325 
z
M 4800 1150 
L 4850 1225 
Q 5675 700 5812 525 
Q 5950 350 5950 200 
Q 5950 75 5875 -87 
Q 5800 -250 5750 -250 
Q 5675 -250 5550 50 
Q 5375 475 4800 1150 
z
M 3225 1475 
Q 3250 2125 3250 2700 
Q 3250 3275 3225 3875 
L 3575 3675 
L 3925 3675 
Q 4175 4250 4225 4550 
L 2700 4550 
Q 2700 3525 2687 2575 
Q 2675 1625 2325 875 
Q 1975 125 1275 -550 
L 1225 -475 
Q 1850 300 2100 1112 
Q 2350 1925 2350 3112 
Q 2350 4300 2325 4950 
L 2700 4700 
L 5300 4700 
L 5650 5050 
L 6125 4550 
L 4350 4550 
L 4750 4325 
Q 4550 4250 4437 4137 
Q 4325 4025 4075 3675 
L 5200 3675 
L 5375 3925 
L 5750 3600 
L 5550 3425 
Q 5550 1875 5575 1675 
L 5225 1500 
L 5225 1750 
L 4575 1750 
L 4575 100 
Q 4600 -400 4050 -550 
Q 4025 -200 3450 -75 
L 3450 25 
Q 3775 0 4000 -12 
Q 4225 -25 4225 175 
L 4225 1750 
L 3575 1750 
L 3575 1625 
L 3225 1475 
z
M 2150 4250 
Q 1375 1525 1312 1200 
Q 1250 875 1237 425 
Q 1225 -25 1250 -200 
Q 1250 -300 1150 -300 
Q 1075 -300 912 -237 
Q 750 -175 750 25 
Q 750 200 800 375 
Q 875 625 875 775 
Q 875 925 762 1025 
Q 650 1125 275 1225 
L 275 1325 
Q 725 1275 837 1287 
Q 950 1300 1087 1512 
Q 1225 1725 2050 4275 
L 2150 4250 
z
M 275 3575 
Q 1150 3175 1150 2925 
Q 1150 2675 1050 2562 
Q 950 2450 900 2450 
Q 825 2450 750 2700 
Q 625 3025 225 3500 
L 275 3575 
z
M 825 5025 
Q 1550 4725 1625 4512 
Q 1700 4300 1587 4137 
Q 1475 3975 1425 3975 
Q 1325 3975 1275 4175 
Q 1150 4500 775 4950 
L 825 5025 
z
" transform="scale(0.015625)"/>
      <path id="SimSun-7ed3" d="M 4050 3900 
Q 4050 4925 4025 5250 
L 4625 4925 
L 4375 4750 
L 4375 3900 
L 5300 3900 
L 5600 4200 
L 6025 3750 
L 4375 3750 
L 4375 2625 
L 5050 2625 
L 5350 2925 
L 5775 2475 
L 3650 2475 
Q 3325 2475 3050 2400 
L 2825 2625 
L 4050 2625 
L 4050 3750 
L 3425 3750 
Q 3100 3750 2825 3675 
L 2600 3900 
L 4050 3900 
z
M 3025 -600 
Q 3050 -50 3050 675 
Q 3050 1400 3025 1925 
L 3425 1700 
L 5125 1700 
L 5350 1925 
L 5700 1575 
L 5475 1425 
L 5475 400 
Q 5475 -150 5500 -375 
L 5150 -525 
L 5150 -25 
L 3375 -25 
L 3375 -425 
L 3025 -600 
z
M 3375 1550 
L 3375 125 
L 5150 125 
L 5150 1550 
L 3375 1550 
z
M 975 1550 
L 2700 1825 
L 2700 1725 
Q 2400 1650 1750 1462 
Q 1100 1275 800 1050 
L 525 1500 
Q 725 1575 900 1750 
Q 1075 1925 1725 2825 
Q 1425 2775 1150 2712 
Q 875 2650 625 2500 
L 400 2950 
Q 650 2950 987 3662 
Q 1325 4375 1525 5125 
L 2050 4850 
L 1825 4725 
Q 1300 3725 800 2950 
L 1800 2975 
Q 2100 3450 2275 3850 
L 2725 3525 
L 2500 3400 
Q 1800 2475 975 1550 
z
M 650 -250 
L 400 225 
Q 750 275 1237 387 
Q 1725 500 2750 800 
L 2775 700 
Q 925 -25 650 -250 
z
" transform="scale(0.015625)"/>
      <path id="SimSun-6784" d="M 3475 3825 
Q 3025 3050 2575 2575 
L 2500 2625 
Q 3250 3750 3575 5250 
L 4175 4925 
L 3925 4775 
Q 3725 4325 3550 3975 
L 5350 3975 
L 5575 4225 
L 5975 3850 
L 5750 3700 
Q 5675 650 5637 287 
Q 5600 -75 5400 -300 
Q 5200 -525 4800 -625 
Q 4825 -275 3950 -25 
L 3975 100 
Q 4650 -50 4837 -37 
Q 5025 -25 5125 75 
Q 5225 175 5262 475 
Q 5300 775 5375 3825 
L 3475 3825 
z
M 2975 1225 
L 4400 1275 
Q 4250 1700 4075 2000 
L 4150 2050 
Q 4775 1475 4850 1237 
Q 4925 1000 4787 862 
Q 4650 725 4600 725 
Q 4550 725 4512 825 
Q 4475 925 4425 1175 
Q 4050 1125 3587 1025 
Q 3125 925 2925 750 
L 2650 1225 
Q 2925 1275 3237 2012 
Q 3550 2750 3625 3175 
L 4150 2850 
L 3925 2750 
Q 3350 1625 2975 1225 
z
M 1725 2800 
Q 1725 75 1750 -475 
L 1350 -625 
Q 1375 500 1375 2525 
Q 1025 1575 450 800 
L 350 850 
Q 1025 2050 1375 3600 
L 750 3600 
L 525 3550 
L 325 3750 
L 1375 3750 
Q 1375 4575 1350 5250 
L 1925 4950 
L 1725 4775 
L 1725 3750 
L 2025 3750 
L 2325 4050 
L 2775 3600 
L 1725 3600 
L 1725 2950 
Q 2325 2625 2462 2462 
Q 2600 2300 2600 2150 
Q 2600 2050 2537 1912 
Q 2475 1775 2425 1775 
Q 2350 1775 2225 2050 
Q 2050 2475 1725 2800 
z
" transform="scale(0.015625)"/>
     </defs>
     <use xlink:href="#SimSun-80fd"/>
     <use xlink:href="#SimSun-6e90" transform="translate(100 0)"/>
     <use xlink:href="#SimSun-7ed3" transform="translate(200 0)"/>
     <use xlink:href="#SimSun-6784" transform="translate(300 0)"/>
    </g>
   </g>
   <g id="text_3">
    <!-- 对外开放 -->
    <g transform="translate(7.2 332.148467) scale(0.116 -0.116)">
     <defs>
      <path id="SimSun-5bf9" d="M 400 4250 
L 2375 4250 
L 2575 4500 
L 3000 4150 
L 2750 3950 
Q 2400 2850 2075 2100 
Q 2575 1375 2675 1062 
Q 2775 750 2762 537 
Q 2750 325 2662 237 
Q 2575 150 2550 150 
Q 2450 150 2375 575 
Q 2250 1075 1925 1800 
Q 1675 1350 1275 875 
Q 875 400 250 -100 
L 225 25 
Q 675 450 1087 1037 
Q 1500 1625 1725 2100 
Q 1000 3125 675 3550 
L 750 3625 
Q 1300 3025 1850 2400 
Q 2100 3050 2375 4100 
L 1225 4100 
Q 900 4100 625 4025 
L 400 4250 
z
M 3600 125 
Q 4375 0 4537 25 
Q 4700 50 4700 225 
L 4700 3350 
L 3525 3350 
Q 3200 3350 2925 3275 
L 2700 3500 
L 4700 3500 
L 4700 4350 
Q 4700 4800 4675 5125 
L 5275 4825 
L 5050 4625 
L 5050 3500 
L 5325 3500 
L 5650 3825 
L 6125 3350 
L 5050 3350 
L 5050 50 
Q 5050 -375 4500 -600 
Q 4500 -300 3600 0 
L 3600 125 
z
M 3100 2775 
L 3175 2825 
Q 3700 2400 3812 2175 
Q 3925 1950 3925 1800 
Q 3925 1625 3800 1462 
Q 3675 1300 3650 1300 
Q 3550 1300 3525 1650 
Q 3450 2125 3100 2775 
z
" transform="scale(0.015625)"/>
      <path id="SimSun-5916" d="M 4400 2825 
L 4400 600 
Q 4400 -75 4425 -450 
L 4025 -625 
Q 4050 -150 4050 475 
L 4050 4125 
Q 4050 4825 4025 5175 
L 4650 4900 
L 4400 4700 
L 4400 2950 
Q 5300 2650 5650 2437 
Q 6000 2225 5937 1925 
Q 5875 1625 5800 1625 
Q 5725 1625 5550 1875 
Q 5250 2300 4400 2825 
z
M 1825 5175 
L 2425 4850 
L 2225 4725 
Q 2025 4250 1825 3725 
L 2900 3725 
L 3100 4000 
L 3600 3575 
Q 3350 3600 3000 2500 
Q 2625 1400 1975 675 
Q 1325 -50 425 -450 
L 375 -375 
Q 1525 350 2075 1312 
Q 2625 2275 2925 3575 
L 1775 3575 
Q 1575 3100 1375 2750 
Q 2175 2475 2225 2262 
Q 2275 2050 2200 1912 
Q 2125 1775 2075 1775 
Q 2000 1775 1925 1950 
Q 1775 2225 1325 2650 
Q 875 1975 475 1600 
L 400 1675 
Q 900 2325 1312 3387 
Q 1725 4450 1825 5175 
z
" transform="scale(0.015625)"/>
      <path id="SimSun-5f00" d="M 2450 4500 
L 2450 2625 
L 4000 2625 
L 4000 4500 
L 2450 4500 
z
M 4375 2475 
L 4375 525 
Q 4375 50 4400 -400 
L 3975 -550 
Q 4000 200 4000 725 
L 4000 2475 
L 2450 2475 
Q 2425 1400 1975 687 
Q 1525 -25 450 -600 
L 375 -525 
Q 1200 0 1625 675 
Q 2050 1350 2075 2475 
L 1100 2475 
Q 775 2475 500 2400 
L 275 2625 
L 2075 2625 
L 2075 4500 
L 1450 4500 
Q 1125 4500 850 4425 
L 625 4650 
L 4900 4650 
L 5275 5025 
L 5800 4500 
L 4375 4500 
L 4375 2625 
L 5175 2625 
L 5575 3025 
L 6125 2475 
L 4375 2475 
z
" transform="scale(0.015625)"/>
      <path id="SimSun-653e" d="M 3750 3300 
Q 3950 2300 4400 1375 
Q 4800 2075 5025 3700 
L 3925 3700 
Q 3825 3500 3750 3300 
z
M 4225 1075 
Q 3775 1975 3650 3125 
Q 3300 2400 3225 2375 
L 3150 2425 
Q 3700 3725 3950 5250 
L 4525 4925 
L 4300 4800 
Q 4125 4275 3975 3850 
L 5300 3850 
L 5600 4150 
L 6050 3700 
L 5400 3700 
Q 5175 1975 4600 1075 
Q 5325 125 6150 -75 
L 6150 -175 
Q 5700 -175 5625 -425 
Q 4925 50 4400 800 
Q 3550 -150 2325 -600 
L 2300 -525 
Q 3550 125 4225 1075 
z
M 1350 5125 
Q 1925 4825 2062 4675 
Q 2200 4525 2200 4400 
Q 2200 4325 2162 4212 
Q 2125 4100 2012 4075 
Q 1900 4050 1825 4325 
Q 1725 4575 1300 5050 
L 1350 5125 
z
M 1450 350 
Q 2000 225 2150 237 
Q 2300 250 2362 525 
Q 2425 800 2462 1375 
Q 2500 1950 2525 2600 
L 1550 2600 
Q 1500 1525 1262 812 
Q 1025 100 300 -550 
L 250 -475 
Q 825 275 987 950 
Q 1150 1625 1175 2262 
Q 1200 2900 1200 3725 
L 725 3725 
L 500 3675 
L 300 3875 
L 2725 3875 
L 3000 4150 
L 3425 3725 
L 1550 3725 
L 1550 2750 
L 2500 2750 
L 2725 2975 
L 3050 2650 
L 2850 2500 
Q 2775 800 2725 537 
Q 2675 275 2600 125 
Q 2525 -25 2400 -125 
Q 2275 -225 2000 -300 
Q 1950 75 1425 250 
L 1450 350 
z
" transform="scale(0.015625)"/>
     </defs>
     <use xlink:href="#SimSun-5bf9"/>
     <use xlink:href="#SimSun-5916" transform="translate(100 0)"/>
     <use xlink:href="#SimSun-5f00" transform="translate(200 0)"/>
     <use xlink:href="#SimSun-653e" transform="translate(300 0)"/>
    </g>
   </g>
   <g id="text_4">
    <!-- 研发投入 -->
    <g transform="translate(7.2 268.660725) scale(0.116 -0.116)">
     <defs>
      <path id="SimSun-7814" d="M 2775 4750 
L 5275 4750 
L 5550 5050 
L 5975 4600 
L 5100 4600 
L 5100 2600 
L 5400 2600 
L 5725 2900 
L 6125 2450 
L 5100 2450 
Q 5075 200 5150 -350 
L 4750 -550 
Q 4775 950 4775 2450 
L 3825 2450 
Q 3800 1175 3337 512 
Q 2875 -150 2000 -600 
L 1950 -525 
Q 2800 75 3150 775 
Q 3500 1475 3500 2450 
Q 3100 2450 2825 2375 
L 2600 2600 
L 3500 2600 
L 3500 4600 
Q 3275 4600 3000 4525 
L 2775 4750 
z
M 3825 4600 
L 3825 2600 
L 4775 2600 
L 4775 4600 
L 3825 4600 
z
M 1375 2825 
L 1375 925 
L 2125 925 
L 2125 2825 
L 1375 2825 
z
M 325 4500 
L 2100 4500 
L 2425 4800 
L 2850 4350 
L 1650 4350 
Q 1500 3700 1275 3075 
L 1375 2975 
L 2100 2975 
L 2275 3225 
L 2650 2925 
L 2450 2775 
Q 2450 900 2475 525 
L 2125 350 
L 2125 775 
L 1375 775 
L 1375 275 
L 1025 100 
Q 1050 1200 1050 2550 
Q 750 1975 300 1500 
L 250 1575 
Q 625 2150 887 2862 
Q 1150 3575 1275 4350 
L 1150 4350 
Q 825 4350 550 4275 
L 325 4500 
z
" transform="scale(0.015625)"/>
      <path id="SimSun-53d1" d="M 2350 3600 
Q 2425 4000 2487 4437 
Q 2550 4875 2575 5250 
L 3100 5025 
L 2925 4850 
Q 2750 3850 2700 3600 
L 5200 3600 
L 5550 3950 
L 6025 3450 
L 2675 3450 
Q 2600 2975 2475 2525 
L 4625 2525 
L 4800 2800 
L 5225 2425 
L 5000 2250 
Q 4550 1425 3975 775 
Q 4800 100 6125 -150 
L 6125 -225 
Q 5750 -300 5650 -575 
Q 4475 -150 3775 525 
Q 2800 -300 1300 -625 
L 1275 -550 
Q 2825 -25 3550 775 
Q 3000 1500 2675 2375 
L 2450 2375 
Q 2175 1550 1687 812 
Q 1200 75 400 -450 
L 350 -375 
Q 750 -25 1137 500 
Q 1525 1025 1812 1687 
Q 2100 2350 2325 3450 
L 1175 3450 
L 975 3225 
L 650 3575 
L 850 3700 
Q 1200 4500 1275 4925 
L 1775 4650 
L 1575 4500 
Q 1325 3875 1200 3600 
L 2350 3600 
z
M 2800 2375 
Q 3200 1575 3750 1000 
Q 4225 1550 4625 2375 
L 2800 2375 
z
M 3850 5125 
Q 4575 4825 4800 4637 
Q 5025 4450 5025 4275 
Q 5025 4200 4962 4050 
Q 4900 3900 4850 3900 
Q 4775 3900 4650 4125 
Q 4425 4500 3800 5050 
L 3850 5125 
z
" transform="scale(0.015625)"/>
      <path id="SimSun-6295" d="M 5550 3125 
Q 5675 3125 5825 3225 
Q 5950 3300 6037 3137 
Q 6125 2975 6125 2925 
Q 6125 2875 6025 2862 
Q 5925 2850 5650 2850 
L 5000 2850 
Q 4575 2850 4625 3400 
L 4625 4625 
L 3550 4625 
Q 3625 2925 2325 2225 
L 2275 2300 
Q 2825 2775 2987 3225 
Q 3150 3675 3175 4125 
Q 3200 4575 3175 5000 
L 3550 4775 
L 4600 4775 
L 4800 5000 
L 5175 4700 
L 4975 4550 
L 4975 3450 
Q 4950 3125 5175 3125 
L 5550 3125 
z
M 2800 2475 
L 4775 2475 
L 5000 2725 
L 5425 2350 
L 5200 2225 
Q 4850 1275 4350 650 
Q 4725 325 5162 125 
Q 5600 -75 6100 -125 
L 6100 -225 
Q 5675 -275 5600 -550 
Q 4800 -225 4100 450 
Q 3225 -250 1925 -625 
L 1875 -525 
Q 2950 -150 3900 675 
Q 3425 1475 3175 2325 
L 3000 2275 
L 2800 2475 
z
M 3300 2325 
Q 3600 1525 4125 900 
Q 4600 1550 4825 2325 
L 3300 2325 
z
M 325 1950 
Q 550 1975 1400 2350 
L 1400 3625 
L 825 3625 
L 525 3575 
L 325 3775 
L 1400 3775 
Q 1400 4600 1375 5225 
L 1975 4950 
L 1750 4775 
L 1750 3775 
L 2025 3775 
L 2325 4075 
L 2775 3625 
L 1750 3625 
L 1750 2475 
L 2575 2850 
L 2625 2750 
L 1750 2250 
L 1750 100 
Q 1750 -350 1225 -550 
Q 1200 -225 525 -25 
L 525 75 
Q 1150 -25 1275 -12 
Q 1400 0 1400 300 
L 1400 2075 
Q 1100 1900 725 1650 
L 600 1500 
L 325 1950 
z
" transform="scale(0.015625)"/>
      <path id="SimSun-5165" d="M 1825 4775 
L 2050 5000 
Q 2975 4675 3175 4287 
Q 3375 3900 3650 3075 
Q 3900 2250 4562 1375 
Q 5225 500 6125 225 
L 6125 125 
Q 5700 125 5475 -200 
Q 4850 275 4425 837 
Q 4000 1400 3737 1975 
Q 3475 2550 3250 3400 
Q 2900 2250 2250 1337 
Q 1600 425 275 -425 
L 225 -325 
Q 1350 550 2012 1562 
Q 2675 2575 2950 3850 
Q 3025 4150 2712 4375 
Q 2400 4600 1825 4775 
z
" transform="scale(0.015625)"/>
     </defs>
     <use xlink:href="#SimSun-7814"/>
     <use xlink:href="#SimSun-53d1" transform="translate(100 0)"/>
     <use xlink:href="#SimSun-6295" transform="translate(200 0)"/>
     <use xlink:href="#SimSun-5165" transform="translate(300 0)"/>
    </g>
   </g>
   <g id="text_5">
    <!-- 城镇化水平 -->
    <g transform="translate(7.2 205.195639) scale(0.116 -0.116)">
     <defs>
      <path id="SimSun-57ce" d="M 1375 -575 
Q 1825 -125 2137 512 
Q 2450 1150 2487 1987 
Q 2525 2825 2500 4075 
L 2900 3875 
L 4175 3875 
Q 4150 4550 4125 5225 
L 4675 5050 
L 4475 4850 
Q 4475 4400 4500 3875 
L 5325 3875 
L 5600 4150 
L 6025 3725 
L 4500 3725 
Q 4525 3025 4625 2312 
Q 4725 1600 4800 1425 
Q 5000 1825 5137 2312 
Q 5275 2800 5375 3250 
L 5850 2950 
Q 5700 2825 5475 2200 
Q 5250 1575 4925 1000 
Q 5200 325 5700 -100 
L 5975 875 
L 6075 850 
Q 5975 200 5975 -50 
Q 5975 -300 6050 -500 
Q 6100 -650 5975 -650 
L 5825 -600 
Q 5650 -525 5350 -237 
Q 5050 50 4725 675 
Q 4275 150 3837 -125 
Q 3400 -400 3075 -550 
L 3050 -450 
Q 3475 -200 3862 150 
Q 4250 500 4575 1025 
Q 4425 1400 4325 2087 
Q 4225 2775 4175 3725 
L 2850 3725 
L 2850 2700 
L 3575 2700 
L 3725 2900 
L 4100 2600 
L 3900 2450 
Q 3825 1175 3762 875 
Q 3700 575 3587 437 
Q 3475 300 3200 175 
Q 3125 475 2725 625 
L 2725 725 
Q 3175 625 3287 650 
Q 3400 675 3462 1025 
Q 3525 1375 3575 2550 
L 2850 2550 
Q 2825 1200 2475 537 
Q 2125 -125 1450 -650 
L 1375 -575 
z
M 4700 4875 
L 4750 4950 
Q 5300 4725 5387 4587 
Q 5475 4450 5475 4375 
Q 5475 4300 5400 4187 
Q 5325 4075 5275 4075 
Q 5200 4075 5125 4275 
Q 5000 4600 4700 4875 
z
M 1575 1325 
L 2375 1550 
L 2400 1450 
Q 775 800 525 525 
L 250 1000 
Q 675 1075 1225 1225 
L 1225 3175 
L 1075 3175 
Q 750 3175 475 3100 
L 250 3325 
L 1225 3325 
Q 1225 4650 1200 5100 
L 1775 4825 
L 1575 4650 
L 1575 3325 
L 1850 3325 
L 2100 3575 
L 2500 3175 
L 1575 3175 
L 1575 1325 
z
" transform="scale(0.015625)"/>
      <path id="SimSun-9547" d="M 3000 850 
Q 3000 2575 2975 3750 
L 3325 3575 
L 3900 3575 
L 3975 4225 
L 3350 4225 
Q 3025 4225 2750 4150 
L 2525 4375 
L 4000 4375 
L 4050 5250 
L 4575 4950 
L 4375 4825 
L 4325 4375 
L 5225 4375 
L 5550 4725 
L 6000 4225 
L 4300 4225 
L 4225 3575 
L 4975 3575 
L 5150 3825 
L 5550 3525 
L 5350 3375 
L 5350 850 
L 5475 850 
L 5775 1150 
L 6150 700 
L 3200 700 
Q 2875 700 2600 625 
L 2375 850 
L 3000 850 
z
M 3325 3425 
L 3325 2900 
L 5025 2900 
L 5025 3425 
L 3325 3425 
z
M 3325 2750 
L 3325 2225 
L 5025 2225 
L 5025 2750 
L 3325 2750 
z
M 3325 2075 
L 3325 1525 
L 5025 1525 
L 5025 2075 
L 3325 2075 
z
M 3325 1375 
L 3325 850 
L 5025 850 
L 5025 1375 
L 3325 1375 
z
M 3550 625 
L 3950 200 
L 3675 175 
Q 2775 -400 2125 -625 
L 2075 -550 
Q 3050 0 3550 625 
z
M 4500 500 
L 4550 575 
Q 5375 275 5662 125 
Q 5950 -25 5950 -275 
Q 5950 -375 5912 -512 
Q 5875 -650 5825 -650 
Q 5750 -650 5600 -425 
Q 5325 -50 4500 500 
z
M 1575 350 
L 2375 775 
L 2425 700 
Q 1600 25 1425 -325 
L 1100 50 
Q 1225 175 1225 425 
L 1225 1775 
L 1100 1775 
Q 775 1775 500 1700 
L 275 1925 
L 1225 1925 
L 1225 2925 
L 725 2925 
Q 550 2675 325 2425 
L 250 2475 
Q 900 3500 1275 5175 
L 1825 4875 
L 1600 4750 
Q 1425 4325 1300 4050 
L 1900 4050 
L 2200 4350 
L 2575 3900 
L 1250 3900 
Q 1000 3400 800 3075 
L 1900 3075 
L 2175 3375 
L 2575 2925 
L 1575 2925 
L 1575 1925 
L 1975 1925 
L 2275 2225 
L 2650 1775 
L 1575 1775 
L 1575 350 
z
" transform="scale(0.015625)"/>
      <path id="SimSun-5316" d="M 1375 -600 
Q 1400 200 1400 925 
L 1400 3125 
Q 850 2300 350 1775 
L 275 1850 
Q 825 2625 1300 3650 
Q 1775 4675 1900 5200 
L 2450 4875 
L 2200 4725 
Q 1875 4000 1600 3475 
L 1950 3275 
L 1750 3075 
L 1750 350 
Q 1750 75 1775 -400 
L 1375 -600 
z
M 3450 2125 
L 3450 3925 
Q 3450 4475 3425 5200 
L 4000 4925 
L 3800 4725 
L 3800 2400 
Q 4150 2725 4562 3225 
Q 4975 3725 5150 4025 
L 5600 3600 
L 5325 3525 
Q 4600 2700 3800 2000 
L 3800 425 
Q 3800 0 4225 0 
L 5300 0 
Q 5500 0 5550 325 
Q 5600 650 5600 1325 
L 5725 1325 
Q 5775 650 5850 425 
Q 5925 200 6125 125 
Q 5900 -325 5400 -325 
L 4075 -325 
Q 3450 -325 3450 250 
L 3450 1775 
Q 2800 1275 1950 925 
L 1925 1025 
Q 2800 1525 3450 2125 
z
" transform="scale(0.015625)"/>
      <path id="SimSun-6c34" d="M 2950 5200 
L 3600 4925 
L 3350 4725 
Q 3325 4150 3450 3750 
Q 3575 3350 3850 2775 
Q 4825 3575 5175 4150 
L 5600 3700 
Q 5350 3675 4975 3400 
Q 4575 3125 3900 2650 
Q 4875 775 6100 375 
L 6100 275 
Q 5625 250 5525 -25 
Q 4000 1100 3350 3625 
L 3350 125 
Q 3375 -500 2750 -650 
Q 2775 -300 1975 -100 
L 1975 0 
Q 2550 -50 2762 -50 
Q 2975 -50 2975 250 
L 2975 4275 
Q 2975 4750 2950 5200 
z
M 375 -150 
L 325 -75 
Q 1575 1175 2050 3125 
L 1275 3125 
Q 950 3125 675 3050 
L 450 3275 
L 2025 3275 
L 2250 3575 
L 2700 3175 
L 2450 3050 
Q 1825 825 375 -150 
z
" transform="scale(0.015625)"/>
      <path id="SimSun-5e73" d="M 3375 750 
Q 3375 200 3400 -350 
L 2975 -525 
Q 3000 250 3000 875 
L 3000 2325 
L 1050 2325 
Q 725 2325 450 2250 
L 225 2475 
L 3000 2475 
L 3000 4575 
L 1600 4575 
Q 1275 4575 1000 4500 
L 775 4725 
L 4850 4725 
L 5200 5075 
L 5700 4575 
L 3375 4575 
L 3375 2475 
L 5200 2475 
L 5575 2850 
L 6100 2325 
L 3375 2325 
L 3375 750 
z
M 4750 4325 
L 5275 3925 
Q 5075 3925 4725 3475 
Q 4350 3025 3925 2625 
L 3850 2675 
Q 4500 3550 4750 4325 
z
M 1300 4200 
Q 2025 3675 2150 3487 
Q 2275 3300 2275 3150 
Q 2275 3075 2237 2962 
Q 2200 2850 2062 2750 
Q 1925 2650 1800 3100 
Q 1675 3525 1225 4150 
L 1300 4200 
z
" transform="scale(0.015625)"/>
     </defs>
     <use xlink:href="#SimSun-57ce"/>
     <use xlink:href="#SimSun-9547" transform="translate(100 0)"/>
     <use xlink:href="#SimSun-5316" transform="translate(200 0)"/>
     <use xlink:href="#SimSun-6c34" transform="translate(300 0)"/>
     <use xlink:href="#SimSun-5e73" transform="translate(400 0)"/>
    </g>
   </g>
   <g id="text_6">
    <!-- 产业结构 -->
    <g transform="translate(7.2 141.707897) scale(0.116 -0.116)">
     <defs>
      <path id="SimSun-4ea7" d="M 1975 3850 
L 2025 3925 
Q 2525 3600 2662 3412 
Q 2800 3225 2800 3100 
Q 2800 2975 2700 2837 
Q 2600 2700 2550 2700 
Q 2475 2700 2400 3000 
Q 2300 3400 1975 3850 
z
M 4200 3950 
L 4775 3650 
L 4550 3550 
Q 4325 3275 3825 2650 
L 5100 2650 
L 5475 3025 
L 6000 2500 
L 1375 2500 
Q 1400 1600 1250 862 
Q 1100 125 325 -650 
L 250 -575 
Q 850 175 937 1125 
Q 1025 2075 975 2875 
L 1400 2650 
L 3675 2650 
Q 4125 3550 4200 3950 
z
M 475 4200 
L 3175 4200 
Q 3150 4625 2675 5175 
L 2750 5250 
Q 3275 4975 3412 4825 
Q 3550 4675 3550 4575 
Q 3550 4400 3325 4200 
L 5050 4200 
L 5450 4600 
L 6000 4050 
L 1300 4050 
Q 975 4050 700 3975 
L 475 4200 
z
" transform="scale(0.015625)"/>
      <path id="SimSun-4e1a" d="M 650 3725 
Q 1800 2150 1875 1762 
Q 1950 1375 1800 1200 
Q 1650 1025 1600 1025 
Q 1475 1025 1425 1475 
Q 1325 2100 575 3675 
L 650 3725 
z
M 2325 4175 
Q 2325 4575 2300 5100 
L 2900 4800 
L 2675 4600 
L 2675 0 
L 3700 0 
L 3700 4150 
Q 3700 4500 3675 5100 
L 4300 4800 
L 4050 4625 
L 4050 1025 
Q 5000 2450 5350 3800 
L 5950 3375 
L 5675 3250 
Q 4775 1550 4050 825 
L 4050 0 
L 5225 0 
L 5625 400 
L 6175 -150 
L 1050 -150 
Q 725 -150 450 -225 
L 225 0 
L 2325 0 
L 2325 4175 
z
" transform="scale(0.015625)"/>
     </defs>
     <use xlink:href="#SimSun-4ea7"/>
     <use xlink:href="#SimSun-4e1a" transform="translate(100 0)"/>
     <use xlink:href="#SimSun-7ed3" transform="translate(200 0)"/>
     <use xlink:href="#SimSun-6784" transform="translate(300 0)"/>
    </g>
   </g>
   <g id="text_7">
    <!-- 夜间灯光聚合度 -->
    <g transform="translate(7.2 78.242811) scale(0.116 -0.116)">
     <defs>
      <path id="SimSun-591c" d="M 3425 2725 
L 3475 2800 
Q 4075 2450 4112 2350 
Q 4150 2250 4150 2175 
Q 4150 2025 4075 1912 
Q 4000 1800 3950 1800 
Q 3875 1800 3800 2025 
Q 3700 2375 3425 2725 
z
M 3275 3100 
Q 3125 2825 2925 2475 
Q 3300 1675 3950 950 
Q 4500 1775 4875 3100 
L 3275 3100 
z
M 2675 5175 
L 2725 5225 
Q 3425 5000 3500 4800 
Q 3575 4600 3450 4462 
Q 3325 4325 3300 4325 
Q 3225 4325 3150 4500 
Q 3050 4775 2675 5175 
z
M 375 4250 
L 5225 4250 
L 5600 4575 
L 6075 4100 
L 3375 4100 
L 3775 3875 
Q 3625 3800 3525 3637 
Q 3425 3475 3325 3250 
L 4875 3250 
L 5050 3525 
L 5450 3175 
L 5275 3025 
Q 4725 1475 4200 725 
Q 4975 25 6125 -75 
L 6125 -175 
Q 5750 -225 5625 -550 
Q 4625 -150 3975 475 
Q 3075 -300 1900 -650 
L 1875 -550 
Q 3175 50 3750 725 
Q 3125 1600 2850 2325 
Q 2475 1750 2025 1350 
L 1950 1425 
Q 2450 2075 2787 2837 
Q 3125 3600 3225 4100 
L 1925 4100 
L 2375 3825 
L 2150 3700 
Q 1875 3250 1625 2800 
L 1950 2625 
L 1750 2475 
L 1750 -475 
L 1375 -650 
Q 1400 -50 1400 200 
L 1400 2425 
Q 1025 1900 425 1325 
L 350 1400 
Q 950 2150 1325 2900 
Q 1700 3650 1825 4100 
L 1200 4100 
Q 875 4100 600 4025 
L 375 4250 
z
" transform="scale(0.015625)"/>
      <path id="SimSun-95f4" d="M 2150 525 
Q 2175 1325 2175 2112 
Q 2175 2900 2150 3675 
L 2525 3450 
L 3750 3450 
L 4000 3700 
L 4325 3375 
L 4125 3200 
Q 4125 1550 4150 775 
L 3800 575 
L 3800 975 
L 2500 975 
L 2500 700 
L 2150 525 
z
M 2500 3300 
L 2500 2325 
L 3800 2325 
L 3800 3300 
L 2500 3300 
z
M 2500 2175 
L 2500 1125 
L 3800 1125 
L 3800 2175 
L 2500 2175 
z
M 1275 5200 
Q 1850 4825 1950 4675 
Q 2050 4525 2050 4425 
Q 2050 4275 1950 4137 
Q 1850 4000 1825 4000 
Q 1750 4000 1675 4275 
Q 1550 4650 1200 5125 
L 1275 5200 
z
M 1125 425 
Q 1125 25 1150 -375 
L 750 -525 
Q 775 -150 775 1950 
Q 775 4050 750 4425 
L 1350 4125 
L 1125 3975 
L 1125 425 
z
M 4225 125 
Q 5025 0 5125 37 
Q 5225 75 5225 250 
L 5225 4450 
L 3225 4450 
Q 2900 4450 2625 4375 
L 2400 4600 
L 5175 4600 
L 5425 4850 
L 5775 4500 
L 5575 4350 
L 5575 225 
Q 5575 -100 5462 -250 
Q 5350 -400 5000 -550 
Q 4800 -125 4225 25 
L 4225 125 
z
" transform="scale(0.015625)"/>
      <path id="SimSun-706f" d="M 1400 5175 
L 1950 4950 
L 1775 4750 
L 1775 3150 
Q 2225 3675 2400 4100 
L 2825 3750 
Q 2625 3675 2400 3500 
Q 2175 3300 1775 3000 
Q 1750 2025 1675 1550 
Q 2275 1225 2475 975 
Q 2675 725 2637 525 
Q 2600 325 2500 300 
Q 2400 275 2225 700 
Q 2025 1125 1650 1425 
Q 1400 250 400 -525 
L 375 -425 
Q 1100 400 1275 1162 
Q 1450 1925 1437 2887 
Q 1425 3850 1400 5175 
z
M 900 3625 
Q 900 3275 887 3012 
Q 875 2750 787 2600 
Q 700 2450 550 2400 
Q 400 2350 337 2437 
Q 275 2525 275 2550 
Q 275 2650 425 2775 
Q 625 2950 800 3625 
L 900 3625 
z
M 3050 75 
Q 3750 -25 3937 -12 
Q 4125 0 4125 300 
L 4125 4275 
L 3375 4275 
Q 3050 4275 2775 4200 
L 2550 4425 
L 5200 4425 
L 5550 4775 
L 6025 4275 
L 4500 4275 
L 4500 100 
Q 4500 -175 4350 -350 
Q 4200 -525 3900 -625 
Q 3700 -200 3025 -25 
L 3050 75 
z
" transform="scale(0.015625)"/>
      <path id="SimSun-5149" d="M 1300 4475 
L 1350 4550 
Q 2175 3975 2287 3750 
Q 2400 3525 2400 3400 
Q 2400 3250 2312 3125 
Q 2225 3000 2175 3000 
Q 2075 3000 2000 3325 
Q 1850 3775 1300 4475 
z
M 3025 2700 
L 3025 4150 
Q 3025 4550 3000 5150 
L 3600 4900 
L 3375 4675 
L 3375 2700 
L 3800 2700 
Q 4300 3525 4625 4500 
L 5150 4125 
L 4925 4000 
Q 4375 3225 3950 2700 
L 5150 2700 
L 5500 3050 
L 5975 2550 
L 3925 2550 
L 3925 325 
Q 3925 -100 4300 -100 
L 5300 -100 
Q 5475 -100 5525 137 
Q 5575 375 5625 1275 
L 5750 1275 
Q 5750 625 5800 387 
Q 5850 150 6100 0 
Q 5925 -375 5475 -400 
L 4225 -400 
Q 3600 -400 3600 200 
L 3600 2550 
L 2625 2550 
Q 2550 1150 2100 487 
Q 1650 -175 325 -650 
L 300 -550 
Q 1500 0 1862 700 
Q 2225 1400 2250 2550 
L 1200 2550 
Q 875 2550 600 2475 
L 375 2700 
L 3025 2700 
z
" transform="scale(0.015625)"/>
      <path id="SimSun-805a" d="M 2525 1425 
L 2275 1375 
Q 1375 750 725 475 
L 700 575 
Q 1075 800 1462 1125 
Q 1850 1450 2125 1800 
L 2525 1425 
z
M 6075 225 
Q 5675 150 5600 -125 
Q 4675 175 4187 675 
Q 3700 1175 3400 2000 
L 3400 125 
Q 3400 -50 3425 -450 
L 3050 -625 
Q 3075 275 3075 2000 
Q 2575 1950 1475 1875 
L 1475 1975 
Q 2325 2075 2700 2137 
Q 3075 2200 3562 2300 
Q 4050 2400 4575 2625 
L 4825 2200 
Q 4300 2150 4025 2100 
Q 3750 2050 3525 2025 
Q 3800 1400 4225 975 
Q 4475 1200 4712 1487 
Q 4950 1775 5075 1975 
L 5450 1550 
L 5200 1500 
Q 4575 1050 4325 875 
Q 4600 650 5050 487 
Q 5500 325 6075 300 
L 6075 225 
z
M 2900 675 
L 2650 650 
Q 2300 400 1850 150 
Q 1400 -100 850 -300 
L 825 -200 
Q 1350 50 1762 362 
Q 2175 675 2550 1100 
L 2900 675 
z
M 3750 3150 
L 3125 2950 
Q 3125 2625 3150 2475 
L 2775 2325 
Q 2800 2600 2800 2875 
Q 2050 2700 1575 2550 
Q 1100 2400 825 2250 
L 600 2650 
Q 950 2700 1275 2750 
L 1275 4775 
Q 1000 4775 725 4700 
L 500 4925 
L 3225 4925 
L 3575 5225 
L 4000 4775 
L 3125 4775 
L 3125 3100 
L 3725 3225 
L 3750 3150 
z
M 1600 4775 
L 1600 4225 
L 2800 4225 
L 2800 4775 
L 1600 4775 
z
M 1600 4075 
L 1600 3575 
L 2800 3575 
L 2800 4075 
L 1600 4075 
z
M 1600 2800 
L 2800 3025 
L 2800 3425 
L 1600 3425 
L 1600 2800 
z
M 5600 4325 
Q 5225 3825 4975 3575 
Q 5525 3250 5662 3062 
Q 5800 2875 5762 2725 
Q 5725 2575 5637 2562 
Q 5550 2550 5375 2800 
Q 5200 3050 4800 3350 
Q 4200 2825 3350 2550 
L 3325 2625 
Q 4075 3000 4575 3500 
Q 4100 3800 3650 4050 
L 3675 4125 
Q 4025 4000 4725 3700 
Q 4975 3975 5300 4450 
L 4275 4450 
Q 3950 4450 3675 4375 
L 3450 4600 
L 5275 4600 
L 5500 4825 
L 5850 4475 
L 5600 4325 
z
" transform="scale(0.015625)"/>
      <path id="SimSun-5408" d="M 3575 4875 
L 3350 4750 
Q 3650 4225 4312 3662 
Q 4975 3100 6125 2825 
L 6125 2750 
Q 5750 2675 5600 2400 
Q 4500 3000 3962 3612 
Q 3425 4225 3250 4625 
Q 2575 3600 1887 3075 
Q 1200 2550 300 2225 
L 275 2325 
Q 1250 2825 1937 3500 
Q 2625 4175 3050 5225 
L 3575 4875 
z
M 1525 2700 
L 4025 2700 
L 4350 3025 
L 4825 2550 
L 2300 2550 
Q 2025 2550 1750 2475 
L 1525 2700 
z
M 1975 1500 
L 1975 100 
L 4375 100 
L 4375 1500 
L 1975 1500 
z
M 4725 1375 
Q 4725 250 4750 -325 
L 4375 -475 
L 4375 -50 
L 1975 -50 
L 1975 -375 
L 1600 -525 
Q 1625 100 1625 675 
Q 1625 1250 1600 1850 
L 1975 1650 
L 4325 1650 
L 4575 1900 
L 4925 1550 
L 4725 1375 
z
" transform="scale(0.015625)"/>
      <path id="SimSun-5ea6" d="M 2550 2025 
Q 2575 2525 2575 3175 
L 1925 3175 
L 1625 3125 
L 1425 3325 
L 2575 3325 
Q 2575 3700 2550 4150 
L 3100 3875 
L 2900 3750 
L 2900 3325 
L 4300 3325 
Q 4300 3750 4275 4125 
L 4850 3875 
L 4625 3725 
L 4625 3325 
L 5100 3325 
L 5425 3650 
L 5900 3175 
L 4625 3175 
Q 4625 2450 4650 2225 
L 4300 2075 
L 4300 2300 
L 2900 2300 
L 2900 2175 
L 2550 2025 
z
M 4875 1500 
Q 4300 775 3900 425 
Q 4700 -75 6025 -125 
L 6025 -225 
Q 5625 -300 5550 -550 
Q 4375 -325 3675 225 
Q 2475 -450 1075 -625 
L 1050 -525 
Q 2375 -275 3450 450 
Q 2975 925 2575 1625 
L 2325 1625 
L 2100 1575 
L 1900 1775 
L 4525 1775 
L 4750 2000 
L 5125 1625 
L 4875 1500 
z
M 2700 1625 
Q 3175 975 3650 625 
Q 4150 1100 4500 1625 
L 2700 1625 
z
M 2900 3175 
L 2900 2450 
L 4300 2450 
L 4300 3175 
L 2900 3175 
z
M 975 4650 
L 1400 4400 
L 3375 4400 
Q 3350 4550 3262 4725 
Q 3175 4900 2900 5225 
L 2975 5275 
Q 3550 5025 3637 4887 
Q 3725 4750 3725 4725 
Q 3725 4575 3525 4400 
L 5150 4400 
L 5500 4750 
L 6000 4250 
L 1375 4250 
Q 1400 2750 1287 1912 
Q 1175 1075 925 475 
Q 675 -125 300 -625 
L 225 -575 
Q 725 300 862 1250 
Q 1000 2200 1012 3187 
Q 1025 4175 975 4650 
z
" transform="scale(0.015625)"/>
     </defs>
     <use xlink:href="#SimSun-591c"/>
     <use xlink:href="#SimSun-95f4" transform="translate(100 0)"/>
     <use xlink:href="#SimSun-706f" transform="translate(200 0)"/>
     <use xlink:href="#SimSun-5149" transform="translate(300 0)"/>
     <use xlink:href="#SimSun-805a" transform="translate(400 0)"/>
     <use xlink:href="#SimSun-5408" transform="translate(500 0)"/>
     <use xlink:href="#SimSun-5ea6" transform="translate(600 0)"/>
    </g>
   </g>
  </g>
  <g id="axes_2">
   <g id="patch_2">
    <path d="M 260.410065 430.885948 
L 594.838452 430.885948 
L 594.838452 37.261948 
L 260.410065 37.261948 
z
" style="fill: #ffffff"/>
   </g>
   <g id="matplotlib.axis_1">
    <g id="xtick_1">
     <g id="line2d_1">
      <path d="M 294.575578 430.885948 
L 294.575578 37.261948 
" clip-path="url(#pe7a2b8ea62)" style="fill: none; stroke: #cccccc; stroke-linecap: round"/>
     </g>
     <g id="text_8">
      <!-- -1 -->
      <g style="fill: #262626" transform="translate(289.99425 450.524073) scale(0.11 -0.11)">
       <defs>
        <path id="TimesNewRomanPSMT-2d" d="M 259 1672 
L 1875 1672 
L 1875 1200 
L 259 1200 
L 259 1672 
z
" transform="scale(0.015625)"/>
        <path id="TimesNewRomanPSMT-31" d="M 750 3822 
L 1781 4325 
L 1884 4325 
L 1884 747 
Q 1884 391 1914 303 
Q 1944 216 2037 169 
Q 2131 122 2419 116 
L 2419 0 
L 825 0 
L 825 116 
Q 1125 122 1212 167 
Q 1300 213 1334 289 
Q 1369 366 1369 747 
L 1369 3034 
Q 1369 3497 1338 3628 
Q 1316 3728 1258 3775 
Q 1200 3822 1119 3822 
Q 1003 3822 797 3725 
L 750 3822 
z
" transform="scale(0.015625)"/>
       </defs>
       <use xlink:href="#TimesNewRomanPSMT-2d"/>
       <use xlink:href="#TimesNewRomanPSMT-31" transform="translate(33.300781 0)"/>
      </g>
     </g>
    </g>
    <g id="xtick_2">
     <g id="line2d_2">
      <path d="M 373.355264 430.885948 
L 373.355264 37.261948 
" clip-path="url(#pe7a2b8ea62)" style="fill: none; stroke: #cccccc; stroke-linecap: round"/>
     </g>
     <g id="text_9">
      <!-- -0.1 -->
      <g style="fill: #262626" transform="translate(364.648936 450.524073) scale(0.11 -0.11)">
       <defs>
        <path id="TimesNewRomanPSMT-30" d="M 231 2094 
Q 231 2819 450 3342 
Q 669 3866 1031 4122 
Q 1313 4325 1613 4325 
Q 2100 4325 2488 3828 
Q 2972 3213 2972 2159 
Q 2972 1422 2759 906 
Q 2547 391 2217 158 
Q 1888 -75 1581 -75 
Q 975 -75 572 641 
Q 231 1244 231 2094 
z
M 844 2016 
Q 844 1141 1059 588 
Q 1238 122 1591 122 
Q 1759 122 1940 273 
Q 2122 425 2216 781 
Q 2359 1319 2359 2297 
Q 2359 3022 2209 3506 
Q 2097 3866 1919 4016 
Q 1791 4119 1609 4119 
Q 1397 4119 1231 3928 
Q 1006 3669 925 3112 
Q 844 2556 844 2016 
z
" transform="scale(0.015625)"/>
        <path id="TimesNewRomanPSMT-2e" d="M 800 606 
Q 947 606 1047 504 
Q 1147 403 1147 259 
Q 1147 116 1045 14 
Q 944 -88 800 -88 
Q 656 -88 554 14 
Q 453 116 453 259 
Q 453 406 554 506 
Q 656 606 800 606 
z
" transform="scale(0.015625)"/>
       </defs>
       <use xlink:href="#TimesNewRomanPSMT-2d"/>
       <use xlink:href="#TimesNewRomanPSMT-30" transform="translate(33.300781 0)"/>
       <use xlink:href="#TimesNewRomanPSMT-2e" transform="translate(83.300781 0)"/>
       <use xlink:href="#TimesNewRomanPSMT-31" transform="translate(108.300781 0)"/>
      </g>
     </g>
    </g>
    <g id="xtick_3">
     <g id="line2d_3">
      <path d="M 408.242151 430.885948 
L 408.242151 37.261948 
" clip-path="url(#pe7a2b8ea62)" style="fill: none; stroke: #cccccc; stroke-linecap: round"/>
     </g>
     <g id="text_10">
      <!-- 0.0 -->
      <g style="fill: #262626" transform="translate(401.367151 450.524073) scale(0.11 -0.11)">
       <use xlink:href="#TimesNewRomanPSMT-30"/>
       <use xlink:href="#TimesNewRomanPSMT-2e" transform="translate(50 0)"/>
       <use xlink:href="#TimesNewRomanPSMT-30" transform="translate(75 0)"/>
      </g>
     </g>
    </g>
    <g id="xtick_4">
     <g id="line2d_4">
      <path d="M 443.129039 430.885948 
L 443.129039 37.261948 
" clip-path="url(#pe7a2b8ea62)" style="fill: none; stroke: #cccccc; stroke-linecap: round"/>
     </g>
     <g id="text_11">
      <!-- 0.1 -->
      <g style="fill: #262626" transform="translate(436.254039 450.524073) scale(0.11 -0.11)">
       <use xlink:href="#TimesNewRomanPSMT-30"/>
       <use xlink:href="#TimesNewRomanPSMT-2e" transform="translate(50 0)"/>
       <use xlink:href="#TimesNewRomanPSMT-31" transform="translate(75 0)"/>
      </g>
     </g>
    </g>
    <g id="xtick_5">
     <g id="line2d_5">
      <path d="M 521.908725 430.885948 
L 521.908725 37.261948 
" clip-path="url(#pe7a2b8ea62)" style="fill: none; stroke: #cccccc; stroke-linecap: round"/>
     </g>
     <g id="text_12">
      <!-- 1 -->
      <g style="fill: #262626" transform="translate(519.158725 450.524073) scale(0.11 -0.11)">
       <use xlink:href="#TimesNewRomanPSMT-31"/>
      </g>
     </g>
    </g>
    <g id="xtick_6">
     <g id="line2d_6">
      <path d="M 584.705122 430.885948 
L 584.705122 37.261948 
" clip-path="url(#pe7a2b8ea62)" style="fill: none; stroke: #cccccc; stroke-linecap: round"/>
     </g>
     <g id="text_13">
      <!-- 10 -->
      <g style="fill: #262626" transform="translate(579.205122 450.524073) scale(0.11 -0.11)">
       <use xlink:href="#TimesNewRomanPSMT-31"/>
       <use xlink:href="#TimesNewRomanPSMT-30" transform="translate(50 0)"/>
      </g>
     </g>
    </g>
    <g id="text_14">
     <!-- 系数估计值 -->
     <g style="fill: #262626" transform="translate(397.624258 465.466416) scale(0.12 -0.12)">
      <defs>
       <path id="SimSun-7cfb" d="M 4975 1950 
L 3600 1850 
L 3600 200 
Q 3650 -400 3025 -575 
Q 3025 -175 2250 0 
L 2250 100 
Q 2900 25 3087 25 
Q 3275 25 3250 375 
L 3250 1800 
Q 2550 1750 2112 1662 
Q 1675 1575 1425 1475 
L 1175 1950 
Q 1450 1975 2037 2250 
Q 2625 2525 3675 3175 
Q 2675 3075 2275 2987 
Q 1875 2900 1625 2775 
L 1375 3275 
Q 1725 3300 2237 3687 
Q 2750 4075 3075 4550 
Q 1600 4450 1025 4450 
L 1025 4550 
Q 2525 4675 3475 4837 
Q 4425 5000 5075 5250 
L 5450 4775 
Q 5075 4800 4437 4725 
Q 3800 4650 3175 4575 
L 3675 4325 
Q 3350 4275 2800 3825 
Q 2225 3375 1925 3250 
L 3900 3325 
Q 4375 3650 4625 3975 
L 5100 3575 
Q 4825 3550 4475 3350 
Q 4100 3125 3212 2625 
Q 2325 2125 1900 1925 
L 4875 2075 
Q 4500 2450 4250 2625 
L 4300 2700 
Q 4975 2450 5287 2262 
Q 5600 2075 5612 1862 
Q 5625 1650 5512 1475 
Q 5400 1300 5287 1500 
Q 5175 1700 4975 1950 
z
M 4000 1300 
Q 5175 800 5462 600 
Q 5750 400 5775 162 
Q 5800 -75 5712 -200 
Q 5625 -325 5600 -325 
Q 5475 -325 5325 -25 
Q 5075 425 3950 1225 
L 4000 1300 
z
M 2250 1400 
L 2700 950 
Q 2500 950 1875 475 
Q 1250 -25 425 -375 
L 375 -300 
Q 925 25 1437 462 
Q 1950 900 2250 1400 
z
" transform="scale(0.015625)"/>
       <path id="SimSun-6570" d="M 1875 1525 
Q 1675 1200 1500 900 
Q 1825 825 2275 725 
Q 2500 975 2725 1525 
L 1875 1525 
z
M 850 4900 
Q 1325 4600 1425 4450 
Q 1525 4300 1525 4225 
Q 1525 4100 1437 3975 
Q 1350 3850 1300 3850 
Q 1225 3850 1150 4100 
Q 1050 4450 775 4850 
L 850 4900 
z
M 3000 4975 
L 3450 4675 
Q 3250 4625 3100 4425 
Q 2925 4225 2525 3825 
L 2450 3875 
Q 2925 4625 3000 4975 
z
M 1875 5250 
L 2425 5000 
L 2225 4825 
L 2225 3675 
L 2850 3675 
L 3125 3950 
L 3550 3525 
L 2225 3525 
L 2225 3300 
Q 2800 3175 2937 3062 
Q 3075 2950 3075 2775 
Q 3075 2700 3050 2587 
Q 3025 2475 2975 2475 
Q 2925 2475 2800 2650 
Q 2600 2925 2225 3175 
L 2225 2400 
L 1925 2200 
L 2275 2050 
Q 2150 2000 1950 1675 
L 2725 1675 
L 2900 1900 
L 3275 1575 
L 3050 1450 
Q 2800 875 2600 650 
Q 3000 550 3137 437 
Q 3275 325 3275 150 
Q 3275 -25 3200 -25 
Q 3125 -25 3025 75 
Q 2750 275 2400 425 
Q 1525 -275 325 -500 
L 300 -425 
Q 1450 -50 2100 550 
Q 1600 725 1125 800 
Q 1225 950 1525 1525 
L 1200 1525 
Q 875 1525 600 1450 
L 375 1675 
L 1575 1675 
Q 1675 1925 1775 2275 
L 1900 2225 
L 1900 3250 
Q 1225 2475 350 2050 
L 300 2125 
Q 1225 2775 1700 3525 
L 1250 3525 
Q 925 3525 650 3450 
L 425 3675 
L 1900 3675 
Q 1900 4575 1875 5250 
z
M 3925 3525 
Q 4050 2075 4525 1100 
Q 4925 1950 5025 3525 
L 3925 3525 
z
M 4050 5250 
L 4625 4925 
Q 4425 4850 4325 4625 
Q 4225 4400 3950 3675 
L 5375 3675 
L 5675 3975 
L 6125 3525 
L 5400 3525 
Q 5250 1675 4750 775 
Q 5325 75 6100 -100 
L 6100 -200 
Q 5625 -275 5600 -500 
Q 4950 -50 4525 525 
Q 3700 -275 2550 -650 
L 2500 -575 
Q 3650 -50 4325 800 
Q 3850 1975 3825 3375 
Q 3575 2725 3100 2150 
L 3025 2200 
Q 3625 3200 4050 5250 
z
" transform="scale(0.015625)"/>
       <path id="SimSun-4f30" d="M 2900 1950 
L 2900 175 
L 5100 175 
L 5100 1950 
L 2900 1950 
z
M 2525 -575 
Q 2550 -125 2550 900 
Q 2550 1925 2525 2325 
L 2925 2100 
L 3800 2100 
L 3800 3500 
L 2850 3500 
Q 2525 3500 2250 3425 
L 2025 3650 
L 3800 3650 
Q 3800 4800 3775 5200 
L 4350 4950 
L 4150 4725 
L 4150 3650 
L 5300 3650 
L 5625 3975 
L 6100 3500 
L 4150 3500 
L 4150 2100 
L 5050 2100 
L 5300 2350 
L 5675 2025 
L 5450 1875 
L 5450 425 
Q 5450 50 5475 -350 
L 5100 -525 
L 5100 25 
L 2900 25 
L 2900 -425 
L 2525 -575 
z
M 1500 3375 
L 1825 3225 
L 1675 3050 
L 1675 525 
Q 1675 75 1700 -500 
L 1300 -700 
Q 1325 0 1325 400 
L 1325 3050 
Q 850 2375 325 1875 
L 250 1950 
Q 825 2625 1200 3412 
Q 1575 4200 1875 5100 
L 2400 4750 
L 2150 4600 
Q 1800 3925 1500 3375 
z
" transform="scale(0.015625)"/>
       <path id="SimSun-8ba1" d="M 975 4975 
L 1000 5050 
Q 1550 4800 1762 4625 
Q 1975 4450 1975 4275 
Q 1975 4100 1887 4025 
Q 1800 3950 1775 3950 
Q 1650 3950 1550 4250 
Q 1375 4625 975 4975 
z
M 1650 375 
L 2625 1225 
L 2675 1150 
Q 1800 25 1600 -350 
L 1225 75 
Q 1325 225 1325 550 
L 1325 2800 
L 675 2800 
L 900 2800 
Q 750 2800 475 2725 
L 250 2950 
L 1275 2950 
L 1550 3225 
L 1900 2875 
L 1650 2700 
L 1650 375 
z
M 3850 2925 
Q 3850 4600 3825 5100 
L 4425 4825 
L 4225 4625 
L 4225 2925 
L 5350 2925 
L 5675 3250 
L 6125 2775 
L 4225 2775 
L 4225 500 
Q 4225 0 4250 -425 
L 3825 -600 
Q 3850 175 3850 575 
L 3850 2775 
L 2575 2775 
L 2950 2775 
Q 2650 2775 2375 2700 
L 2150 2925 
L 3850 2925 
z
" transform="scale(0.015625)"/>
       <path id="SimSun-503c" d="M 1525 650 
Q 1525 -225 1550 -525 
L 1175 -650 
Q 1200 250 1200 550 
L 1200 3025 
Q 750 2300 325 1850 
L 250 1900 
Q 725 2625 1100 3525 
Q 1475 4425 1675 5200 
L 2200 4875 
L 1950 4725 
Q 1550 3800 1425 3475 
L 1725 3300 
L 1525 3150 
L 1525 650 
z
M 2875 3225 
L 2875 2475 
L 4800 2475 
L 4800 3225 
L 2875 3225 
z
M 2875 2325 
L 2875 1575 
L 4800 1575 
L 4800 2325 
L 2875 2325 
z
M 2875 1425 
L 2875 675 
L 4800 675 
L 4800 1425 
L 2875 1425 
z
M 2875 525 
L 2875 -225 
L 4800 -225 
L 4800 525 
L 2875 525 
z
M 3550 4250 
Q 3575 4825 3550 5225 
L 4125 4950 
L 3925 4800 
L 3900 4250 
L 5025 4250 
L 5350 4575 
L 5825 4100 
L 3900 4100 
L 3875 3375 
L 4750 3375 
L 4975 3625 
L 5350 3300 
L 5125 3150 
L 5125 -225 
L 5350 -225 
L 5675 100 
L 6150 -375 
L 2450 -375 
Q 2125 -375 1850 -450 
L 1625 -225 
L 2550 -225 
L 2550 2550 
Q 2550 2850 2525 3575 
L 2875 3375 
L 3525 3375 
L 3550 4100 
L 2800 4100 
Q 2475 4100 2200 4025 
L 1975 4250 
L 3550 4250 
z
" transform="scale(0.015625)"/>
      </defs>
      <use xlink:href="#SimSun-7cfb"/>
      <use xlink:href="#SimSun-6570" transform="translate(100 0)"/>
      <use xlink:href="#SimSun-4f30" transform="translate(200 0)"/>
      <use xlink:href="#SimSun-8ba1" transform="translate(300 0)"/>
      <use xlink:href="#SimSun-503c" transform="translate(400 0)"/>
     </g>
    </g>
   </g>
   <g id="matplotlib.axis_2">
    <g id="ytick_1">
     <g id="line2d_7">
      <path d="M 260.410065 392.793302 
L 594.838452 392.793302 
" clip-path="url(#pe7a2b8ea62)" style="fill: none; stroke-dasharray: 1,1.65; stroke-dashoffset: 0; stroke: #cccccc; stroke-opacity: 0.22"/>
     </g>
    </g>
    <g id="ytick_2">
     <g id="line2d_8">
      <path d="M 260.410065 329.30556 
L 594.838452 329.30556 
" clip-path="url(#pe7a2b8ea62)" style="fill: none; stroke-dasharray: 1,1.65; stroke-dashoffset: 0; stroke: #cccccc; stroke-opacity: 0.22"/>
     </g>
    </g>
    <g id="ytick_3">
     <g id="line2d_9">
      <path d="M 260.410065 265.817819 
L 594.838452 265.817819 
" clip-path="url(#pe7a2b8ea62)" style="fill: none; stroke-dasharray: 1,1.65; stroke-dashoffset: 0; stroke: #cccccc; stroke-opacity: 0.22"/>
     </g>
    </g>
    <g id="ytick_4">
     <g id="line2d_10">
      <path d="M 260.410065 202.330077 
L 594.838452 202.330077 
" clip-path="url(#pe7a2b8ea62)" style="fill: none; stroke-dasharray: 1,1.65; stroke-dashoffset: 0; stroke: #cccccc; stroke-opacity: 0.22"/>
     </g>
    </g>
    <g id="ytick_5">
     <g id="line2d_11">
      <path d="M 260.410065 138.842335 
L 594.838452 138.842335 
" clip-path="url(#pe7a2b8ea62)" style="fill: none; stroke-dasharray: 1,1.65; stroke-dashoffset: 0; stroke: #cccccc; stroke-opacity: 0.22"/>
     </g>
    </g>
    <g id="ytick_6">
     <g id="line2d_12">
      <path d="M 260.410065 75.354593 
L 594.838452 75.354593 
" clip-path="url(#pe7a2b8ea62)" style="fill: none; stroke-dasharray: 1,1.65; stroke-dashoffset: 0; stroke: #cccccc; stroke-opacity: 0.22"/>
     </g>
    </g>
   </g>
   <g id="line2d_13">
    <path d="M 408.242151 430.885948 
L 408.242151 37.261948 
" clip-path="url(#pe7a2b8ea62)" style="fill: none; stroke: #7f7f7f; stroke-linecap: round"/>
   </g>
   <g id="LineCollection_1">
    <path d="M 322.528596 392.793302 
L 436.686976 392.793302 
" clip-path="url(#pe7a2b8ea62)" style="fill: none; stroke: #87beda; stroke-width: 1.6"/>
   </g>
   <g id="LineCollection_2">
    <path d="M 322.528596 399.142077 
L 322.528596 386.444528 
" clip-path="url(#pe7a2b8ea62)" style="fill: none; stroke: #87beda; stroke-width: 1.2"/>
    <path d="M 436.686976 399.142077 
L 436.686976 386.444528 
" clip-path="url(#pe7a2b8ea62)" style="fill: none; stroke: #87beda; stroke-width: 1.2"/>
   </g>
   <g id="LineCollection_3">
    <path d="M 412.125876 329.30556 
L 518.828519 329.30556 
" clip-path="url(#pe7a2b8ea62)" style="fill: none; stroke: #f7b99c; stroke-width: 1.6"/>
   </g>
   <g id="LineCollection_4">
    <path d="M 412.125876 335.654335 
L 412.125876 322.956786 
" clip-path="url(#pe7a2b8ea62)" style="fill: none; stroke: #f7b99c; stroke-width: 1.2"/>
    <path d="M 518.828519 335.654335 
L 518.828519 322.956786 
" clip-path="url(#pe7a2b8ea62)" style="fill: none; stroke: #f7b99c; stroke-width: 1.2"/>
   </g>
   <g id="LineCollection_5">
    <path d="M 339.896319 265.817819 
L 592.633283 265.817819 
" clip-path="url(#pe7a2b8ea62)" style="fill: none; stroke: #d25849; stroke-width: 1.6"/>
   </g>
   <g id="LineCollection_6">
    <path d="M 339.896319 272.166593 
L 339.896319 259.469044 
" clip-path="url(#pe7a2b8ea62)" style="fill: none; stroke: #d25849; stroke-width: 1.2"/>
    <path d="M 592.633283 272.166593 
L 592.633283 259.469044 
" clip-path="url(#pe7a2b8ea62)" style="fill: none; stroke: #d25849; stroke-width: 1.2"/>
   </g>
   <g id="LineCollection_7">
    <path d="M 267.682775 202.330077 
L 290.16038 202.330077 
" clip-path="url(#pe7a2b8ea62)" style="fill: none; stroke: #2c75b4; stroke-width: 1.6"/>
   </g>
   <g id="LineCollection_8">
    <path d="M 267.682775 208.678851 
L 267.682775 195.981302 
" clip-path="url(#pe7a2b8ea62)" style="fill: none; stroke: #2c75b4; stroke-width: 1.2"/>
    <path d="M 290.16038 208.678851 
L 290.16038 195.981302 
" clip-path="url(#pe7a2b8ea62)" style="fill: none; stroke: #2c75b4; stroke-width: 1.2"/>
   </g>
   <g id="LineCollection_9">
    <path d="M 386.98188 138.842335 
L 481.424743 138.842335 
" clip-path="url(#pe7a2b8ea62)" style="fill: none; stroke: #f8bfa4; stroke-width: 1.6"/>
   </g>
   <g id="LineCollection_10">
    <path d="M 386.98188 145.191109 
L 386.98188 132.49356 
" clip-path="url(#pe7a2b8ea62)" style="fill: none; stroke: #f8bfa4; stroke-width: 1.2"/>
    <path d="M 481.424743 145.191109 
L 481.424743 132.49356 
" clip-path="url(#pe7a2b8ea62)" style="fill: none; stroke: #f8bfa4; stroke-width: 1.2"/>
   </g>
   <g id="LineCollection_11">
    <path d="M 408.135291 75.354593 
L 492.904376 75.354593 
" clip-path="url(#pe7a2b8ea62)" style="fill: none; stroke: #f8bda1; stroke-width: 1.6"/>
   </g>
   <g id="LineCollection_12">
    <path d="M 408.135291 81.703367 
L 408.135291 69.005819 
" clip-path="url(#pe7a2b8ea62)" style="fill: none; stroke: #f8bda1; stroke-width: 1.2"/>
    <path d="M 492.904376 81.703367 
L 492.904376 69.005819 
" clip-path="url(#pe7a2b8ea62)" style="fill: none; stroke: #f8bda1; stroke-width: 1.2"/>
   </g>
   <g id="patch_3">
    <path d="M 260.410065 430.885948 
L 594.838452 430.885948 
" style="fill: none; stroke: #cccccc; stroke-width: 1.25; stroke-linejoin: miter; stroke-linecap: square"/>
   </g>
   <g id="PathCollection_1">
    <defs>
     <path id="mc5eee3743b" d="M -2.236068 2.236068 
L 2.236068 2.236068 
L 2.236068 -2.236068 
L -2.236068 -2.236068 
z
" style="stroke: #87beda; stroke-width: 0.5"/>
    </defs>
    <g clip-path="url(#pe7a2b8ea62)">
     <use xlink:href="#mc5eee3743b" x="359.876007" y="392.793302" style="fill: #87beda; stroke: #87beda; stroke-width: 0.5"/>
    </g>
   </g>
   <g id="PathCollection_2">
    <defs>
     <path id="m1fb2acb71c" d="M -2.236068 2.236068 
L 2.236068 2.236068 
L 2.236068 -2.236068 
L -2.236068 -2.236068 
z
" style="stroke: #f7b99c; stroke-width: 0.5"/>
    </defs>
    <g clip-path="url(#pe7a2b8ea62)">
     <use xlink:href="#m1fb2acb71c" x="500.262722" y="329.30556" style="fill: #f7b99c; stroke: #f7b99c; stroke-width: 0.5"/>
    </g>
   </g>
   <g id="PathCollection_3">
    <defs>
     <path id="m1830e02563" d="M -2.236068 2.236068 
L 2.236068 2.236068 
L 2.236068 -2.236068 
L -2.236068 -2.236068 
z
" style="stroke: #d25849; stroke-width: 0.5"/>
    </defs>
    <g clip-path="url(#pe7a2b8ea62)">
     <use xlink:href="#m1830e02563" x="573.327228" y="265.817819" style="fill: #d25849; stroke: #d25849; stroke-width: 0.5"/>
    </g>
   </g>
   <g id="PathCollection_4">
    <defs>
     <path id="mdef1ee90de" d="M -2.236068 2.236068 
L 2.236068 2.236068 
L 2.236068 -2.236068 
L -2.236068 -2.236068 
z
" style="stroke: #2c75b4; stroke-width: 0.5"/>
    </defs>
    <g clip-path="url(#pe7a2b8ea62)">
     <use xlink:href="#mdef1ee90de" x="276.668553" y="202.330077" style="fill: #2c75b4; stroke: #2c75b4; stroke-width: 0.5"/>
    </g>
   </g>
   <g id="PathCollection_5">
    <defs>
     <path id="me0760785be" d="M -2.236068 2.236068 
L 2.236068 2.236068 
L 2.236068 -2.236068 
L -2.236068 -2.236068 
z
" style="stroke: #f8bfa4; stroke-width: 0.5"/>
    </defs>
    <g clip-path="url(#pe7a2b8ea62)">
     <use xlink:href="#me0760785be" x="437.14375" y="138.842335" style="fill: #f8bfa4; stroke: #f8bfa4; stroke-width: 0.5"/>
    </g>
   </g>
   <g id="PathCollection_6">
    <defs>
     <path id="m0bb30d4af6" d="M -2.236068 2.236068 
L 2.236068 2.236068 
L 2.236068 -2.236068 
L -2.236068 -2.236068 
z
" style="stroke: #f8bda1; stroke-width: 0.5"/>
    </defs>
    <g clip-path="url(#pe7a2b8ea62)">
     <use xlink:href="#m0bb30d4af6" x="468.410426" y="75.354593" style="fill: #f8bda1; stroke: #f8bda1; stroke-width: 0.5"/>
    </g>
   </g>
   <g id="text_15">
    <!-- 基准回归系数森林图 -->
    <g style="fill: #262626" transform="translate(364.624258 31.261948) scale(0.14 -0.14)">
     <defs>
      <path id="SimSun-57fa" d="M 2925 875 
Q 2925 1500 2900 1975 
L 3475 1700 
L 3250 1550 
L 3250 875 
L 3925 875 
L 4225 1175 
L 4675 725 
L 3250 725 
L 3250 -200 
L 4825 -200 
L 5200 175 
L 5725 -350 
L 1400 -350 
Q 1075 -350 800 -425 
L 575 -200 
L 2925 -200 
L 2925 725 
L 2075 725 
L 1800 675 
L 1600 875 
L 2925 875 
z
M 4100 4400 
Q 4100 4850 4075 5225 
L 4650 4975 
L 4450 4800 
L 4450 4400 
L 5025 4400 
L 5350 4725 
L 5825 4250 
L 4450 4250 
L 4450 2225 
L 5050 2225 
L 5475 2650 
L 6050 2075 
L 4000 2075 
Q 4425 1575 5000 1350 
Q 5575 1125 6125 1075 
L 6125 975 
Q 5725 900 5675 650 
Q 5025 900 4550 1262 
Q 4075 1625 3850 2075 
L 2500 2075 
Q 2125 1475 1525 1062 
Q 925 650 275 450 
L 250 550 
Q 1000 900 1437 1312 
Q 1875 1725 2050 2075 
L 1125 2075 
Q 800 2075 525 2000 
L 300 2225 
L 1875 2225 
L 1875 4250 
L 1075 4250 
L 800 4200 
L 600 4400 
L 1875 4400 
Q 1875 4800 1850 5200 
L 2425 4925 
L 2225 4750 
L 2225 4400 
L 4100 4400 
z
M 2225 4250 
L 2225 3675 
L 4100 3675 
L 4100 4250 
L 2225 4250 
z
M 2225 3525 
L 2225 2950 
L 4100 2950 
L 4100 3525 
L 2225 3525 
z
M 2225 2800 
L 2225 2225 
L 4100 2225 
L 4100 2800 
L 2225 2800 
z
" transform="scale(0.015625)"/>
      <path id="SimSun-51c6" d="M 2575 -600 
Q 2600 300 2600 550 
L 2600 3375 
Q 2200 2725 1675 2200 
L 1600 2250 
Q 2100 2950 2462 3812 
Q 2825 4675 2925 5175 
L 3450 4850 
L 3250 4725 
Q 3025 4275 2875 3950 
L 5175 3950 
L 5525 4300 
L 6025 3800 
L 4450 3800 
L 4450 2775 
L 5000 2775 
L 5325 3100 
L 5800 2625 
L 4450 2625 
L 4450 1450 
L 5100 1450 
L 5425 1775 
L 5900 1300 
L 4450 1300 
L 4450 100 
L 5250 100 
L 5600 450 
L 6100 -50 
L 2950 -50 
L 2950 -425 
L 2575 -600 
z
M 4100 3800 
L 2950 3800 
L 2950 2775 
L 4100 2775 
L 4100 3800 
z
M 2950 2625 
L 2950 1450 
L 4100 1450 
L 4100 2625 
L 2950 2625 
z
M 2950 1300 
L 2950 100 
L 4100 100 
L 4100 1300 
L 2950 1300 
z
M 3875 5150 
L 3950 5200 
Q 4675 4725 4650 4500 
Q 4625 4275 4525 4187 
Q 4425 4100 4375 4100 
Q 4275 4100 4250 4350 
Q 4175 4675 3875 5150 
z
M 500 4875 
Q 1350 4375 1337 4137 
Q 1325 3900 1225 3787 
Q 1125 3675 1075 3675 
Q 1000 3675 925 3925 
Q 825 4275 450 4825 
L 500 4875 
z
M 300 1825 
Q 625 1825 862 1887 
Q 1100 1950 2100 4500 
L 2200 4475 
Q 1750 3150 1500 2450 
Q 1225 1750 1200 1137 
Q 1175 525 1200 175 
Q 1200 -200 1012 -137 
Q 825 -75 750 37 
Q 675 150 675 300 
Q 675 450 700 550 
Q 775 850 825 1100 
Q 875 1350 787 1500 
Q 700 1650 300 1725 
L 300 1825 
z
" transform="scale(0.015625)"/>
      <path id="SimSun-56de" d="M 2450 3200 
L 2450 1800 
L 3925 1800 
L 3925 3200 
L 2450 3200 
z
M 2100 1100 
Q 2125 1650 2125 2312 
Q 2125 2975 2100 3575 
L 2475 3350 
L 3900 3350 
L 4075 3575 
L 4475 3300 
L 4275 3125 
Q 4275 1750 4300 1350 
L 3925 1200 
L 3925 1650 
L 2450 1650 
L 2450 1250 
L 2100 1100 
z
M 5500 4475 
L 5500 1075 
Q 5500 500 5525 -250 
L 5175 -400 
L 5175 100 
L 1250 100 
L 1250 -375 
L 875 -525 
Q 900 150 900 2200 
Q 900 4250 875 4925 
L 1250 4700 
L 5150 4700 
L 5300 4950 
L 5700 4675 
L 5500 4475 
z
M 1250 4550 
L 1250 250 
L 5175 250 
L 5175 4550 
L 1250 4550 
z
" transform="scale(0.015625)"/>
      <path id="SimSun-5f52" d="M 1275 3950 
Q 1275 1675 1300 1075 
L 900 875 
Q 925 1775 925 2800 
Q 925 3825 900 4450 
L 1450 4150 
L 1275 3950 
z
M 500 -575 
Q 1125 -125 1550 462 
Q 1975 1050 2050 2000 
Q 2125 2950 2125 3775 
Q 2125 4600 2100 5200 
L 2725 4925 
L 2500 4725 
Q 2500 2750 2375 1812 
Q 2250 875 1725 300 
Q 1200 -275 550 -650 
L 500 -575 
z
M 5650 4000 
L 5650 1075 
Q 5650 400 5675 -250 
L 5275 -400 
L 5275 275 
L 3250 275 
Q 2925 275 2650 200 
L 2425 425 
L 5275 425 
L 5275 2300 
L 3650 2300 
Q 3325 2300 3050 2225 
L 2825 2450 
L 5275 2450 
L 5275 4100 
L 3525 4100 
Q 3200 4100 2925 4025 
L 2700 4250 
L 5225 4250 
L 5450 4500 
L 5850 4150 
L 5650 4000 
z
" transform="scale(0.015625)"/>
      <path id="SimSun-68ee" d="M 3025 4400 
Q 3025 4750 3000 5250 
L 3600 4975 
L 3375 4800 
L 3375 4400 
L 4900 4400 
L 5250 4750 
L 5750 4250 
L 3600 4250 
Q 4375 3150 5975 2825 
L 5975 2725 
Q 5525 2700 5425 2450 
Q 4050 3025 3475 4250 
L 3375 4250 
Q 3375 3375 3400 2400 
L 3000 2250 
Q 3025 3350 3025 4050 
Q 2125 2900 475 2275 
L 425 2350 
Q 1875 3075 2700 4250 
L 1375 4250 
Q 1050 4250 775 4175 
L 550 4400 
L 3025 4400 
z
M 1625 -650 
Q 1650 275 1650 1275 
Q 1150 450 300 -150 
L 250 -75 
Q 1125 750 1550 1825 
L 700 1825 
L 475 1775 
L 275 1975 
L 1650 1975 
Q 1650 2425 1625 2775 
L 2200 2500 
L 1975 2350 
L 1975 1975 
L 2300 1975 
L 2575 2250 
L 3000 1825 
L 1975 1825 
L 1975 1450 
Q 2475 1300 2637 1175 
Q 2800 1050 2800 875 
Q 2800 850 2762 712 
Q 2725 575 2675 575 
Q 2600 575 2500 750 
Q 2325 1025 1975 1325 
Q 1975 275 2000 -475 
L 1625 -650 
z
M 4150 1975 
Q 4150 2325 4125 2900 
L 4725 2600 
L 4475 2450 
L 4475 1975 
L 5225 1975 
L 5525 2275 
L 5975 1825 
L 4625 1825 
Q 5175 575 6100 300 
L 6100 200 
Q 5700 225 5575 -50 
Q 4800 625 4500 1825 
L 4475 1825 
Q 4475 425 4500 -500 
L 4125 -650 
Q 4150 275 4150 1500 
Q 3550 475 2475 -200 
L 2425 -125 
Q 3450 750 3900 1825 
L 3425 1825 
L 3200 1775 
L 3000 1975 
L 4150 1975 
z
" transform="scale(0.015625)"/>
      <path id="SimSun-6797" d="M 3975 -625 
Q 4000 625 4000 2850 
Q 3350 1425 2275 550 
L 2225 625 
Q 3400 1850 3875 3600 
L 3350 3600 
L 3125 3550 
L 2925 3750 
L 4000 3750 
Q 4000 4650 3975 5250 
L 4575 4975 
L 4350 4825 
L 4350 3750 
L 5100 3750 
L 5425 4075 
L 5900 3600 
L 4425 3600 
Q 5025 1500 6150 1025 
L 6150 925 
Q 5700 925 5625 675 
Q 4675 1725 4350 3500 
Q 4350 0 4375 -425 
L 3975 -625 
z
M 1975 2775 
Q 1975 -25 2000 -450 
L 1600 -650 
Q 1625 550 1625 2425 
Q 1150 1475 325 650 
L 275 725 
Q 1275 2025 1625 3575 
L 800 3575 
L 600 3525 
L 400 3725 
L 1625 3725 
Q 1625 4550 1600 5250 
L 2200 4950 
L 1975 4775 
L 1975 3725 
L 2200 3725 
L 2475 4000 
L 2900 3575 
L 1975 3575 
L 1975 2900 
Q 2525 2625 2675 2450 
Q 2825 2275 2825 2150 
Q 2825 2050 2750 1900 
Q 2675 1750 2625 1750 
Q 2550 1750 2475 2000 
Q 2350 2350 1975 2775 
z
" transform="scale(0.015625)"/>
      <path id="SimSun-56fe" d="M 5675 4700 
L 5675 550 
Q 5675 50 5700 -350 
L 5325 -550 
L 5325 -50 
L 1250 -50 
L 1250 -450 
L 875 -600 
Q 900 -100 900 425 
L 900 4200 
Q 900 4625 875 5150 
L 1250 4925 
L 5275 4925 
L 5450 5175 
L 5850 4850 
L 5675 4700 
z
M 1250 4775 
L 1250 1700 
Q 2425 2200 3075 2825 
Q 2750 3275 2500 3850 
Q 2100 3225 1650 2800 
L 1575 2850 
Q 1975 3375 2250 3937 
Q 2525 4500 2575 4775 
L 1250 4775 
z
M 1250 100 
L 5325 100 
L 5325 4775 
L 2625 4775 
L 3050 4550 
L 2900 4475 
Q 2750 4250 2675 4125 
L 4000 4125 
L 4175 4350 
L 4550 4000 
L 4350 3875 
Q 3925 3275 3475 2775 
Q 4250 2200 5250 2100 
L 5250 2000 
Q 4875 1975 4775 1700 
Q 3900 2025 3250 2600 
Q 2375 1900 1250 1575 
L 1250 100 
z
M 2600 3975 
Q 2950 3350 3275 3000 
Q 3625 3400 3975 3975 
L 2600 3975 
z
M 2750 2050 
Q 3350 1925 3600 1825 
Q 3850 1725 3825 1487 
Q 3800 1250 3725 1250 
Q 3650 1250 3550 1375 
Q 3300 1625 2725 1975 
L 2750 2050 
z
M 2275 1150 
Q 3425 1025 3787 912 
Q 4150 800 4175 525 
Q 4200 250 4075 250 
Q 4000 250 3825 400 
Q 3450 700 2275 1050 
L 2275 1150 
z
" transform="scale(0.015625)"/>
     </defs>
     <use xlink:href="#SimSun-57fa"/>
     <use xlink:href="#SimSun-51c6" transform="translate(100 0)"/>
     <use xlink:href="#SimSun-56de" transform="translate(200 0)"/>
     <use xlink:href="#SimSun-5f52" transform="translate(300 0)"/>
     <use xlink:href="#SimSun-7cfb" transform="translate(400 0)"/>
     <use xlink:href="#SimSun-6570" transform="translate(500 0)"/>
     <use xlink:href="#SimSun-68ee" transform="translate(600 0)"/>
     <use xlink:href="#SimSun-6797" transform="translate(700 0)"/>
     <use xlink:href="#SimSun-56fe" transform="translate(800 0)"/>
    </g>
   </g>
  </g>
  <g id="axes_3">
   <g id="text_16">
    <!-- coef (95% CI) -->
    <g transform="translate(614.904155 15.64875) scale(0.12 -0.12)">
     <defs>
      <path id="TimesNewRomanPS-BoldMT-63" d="M 2600 753 
L 2697 678 
Q 2491 291 2183 101 
Q 1875 -88 1528 -88 
Q 944 -88 594 353 
Q 244 794 244 1413 
Q 244 2009 563 2463 
Q 947 3009 1622 3009 
Q 2075 3009 2342 2781 
Q 2609 2553 2609 2272 
Q 2609 2094 2501 1987 
Q 2394 1881 2219 1881 
Q 2034 1881 1914 2003 
Q 1794 2125 1766 2438 
Q 1747 2634 1675 2713 
Q 1603 2791 1506 2791 
Q 1356 2791 1250 2631 
Q 1088 2391 1088 1894 
Q 1088 1481 1219 1104 
Q 1350 728 1578 544 
Q 1750 409 1984 409 
Q 2138 409 2275 481 
Q 2413 553 2600 753 
z
" transform="scale(0.015625)"/>
      <path id="TimesNewRomanPS-BoldMT-6f" d="M 1594 3009 
Q 1975 3009 2303 2812 
Q 2631 2616 2801 2253 
Q 2972 1891 2972 1459 
Q 2972 838 2656 419 
Q 2275 -88 1603 -88 
Q 944 -88 587 375 
Q 231 838 231 1447 
Q 231 2075 595 2542 
Q 959 3009 1594 3009 
z
M 1606 2788 
Q 1447 2788 1333 2667 
Q 1219 2547 1183 2192 
Q 1147 1838 1147 1206 
Q 1147 872 1191 581 
Q 1225 359 1337 243 
Q 1450 128 1594 128 
Q 1734 128 1828 206 
Q 1950 313 1991 503 
Q 2053 800 2053 1703 
Q 2053 2234 1993 2432 
Q 1934 2631 1819 2722 
Q 1738 2788 1606 2788 
z
" transform="scale(0.015625)"/>
      <path id="TimesNewRomanPS-BoldMT-65" d="M 2691 1566 
L 1088 1566 
Q 1116 984 1397 647 
Q 1613 388 1916 388 
Q 2103 388 2256 492 
Q 2409 597 2584 869 
L 2691 800 
Q 2453 316 2165 114 
Q 1878 -88 1500 -88 
Q 850 -88 516 413 
Q 247 816 247 1413 
Q 247 2144 642 2576 
Q 1038 3009 1569 3009 
Q 2013 3009 2339 2645 
Q 2666 2281 2691 1566 
z
M 1922 1775 
Q 1922 2278 1867 2465 
Q 1813 2653 1697 2750 
Q 1631 2806 1522 2806 
Q 1359 2806 1256 2647 
Q 1072 2369 1072 1884 
L 1072 1775 
L 1922 1775 
z
" transform="scale(0.015625)"/>
      <path id="TimesNewRomanPS-BoldMT-66" d="M 1497 2616 
L 1497 588 
Q 1497 294 1559 219 
Q 1659 103 1928 113 
L 1928 0 
L 206 0 
L 206 113 
Q 403 116 486 158 
Q 569 200 600 275 
Q 631 350 631 588 
L 631 2616 
L 206 2616 
L 206 2922 
L 631 2922 
L 631 3138 
L 628 3284 
Q 628 3734 958 4034 
Q 1288 4334 1850 4334 
Q 2234 4334 2420 4190 
Q 2606 4047 2606 3872 
Q 2606 3731 2490 3628 
Q 2375 3525 2184 3525 
Q 2022 3525 1926 3609 
Q 1831 3694 1831 3797 
Q 1831 3825 1850 3913 
Q 1863 3966 1863 4013 
Q 1863 4078 1825 4109 
Q 1775 4156 1703 4156 
Q 1613 4156 1552 4081 
Q 1491 4006 1491 3841 
L 1497 3294 
L 1497 2922 
L 1928 2922 
L 1928 2616 
L 1497 2616 
z
" transform="scale(0.015625)"/>
      <path id="TimesNewRomanPS-BoldMT-20" transform="scale(0.015625)"/>
      <path id="TimesNewRomanPS-BoldMT-28" d="M 2056 4334 
L 2056 4191 
Q 1731 3978 1578 3775 
Q 1366 3494 1247 3053 
Q 1097 2506 1097 1525 
Q 1097 600 1233 87 
Q 1369 -425 1603 -741 
Q 1766 -959 2056 -1125 
L 2056 -1281 
Q 1303 -1028 779 -248 
Q 256 531 256 1544 
Q 256 2544 778 3314 
Q 1300 4084 2056 4334 
z
" transform="scale(0.015625)"/>
      <path id="TimesNewRomanPS-BoldMT-39" d="M 197 -88 
L 197 0 
Q 716 119 1077 350 
Q 1438 581 1648 922 
Q 1859 1263 1944 1706 
Q 1750 1606 1614 1567 
Q 1478 1528 1328 1528 
Q 847 1528 526 1875 
Q 206 2222 206 2825 
Q 206 3244 379 3592 
Q 553 3941 875 4133 
Q 1197 4325 1544 4325 
Q 1916 4325 2247 4112 
Q 2578 3900 2775 3497 
Q 2972 3094 2972 2578 
Q 2972 1909 2651 1296 
Q 2331 684 1697 314 
Q 1063 -56 197 -88 
z
M 1991 1969 
Q 2022 2319 2022 2584 
Q 2022 3153 1891 3644 
Q 1816 3916 1669 4044 
Q 1591 4113 1466 4113 
Q 1309 4113 1222 3978 
Q 1100 3794 1100 3275 
Q 1100 2409 1306 2081 
Q 1441 1869 1669 1869 
Q 1791 1869 1991 1969 
z
" transform="scale(0.015625)"/>
      <path id="TimesNewRomanPS-BoldMT-35" d="M 975 4238 
L 2959 4238 
L 2644 3431 
L 975 3431 
L 816 3009 
Q 1894 2969 2475 2472 
Q 2953 2063 2953 1453 
Q 2953 1063 2731 689 
Q 2509 316 2106 114 
Q 1703 -88 1222 -88 
Q 703 -88 425 106 
Q 231 244 231 419 
Q 231 553 332 656 
Q 434 759 569 759 
Q 691 759 816 709 
Q 941 659 1244 447 
Q 1434 316 1572 266 
Q 1669 228 1791 228 
Q 2047 228 2226 415 
Q 2406 603 2406 866 
Q 2406 1416 1856 1759 
Q 1306 2103 469 2103 
Q 384 2103 216 2100 
L 975 4238 
z
" transform="scale(0.015625)"/>
      <path id="TimesNewRomanPS-BoldMT-25" d="M 4916 4334 
L 1906 -178 
L 1488 -178 
L 4494 4334 
L 4916 4334 
z
M 1494 4334 
Q 1938 4334 2242 4020 
Q 2547 3706 2547 3209 
Q 2547 2700 2240 2383 
Q 1934 2066 1481 2066 
Q 1034 2066 739 2372 
Q 444 2678 444 3178 
Q 444 3694 747 4014 
Q 1050 4334 1494 4334 
z
M 1494 4169 
Q 1425 4169 1381 4128 
Q 1303 4056 1264 3879 
Q 1225 3703 1225 3150 
Q 1225 2709 1278 2469 
Q 1309 2331 1384 2263 
Q 1431 2222 1494 2222 
Q 1563 2222 1603 2259 
Q 1675 2325 1709 2472 
Q 1763 2709 1763 3138 
Q 1763 3663 1713 3897 
Q 1678 4059 1600 4134 
Q 1563 4169 1494 4169 
z
M 4894 2097 
Q 5347 2097 5651 1786 
Q 5956 1475 5956 972 
Q 5956 463 5647 144 
Q 5338 -175 4900 -175 
Q 4466 -175 4161 144 
Q 3856 463 3856 963 
Q 3856 1466 4153 1781 
Q 4450 2097 4894 2097 
z
M 4903 1934 
Q 4841 1934 4797 1897 
Q 4722 1828 4681 1658 
Q 4641 1488 4641 1006 
Q 4641 494 4688 269 
Q 4722 109 4803 38 
Q 4844 0 4909 0 
Q 4969 0 5006 34 
Q 5084 106 5122 269 
Q 5175 497 5175 959 
Q 5175 1447 5125 1672 
Q 5088 1834 5013 1900 
Q 4975 1934 4903 1934 
z
" transform="scale(0.015625)"/>
      <path id="TimesNewRomanPS-BoldMT-43" d="M 4272 4334 
L 4272 2866 
L 4150 2866 
Q 4013 3441 3638 3747 
Q 3263 4053 2788 4053 
Q 2391 4053 2059 3825 
Q 1728 3597 1575 3228 
Q 1378 2756 1378 2178 
Q 1378 1609 1522 1142 
Q 1666 675 1972 436 
Q 2278 197 2766 197 
Q 3166 197 3498 372 
Q 3831 547 4200 975 
L 4200 609 
Q 3844 238 3458 70 
Q 3072 -97 2556 -97 
Q 1878 -97 1351 175 
Q 825 447 539 956 
Q 253 1466 253 2041 
Q 253 2647 570 3190 
Q 888 3734 1427 4034 
Q 1966 4334 2572 4334 
Q 3019 4334 3516 4141 
Q 3803 4028 3881 4028 
Q 3981 4028 4054 4101 
Q 4128 4175 4150 4334 
L 4272 4334 
z
" transform="scale(0.015625)"/>
      <path id="TimesNewRomanPS-BoldMT-49" d="M 2344 116 
L 2344 0 
L 128 0 
L 128 116 
L 269 116 
Q 453 116 566 181 
Q 647 225 691 331 
Q 725 406 725 725 
L 725 3513 
Q 725 3838 690 3919 
Q 656 4000 551 4061 
Q 447 4122 269 4122 
L 128 4122 
L 128 4238 
L 2344 4238 
L 2344 4122 
L 2203 4122 
Q 2019 4122 1906 4056 
Q 1825 4013 1778 3906 
Q 1744 3831 1744 3513 
L 1744 725 
Q 1744 400 1780 319 
Q 1816 238 1920 177 
Q 2025 116 2203 116 
L 2344 116 
z
" transform="scale(0.015625)"/>
      <path id="TimesNewRomanPS-BoldMT-29" d="M 78 -1281 
L 78 -1138 
Q 403 -922 556 -719 
Q 766 -438 888 0 
Q 1038 550 1038 1531 
Q 1038 2456 902 2967 
Q 766 3478 531 3794 
Q 369 4013 78 4178 
L 78 4334 
Q 831 4081 1354 3301 
Q 1878 2522 1878 1509 
Q 1878 513 1354 -257 
Q 831 -1028 78 -1281 
z
" transform="scale(0.015625)"/>
     </defs>
     <use xlink:href="#TimesNewRomanPS-BoldMT-63"/>
     <use xlink:href="#TimesNewRomanPS-BoldMT-6f" transform="translate(44.384766 0)"/>
     <use xlink:href="#TimesNewRomanPS-BoldMT-65" transform="translate(94.384766 0)"/>
     <use xlink:href="#TimesNewRomanPS-BoldMT-66" transform="translate(138.769531 0)"/>
     <use xlink:href="#TimesNewRomanPS-BoldMT-20" transform="translate(172.070312 0)"/>
     <use xlink:href="#TimesNewRomanPS-BoldMT-28" transform="translate(197.070312 0)"/>
     <use xlink:href="#TimesNewRomanPS-BoldMT-39" transform="translate(230.371094 0)"/>
     <use xlink:href="#TimesNewRomanPS-BoldMT-35" transform="translate(280.371094 0)"/>
     <use xlink:href="#TimesNewRomanPS-BoldMT-25" transform="translate(330.371094 0)"/>
     <use xlink:href="#TimesNewRomanPS-BoldMT-20" transform="translate(430.371094 0)"/>
     <use xlink:href="#TimesNewRomanPS-BoldMT-43" transform="translate(455.371094 0)"/>
     <use xlink:href="#TimesNewRomanPS-BoldMT-49" transform="translate(527.587891 0)"/>
     <use xlink:href="#TimesNewRomanPS-BoldMT-29" transform="translate(566.503906 0)"/>
    </g>
   </g>
   <g id="text_17">
    <!-- p -->
    <g transform="translate(883.417817 15.64875) scale(0.12 -0.12)">
     <defs>
      <path id="TimesNewRomanPS-BoldMT-70" d="M 1347 297 
L 1347 -791 
Q 1347 -1016 1383 -1097 
Q 1419 -1178 1494 -1215 
Q 1569 -1253 1788 -1253 
L 1788 -1369 
L 122 -1369 
L 122 -1253 
Q 316 -1247 409 -1144 
Q 472 -1072 472 -772 
L 472 2313 
Q 472 2622 400 2708 
Q 328 2794 122 2806 
L 122 2922 
L 1347 2922 
L 1347 2538 
Q 1500 2763 1659 2863 
Q 1888 3009 2156 3009 
Q 2478 3009 2742 2806 
Q 3006 2603 3143 2245 
Q 3281 1888 3281 1475 
Q 3281 1031 3139 664 
Q 2997 297 2726 104 
Q 2456 -88 2125 -88 
Q 1884 -88 1675 19 
Q 1519 100 1347 297 
z
M 1347 613 
Q 1616 231 1922 231 
Q 2091 231 2200 409 
Q 2363 672 2363 1409 
Q 2363 2166 2184 2444 
Q 2066 2628 1866 2628 
Q 1550 2628 1347 2172 
L 1347 613 
z
" transform="scale(0.015625)"/>
     </defs>
     <use xlink:href="#TimesNewRomanPS-BoldMT-70"/>
    </g>
   </g>
   <g id="text_18">
    <!-- -0.1386 (-0.3588, 0.0815) -->
    <g transform="translate(614.904155 395.483927) scale(0.112 -0.112)">
     <defs>
      <path id="TimesNewRomanPSMT-33" d="M 325 3431 
Q 506 3859 782 4092 
Q 1059 4325 1472 4325 
Q 1981 4325 2253 3994 
Q 2459 3747 2459 3466 
Q 2459 3003 1878 2509 
Q 2269 2356 2469 2072 
Q 2669 1788 2669 1403 
Q 2669 853 2319 450 
Q 1863 -75 997 -75 
Q 569 -75 414 31 
Q 259 138 259 259 
Q 259 350 332 419 
Q 406 488 509 488 
Q 588 488 669 463 
Q 722 447 909 348 
Q 1097 250 1169 231 
Q 1284 197 1416 197 
Q 1734 197 1970 444 
Q 2206 691 2206 1028 
Q 2206 1275 2097 1509 
Q 2016 1684 1919 1775 
Q 1784 1900 1550 2001 
Q 1316 2103 1072 2103 
L 972 2103 
L 972 2197 
Q 1219 2228 1467 2375 
Q 1716 2522 1828 2728 
Q 1941 2934 1941 3181 
Q 1941 3503 1739 3701 
Q 1538 3900 1238 3900 
Q 753 3900 428 3381 
L 325 3431 
z
" transform="scale(0.015625)"/>
      <path id="TimesNewRomanPSMT-38" d="M 1228 2134 
Q 725 2547 579 2797 
Q 434 3047 434 3316 
Q 434 3728 753 4026 
Q 1072 4325 1600 4325 
Q 2113 4325 2425 4047 
Q 2738 3769 2738 3413 
Q 2738 3175 2569 2928 
Q 2400 2681 1866 2347 
Q 2416 1922 2594 1678 
Q 2831 1359 2831 1006 
Q 2831 559 2490 242 
Q 2150 -75 1597 -75 
Q 994 -75 656 303 
Q 388 606 388 966 
Q 388 1247 577 1523 
Q 766 1800 1228 2134 
z
M 1719 2469 
Q 2094 2806 2194 3001 
Q 2294 3197 2294 3444 
Q 2294 3772 2109 3958 
Q 1925 4144 1606 4144 
Q 1288 4144 1088 3959 
Q 888 3775 888 3528 
Q 888 3366 970 3203 
Q 1053 3041 1206 2894 
L 1719 2469 
z
M 1375 2016 
Q 1116 1797 991 1539 
Q 866 1281 866 981 
Q 866 578 1086 336 
Q 1306 94 1647 94 
Q 1984 94 2187 284 
Q 2391 475 2391 747 
Q 2391 972 2272 1150 
Q 2050 1481 1375 2016 
z
" transform="scale(0.015625)"/>
      <path id="TimesNewRomanPSMT-36" d="M 2869 4325 
L 2869 4209 
Q 2456 4169 2195 4045 
Q 1934 3922 1679 3669 
Q 1425 3416 1258 3105 
Q 1091 2794 978 2366 
Q 1428 2675 1881 2675 
Q 2316 2675 2634 2325 
Q 2953 1975 2953 1425 
Q 2953 894 2631 456 
Q 2244 -75 1606 -75 
Q 1172 -75 869 213 
Q 275 772 275 1663 
Q 275 2231 503 2743 
Q 731 3256 1154 3653 
Q 1578 4050 1965 4187 
Q 2353 4325 2688 4325 
L 2869 4325 
z
M 925 2138 
Q 869 1716 869 1456 
Q 869 1156 980 804 
Q 1091 453 1309 247 
Q 1469 100 1697 100 
Q 1969 100 2183 356 
Q 2397 613 2397 1088 
Q 2397 1622 2184 2012 
Q 1972 2403 1581 2403 
Q 1463 2403 1327 2353 
Q 1191 2303 925 2138 
z
" transform="scale(0.015625)"/>
      <path id="TimesNewRomanPSMT-20" transform="scale(0.015625)"/>
      <path id="TimesNewRomanPSMT-28" d="M 1988 -1253 
L 1988 -1369 
Q 1516 -1131 1200 -813 
Q 750 -359 506 256 
Q 263 872 263 1534 
Q 263 2503 741 3301 
Q 1219 4100 1988 4444 
L 1988 4313 
Q 1603 4100 1356 3731 
Q 1109 3363 987 2797 
Q 866 2231 866 1616 
Q 866 947 969 400 
Q 1050 -31 1165 -292 
Q 1281 -553 1476 -793 
Q 1672 -1034 1988 -1253 
z
" transform="scale(0.015625)"/>
      <path id="TimesNewRomanPSMT-35" d="M 2778 4238 
L 2534 3706 
L 1259 3706 
L 981 3138 
Q 1809 3016 2294 2522 
Q 2709 2097 2709 1522 
Q 2709 1188 2573 903 
Q 2438 619 2231 419 
Q 2025 219 1772 97 
Q 1413 -75 1034 -75 
Q 653 -75 479 54 
Q 306 184 306 341 
Q 306 428 378 495 
Q 450 563 559 563 
Q 641 563 702 538 
Q 763 513 909 409 
Q 1144 247 1384 247 
Q 1750 247 2026 523 
Q 2303 800 2303 1197 
Q 2303 1581 2056 1914 
Q 1809 2247 1375 2428 
Q 1034 2569 447 2591 
L 1259 4238 
L 2778 4238 
z
" transform="scale(0.015625)"/>
      <path id="TimesNewRomanPSMT-2c" d="M 344 -1066 
L 344 -928 
Q 666 -822 842 -598 
Q 1019 -375 1019 -125 
Q 1019 -66 991 -25 
Q 969 3 947 3 
Q 913 3 797 -59 
Q 741 -88 678 -88 
Q 525 -88 434 3 
Q 344 94 344 253 
Q 344 406 461 515 
Q 578 625 747 625 
Q 953 625 1114 445 
Q 1275 266 1275 -31 
Q 1275 -353 1051 -629 
Q 828 -906 344 -1066 
z
" transform="scale(0.015625)"/>
      <path id="TimesNewRomanPSMT-29" d="M 144 4313 
L 144 4444 
Q 619 4209 934 3891 
Q 1381 3434 1625 2820 
Q 1869 2206 1869 1541 
Q 1869 572 1392 -226 
Q 916 -1025 144 -1369 
L 144 -1253 
Q 528 -1038 776 -670 
Q 1025 -303 1145 264 
Q 1266 831 1266 1447 
Q 1266 2113 1163 2663 
Q 1084 3094 967 3353 
Q 850 3613 656 3853 
Q 463 4094 144 4313 
z
" transform="scale(0.015625)"/>
     </defs>
     <use xlink:href="#TimesNewRomanPSMT-2d"/>
     <use xlink:href="#TimesNewRomanPSMT-30" transform="translate(33.300781 0)"/>
     <use xlink:href="#TimesNewRomanPSMT-2e" transform="translate(83.300781 0)"/>
     <use xlink:href="#TimesNewRomanPSMT-31" transform="translate(108.300781 0)"/>
     <use xlink:href="#TimesNewRomanPSMT-33" transform="translate(158.300781 0)"/>
     <use xlink:href="#TimesNewRomanPSMT-38" transform="translate(208.300781 0)"/>
     <use xlink:href="#TimesNewRomanPSMT-36" transform="translate(258.300781 0)"/>
     <use xlink:href="#TimesNewRomanPSMT-20" transform="translate(308.300781 0)"/>
     <use xlink:href="#TimesNewRomanPSMT-28" transform="translate(333.300781 0)"/>
     <use xlink:href="#TimesNewRomanPSMT-2d" transform="translate(366.601562 0)"/>
     <use xlink:href="#TimesNewRomanPSMT-30" transform="translate(399.902344 0)"/>
     <use xlink:href="#TimesNewRomanPSMT-2e" transform="translate(449.902344 0)"/>
     <use xlink:href="#TimesNewRomanPSMT-33" transform="translate(474.902344 0)"/>
     <use xlink:href="#TimesNewRomanPSMT-35" transform="translate(524.902344 0)"/>
     <use xlink:href="#TimesNewRomanPSMT-38" transform="translate(574.902344 0)"/>
     <use xlink:href="#TimesNewRomanPSMT-38" transform="translate(624.902344 0)"/>
     <use xlink:href="#TimesNewRomanPSMT-2c" transform="translate(674.902344 0)"/>
     <use xlink:href="#TimesNewRomanPSMT-20" transform="translate(699.902344 0)"/>
     <use xlink:href="#TimesNewRomanPSMT-30" transform="translate(724.902344 0)"/>
     <use xlink:href="#TimesNewRomanPSMT-2e" transform="translate(774.902344 0)"/>
     <use xlink:href="#TimesNewRomanPSMT-30" transform="translate(799.902344 0)"/>
     <use xlink:href="#TimesNewRomanPSMT-38" transform="translate(849.902344 0)"/>
     <use xlink:href="#TimesNewRomanPSMT-31" transform="translate(899.902344 0)"/>
     <use xlink:href="#TimesNewRomanPSMT-35" transform="translate(949.902344 0)"/>
     <use xlink:href="#TimesNewRomanPSMT-29" transform="translate(999.902344 0)"/>
    </g>
   </g>
   <g id="text_19">
    <!-- 0.2158 -->
    <g transform="translate(859.290942 395.483927) scale(0.112 -0.112)">
     <defs>
      <path id="TimesNewRomanPSMT-32" d="M 2934 816 
L 2638 0 
L 138 0 
L 138 116 
Q 1241 1122 1691 1759 
Q 2141 2397 2141 2925 
Q 2141 3328 1894 3587 
Q 1647 3847 1303 3847 
Q 991 3847 742 3664 
Q 494 3481 375 3128 
L 259 3128 
Q 338 3706 661 4015 
Q 984 4325 1469 4325 
Q 1984 4325 2329 3994 
Q 2675 3663 2675 3213 
Q 2675 2891 2525 2569 
Q 2294 2063 1775 1497 
Q 997 647 803 472 
L 1909 472 
Q 2247 472 2383 497 
Q 2519 522 2628 598 
Q 2738 675 2819 816 
L 2934 816 
z
" transform="scale(0.015625)"/>
     </defs>
     <use xlink:href="#TimesNewRomanPSMT-30"/>
     <use xlink:href="#TimesNewRomanPSMT-2e" transform="translate(50 0)"/>
     <use xlink:href="#TimesNewRomanPSMT-32" transform="translate(75 0)"/>
     <use xlink:href="#TimesNewRomanPSMT-31" transform="translate(125 0)"/>
     <use xlink:href="#TimesNewRomanPSMT-35" transform="translate(175 0)"/>
     <use xlink:href="#TimesNewRomanPSMT-38" transform="translate(225 0)"/>
    </g>
   </g>
   <g id="text_20">
    <!-- 0.4522 (0.0111, 0.8932) -->
    <g transform="translate(614.904155 331.996185) scale(0.112 -0.112)">
     <defs>
      <path id="TimesNewRomanPSMT-34" d="M 2978 1563 
L 2978 1119 
L 2409 1119 
L 2409 0 
L 1894 0 
L 1894 1119 
L 100 1119 
L 100 1519 
L 2066 4325 
L 2409 4325 
L 2409 1563 
L 2978 1563 
z
M 1894 1563 
L 1894 3666 
L 406 1563 
L 1894 1563 
z
" transform="scale(0.015625)"/>
      <path id="TimesNewRomanPSMT-39" d="M 338 -88 
L 338 28 
Q 744 34 1094 217 
Q 1444 400 1770 856 
Q 2097 1313 2225 1859 
Q 1734 1544 1338 1544 
Q 891 1544 572 1889 
Q 253 2234 253 2806 
Q 253 3363 572 3797 
Q 956 4325 1575 4325 
Q 2097 4325 2469 3894 
Q 2925 3359 2925 2575 
Q 2925 1869 2578 1258 
Q 2231 647 1613 244 
Q 1109 -88 516 -88 
L 338 -88 
z
M 2275 2091 
Q 2331 2497 2331 2741 
Q 2331 3044 2228 3395 
Q 2125 3747 1936 3934 
Q 1747 4122 1506 4122 
Q 1228 4122 1018 3872 
Q 809 3622 809 3128 
Q 809 2469 1088 2097 
Q 1291 1828 1588 1828 
Q 1731 1828 1928 1897 
Q 2125 1966 2275 2091 
z
" transform="scale(0.015625)"/>
     </defs>
     <use xlink:href="#TimesNewRomanPSMT-30"/>
     <use xlink:href="#TimesNewRomanPSMT-2e" transform="translate(50 0)"/>
     <use xlink:href="#TimesNewRomanPSMT-34" transform="translate(75 0)"/>
     <use xlink:href="#TimesNewRomanPSMT-35" transform="translate(125 0)"/>
     <use xlink:href="#TimesNewRomanPSMT-32" transform="translate(175 0)"/>
     <use xlink:href="#TimesNewRomanPSMT-32" transform="translate(225 0)"/>
     <use xlink:href="#TimesNewRomanPSMT-20" transform="translate(275 0)"/>
     <use xlink:href="#TimesNewRomanPSMT-28" transform="translate(300 0)"/>
     <use xlink:href="#TimesNewRomanPSMT-30" transform="translate(333.300781 0)"/>
     <use xlink:href="#TimesNewRomanPSMT-2e" transform="translate(383.300781 0)"/>
     <use xlink:href="#TimesNewRomanPSMT-30" transform="translate(408.300781 0)"/>
     <use xlink:href="#TimesNewRomanPSMT-31" transform="translate(458.300781 0)"/>
     <use xlink:href="#TimesNewRomanPSMT-31" transform="translate(504.550781 0)"/>
     <use xlink:href="#TimesNewRomanPSMT-31" transform="translate(550.800781 0)"/>
     <use xlink:href="#TimesNewRomanPSMT-2c" transform="translate(600.800781 0)"/>
     <use xlink:href="#TimesNewRomanPSMT-20" transform="translate(625.800781 0)"/>
     <use xlink:href="#TimesNewRomanPSMT-30" transform="translate(650.800781 0)"/>
     <use xlink:href="#TimesNewRomanPSMT-2e" transform="translate(700.800781 0)"/>
     <use xlink:href="#TimesNewRomanPSMT-38" transform="translate(725.800781 0)"/>
     <use xlink:href="#TimesNewRomanPSMT-39" transform="translate(775.800781 0)"/>
     <use xlink:href="#TimesNewRomanPSMT-33" transform="translate(825.800781 0)"/>
     <use xlink:href="#TimesNewRomanPSMT-32" transform="translate(875.800781 0)"/>
     <use xlink:href="#TimesNewRomanPSMT-29" transform="translate(925.800781 0)"/>
    </g>
   </g>
   <g id="text_21">
    <!-- 0.0445** -->
    <g transform="translate(848.090942 331.996185) scale(0.112 -0.112)">
     <defs>
      <path id="TimesNewRomanPSMT-2a" d="M 1544 3263 
Q 1531 3478 1456 3691 
Q 1350 3997 1350 4113 
Q 1350 4275 1426 4359 
Q 1503 4444 1616 4444 
Q 1713 4444 1784 4359 
Q 1856 4275 1856 4119 
Q 1856 3978 1773 3726 
Q 1691 3475 1672 3263 
Q 1844 3372 1981 3528 
Q 2194 3775 2297 3834 
Q 2400 3894 2506 3894 
Q 2609 3894 2679 3823 
Q 2750 3753 2750 3656 
Q 2750 3541 2647 3450 
Q 2544 3359 2131 3269 
Q 1891 3216 1731 3147 
Q 1894 3063 2128 3019 
Q 2506 2950 2623 2847 
Q 2741 2744 2741 2622 
Q 2741 2528 2670 2459 
Q 2600 2391 2506 2391 
Q 2413 2391 2298 2456 
Q 2184 2522 1991 2750 
Q 1863 2903 1672 3038 
Q 1678 2859 1744 2650 
Q 1856 2281 1856 2147 
Q 1856 2022 1781 1936 
Q 1706 1850 1622 1850 
Q 1506 1850 1413 1941 
Q 1347 2006 1347 2150 
Q 1347 2300 1419 2511 
Q 1491 2722 1509 2801 
Q 1528 2881 1544 3038 
Q 1359 2916 1222 2766 
Q 994 2509 878 2441 
Q 797 2391 709 2391 
Q 603 2391 528 2462 
Q 453 2534 453 2622 
Q 453 2700 517 2786 
Q 581 2872 709 2928 
Q 794 2966 1094 3028 
Q 1288 3069 1472 3147 
Q 1303 3231 1069 3278 
Q 684 3359 594 3425 
Q 453 3528 453 3675 
Q 453 3759 523 3829 
Q 594 3900 688 3900 
Q 791 3900 906 3834 
Q 1022 3769 1194 3570 
Q 1366 3372 1544 3263 
z
" transform="scale(0.015625)"/>
     </defs>
     <use xlink:href="#TimesNewRomanPSMT-30"/>
     <use xlink:href="#TimesNewRomanPSMT-2e" transform="translate(50 0)"/>
     <use xlink:href="#TimesNewRomanPSMT-30" transform="translate(75 0)"/>
     <use xlink:href="#TimesNewRomanPSMT-34" transform="translate(125 0)"/>
     <use xlink:href="#TimesNewRomanPSMT-34" transform="translate(175 0)"/>
     <use xlink:href="#TimesNewRomanPSMT-35" transform="translate(225 0)"/>
     <use xlink:href="#TimesNewRomanPSMT-2a" transform="translate(275 0)"/>
     <use xlink:href="#TimesNewRomanPSMT-2a" transform="translate(325 0)"/>
    </g>
   </g>
   <g id="text_22">
    <!-- 6.5889 (-0.1959, 13.3737) -->
    <g transform="translate(614.904155 268.508444) scale(0.112 -0.112)">
     <defs>
      <path id="TimesNewRomanPSMT-37" d="M 644 4238 
L 2916 4238 
L 2916 4119 
L 1503 -88 
L 1153 -88 
L 2419 3728 
L 1253 3728 
Q 900 3728 750 3644 
Q 488 3500 328 3200 
L 238 3234 
L 644 4238 
z
" transform="scale(0.015625)"/>
     </defs>
     <use xlink:href="#TimesNewRomanPSMT-36"/>
     <use xlink:href="#TimesNewRomanPSMT-2e" transform="translate(50 0)"/>
     <use xlink:href="#TimesNewRomanPSMT-35" transform="translate(75 0)"/>
     <use xlink:href="#TimesNewRomanPSMT-38" transform="translate(125 0)"/>
     <use xlink:href="#TimesNewRomanPSMT-38" transform="translate(175 0)"/>
     <use xlink:href="#TimesNewRomanPSMT-39" transform="translate(225 0)"/>
     <use xlink:href="#TimesNewRomanPSMT-20" transform="translate(275 0)"/>
     <use xlink:href="#TimesNewRomanPSMT-28" transform="translate(300 0)"/>
     <use xlink:href="#TimesNewRomanPSMT-2d" transform="translate(333.300781 0)"/>
     <use xlink:href="#TimesNewRomanPSMT-30" transform="translate(366.601562 0)"/>
     <use xlink:href="#TimesNewRomanPSMT-2e" transform="translate(416.601562 0)"/>
     <use xlink:href="#TimesNewRomanPSMT-31" transform="translate(441.601562 0)"/>
     <use xlink:href="#TimesNewRomanPSMT-39" transform="translate(491.601562 0)"/>
     <use xlink:href="#TimesNewRomanPSMT-35" transform="translate(541.601562 0)"/>
     <use xlink:href="#TimesNewRomanPSMT-39" transform="translate(591.601562 0)"/>
     <use xlink:href="#TimesNewRomanPSMT-2c" transform="translate(641.601562 0)"/>
     <use xlink:href="#TimesNewRomanPSMT-20" transform="translate(666.601562 0)"/>
     <use xlink:href="#TimesNewRomanPSMT-31" transform="translate(691.601562 0)"/>
     <use xlink:href="#TimesNewRomanPSMT-33" transform="translate(741.601562 0)"/>
     <use xlink:href="#TimesNewRomanPSMT-2e" transform="translate(791.601562 0)"/>
     <use xlink:href="#TimesNewRomanPSMT-33" transform="translate(816.601562 0)"/>
     <use xlink:href="#TimesNewRomanPSMT-37" transform="translate(866.601562 0)"/>
     <use xlink:href="#TimesNewRomanPSMT-33" transform="translate(916.601562 0)"/>
     <use xlink:href="#TimesNewRomanPSMT-37" transform="translate(966.601562 0)"/>
     <use xlink:href="#TimesNewRomanPSMT-29" transform="translate(1016.601562 0)"/>
    </g>
   </g>
   <g id="text_23">
    <!-- 0.0569* -->
    <g transform="translate(853.690942 268.508444) scale(0.112 -0.112)">
     <use xlink:href="#TimesNewRomanPSMT-30"/>
     <use xlink:href="#TimesNewRomanPSMT-2e" transform="translate(50 0)"/>
     <use xlink:href="#TimesNewRomanPSMT-30" transform="translate(75 0)"/>
     <use xlink:href="#TimesNewRomanPSMT-35" transform="translate(125 0)"/>
     <use xlink:href="#TimesNewRomanPSMT-36" transform="translate(175 0)"/>
     <use xlink:href="#TimesNewRomanPSMT-39" transform="translate(225 0)"/>
     <use xlink:href="#TimesNewRomanPSMT-2a" transform="translate(275 0)"/>
    </g>
   </g>
   <g id="text_24">
    <!-- -1.9282 (-2.6807, -1.1757) -->
    <g transform="translate(614.904155 205.020702) scale(0.112 -0.112)">
     <use xlink:href="#TimesNewRomanPSMT-2d"/>
     <use xlink:href="#TimesNewRomanPSMT-31" transform="translate(33.300781 0)"/>
     <use xlink:href="#TimesNewRomanPSMT-2e" transform="translate(83.300781 0)"/>
     <use xlink:href="#TimesNewRomanPSMT-39" transform="translate(108.300781 0)"/>
     <use xlink:href="#TimesNewRomanPSMT-32" transform="translate(158.300781 0)"/>
     <use xlink:href="#TimesNewRomanPSMT-38" transform="translate(208.300781 0)"/>
     <use xlink:href="#TimesNewRomanPSMT-32" transform="translate(258.300781 0)"/>
     <use xlink:href="#TimesNewRomanPSMT-20" transform="translate(308.300781 0)"/>
     <use xlink:href="#TimesNewRomanPSMT-28" transform="translate(333.300781 0)"/>
     <use xlink:href="#TimesNewRomanPSMT-2d" transform="translate(366.601562 0)"/>
     <use xlink:href="#TimesNewRomanPSMT-32" transform="translate(399.902344 0)"/>
     <use xlink:href="#TimesNewRomanPSMT-2e" transform="translate(449.902344 0)"/>
     <use xlink:href="#TimesNewRomanPSMT-36" transform="translate(474.902344 0)"/>
     <use xlink:href="#TimesNewRomanPSMT-38" transform="translate(524.902344 0)"/>
     <use xlink:href="#TimesNewRomanPSMT-30" transform="translate(574.902344 0)"/>
     <use xlink:href="#TimesNewRomanPSMT-37" transform="translate(624.902344 0)"/>
     <use xlink:href="#TimesNewRomanPSMT-2c" transform="translate(674.902344 0)"/>
     <use xlink:href="#TimesNewRomanPSMT-20" transform="translate(699.902344 0)"/>
     <use xlink:href="#TimesNewRomanPSMT-2d" transform="translate(724.902344 0)"/>
     <use xlink:href="#TimesNewRomanPSMT-31" transform="translate(758.203125 0)"/>
     <use xlink:href="#TimesNewRomanPSMT-2e" transform="translate(808.203125 0)"/>
     <use xlink:href="#TimesNewRomanPSMT-31" transform="translate(833.203125 0)"/>
     <use xlink:href="#TimesNewRomanPSMT-37" transform="translate(883.203125 0)"/>
     <use xlink:href="#TimesNewRomanPSMT-35" transform="translate(933.203125 0)"/>
     <use xlink:href="#TimesNewRomanPSMT-37" transform="translate(983.203125 0)"/>
     <use xlink:href="#TimesNewRomanPSMT-29" transform="translate(1033.203125 0)"/>
    </g>
   </g>
   <g id="text_25">
    <!-- 0.0000*** -->
    <g transform="translate(842.490942 205.020702) scale(0.112 -0.112)">
     <use xlink:href="#TimesNewRomanPSMT-30"/>
     <use xlink:href="#TimesNewRomanPSMT-2e" transform="translate(50 0)"/>
     <use xlink:href="#TimesNewRomanPSMT-30" transform="translate(75 0)"/>
     <use xlink:href="#TimesNewRomanPSMT-30" transform="translate(125 0)"/>
     <use xlink:href="#TimesNewRomanPSMT-30" transform="translate(175 0)"/>
     <use xlink:href="#TimesNewRomanPSMT-30" transform="translate(225 0)"/>
     <use xlink:href="#TimesNewRomanPSMT-2a" transform="translate(275 0)"/>
     <use xlink:href="#TimesNewRomanPSMT-2a" transform="translate(325 0)"/>
     <use xlink:href="#TimesNewRomanPSMT-2a" transform="translate(375 0)"/>
    </g>
   </g>
   <g id="text_26">
    <!-- 0.0828 (-0.0609, 0.2266) -->
    <g transform="translate(614.904155 141.53296) scale(0.112 -0.112)">
     <use xlink:href="#TimesNewRomanPSMT-30"/>
     <use xlink:href="#TimesNewRomanPSMT-2e" transform="translate(50 0)"/>
     <use xlink:href="#TimesNewRomanPSMT-30" transform="translate(75 0)"/>
     <use xlink:href="#TimesNewRomanPSMT-38" transform="translate(125 0)"/>
     <use xlink:href="#TimesNewRomanPSMT-32" transform="translate(175 0)"/>
     <use xlink:href="#TimesNewRomanPSMT-38" transform="translate(225 0)"/>
     <use xlink:href="#TimesNewRomanPSMT-20" transform="translate(275 0)"/>
     <use xlink:href="#TimesNewRomanPSMT-28" transform="translate(300 0)"/>
     <use xlink:href="#TimesNewRomanPSMT-2d" transform="translate(333.300781 0)"/>
     <use xlink:href="#TimesNewRomanPSMT-30" transform="translate(366.601562 0)"/>
     <use xlink:href="#TimesNewRomanPSMT-2e" transform="translate(416.601562 0)"/>
     <use xlink:href="#TimesNewRomanPSMT-30" transform="translate(441.601562 0)"/>
     <use xlink:href="#TimesNewRomanPSMT-36" transform="translate(491.601562 0)"/>
     <use xlink:href="#TimesNewRomanPSMT-30" transform="translate(541.601562 0)"/>
     <use xlink:href="#TimesNewRomanPSMT-39" transform="translate(591.601562 0)"/>
     <use xlink:href="#TimesNewRomanPSMT-2c" transform="translate(641.601562 0)"/>
     <use xlink:href="#TimesNewRomanPSMT-20" transform="translate(666.601562 0)"/>
     <use xlink:href="#TimesNewRomanPSMT-30" transform="translate(691.601562 0)"/>
     <use xlink:href="#TimesNewRomanPSMT-2e" transform="translate(741.601562 0)"/>
     <use xlink:href="#TimesNewRomanPSMT-32" transform="translate(766.601562 0)"/>
     <use xlink:href="#TimesNewRomanPSMT-32" transform="translate(816.601562 0)"/>
     <use xlink:href="#TimesNewRomanPSMT-36" transform="translate(866.601562 0)"/>
     <use xlink:href="#TimesNewRomanPSMT-36" transform="translate(916.601562 0)"/>
     <use xlink:href="#TimesNewRomanPSMT-29" transform="translate(966.601562 0)"/>
    </g>
   </g>
   <g id="text_27">
    <!-- 0.2572 -->
    <g transform="translate(859.290942 141.53296) scale(0.112 -0.112)">
     <use xlink:href="#TimesNewRomanPSMT-30"/>
     <use xlink:href="#TimesNewRomanPSMT-2e" transform="translate(50 0)"/>
     <use xlink:href="#TimesNewRomanPSMT-32" transform="translate(75 0)"/>
     <use xlink:href="#TimesNewRomanPSMT-35" transform="translate(125 0)"/>
     <use xlink:href="#TimesNewRomanPSMT-37" transform="translate(175 0)"/>
     <use xlink:href="#TimesNewRomanPSMT-32" transform="translate(225 0)"/>
    </g>
   </g>
   <g id="text_28">
    <!-- 0.1725 (-0.0003, 0.3452) -->
    <g transform="translate(614.904155 78.045218) scale(0.112 -0.112)">
     <use xlink:href="#TimesNewRomanPSMT-30"/>
     <use xlink:href="#TimesNewRomanPSMT-2e" transform="translate(50 0)"/>
     <use xlink:href="#TimesNewRomanPSMT-31" transform="translate(75 0)"/>
     <use xlink:href="#TimesNewRomanPSMT-37" transform="translate(125 0)"/>
     <use xlink:href="#TimesNewRomanPSMT-32" transform="translate(175 0)"/>
     <use xlink:href="#TimesNewRomanPSMT-35" transform="translate(225 0)"/>
     <use xlink:href="#TimesNewRomanPSMT-20" transform="translate(275 0)"/>
     <use xlink:href="#TimesNewRomanPSMT-28" transform="translate(300 0)"/>
     <use xlink:href="#TimesNewRomanPSMT-2d" transform="translate(333.300781 0)"/>
     <use xlink:href="#TimesNewRomanPSMT-30" transform="translate(366.601562 0)"/>
     <use xlink:href="#TimesNewRomanPSMT-2e" transform="translate(416.601562 0)"/>
     <use xlink:href="#TimesNewRomanPSMT-30" transform="translate(441.601562 0)"/>
     <use xlink:href="#TimesNewRomanPSMT-30" transform="translate(491.601562 0)"/>
     <use xlink:href="#TimesNewRomanPSMT-30" transform="translate(541.601562 0)"/>
     <use xlink:href="#TimesNewRomanPSMT-33" transform="translate(591.601562 0)"/>
     <use xlink:href="#TimesNewRomanPSMT-2c" transform="translate(641.601562 0)"/>
     <use xlink:href="#TimesNewRomanPSMT-20" transform="translate(666.601562 0)"/>
     <use xlink:href="#TimesNewRomanPSMT-30" transform="translate(691.601562 0)"/>
     <use xlink:href="#TimesNewRomanPSMT-2e" transform="translate(741.601562 0)"/>
     <use xlink:href="#TimesNewRomanPSMT-33" transform="translate(766.601562 0)"/>
     <use xlink:href="#TimesNewRomanPSMT-34" transform="translate(816.601562 0)"/>
     <use xlink:href="#TimesNewRomanPSMT-35" transform="translate(866.601562 0)"/>
     <use xlink:href="#TimesNewRomanPSMT-32" transform="translate(916.601562 0)"/>
     <use xlink:href="#TimesNewRomanPSMT-29" transform="translate(966.601562 0)"/>
    </g>
   </g>
   <g id="text_29">
    <!-- 0.0504* -->
    <g transform="translate(853.690942 78.045218) scale(0.112 -0.112)">
     <use xlink:href="#TimesNewRomanPSMT-30"/>
     <use xlink:href="#TimesNewRomanPSMT-2e" transform="translate(50 0)"/>
     <use xlink:href="#TimesNewRomanPSMT-30" transform="translate(75 0)"/>
     <use xlink:href="#TimesNewRomanPSMT-35" transform="translate(125 0)"/>
     <use xlink:href="#TimesNewRomanPSMT-30" transform="translate(175 0)"/>
     <use xlink:href="#TimesNewRomanPSMT-34" transform="translate(225 0)"/>
     <use xlink:href="#TimesNewRomanPSMT-2a" transform="translate(275 0)"/>
    </g>
   </g>
  </g>
 </g>
 <defs>
  <clipPath id="pe7a2b8ea62">
   <rect x="260.410065" y="37.261948" width="334.428387" height="393.624"/>
  </clipPath>
 </defs>
</svg>
