<?xml version="1.0" encoding="utf-8" standalone="no"?>
<!DOCTYPE svg PUBLIC "-//W3C//DTD SVG 1.1//EN"
  "http://www.w3.org/Graphics/SVG/1.1/DTD/svg11.dtd">
<svg xmlns:xlink="http://www.w3.org/1999/xlink" width="657.590625pt" height="490.86pt" viewBox="0 0 657.590625 490.86" xmlns="http://www.w3.org/2000/svg" version="1.1">
 <metadata>
  <rdf:RDF xmlns:dc="http://purl.org/dc/elements/1.1/" xmlns:cc="http://creativecommons.org/ns#" xmlns:rdf="http://www.w3.org/1999/02/22-rdf-syntax-ns#">
   <cc:Work>
    <dc:type rdf:resource="http://purl.org/dc/dcmitype/StillImage"/>
    <dc:date>2026-05-06T22:07:22.952819</dc:date>
    <dc:format>image/svg+xml</dc:format>
    <dc:creator>
     <cc:Agent>
      <dc:title>Matplotlib v3.10.8, https://matplotlib.org/</dc:title>
     </cc:Agent>
    </dc:creator>
   </cc:Work>
  </rdf:RDF>
 </metadata>
 <defs>
  <style type="text/css">*{stroke-linejoin: round; stroke-linecap: butt}</style>
 </defs>
 <g id="figure_1">
  <g id="patch_1">
   <path d="M 0 490.86 
L 657.590625 490.86 
L 657.590625 0 
L 0 0 
z
" style="fill: #ffffff"/>
  </g>
  <g id="axes_1">
   <g id="patch_2">
    <path d="M 50.664375 448.291875 
L 650.390625 448.291875 
L 650.390625 23.056875 
L 50.664375 23.056875 
z
" style="fill: #ffffff"/>
   </g>
   <g id="matplotlib.axis_1">
    <g id="xtick_1">
     <g id="line2d_1">
      <path d="M 62.088747 448.291875 
L 62.088747 23.056875 
" clip-path="url(#p0aa7b8cfc6)" style="fill: none; stroke: #cccccc; stroke-linecap: round"/>
     </g>
     <g id="text_1">
      <!-- -0.20 -->
      <g style="fill: #262626" transform="translate(49.590935 466.124375) scale(0.12 -0.12)">
       <defs>
        <path id="TimesNewRomanPSMT-2d" d="M 259 1672 
L 1875 1672 
L 1875 1200 
L 259 1200 
L 259 1672 
z
" transform="scale(0.015625)"/>
        <path id="TimesNewRomanPSMT-30" d="M 231 2094 
Q 231 2819 450 3342 
Q 669 3866 1031 4122 
Q 1313 4325 1613 4325 
Q 2100 4325 2488 3828 
Q 2972 3213 2972 2159 
Q 2972 1422 2759 906 
Q 2547 391 2217 158 
Q 1888 -75 1581 -75 
Q 975 -75 572 641 
Q 231 1244 231 2094 
z
M 844 2016 
Q 844 1141 1059 588 
Q 1238 122 1591 122 
Q 1759 122 1940 273 
Q 2122 425 2216 781 
Q 2359 1319 2359 2297 
Q 2359 3022 2209 3506 
Q 2097 3866 1919 4016 
Q 1791 4119 1609 4119 
Q 1397 4119 1231 3928 
Q 1006 3669 925 3112 
Q 844 2556 844 2016 
z
" transform="scale(0.015625)"/>
        <path id="TimesNewRomanPSMT-2e" d="M 800 606 
Q 947 606 1047 504 
Q 1147 403 1147 259 
Q 1147 116 1045 14 
Q 944 -88 800 -88 
Q 656 -88 554 14 
Q 453 116 453 259 
Q 453 406 554 506 
Q 656 606 800 606 
z
" transform="scale(0.015625)"/>
        <path id="TimesNewRomanPSMT-32" d="M 2934 816 
L 2638 0 
L 138 0 
L 138 116 
Q 1241 1122 1691 1759 
Q 2141 2397 2141 2925 
Q 2141 3328 1894 3587 
Q 1647 3847 1303 3847 
Q 991 3847 742 3664 
Q 494 3481 375 3128 
L 259 3128 
Q 338 3706 661 4015 
Q 984 4325 1469 4325 
Q 1984 4325 2329 3994 
Q 2675 3663 2675 3213 
Q 2675 2891 2525 2569 
Q 2294 2063 1775 1497 
Q 997 647 803 472 
L 1909 472 
Q 2247 472 2383 497 
Q 2519 522 2628 598 
Q 2738 675 2819 816 
L 2934 816 
z
" transform="scale(0.015625)"/>
       </defs>
       <use xlink:href="#TimesNewRomanPSMT-2d"/>
       <use xlink:href="#TimesNewRomanPSMT-30" transform="translate(33.300781 0)"/>
       <use xlink:href="#TimesNewRomanPSMT-2e" transform="translate(83.300781 0)"/>
       <use xlink:href="#TimesNewRomanPSMT-32" transform="translate(108.300781 0)"/>
       <use xlink:href="#TimesNewRomanPSMT-30" transform="translate(158.300781 0)"/>
      </g>
     </g>
    </g>
    <g id="xtick_2">
     <g id="line2d_2">
      <path d="M 137.724446 448.291875 
L 137.724446 23.056875 
" clip-path="url(#p0aa7b8cfc6)" style="fill: none; stroke: #cccccc; stroke-linecap: round"/>
     </g>
     <g id="text_2">
      <!-- -0.15 -->
      <g style="fill: #262626" transform="translate(125.226634 466.124375) scale(0.12 -0.12)">
       <defs>
        <path id="TimesNewRomanPSMT-31" d="M 750 3822 
L 1781 4325 
L 1884 4325 
L 1884 747 
Q 1884 391 1914 303 
Q 1944 216 2037 169 
Q 2131 122 2419 116 
L 2419 0 
L 825 0 
L 825 116 
Q 1125 122 1212 167 
Q 1300 213 1334 289 
Q 1369 366 1369 747 
L 1369 3034 
Q 1369 3497 1338 3628 
Q 1316 3728 1258 3775 
Q 1200 3822 1119 3822 
Q 1003 3822 797 3725 
L 750 3822 
z
" transform="scale(0.015625)"/>
        <path id="TimesNewRomanPSMT-35" d="M 2778 4238 
L 2534 3706 
L 1259 3706 
L 981 3138 
Q 1809 3016 2294 2522 
Q 2709 2097 2709 1522 
Q 2709 1188 2573 903 
Q 2438 619 2231 419 
Q 2025 219 1772 97 
Q 1413 -75 1034 -75 
Q 653 -75 479 54 
Q 306 184 306 341 
Q 306 428 378 495 
Q 450 563 559 563 
Q 641 563 702 538 
Q 763 513 909 409 
Q 1144 247 1384 247 
Q 1750 247 2026 523 
Q 2303 800 2303 1197 
Q 2303 1581 2056 1914 
Q 1809 2247 1375 2428 
Q 1034 2569 447 2591 
L 1259 4238 
L 2778 4238 
z
" transform="scale(0.015625)"/>
       </defs>
       <use xlink:href="#TimesNewRomanPSMT-2d"/>
       <use xlink:href="#TimesNewRomanPSMT-30" transform="translate(33.300781 0)"/>
       <use xlink:href="#TimesNewRomanPSMT-2e" transform="translate(83.300781 0)"/>
       <use xlink:href="#TimesNewRomanPSMT-31" transform="translate(108.300781 0)"/>
       <use xlink:href="#TimesNewRomanPSMT-35" transform="translate(158.300781 0)"/>
      </g>
     </g>
    </g>
    <g id="xtick_3">
     <g id="line2d_3">
      <path d="M 213.360146 448.291875 
L 213.360146 23.056875 
" clip-path="url(#p0aa7b8cfc6)" style="fill: none; stroke: #cccccc; stroke-linecap: round"/>
     </g>
     <g id="text_3">
      <!-- -0.10 -->
      <g style="fill: #262626" transform="translate(200.862333 466.124375) scale(0.12 -0.12)">
       <use xlink:href="#TimesNewRomanPSMT-2d"/>
       <use xlink:href="#TimesNewRomanPSMT-30" transform="translate(33.300781 0)"/>
       <use xlink:href="#TimesNewRomanPSMT-2e" transform="translate(83.300781 0)"/>
       <use xlink:href="#TimesNewRomanPSMT-31" transform="translate(108.300781 0)"/>
       <use xlink:href="#TimesNewRomanPSMT-30" transform="translate(158.300781 0)"/>
      </g>
     </g>
    </g>
    <g id="xtick_4">
     <g id="line2d_4">
      <path d="M 288.995845 448.291875 
L 288.995845 23.056875 
" clip-path="url(#p0aa7b8cfc6)" style="fill: none; stroke: #cccccc; stroke-linecap: round"/>
     </g>
     <g id="text_4">
      <!-- -0.05 -->
      <g style="fill: #262626" transform="translate(276.498032 466.124375) scale(0.12 -0.12)">
       <use xlink:href="#TimesNewRomanPSMT-2d"/>
       <use xlink:href="#TimesNewRomanPSMT-30" transform="translate(33.300781 0)"/>
       <use xlink:href="#TimesNewRomanPSMT-2e" transform="translate(83.300781 0)"/>
       <use xlink:href="#TimesNewRomanPSMT-30" transform="translate(108.300781 0)"/>
       <use xlink:href="#TimesNewRomanPSMT-35" transform="translate(158.300781 0)"/>
      </g>
     </g>
    </g>
    <g id="xtick_5">
     <g id="line2d_5">
      <path d="M 364.631544 448.291875 
L 364.631544 23.056875 
" clip-path="url(#p0aa7b8cfc6)" style="fill: none; stroke: #cccccc; stroke-linecap: round"/>
     </g>
     <g id="text_5">
      <!-- 0.00 -->
      <g style="fill: #262626" transform="translate(354.131544 466.124375) scale(0.12 -0.12)">
       <use xlink:href="#TimesNewRomanPSMT-30"/>
       <use xlink:href="#TimesNewRomanPSMT-2e" transform="translate(50 0)"/>
       <use xlink:href="#TimesNewRomanPSMT-30" transform="translate(75 0)"/>
       <use xlink:href="#TimesNewRomanPSMT-30" transform="translate(125 0)"/>
      </g>
     </g>
    </g>
    <g id="xtick_6">
     <g id="line2d_6">
      <path d="M 440.267243 448.291875 
L 440.267243 23.056875 
" clip-path="url(#p0aa7b8cfc6)" style="fill: none; stroke: #cccccc; stroke-linecap: round"/>
     </g>
     <g id="text_6">
      <!-- 0.05 -->
      <g style="fill: #262626" transform="translate(429.767243 466.124375) scale(0.12 -0.12)">
       <use xlink:href="#TimesNewRomanPSMT-30"/>
       <use xlink:href="#TimesNewRomanPSMT-2e" transform="translate(50 0)"/>
       <use xlink:href="#TimesNewRomanPSMT-30" transform="translate(75 0)"/>
       <use xlink:href="#TimesNewRomanPSMT-35" transform="translate(125 0)"/>
      </g>
     </g>
    </g>
    <g id="xtick_7">
     <g id="line2d_7">
      <path d="M 515.902942 448.291875 
L 515.902942 23.056875 
" clip-path="url(#p0aa7b8cfc6)" style="fill: none; stroke: #cccccc; stroke-linecap: round"/>
     </g>
     <g id="text_7">
      <!-- 0.10 -->
      <g style="fill: #262626" transform="translate(505.402942 466.124375) scale(0.12 -0.12)">
       <use xlink:href="#TimesNewRomanPSMT-30"/>
       <use xlink:href="#TimesNewRomanPSMT-2e" transform="translate(50 0)"/>
       <use xlink:href="#TimesNewRomanPSMT-31" transform="translate(75 0)"/>
       <use xlink:href="#TimesNewRomanPSMT-30" transform="translate(125 0)"/>
      </g>
     </g>
    </g>
    <g id="xtick_8">
     <g id="line2d_8">
      <path d="M 591.538642 448.291875 
L 591.538642 23.056875 
" clip-path="url(#p0aa7b8cfc6)" style="fill: none; stroke: #cccccc; stroke-linecap: round"/>
     </g>
     <g id="text_8">
      <!-- 0.15 -->
      <g style="fill: #262626" transform="translate(581.038642 466.124375) scale(0.12 -0.12)">
       <use xlink:href="#TimesNewRomanPSMT-30"/>
       <use xlink:href="#TimesNewRomanPSMT-2e" transform="translate(50 0)"/>
       <use xlink:href="#TimesNewRomanPSMT-31" transform="translate(75 0)"/>
       <use xlink:href="#TimesNewRomanPSMT-35" transform="translate(125 0)"/>
      </g>
     </g>
    </g>
    <g id="text_9">
     <!-- lntl 残差 -->
     <g style="fill: #262626" transform="translate(329.026875 481.093125) scale(0.12 -0.12)">
      <defs>
       <path id="TimesNewRomanPSMT-6c" d="M 1184 4444 
L 1184 647 
Q 1184 378 1223 290 
Q 1263 203 1344 158 
Q 1425 113 1647 113 
L 1647 0 
L 244 0 
L 244 113 
Q 441 113 512 153 
Q 584 194 625 287 
Q 666 381 666 647 
L 666 3247 
Q 666 3731 644 3842 
Q 622 3953 573 3993 
Q 525 4034 450 4034 
Q 369 4034 244 3984 
L 191 4094 
L 1044 4444 
L 1184 4444 
z
" transform="scale(0.015625)"/>
       <path id="TimesNewRomanPSMT-6e" d="M 1034 2341 
Q 1538 2947 1994 2947 
Q 2228 2947 2397 2830 
Q 2566 2713 2666 2444 
Q 2734 2256 2734 1869 
L 2734 647 
Q 2734 375 2778 278 
Q 2813 200 2889 156 
Q 2966 113 3172 113 
L 3172 0 
L 1756 0 
L 1756 113 
L 1816 113 
Q 2016 113 2095 173 
Q 2175 234 2206 353 
Q 2219 400 2219 647 
L 2219 1819 
Q 2219 2209 2117 2386 
Q 2016 2563 1775 2563 
Q 1403 2563 1034 2156 
L 1034 647 
Q 1034 356 1069 288 
Q 1113 197 1189 155 
Q 1266 113 1500 113 
L 1500 0 
L 84 0 
L 84 113 
L 147 113 
Q 366 113 442 223 
Q 519 334 519 647 
L 519 1709 
Q 519 2225 495 2337 
Q 472 2450 423 2490 
Q 375 2531 294 2531 
Q 206 2531 84 2484 
L 38 2597 
L 900 2947 
L 1034 2947 
L 1034 2341 
z
" transform="scale(0.015625)"/>
       <path id="TimesNewRomanPSMT-74" d="M 1031 3803 
L 1031 2863 
L 1700 2863 
L 1700 2644 
L 1031 2644 
L 1031 788 
Q 1031 509 1111 412 
Q 1191 316 1316 316 
Q 1419 316 1516 380 
Q 1613 444 1666 569 
L 1788 569 
Q 1678 263 1478 108 
Q 1278 -47 1066 -47 
Q 922 -47 784 33 
Q 647 113 581 261 
Q 516 409 516 719 
L 516 2644 
L 63 2644 
L 63 2747 
Q 234 2816 414 2980 
Q 594 3144 734 3369 
Q 806 3488 934 3803 
L 1031 3803 
z
" transform="scale(0.015625)"/>
       <path id="TimesNewRomanPSMT-20" transform="scale(0.015625)"/>
       <path id="SimSun-6b8b" d="M 5625 -50 
L 6000 1050 
L 6075 1025 
Q 5950 525 5925 175 
Q 5900 -175 6000 -400 
Q 6075 -600 5825 -550 
Q 5575 -500 5137 -212 
Q 4700 75 4350 625 
Q 3900 275 3325 0 
Q 2750 -275 2175 -400 
L 2125 -325 
Q 2650 -150 3225 187 
Q 3800 525 4175 875 
Q 4050 1200 3975 1512 
Q 3900 1825 3850 2250 
L 3125 2150 
L 2925 2075 
L 2650 2250 
L 3825 2400 
Q 3800 2750 3775 3275 
L 3250 3225 
L 3050 3150 
L 2800 3350 
L 3775 3425 
Q 3750 4575 3725 5225 
L 4325 4900 
L 4100 4750 
Q 4100 4400 4125 3475 
L 5125 3575 
L 5375 3875 
L 5850 3500 
L 4125 3325 
Q 4150 2725 4175 2450 
L 5225 2600 
L 5475 2900 
L 5950 2550 
L 4200 2300 
Q 4275 1575 4475 1150 
Q 4700 1375 4975 1750 
Q 5250 2125 5300 2250 
L 5725 1875 
L 5500 1800 
Q 5025 1250 4600 850 
Q 4800 550 5062 325 
Q 5325 100 5625 -50 
z
M 4575 4900 
Q 5200 4550 5275 4437 
Q 5350 4325 5350 4225 
Q 5350 4075 5275 3962 
Q 5200 3850 5150 3850 
Q 5075 3850 5000 4075 
Q 4875 4400 4500 4825 
L 4575 4900 
z
M 2650 3025 
Q 2500 2325 2287 1675 
Q 2075 1025 1600 437 
Q 1125 -150 350 -600 
L 325 -525 
Q 950 -50 1312 437 
Q 1675 925 1912 1537 
Q 2150 2150 2300 3100 
L 1275 3100 
Q 1175 2825 1075 2600 
Q 1450 2375 1587 2212 
Q 1725 2050 1725 1950 
Q 1725 1850 1637 1700 
Q 1550 1550 1525 1550 
Q 1450 1550 1375 1800 
Q 1275 2175 1025 2500 
Q 825 2050 325 1500 
L 250 1550 
Q 675 2175 912 2962 
Q 1150 3750 1225 4450 
L 850 4450 
L 575 4400 
L 375 4600 
L 2275 4600 
L 2550 4875 
L 2975 4450 
L 1575 4450 
Q 1450 3725 1300 3250 
L 2275 3250 
L 2475 3500 
L 2850 3150 
L 2650 3025 
z
" transform="scale(0.015625)"/>
       <path id="SimSun-5dee" d="M 1600 5100 
L 1650 5175 
Q 2300 4925 2400 4775 
Q 2500 4625 2500 4525 
Q 2500 4400 2437 4287 
Q 2375 4175 2325 4175 
Q 2250 4175 2175 4375 
Q 2025 4700 1600 5100 
z
M 3200 3925 
Q 3100 3450 3025 3175 
L 4650 3175 
L 4975 3500 
L 5450 3025 
L 3000 3025 
Q 2900 2675 2725 2275 
L 5075 2275 
L 5475 2675 
L 6025 2125 
L 2675 2125 
Q 1900 675 350 -200 
L 325 -100 
Q 1650 825 2325 2125 
L 950 2125 
L 600 2075 
L 400 2275 
L 2375 2275 
Q 2525 2650 2650 3025 
L 1550 3025 
L 1225 2975 
L 1025 3175 
L 2675 3175 
Q 2775 3575 2825 3925 
L 1250 3925 
L 900 3875 
L 700 4075 
L 3750 4075 
Q 4200 4925 4250 5250 
L 4800 4925 
Q 4550 4900 3900 4075 
L 5050 4075 
L 5425 4450 
L 5950 3925 
L 3200 3925 
z
M 2150 1275 
L 4650 1275 
L 4950 1575 
L 5400 1125 
L 3850 1125 
L 3850 -175 
L 5200 -175 
L 5550 175 
L 6050 -325 
L 2050 -325 
Q 1725 -325 1450 -400 
L 1225 -175 
L 3500 -175 
L 3500 1125 
L 2625 1125 
L 2350 1075 
L 2150 1275 
z
" transform="scale(0.015625)"/>
      </defs>
      <use xlink:href="#TimesNewRomanPSMT-6c"/>
      <use xlink:href="#TimesNewRomanPSMT-6e" transform="translate(27.783203 0)"/>
      <use xlink:href="#TimesNewRomanPSMT-74" transform="translate(77.783203 0)"/>
      <use xlink:href="#TimesNewRomanPSMT-6c" transform="translate(105.566406 0)"/>
      <use xlink:href="#TimesNewRomanPSMT-20" transform="translate(133.349609 0)"/>
      <use xlink:href="#SimSun-6b8b" transform="translate(158.349609 0)"/>
      <use xlink:href="#SimSun-5dee" transform="translate(258.349609 0)"/>
     </g>
    </g>
   </g>
   <g id="matplotlib.axis_2">
    <g id="ytick_1">
     <g id="line2d_9">
      <path d="M 50.664375 383.845582 
L 650.390625 383.845582 
" clip-path="url(#p0aa7b8cfc6)" style="fill: none; stroke: #cccccc; stroke-linecap: round"/>
     </g>
     <g id="text_10">
      <!-- -0.2 -->
      <g style="fill: #262626" transform="translate(22.16875 388.011832) scale(0.12 -0.12)">
       <use xlink:href="#TimesNewRomanPSMT-2d"/>
       <use xlink:href="#TimesNewRomanPSMT-30" transform="translate(33.300781 0)"/>
       <use xlink:href="#TimesNewRomanPSMT-2e" transform="translate(83.300781 0)"/>
       <use xlink:href="#TimesNewRomanPSMT-32" transform="translate(108.300781 0)"/>
      </g>
     </g>
    </g>
    <g id="ytick_2">
     <g id="line2d_10">
      <path d="M 50.664375 291.841881 
L 650.390625 291.841881 
" clip-path="url(#p0aa7b8cfc6)" style="fill: none; stroke: #cccccc; stroke-linecap: round"/>
     </g>
     <g id="text_11">
      <!-- -0.1 -->
      <g style="fill: #262626" transform="translate(22.16875 296.008131) scale(0.12 -0.12)">
       <use xlink:href="#TimesNewRomanPSMT-2d"/>
       <use xlink:href="#TimesNewRomanPSMT-30" transform="translate(33.300781 0)"/>
       <use xlink:href="#TimesNewRomanPSMT-2e" transform="translate(83.300781 0)"/>
       <use xlink:href="#TimesNewRomanPSMT-31" transform="translate(108.300781 0)"/>
      </g>
     </g>
    </g>
    <g id="ytick_3">
     <g id="line2d_11">
      <path d="M 50.664375 199.83818 
L 650.390625 199.83818 
" clip-path="url(#p0aa7b8cfc6)" style="fill: none; stroke: #cccccc; stroke-linecap: round"/>
     </g>
     <g id="text_12">
      <!-- 0.0 -->
      <g style="fill: #262626" transform="translate(26.164375 204.00443) scale(0.12 -0.12)">
       <use xlink:href="#TimesNewRomanPSMT-30"/>
       <use xlink:href="#TimesNewRomanPSMT-2e" transform="translate(50 0)"/>
       <use xlink:href="#TimesNewRomanPSMT-30" transform="translate(75 0)"/>
      </g>
     </g>
    </g>
    <g id="ytick_4">
     <g id="line2d_12">
      <path d="M 50.664375 107.834478 
L 650.390625 107.834478 
" clip-path="url(#p0aa7b8cfc6)" style="fill: none; stroke: #cccccc; stroke-linecap: round"/>
     </g>
     <g id="text_13">
      <!-- 0.1 -->
      <g style="fill: #262626" transform="translate(26.164375 112.000728) scale(0.12 -0.12)">
       <use xlink:href="#TimesNewRomanPSMT-30"/>
       <use xlink:href="#TimesNewRomanPSMT-2e" transform="translate(50 0)"/>
       <use xlink:href="#TimesNewRomanPSMT-31" transform="translate(75 0)"/>
      </g>
     </g>
    </g>
    <g id="text_14">
     <!-- eff 残差 -->
     <g style="fill: #262626" transform="translate(15.601875 255.728437) rotate(-90) scale(0.12 -0.12)">
      <defs>
       <path id="TimesNewRomanPSMT-65" d="M 681 1784 
Q 678 1147 991 784 
Q 1303 422 1725 422 
Q 2006 422 2214 576 
Q 2422 731 2563 1106 
L 2659 1044 
Q 2594 616 2278 264 
Q 1963 -88 1488 -88 
Q 972 -88 605 314 
Q 238 716 238 1394 
Q 238 2128 614 2539 
Q 991 2950 1559 2950 
Q 2041 2950 2350 2633 
Q 2659 2316 2659 1784 
L 681 1784 
z
M 681 1966 
L 2006 1966 
Q 1991 2241 1941 2353 
Q 1863 2528 1708 2628 
Q 1553 2728 1384 2728 
Q 1125 2728 920 2526 
Q 716 2325 681 1966 
z
" transform="scale(0.015625)"/>
       <path id="TimesNewRomanPSMT-66" d="M 1319 2638 
L 1319 756 
Q 1319 356 1406 250 
Q 1522 113 1716 113 
L 1975 113 
L 1975 0 
L 266 0 
L 266 113 
L 394 113 
Q 519 113 622 175 
Q 725 238 764 344 
Q 803 450 803 756 
L 803 2638 
L 247 2638 
L 247 2863 
L 803 2863 
L 803 3050 
Q 803 3478 940 3775 
Q 1078 4072 1361 4255 
Q 1644 4438 1997 4438 
Q 2325 4438 2600 4225 
Q 2781 4084 2781 3909 
Q 2781 3816 2700 3733 
Q 2619 3650 2525 3650 
Q 2453 3650 2373 3701 
Q 2294 3753 2178 3923 
Q 2063 4094 1966 4153 
Q 1869 4213 1750 4213 
Q 1606 4213 1506 4136 
Q 1406 4059 1362 3898 
Q 1319 3738 1319 3069 
L 1319 2863 
L 2056 2863 
L 2056 2638 
L 1319 2638 
z
" transform="scale(0.015625)"/>
      </defs>
      <use xlink:href="#TimesNewRomanPSMT-65"/>
      <use xlink:href="#TimesNewRomanPSMT-66" transform="translate(44.384766 0)"/>
      <use xlink:href="#TimesNewRomanPSMT-66" transform="translate(75.935547 0)"/>
      <use xlink:href="#TimesNewRomanPSMT-20" transform="translate(109.236328 0)"/>
      <use xlink:href="#SimSun-6b8b" transform="translate(134.236328 0)"/>
      <use xlink:href="#SimSun-5dee" transform="translate(234.236328 0)"/>
     </g>
    </g>
   </g>
   <g id="PathCollection_1">
    <defs>
     <path id="mdfa6abf670" d="M 0 3 
C 0.795609 3 1.55874 2.683901 2.12132 2.12132 
C 2.683901 1.55874 3 0.795609 3 0 
C 3 -0.795609 2.683901 -1.55874 2.12132 -2.12132 
C 1.55874 -2.683901 0.795609 -3 0 -3 
C -0.795609 -3 -1.55874 -2.683901 -2.12132 -2.12132 
C -2.683901 -1.55874 -3 -0.795609 -3 0 
C -3 0.795609 -2.683901 1.55874 -2.12132 2.12132 
C -1.55874 2.683901 -0.795609 3 0 3 
z
" style="stroke: #ffffff; stroke-opacity: 0.82; stroke-width: 0.4"/>
    </defs>
    <g clip-path="url(#p0aa7b8cfc6)">
     <use xlink:href="#mdfa6abf670" x="491.726219" y="144.305555" style="fill: #d3af8f; fill-opacity: 0.82; stroke: #ffffff; stroke-opacity: 0.82; stroke-width: 0.4"/>
     <use xlink:href="#mdfa6abf670" x="443.12073" y="181.642807" style="fill: #d3af8f; fill-opacity: 0.82; stroke: #ffffff; stroke-opacity: 0.82; stroke-width: 0.4"/>
     <use xlink:href="#mdfa6abf670" x="427.725445" y="199.73216" style="fill: #d3af8f; fill-opacity: 0.82; stroke: #ffffff; stroke-opacity: 0.82; stroke-width: 0.4"/>
     <use xlink:href="#mdfa6abf670" x="333.65588" y="81.706316" style="fill: #d3af8f; fill-opacity: 0.82; stroke: #ffffff; stroke-opacity: 0.82; stroke-width: 0.4"/>
     <use xlink:href="#mdfa6abf670" x="427.66764" y="202.03802" style="fill: #d3af8f; fill-opacity: 0.82; stroke: #ffffff; stroke-opacity: 0.82; stroke-width: 0.4"/>
     <use xlink:href="#mdfa6abf670" x="293.600627" y="283.562265" style="fill: #d3af8f; fill-opacity: 0.82; stroke: #ffffff; stroke-opacity: 0.82; stroke-width: 0.4"/>
     <use xlink:href="#mdfa6abf670" x="333.283378" y="298.513373" style="fill: #d3af8f; fill-opacity: 0.82; stroke: #ffffff; stroke-opacity: 0.82; stroke-width: 0.4"/>
     <use xlink:href="#mdfa6abf670" x="421.144924" y="140.547036" style="fill: #d3af8f; fill-opacity: 0.82; stroke: #ffffff; stroke-opacity: 0.82; stroke-width: 0.4"/>
     <use xlink:href="#mdfa6abf670" x="311.293949" y="190.029322" style="fill: #d3af8f; fill-opacity: 0.82; stroke: #ffffff; stroke-opacity: 0.82; stroke-width: 0.4"/>
     <use xlink:href="#mdfa6abf670" x="216.980524" y="262.36203" style="fill: #d3af8f; fill-opacity: 0.82; stroke: #ffffff; stroke-opacity: 0.82; stroke-width: 0.4"/>
     <use xlink:href="#mdfa6abf670" x="328.066391" y="207.16068" style="fill: #d3af8f; fill-opacity: 0.82; stroke: #ffffff; stroke-opacity: 0.82; stroke-width: 0.4"/>
     <use xlink:href="#mdfa6abf670" x="317.121374" y="182.103988" style="fill: #d3af8f; fill-opacity: 0.82; stroke: #ffffff; stroke-opacity: 0.82; stroke-width: 0.4"/>
     <use xlink:href="#mdfa6abf670" x="432.755764" y="188.335851" style="fill: #d3af8f; fill-opacity: 0.82; stroke: #ffffff; stroke-opacity: 0.82; stroke-width: 0.4"/>
     <use xlink:href="#mdfa6abf670" x="404.836416" y="210.894286" style="fill: #d3af8f; fill-opacity: 0.82; stroke: #ffffff; stroke-opacity: 0.82; stroke-width: 0.4"/>
     <use xlink:href="#mdfa6abf670" x="270.025861" y="309.935909" style="fill: #d3af8f; fill-opacity: 0.82; stroke: #ffffff; stroke-opacity: 0.82; stroke-width: 0.4"/>
     <use xlink:href="#mdfa6abf670" x="346.19972" y="149.144446" style="fill: #d3af8f; fill-opacity: 0.82; stroke: #ffffff; stroke-opacity: 0.82; stroke-width: 0.4"/>
     <use xlink:href="#mdfa6abf670" x="340.842751" y="223.458503" style="fill: #d3af8f; fill-opacity: 0.82; stroke: #ffffff; stroke-opacity: 0.82; stroke-width: 0.4"/>
     <use xlink:href="#mdfa6abf670" x="265.418962" y="263.56084" style="fill: #d3af8f; fill-opacity: 0.82; stroke: #ffffff; stroke-opacity: 0.82; stroke-width: 0.4"/>
     <use xlink:href="#mdfa6abf670" x="219.78205" y="249.815281" style="fill: #d3af8f; fill-opacity: 0.82; stroke: #ffffff; stroke-opacity: 0.82; stroke-width: 0.4"/>
     <use xlink:href="#mdfa6abf670" x="352.502138" y="86.54028" style="fill: #d3af8f; fill-opacity: 0.82; stroke: #ffffff; stroke-opacity: 0.82; stroke-width: 0.4"/>
     <use xlink:href="#mdfa6abf670" x="322.65474" y="221.078258" style="fill: #d3af8f; fill-opacity: 0.82; stroke: #ffffff; stroke-opacity: 0.82; stroke-width: 0.4"/>
     <use xlink:href="#mdfa6abf670" x="435.953263" y="234.437379" style="fill: #d3af8f; fill-opacity: 0.82; stroke: #ffffff; stroke-opacity: 0.82; stroke-width: 0.4"/>
     <use xlink:href="#mdfa6abf670" x="424.131601" y="229.406882" style="fill: #d3af8f; fill-opacity: 0.82; stroke: #ffffff; stroke-opacity: 0.82; stroke-width: 0.4"/>
     <use xlink:href="#mdfa6abf670" x="270.784815" y="219.068467" style="fill: #d3af8f; fill-opacity: 0.82; stroke: #ffffff; stroke-opacity: 0.82; stroke-width: 0.4"/>
     <use xlink:href="#mdfa6abf670" x="385.603167" y="216.173323" style="fill: #d3af8f; fill-opacity: 0.82; stroke: #ffffff; stroke-opacity: 0.82; stroke-width: 0.4"/>
     <use xlink:href="#mdfa6abf670" x="556.563588" y="114.015298" style="fill: #d3af8f; fill-opacity: 0.82; stroke: #ffffff; stroke-opacity: 0.82; stroke-width: 0.4"/>
     <use xlink:href="#mdfa6abf670" x="313.179788" y="203.618681" style="fill: #d3af8f; fill-opacity: 0.82; stroke: #ffffff; stroke-opacity: 0.82; stroke-width: 0.4"/>
     <use xlink:href="#mdfa6abf670" x="340.065994" y="197.339377" style="fill: #d3af8f; fill-opacity: 0.82; stroke: #ffffff; stroke-opacity: 0.82; stroke-width: 0.4"/>
     <use xlink:href="#mdfa6abf670" x="454.43447" y="128.926199" style="fill: #d3af8f; fill-opacity: 0.82; stroke: #ffffff; stroke-opacity: 0.82; stroke-width: 0.4"/>
     <use xlink:href="#mdfa6abf670" x="457.824152" y="175.692574" style="fill: #d3af8f; fill-opacity: 0.82; stroke: #ffffff; stroke-opacity: 0.82; stroke-width: 0.4"/>
    </g>
   </g>
   <g id="PathCollection_2">
    <defs>
     <path id="m882c083798" d="M 0 3 
C 0.795609 3 1.55874 2.683901 2.12132 2.12132 
C 2.683901 1.55874 3 0.795609 3 0 
C 3 -0.795609 2.683901 -1.55874 2.12132 -2.12132 
C 1.55874 -2.683901 0.795609 -3 0 -3 
C -0.795609 -3 -1.55874 -2.683901 -2.12132 -2.12132 
C -2.683901 -1.55874 -3 -0.795609 -3 0 
C -3 0.795609 -2.683901 1.55874 -2.12132 2.12132 
C -1.55874 2.683901 -0.795609 3 0 3 
z
" style="stroke: #ffffff; stroke-opacity: 0.82; stroke-width: 0.4"/>
    </defs>
    <g clip-path="url(#p0aa7b8cfc6)">
     <use xlink:href="#m882c083798" x="464.016073" y="174.143179" style="fill: #bdab62; fill-opacity: 0.82; stroke: #ffffff; stroke-opacity: 0.82; stroke-width: 0.4"/>
     <use xlink:href="#m882c083798" x="367.292557" y="170.787671" style="fill: #bdab62; fill-opacity: 0.82; stroke: #ffffff; stroke-opacity: 0.82; stroke-width: 0.4"/>
     <use xlink:href="#m882c083798" x="417.966932" y="186.676761" style="fill: #bdab62; fill-opacity: 0.82; stroke: #ffffff; stroke-opacity: 0.82; stroke-width: 0.4"/>
     <use xlink:href="#m882c083798" x="442.376525" y="329.344477" style="fill: #bdab62; fill-opacity: 0.82; stroke: #ffffff; stroke-opacity: 0.82; stroke-width: 0.4"/>
     <use xlink:href="#m882c083798" x="386.423281" y="181.788734" style="fill: #bdab62; fill-opacity: 0.82; stroke: #ffffff; stroke-opacity: 0.82; stroke-width: 0.4"/>
     <use xlink:href="#m882c083798" x="408.665008" y="272.394793" style="fill: #bdab62; fill-opacity: 0.82; stroke: #ffffff; stroke-opacity: 0.82; stroke-width: 0.4"/>
     <use xlink:href="#m882c083798" x="373.186557" y="260.406298" style="fill: #bdab62; fill-opacity: 0.82; stroke: #ffffff; stroke-opacity: 0.82; stroke-width: 0.4"/>
     <use xlink:href="#m882c083798" x="450.528234" y="149.851958" style="fill: #bdab62; fill-opacity: 0.82; stroke: #ffffff; stroke-opacity: 0.82; stroke-width: 0.4"/>
     <use xlink:href="#m882c083798" x="340.323094" y="175.589816" style="fill: #bdab62; fill-opacity: 0.82; stroke: #ffffff; stroke-opacity: 0.82; stroke-width: 0.4"/>
     <use xlink:href="#m882c083798" x="238.491125" y="220.807102" style="fill: #bdab62; fill-opacity: 0.82; stroke: #ffffff; stroke-opacity: 0.82; stroke-width: 0.4"/>
     <use xlink:href="#m882c083798" x="282.719545" y="204.526999" style="fill: #bdab62; fill-opacity: 0.82; stroke: #ffffff; stroke-opacity: 0.82; stroke-width: 0.4"/>
     <use xlink:href="#m882c083798" x="253.943738" y="83.833919" style="fill: #bdab62; fill-opacity: 0.82; stroke: #ffffff; stroke-opacity: 0.82; stroke-width: 0.4"/>
     <use xlink:href="#m882c083798" x="363.430296" y="181.681565" style="fill: #bdab62; fill-opacity: 0.82; stroke: #ffffff; stroke-opacity: 0.82; stroke-width: 0.4"/>
     <use xlink:href="#m882c083798" x="381.417442" y="202.21113" style="fill: #bdab62; fill-opacity: 0.82; stroke: #ffffff; stroke-opacity: 0.82; stroke-width: 0.4"/>
     <use xlink:href="#m882c083798" x="300.70778" y="297.839928" style="fill: #bdab62; fill-opacity: 0.82; stroke: #ffffff; stroke-opacity: 0.82; stroke-width: 0.4"/>
     <use xlink:href="#m882c083798" x="329.192991" y="178.00449" style="fill: #bdab62; fill-opacity: 0.82; stroke: #ffffff; stroke-opacity: 0.82; stroke-width: 0.4"/>
     <use xlink:href="#m882c083798" x="356.214106" y="198.988122" style="fill: #bdab62; fill-opacity: 0.82; stroke: #ffffff; stroke-opacity: 0.82; stroke-width: 0.4"/>
     <use xlink:href="#m882c083798" x="285.938434" y="237.53351" style="fill: #bdab62; fill-opacity: 0.82; stroke: #ffffff; stroke-opacity: 0.82; stroke-width: 0.4"/>
     <use xlink:href="#m882c083798" x="257.933693" y="206.19199" style="fill: #bdab62; fill-opacity: 0.82; stroke: #ffffff; stroke-opacity: 0.82; stroke-width: 0.4"/>
     <use xlink:href="#m882c083798" x="348.786796" y="75.985504" style="fill: #bdab62; fill-opacity: 0.82; stroke: #ffffff; stroke-opacity: 0.82; stroke-width: 0.4"/>
     <use xlink:href="#m882c083798" x="311.129536" y="203.634908" style="fill: #bdab62; fill-opacity: 0.82; stroke: #ffffff; stroke-opacity: 0.82; stroke-width: 0.4"/>
     <use xlink:href="#m882c083798" x="431.34001" y="219.291733" style="fill: #bdab62; fill-opacity: 0.82; stroke: #ffffff; stroke-opacity: 0.82; stroke-width: 0.4"/>
     <use xlink:href="#m882c083798" x="391.090504" y="214.105909" style="fill: #bdab62; fill-opacity: 0.82; stroke: #ffffff; stroke-opacity: 0.82; stroke-width: 0.4"/>
     <use xlink:href="#m882c083798" x="238.446417" y="201.046326" style="fill: #bdab62; fill-opacity: 0.82; stroke: #ffffff; stroke-opacity: 0.82; stroke-width: 0.4"/>
     <use xlink:href="#m882c083798" x="474.127545" y="185.664891" style="fill: #bdab62; fill-opacity: 0.82; stroke: #ffffff; stroke-opacity: 0.82; stroke-width: 0.4"/>
     <use xlink:href="#m882c083798" x="428.738282" y="174.220698" style="fill: #bdab62; fill-opacity: 0.82; stroke: #ffffff; stroke-opacity: 0.82; stroke-width: 0.4"/>
     <use xlink:href="#m882c083798" x="407.801805" y="177.985386" style="fill: #bdab62; fill-opacity: 0.82; stroke: #ffffff; stroke-opacity: 0.82; stroke-width: 0.4"/>
     <use xlink:href="#m882c083798" x="333.600291" y="184.53992" style="fill: #bdab62; fill-opacity: 0.82; stroke: #ffffff; stroke-opacity: 0.82; stroke-width: 0.4"/>
     <use xlink:href="#m882c083798" x="398.976128" y="280.024879" style="fill: #bdab62; fill-opacity: 0.82; stroke: #ffffff; stroke-opacity: 0.82; stroke-width: 0.4"/>
     <use xlink:href="#m882c083798" x="474.141594" y="166.042792" style="fill: #bdab62; fill-opacity: 0.82; stroke: #ffffff; stroke-opacity: 0.82; stroke-width: 0.4"/>
    </g>
   </g>
   <g id="PathCollection_3">
    <defs>
     <path id="m11059f624c" d="M 0 3 
C 0.795609 3 1.55874 2.683901 2.12132 2.12132 
C 2.683901 1.55874 3 0.795609 3 0 
C 3 -0.795609 2.683901 -1.55874 2.12132 -2.12132 
C 1.55874 -2.683901 0.795609 -3 0 -3 
C -0.795609 -3 -1.55874 -2.683901 -2.12132 -2.12132 
C -2.683901 -1.55874 -3 -0.795609 -3 0 
C -3 0.795609 -2.683901 1.55874 -2.12132 2.12132 
C -1.55874 2.683901 -0.795609 3 0 3 
z
" style="stroke: #ffffff; stroke-opacity: 0.82; stroke-width: 0.4"/>
    </defs>
    <g clip-path="url(#p0aa7b8cfc6)">
     <use xlink:href="#m11059f624c" x="374.689338" y="213.604664" style="fill: #a3b25a; fill-opacity: 0.82; stroke: #ffffff; stroke-opacity: 0.82; stroke-width: 0.4"/>
     <use xlink:href="#m11059f624c" x="411.726341" y="172.879308" style="fill: #a3b25a; fill-opacity: 0.82; stroke: #ffffff; stroke-opacity: 0.82; stroke-width: 0.4"/>
     <use xlink:href="#m11059f624c" x="410.142057" y="185.237868" style="fill: #a3b25a; fill-opacity: 0.82; stroke: #ffffff; stroke-opacity: 0.82; stroke-width: 0.4"/>
     <use xlink:href="#m11059f624c" x="374.376232" y="292.021153" style="fill: #a3b25a; fill-opacity: 0.82; stroke: #ffffff; stroke-opacity: 0.82; stroke-width: 0.4"/>
     <use xlink:href="#m11059f624c" x="464.869742" y="173.922256" style="fill: #a3b25a; fill-opacity: 0.82; stroke: #ffffff; stroke-opacity: 0.82; stroke-width: 0.4"/>
     <use xlink:href="#m11059f624c" x="344.049151" y="234.17569" style="fill: #a3b25a; fill-opacity: 0.82; stroke: #ffffff; stroke-opacity: 0.82; stroke-width: 0.4"/>
     <use xlink:href="#m11059f624c" x="403.367013" y="211.143165" style="fill: #a3b25a; fill-opacity: 0.82; stroke: #ffffff; stroke-opacity: 0.82; stroke-width: 0.4"/>
     <use xlink:href="#m11059f624c" x="426.043092" y="184.846932" style="fill: #a3b25a; fill-opacity: 0.82; stroke: #ffffff; stroke-opacity: 0.82; stroke-width: 0.4"/>
     <use xlink:href="#m11059f624c" x="348.462565" y="180.619654" style="fill: #a3b25a; fill-opacity: 0.82; stroke: #ffffff; stroke-opacity: 0.82; stroke-width: 0.4"/>
     <use xlink:href="#m11059f624c" x="250.055028" y="185.512392" style="fill: #a3b25a; fill-opacity: 0.82; stroke: #ffffff; stroke-opacity: 0.82; stroke-width: 0.4"/>
     <use xlink:href="#m11059f624c" x="342.848077" y="184.196668" style="fill: #a3b25a; fill-opacity: 0.82; stroke: #ffffff; stroke-opacity: 0.82; stroke-width: 0.4"/>
     <use xlink:href="#m11059f624c" x="201.06112" y="293.4253" style="fill: #a3b25a; fill-opacity: 0.82; stroke: #ffffff; stroke-opacity: 0.82; stroke-width: 0.4"/>
     <use xlink:href="#m11059f624c" x="331.533189" y="194.925299" style="fill: #a3b25a; fill-opacity: 0.82; stroke: #ffffff; stroke-opacity: 0.82; stroke-width: 0.4"/>
     <use xlink:href="#m11059f624c" x="364.868426" y="199.416478" style="fill: #a3b25a; fill-opacity: 0.82; stroke: #ffffff; stroke-opacity: 0.82; stroke-width: 0.4"/>
     <use xlink:href="#m11059f624c" x="310.872997" y="262.27053" style="fill: #a3b25a; fill-opacity: 0.82; stroke: #ffffff; stroke-opacity: 0.82; stroke-width: 0.4"/>
     <use xlink:href="#m11059f624c" x="363.044379" y="182.446706" style="fill: #a3b25a; fill-opacity: 0.82; stroke: #ffffff; stroke-opacity: 0.82; stroke-width: 0.4"/>
     <use xlink:href="#m11059f624c" x="343.770401" y="187.773119" style="fill: #a3b25a; fill-opacity: 0.82; stroke: #ffffff; stroke-opacity: 0.82; stroke-width: 0.4"/>
     <use xlink:href="#m11059f624c" x="304.677675" y="210.162749" style="fill: #a3b25a; fill-opacity: 0.82; stroke: #ffffff; stroke-opacity: 0.82; stroke-width: 0.4"/>
     <use xlink:href="#m11059f624c" x="286.368553" y="180.930798" style="fill: #a3b25a; fill-opacity: 0.82; stroke: #ffffff; stroke-opacity: 0.82; stroke-width: 0.4"/>
     <use xlink:href="#m11059f624c" x="320.426639" y="129.465158" style="fill: #a3b25a; fill-opacity: 0.82; stroke: #ffffff; stroke-opacity: 0.82; stroke-width: 0.4"/>
     <use xlink:href="#m11059f624c" x="332.477726" y="197.080584" style="fill: #a3b25a; fill-opacity: 0.82; stroke: #ffffff; stroke-opacity: 0.82; stroke-width: 0.4"/>
     <use xlink:href="#m11059f624c" x="433.825409" y="208.14506" style="fill: #a3b25a; fill-opacity: 0.82; stroke: #ffffff; stroke-opacity: 0.82; stroke-width: 0.4"/>
     <use xlink:href="#m11059f624c" x="406.826494" y="186.140852" style="fill: #a3b25a; fill-opacity: 0.82; stroke: #ffffff; stroke-opacity: 0.82; stroke-width: 0.4"/>
     <use xlink:href="#m11059f624c" x="311.57922" y="204.969385" style="fill: #a3b25a; fill-opacity: 0.82; stroke: #ffffff; stroke-opacity: 0.82; stroke-width: 0.4"/>
     <use xlink:href="#m11059f624c" x="414.319381" y="182.617782" style="fill: #a3b25a; fill-opacity: 0.82; stroke: #ffffff; stroke-opacity: 0.82; stroke-width: 0.4"/>
     <use xlink:href="#m11059f624c" x="387.245004" y="200.11979" style="fill: #a3b25a; fill-opacity: 0.82; stroke: #ffffff; stroke-opacity: 0.82; stroke-width: 0.4"/>
     <use xlink:href="#m11059f624c" x="390.635209" y="175.230255" style="fill: #a3b25a; fill-opacity: 0.82; stroke: #ffffff; stroke-opacity: 0.82; stroke-width: 0.4"/>
     <use xlink:href="#m11059f624c" x="370.864466" y="171.33706" style="fill: #a3b25a; fill-opacity: 0.82; stroke: #ffffff; stroke-opacity: 0.82; stroke-width: 0.4"/>
     <use xlink:href="#m11059f624c" x="425.34819" y="247.943575" style="fill: #a3b25a; fill-opacity: 0.82; stroke: #ffffff; stroke-opacity: 0.82; stroke-width: 0.4"/>
     <use xlink:href="#m11059f624c" x="488.573206" y="162.585157" style="fill: #a3b25a; fill-opacity: 0.82; stroke: #ffffff; stroke-opacity: 0.82; stroke-width: 0.4"/>
    </g>
   </g>
   <g id="PathCollection_4">
    <defs>
     <path id="md4e35558f6" d="M 0 3 
C 0.795609 3 1.55874 2.683901 2.12132 2.12132 
C 2.683901 1.55874 3 0.795609 3 0 
C 3 -0.795609 2.683901 -1.55874 2.12132 -2.12132 
C 1.55874 -2.683901 0.795609 -3 0 -3 
C -0.795609 -3 -1.55874 -2.683901 -2.12132 -2.12132 
C -2.683901 -1.55874 -3 -0.795609 -3 0 
C -3 0.795609 -2.683901 1.55874 -2.12132 2.12132 
C -1.55874 2.683901 -0.795609 3 0 3 
z
" style="stroke: #ffffff; stroke-opacity: 0.82; stroke-width: 0.4"/>
    </defs>
    <g clip-path="url(#p0aa7b8cfc6)">
     <use xlink:href="#md4e35558f6" x="307.960176" y="247.420985" style="fill: #78a652; fill-opacity: 0.82; stroke: #ffffff; stroke-opacity: 0.82; stroke-width: 0.4"/>
     <use xlink:href="#md4e35558f6" x="392.777905" y="204.709843" style="fill: #78a652; fill-opacity: 0.82; stroke: #ffffff; stroke-opacity: 0.82; stroke-width: 0.4"/>
     <use xlink:href="#md4e35558f6" x="378.342057" y="189.574368" style="fill: #78a652; fill-opacity: 0.82; stroke: #ffffff; stroke-opacity: 0.82; stroke-width: 0.4"/>
     <use xlink:href="#md4e35558f6" x="193.595341" y="290.735052" style="fill: #78a652; fill-opacity: 0.82; stroke: #ffffff; stroke-opacity: 0.82; stroke-width: 0.4"/>
     <use xlink:href="#md4e35558f6" x="430.67155" y="162.175179" style="fill: #78a652; fill-opacity: 0.82; stroke: #ffffff; stroke-opacity: 0.82; stroke-width: 0.4"/>
     <use xlink:href="#md4e35558f6" x="391.594552" y="209.172116" style="fill: #78a652; fill-opacity: 0.82; stroke: #ffffff; stroke-opacity: 0.82; stroke-width: 0.4"/>
     <use xlink:href="#md4e35558f6" x="408.137642" y="181.157592" style="fill: #78a652; fill-opacity: 0.82; stroke: #ffffff; stroke-opacity: 0.82; stroke-width: 0.4"/>
     <use xlink:href="#md4e35558f6" x="381.390102" y="198.574442" style="fill: #78a652; fill-opacity: 0.82; stroke: #ffffff; stroke-opacity: 0.82; stroke-width: 0.4"/>
     <use xlink:href="#md4e35558f6" x="353.829432" y="196.245531" style="fill: #78a652; fill-opacity: 0.82; stroke: #ffffff; stroke-opacity: 0.82; stroke-width: 0.4"/>
     <use xlink:href="#md4e35558f6" x="362.025851" y="181.464511" style="fill: #78a652; fill-opacity: 0.82; stroke: #ffffff; stroke-opacity: 0.82; stroke-width: 0.4"/>
     <use xlink:href="#md4e35558f6" x="321.92424" y="195.99188" style="fill: #78a652; fill-opacity: 0.82; stroke: #ffffff; stroke-opacity: 0.82; stroke-width: 0.4"/>
     <use xlink:href="#md4e35558f6" x="287.413389" y="247.509162" style="fill: #78a652; fill-opacity: 0.82; stroke: #ffffff; stroke-opacity: 0.82; stroke-width: 0.4"/>
     <use xlink:href="#md4e35558f6" x="374.791046" y="186.464614" style="fill: #78a652; fill-opacity: 0.82; stroke: #ffffff; stroke-opacity: 0.82; stroke-width: 0.4"/>
     <use xlink:href="#md4e35558f6" x="385.652175" y="189.60248" style="fill: #78a652; fill-opacity: 0.82; stroke: #ffffff; stroke-opacity: 0.82; stroke-width: 0.4"/>
     <use xlink:href="#md4e35558f6" x="337.843512" y="234.677859" style="fill: #78a652; fill-opacity: 0.82; stroke: #ffffff; stroke-opacity: 0.82; stroke-width: 0.4"/>
     <use xlink:href="#md4e35558f6" x="361.955259" y="193.609873" style="fill: #78a652; fill-opacity: 0.82; stroke: #ffffff; stroke-opacity: 0.82; stroke-width: 0.4"/>
     <use xlink:href="#md4e35558f6" x="325.099898" y="188.939471" style="fill: #78a652; fill-opacity: 0.82; stroke: #ffffff; stroke-opacity: 0.82; stroke-width: 0.4"/>
     <use xlink:href="#md4e35558f6" x="326.066217" y="190.548094" style="fill: #78a652; fill-opacity: 0.82; stroke: #ffffff; stroke-opacity: 0.82; stroke-width: 0.4"/>
     <use xlink:href="#md4e35558f6" x="317.989975" y="171.708144" style="fill: #78a652; fill-opacity: 0.82; stroke: #ffffff; stroke-opacity: 0.82; stroke-width: 0.4"/>
     <use xlink:href="#md4e35558f6" x="340.86312" y="186.536338" style="fill: #78a652; fill-opacity: 0.82; stroke: #ffffff; stroke-opacity: 0.82; stroke-width: 0.4"/>
     <use xlink:href="#md4e35558f6" x="348.934714" y="195.401726" style="fill: #78a652; fill-opacity: 0.82; stroke: #ffffff; stroke-opacity: 0.82; stroke-width: 0.4"/>
     <use xlink:href="#md4e35558f6" x="418.420891" y="199.048301" style="fill: #78a652; fill-opacity: 0.82; stroke: #ffffff; stroke-opacity: 0.82; stroke-width: 0.4"/>
     <use xlink:href="#md4e35558f6" x="419.986285" y="190.83074" style="fill: #78a652; fill-opacity: 0.82; stroke: #ffffff; stroke-opacity: 0.82; stroke-width: 0.4"/>
     <use xlink:href="#md4e35558f6" x="342.575098" y="214.096055" style="fill: #78a652; fill-opacity: 0.82; stroke: #ffffff; stroke-opacity: 0.82; stroke-width: 0.4"/>
     <use xlink:href="#md4e35558f6" x="366.627329" y="199.71709" style="fill: #78a652; fill-opacity: 0.82; stroke: #ffffff; stroke-opacity: 0.82; stroke-width: 0.4"/>
     <use xlink:href="#md4e35558f6" x="399.921353" y="211.507322" style="fill: #78a652; fill-opacity: 0.82; stroke: #ffffff; stroke-opacity: 0.82; stroke-width: 0.4"/>
     <use xlink:href="#md4e35558f6" x="366.904203" y="189.70399" style="fill: #78a652; fill-opacity: 0.82; stroke: #ffffff; stroke-opacity: 0.82; stroke-width: 0.4"/>
     <use xlink:href="#md4e35558f6" x="394.236563" y="191.138034" style="fill: #78a652; fill-opacity: 0.82; stroke: #ffffff; stroke-opacity: 0.82; stroke-width: 0.4"/>
     <use xlink:href="#md4e35558f6" x="426.402031" y="200.035076" style="fill: #78a652; fill-opacity: 0.82; stroke: #ffffff; stroke-opacity: 0.82; stroke-width: 0.4"/>
     <use xlink:href="#md4e35558f6" x="475.014415" y="156.849519" style="fill: #78a652; fill-opacity: 0.82; stroke: #ffffff; stroke-opacity: 0.82; stroke-width: 0.4"/>
    </g>
   </g>
   <g id="PathCollection_5">
    <defs>
     <path id="m5ee8b5d0eb" d="M 0 3 
C 0.795609 3 1.55874 2.683901 2.12132 2.12132 
C 2.683901 1.55874 3 0.795609 3 0 
C 3 -0.795609 2.683901 -1.55874 2.12132 -2.12132 
C 1.55874 -2.683901 0.795609 -3 0 -3 
C -0.795609 -3 -1.55874 -2.683901 -2.12132 -2.12132 
C -2.683901 -1.55874 -3 -0.795609 -3 0 
C -3 0.795609 -2.683901 1.55874 -2.12132 2.12132 
C -1.55874 2.683901 -0.795609 3 0 3 
z
" style="stroke: #ffffff; stroke-opacity: 0.82; stroke-width: 0.4"/>
    </defs>
    <g clip-path="url(#p0aa7b8cfc6)">
     <use xlink:href="#m5ee8b5d0eb" x="326.443106" y="200.22311" style="fill: #44994b; fill-opacity: 0.82; stroke: #ffffff; stroke-opacity: 0.82; stroke-width: 0.4"/>
     <use xlink:href="#m5ee8b5d0eb" x="357.105598" y="207.060924" style="fill: #44994b; fill-opacity: 0.82; stroke: #ffffff; stroke-opacity: 0.82; stroke-width: 0.4"/>
     <use xlink:href="#m5ee8b5d0eb" x="370.376" y="209.371706" style="fill: #44994b; fill-opacity: 0.82; stroke: #ffffff; stroke-opacity: 0.82; stroke-width: 0.4"/>
     <use xlink:href="#m5ee8b5d0eb" x="382.133672" y="203.184011" style="fill: #44994b; fill-opacity: 0.82; stroke: #ffffff; stroke-opacity: 0.82; stroke-width: 0.4"/>
     <use xlink:href="#m5ee8b5d0eb" x="365.440385" y="222.573288" style="fill: #44994b; fill-opacity: 0.82; stroke: #ffffff; stroke-opacity: 0.82; stroke-width: 0.4"/>
     <use xlink:href="#m5ee8b5d0eb" x="434.146858" y="179.651036" style="fill: #44994b; fill-opacity: 0.82; stroke: #ffffff; stroke-opacity: 0.82; stroke-width: 0.4"/>
     <use xlink:href="#m5ee8b5d0eb" x="292.844313" y="236.156487" style="fill: #44994b; fill-opacity: 0.82; stroke: #ffffff; stroke-opacity: 0.82; stroke-width: 0.4"/>
     <use xlink:href="#m5ee8b5d0eb" x="299.904198" y="227.902658" style="fill: #44994b; fill-opacity: 0.82; stroke: #ffffff; stroke-opacity: 0.82; stroke-width: 0.4"/>
     <use xlink:href="#m5ee8b5d0eb" x="380.613636" y="189.595774" style="fill: #44994b; fill-opacity: 0.82; stroke: #ffffff; stroke-opacity: 0.82; stroke-width: 0.4"/>
     <use xlink:href="#m5ee8b5d0eb" x="412.123268" y="200.098736" style="fill: #44994b; fill-opacity: 0.82; stroke: #ffffff; stroke-opacity: 0.82; stroke-width: 0.4"/>
     <use xlink:href="#m5ee8b5d0eb" x="371.944323" y="209.405836" style="fill: #44994b; fill-opacity: 0.82; stroke: #ffffff; stroke-opacity: 0.82; stroke-width: 0.4"/>
     <use xlink:href="#m5ee8b5d0eb" x="298.410211" y="180.812187" style="fill: #44994b; fill-opacity: 0.82; stroke: #ffffff; stroke-opacity: 0.82; stroke-width: 0.4"/>
     <use xlink:href="#m5ee8b5d0eb" x="315.313608" y="211.168373" style="fill: #44994b; fill-opacity: 0.82; stroke: #ffffff; stroke-opacity: 0.82; stroke-width: 0.4"/>
     <use xlink:href="#m5ee8b5d0eb" x="420.213185" y="193.575264" style="fill: #44994b; fill-opacity: 0.82; stroke: #ffffff; stroke-opacity: 0.82; stroke-width: 0.4"/>
     <use xlink:href="#m5ee8b5d0eb" x="343.230285" y="182.01834" style="fill: #44994b; fill-opacity: 0.82; stroke: #ffffff; stroke-opacity: 0.82; stroke-width: 0.4"/>
     <use xlink:href="#m5ee8b5d0eb" x="348.44254" y="206.705395" style="fill: #44994b; fill-opacity: 0.82; stroke: #ffffff; stroke-opacity: 0.82; stroke-width: 0.4"/>
     <use xlink:href="#m5ee8b5d0eb" x="347.67537" y="200.821572" style="fill: #44994b; fill-opacity: 0.82; stroke: #ffffff; stroke-opacity: 0.82; stroke-width: 0.4"/>
     <use xlink:href="#m5ee8b5d0eb" x="403.239201" y="162.441176" style="fill: #44994b; fill-opacity: 0.82; stroke: #ffffff; stroke-opacity: 0.82; stroke-width: 0.4"/>
     <use xlink:href="#m5ee8b5d0eb" x="335.383645" y="136.59549" style="fill: #44994b; fill-opacity: 0.82; stroke: #ffffff; stroke-opacity: 0.82; stroke-width: 0.4"/>
     <use xlink:href="#m5ee8b5d0eb" x="302.76487" y="208.726336" style="fill: #44994b; fill-opacity: 0.82; stroke: #ffffff; stroke-opacity: 0.82; stroke-width: 0.4"/>
     <use xlink:href="#m5ee8b5d0eb" x="377.466411" y="192.163717" style="fill: #44994b; fill-opacity: 0.82; stroke: #ffffff; stroke-opacity: 0.82; stroke-width: 0.4"/>
     <use xlink:href="#m5ee8b5d0eb" x="378.40416" y="201.87112" style="fill: #44994b; fill-opacity: 0.82; stroke: #ffffff; stroke-opacity: 0.82; stroke-width: 0.4"/>
     <use xlink:href="#m5ee8b5d0eb" x="371.093745" y="204.470923" style="fill: #44994b; fill-opacity: 0.82; stroke: #ffffff; stroke-opacity: 0.82; stroke-width: 0.4"/>
     <use xlink:href="#m5ee8b5d0eb" x="353.463383" y="192.11825" style="fill: #44994b; fill-opacity: 0.82; stroke: #ffffff; stroke-opacity: 0.82; stroke-width: 0.4"/>
     <use xlink:href="#m5ee8b5d0eb" x="418.375353" y="203.013714" style="fill: #44994b; fill-opacity: 0.82; stroke: #ffffff; stroke-opacity: 0.82; stroke-width: 0.4"/>
     <use xlink:href="#m5ee8b5d0eb" x="364.534836" y="234.434299" style="fill: #44994b; fill-opacity: 0.82; stroke: #ffffff; stroke-opacity: 0.82; stroke-width: 0.4"/>
     <use xlink:href="#m5ee8b5d0eb" x="396.538408" y="190.712732" style="fill: #44994b; fill-opacity: 0.82; stroke: #ffffff; stroke-opacity: 0.82; stroke-width: 0.4"/>
     <use xlink:href="#m5ee8b5d0eb" x="372.414929" y="204.911065" style="fill: #44994b; fill-opacity: 0.82; stroke: #ffffff; stroke-opacity: 0.82; stroke-width: 0.4"/>
     <use xlink:href="#m5ee8b5d0eb" x="391.438588" y="196.167603" style="fill: #44994b; fill-opacity: 0.82; stroke: #ffffff; stroke-opacity: 0.82; stroke-width: 0.4"/>
     <use xlink:href="#m5ee8b5d0eb" x="407.468235" y="207.194262" style="fill: #44994b; fill-opacity: 0.82; stroke: #ffffff; stroke-opacity: 0.82; stroke-width: 0.4"/>
    </g>
   </g>
   <g id="PathCollection_6">
    <defs>
     <path id="m562d328f83" d="M 0 3 
C 0.795609 3 1.55874 2.683901 2.12132 2.12132 
C 2.683901 1.55874 3 0.795609 3 0 
C 3 -0.795609 2.683901 -1.55874 2.12132 -2.12132 
C 1.55874 -2.683901 0.795609 -3 0 -3 
C -0.795609 -3 -1.55874 -2.683901 -2.12132 -2.12132 
C -2.683901 -1.55874 -3 -0.795609 -3 0 
C -3 0.795609 -2.683901 1.55874 -2.12132 2.12132 
C -1.55874 2.683901 -0.795609 3 0 3 
z
" style="stroke: #ffffff; stroke-opacity: 0.82; stroke-width: 0.4"/>
    </defs>
    <g clip-path="url(#p0aa7b8cfc6)">
     <use xlink:href="#m562d328f83" x="267.404044" y="228.019261" style="fill: #388a6b; fill-opacity: 0.82; stroke: #ffffff; stroke-opacity: 0.82; stroke-width: 0.4"/>
     <use xlink:href="#m562d328f83" x="394.737109" y="219.845072" style="fill: #388a6b; fill-opacity: 0.82; stroke: #ffffff; stroke-opacity: 0.82; stroke-width: 0.4"/>
     <use xlink:href="#m562d328f83" x="407.204247" y="216.469761" style="fill: #388a6b; fill-opacity: 0.82; stroke: #ffffff; stroke-opacity: 0.82; stroke-width: 0.4"/>
     <use xlink:href="#m562d328f83" x="350.202075" y="134.693678" style="fill: #388a6b; fill-opacity: 0.82; stroke: #ffffff; stroke-opacity: 0.82; stroke-width: 0.4"/>
     <use xlink:href="#m562d328f83" x="409.995955" y="218.691743" style="fill: #388a6b; fill-opacity: 0.82; stroke: #ffffff; stroke-opacity: 0.82; stroke-width: 0.4"/>
     <use xlink:href="#m562d328f83" x="380.059605" y="181.958715" style="fill: #388a6b; fill-opacity: 0.82; stroke: #ffffff; stroke-opacity: 0.82; stroke-width: 0.4"/>
     <use xlink:href="#m562d328f83" x="253.290864" y="240.84214" style="fill: #388a6b; fill-opacity: 0.82; stroke: #ffffff; stroke-opacity: 0.82; stroke-width: 0.4"/>
     <use xlink:href="#m562d328f83" x="339.141966" y="224.8396" style="fill: #388a6b; fill-opacity: 0.82; stroke: #ffffff; stroke-opacity: 0.82; stroke-width: 0.4"/>
     <use xlink:href="#m562d328f83" x="355.459764" y="219.083529" style="fill: #388a6b; fill-opacity: 0.82; stroke: #ffffff; stroke-opacity: 0.82; stroke-width: 0.4"/>
     <use xlink:href="#m562d328f83" x="415.206461" y="191.478186" style="fill: #388a6b; fill-opacity: 0.82; stroke: #ffffff; stroke-opacity: 0.82; stroke-width: 0.4"/>
     <use xlink:href="#m562d328f83" x="400.598689" y="209.169832" style="fill: #388a6b; fill-opacity: 0.82; stroke: #ffffff; stroke-opacity: 0.82; stroke-width: 0.4"/>
     <use xlink:href="#m562d328f83" x="351.360736" y="178.288764" style="fill: #388a6b; fill-opacity: 0.82; stroke: #ffffff; stroke-opacity: 0.82; stroke-width: 0.4"/>
     <use xlink:href="#m562d328f83" x="396.340918" y="207.925754" style="fill: #388a6b; fill-opacity: 0.82; stroke: #ffffff; stroke-opacity: 0.82; stroke-width: 0.4"/>
     <use xlink:href="#m562d328f83" x="443.82728" y="191.579832" style="fill: #388a6b; fill-opacity: 0.82; stroke: #ffffff; stroke-opacity: 0.82; stroke-width: 0.4"/>
     <use xlink:href="#m562d328f83" x="364.998473" y="149.581025" style="fill: #388a6b; fill-opacity: 0.82; stroke: #ffffff; stroke-opacity: 0.82; stroke-width: 0.4"/>
     <use xlink:href="#m562d328f83" x="376.031368" y="222.164317" style="fill: #388a6b; fill-opacity: 0.82; stroke: #ffffff; stroke-opacity: 0.82; stroke-width: 0.4"/>
     <use xlink:href="#m562d328f83" x="384.112237" y="203.310051" style="fill: #388a6b; fill-opacity: 0.82; stroke: #ffffff; stroke-opacity: 0.82; stroke-width: 0.4"/>
     <use xlink:href="#m562d328f83" x="408.70339" y="181.228434" style="fill: #388a6b; fill-opacity: 0.82; stroke: #ffffff; stroke-opacity: 0.82; stroke-width: 0.4"/>
     <use xlink:href="#m562d328f83" x="371.833289" y="170.562432" style="fill: #388a6b; fill-opacity: 0.82; stroke: #ffffff; stroke-opacity: 0.82; stroke-width: 0.4"/>
     <use xlink:href="#m562d328f83" x="255.823793" y="169.933665" style="fill: #388a6b; fill-opacity: 0.82; stroke: #ffffff; stroke-opacity: 0.82; stroke-width: 0.4"/>
     <use xlink:href="#m562d328f83" x="346.019129" y="239.442671" style="fill: #388a6b; fill-opacity: 0.82; stroke: #ffffff; stroke-opacity: 0.82; stroke-width: 0.4"/>
     <use xlink:href="#m562d328f83" x="327.470319" y="199.240387" style="fill: #388a6b; fill-opacity: 0.82; stroke: #ffffff; stroke-opacity: 0.82; stroke-width: 0.4"/>
     <use xlink:href="#m562d328f83" x="399.858733" y="193.398449" style="fill: #388a6b; fill-opacity: 0.82; stroke: #ffffff; stroke-opacity: 0.82; stroke-width: 0.4"/>
     <use xlink:href="#m562d328f83" x="341.31931" y="195.56671" style="fill: #388a6b; fill-opacity: 0.82; stroke: #ffffff; stroke-opacity: 0.82; stroke-width: 0.4"/>
     <use xlink:href="#m562d328f83" x="347.888022" y="200.063045" style="fill: #388a6b; fill-opacity: 0.82; stroke: #ffffff; stroke-opacity: 0.82; stroke-width: 0.4"/>
     <use xlink:href="#m562d328f83" x="313.480561" y="236.357554" style="fill: #388a6b; fill-opacity: 0.82; stroke: #ffffff; stroke-opacity: 0.82; stroke-width: 0.4"/>
     <use xlink:href="#m562d328f83" x="385.270061" y="206.316704" style="fill: #388a6b; fill-opacity: 0.82; stroke: #ffffff; stroke-opacity: 0.82; stroke-width: 0.4"/>
     <use xlink:href="#m562d328f83" x="339.731838" y="215.402512" style="fill: #388a6b; fill-opacity: 0.82; stroke: #ffffff; stroke-opacity: 0.82; stroke-width: 0.4"/>
     <use xlink:href="#m562d328f83" x="395.75515" y="129.538843" style="fill: #388a6b; fill-opacity: 0.82; stroke: #ffffff; stroke-opacity: 0.82; stroke-width: 0.4"/>
     <use xlink:href="#m562d328f83" x="415.820934" y="220.15272" style="fill: #388a6b; fill-opacity: 0.82; stroke: #ffffff; stroke-opacity: 0.82; stroke-width: 0.4"/>
    </g>
   </g>
   <g id="PathCollection_7">
    <defs>
     <path id="m3cedd765b0" d="M 0 3 
C 0.795609 3 1.55874 2.683901 2.12132 2.12132 
C 2.683901 1.55874 3 0.795609 3 0 
C 3 -0.795609 2.683901 -1.55874 2.12132 -2.12132 
C 1.55874 -2.683901 0.795609 -3 0 -3 
C -0.795609 -3 -1.55874 -2.683901 -2.12132 -2.12132 
C -2.683901 -1.55874 -3 -0.795609 -3 0 
C -3 0.795609 -2.683901 1.55874 -2.12132 2.12132 
C -1.55874 2.683901 -0.795609 3 0 3 
z
" style="stroke: #ffffff; stroke-opacity: 0.82; stroke-width: 0.4"/>
    </defs>
    <g clip-path="url(#p0aa7b8cfc6)">
     <use xlink:href="#m3cedd765b0" x="364.223725" y="181.278145" style="fill: #2b737e; fill-opacity: 0.82; stroke: #ffffff; stroke-opacity: 0.82; stroke-width: 0.4"/>
     <use xlink:href="#m3cedd765b0" x="288.495574" y="216.542995" style="fill: #2b737e; fill-opacity: 0.82; stroke: #ffffff; stroke-opacity: 0.82; stroke-width: 0.4"/>
     <use xlink:href="#m3cedd765b0" x="236.15574" y="204.694225" style="fill: #2b737e; fill-opacity: 0.82; stroke: #ffffff; stroke-opacity: 0.82; stroke-width: 0.4"/>
     <use xlink:href="#m3cedd765b0" x="439.325449" y="207.353011" style="fill: #2b737e; fill-opacity: 0.82; stroke: #ffffff; stroke-opacity: 0.82; stroke-width: 0.4"/>
     <use xlink:href="#m3cedd765b0" x="247.577491" y="215.148616" style="fill: #2b737e; fill-opacity: 0.82; stroke: #ffffff; stroke-opacity: 0.82; stroke-width: 0.4"/>
     <use xlink:href="#m3cedd765b0" x="298.125956" y="130.33823" style="fill: #2b737e; fill-opacity: 0.82; stroke: #ffffff; stroke-opacity: 0.82; stroke-width: 0.4"/>
     <use xlink:href="#m3cedd765b0" x="393.534138" y="128.100643" style="fill: #2b737e; fill-opacity: 0.82; stroke: #ffffff; stroke-opacity: 0.82; stroke-width: 0.4"/>
     <use xlink:href="#m3cedd765b0" x="271.884908" y="226.863714" style="fill: #2b737e; fill-opacity: 0.82; stroke: #ffffff; stroke-opacity: 0.82; stroke-width: 0.4"/>
     <use xlink:href="#m3cedd765b0" x="410.695218" y="212.752997" style="fill: #2b737e; fill-opacity: 0.82; stroke: #ffffff; stroke-opacity: 0.82; stroke-width: 0.4"/>
     <use xlink:href="#m3cedd765b0" x="500.648879" y="176.715483" style="fill: #2b737e; fill-opacity: 0.82; stroke: #ffffff; stroke-opacity: 0.82; stroke-width: 0.4"/>
     <use xlink:href="#m3cedd765b0" x="408.070411" y="195.592518" style="fill: #2b737e; fill-opacity: 0.82; stroke: #ffffff; stroke-opacity: 0.82; stroke-width: 0.4"/>
     <use xlink:href="#m3cedd765b0" x="623.130341" y="214.284039" style="fill: #2b737e; fill-opacity: 0.82; stroke: #ffffff; stroke-opacity: 0.82; stroke-width: 0.4"/>
     <use xlink:href="#m3cedd765b0" x="356.843944" y="209.684839" style="fill: #2b737e; fill-opacity: 0.82; stroke: #ffffff; stroke-opacity: 0.82; stroke-width: 0.4"/>
     <use xlink:href="#m3cedd765b0" x="216.712924" y="191.482371" style="fill: #2b737e; fill-opacity: 0.82; stroke: #ffffff; stroke-opacity: 0.82; stroke-width: 0.4"/>
     <use xlink:href="#m3cedd765b0" x="501.069705" y="76.447577" style="fill: #2b737e; fill-opacity: 0.82; stroke: #ffffff; stroke-opacity: 0.82; stroke-width: 0.4"/>
     <use xlink:href="#m3cedd765b0" x="387.475516" y="218.341181" style="fill: #2b737e; fill-opacity: 0.82; stroke: #ffffff; stroke-opacity: 0.82; stroke-width: 0.4"/>
     <use xlink:href="#m3cedd765b0" x="405.486747" y="194.573032" style="fill: #2b737e; fill-opacity: 0.82; stroke: #ffffff; stroke-opacity: 0.82; stroke-width: 0.4"/>
     <use xlink:href="#m3cedd765b0" x="457.130547" y="167.58721" style="fill: #2b737e; fill-opacity: 0.82; stroke: #ffffff; stroke-opacity: 0.82; stroke-width: 0.4"/>
     <use xlink:href="#m3cedd765b0" x="556.040694" y="171.33883" style="fill: #2b737e; fill-opacity: 0.82; stroke: #ffffff; stroke-opacity: 0.82; stroke-width: 0.4"/>
     <use xlink:href="#m3cedd765b0" x="547.886369" y="428.963011" style="fill: #2b737e; fill-opacity: 0.82; stroke: #ffffff; stroke-opacity: 0.82; stroke-width: 0.4"/>
     <use xlink:href="#m3cedd765b0" x="398.327445" y="177.888552" style="fill: #2b737e; fill-opacity: 0.82; stroke: #ffffff; stroke-opacity: 0.82; stroke-width: 0.4"/>
     <use xlink:href="#m3cedd765b0" x="252.379985" y="169.290857" style="fill: #2b737e; fill-opacity: 0.82; stroke: #ffffff; stroke-opacity: 0.82; stroke-width: 0.4"/>
     <use xlink:href="#m3cedd765b0" x="248.996362" y="188.48721" style="fill: #2b737e; fill-opacity: 0.82; stroke: #ffffff; stroke-opacity: 0.82; stroke-width: 0.4"/>
     <use xlink:href="#m3cedd765b0" x="548.250209" y="189.8897" style="fill: #2b737e; fill-opacity: 0.82; stroke: #ffffff; stroke-opacity: 0.82; stroke-width: 0.4"/>
     <use xlink:href="#m3cedd765b0" x="300.69227" y="197.052126" style="fill: #2b737e; fill-opacity: 0.82; stroke: #ffffff; stroke-opacity: 0.82; stroke-width: 0.4"/>
     <use xlink:href="#m3cedd765b0" x="257.653374" y="217.138602" style="fill: #2b737e; fill-opacity: 0.82; stroke: #ffffff; stroke-opacity: 0.82; stroke-width: 0.4"/>
     <use xlink:href="#m3cedd765b0" x="323.718385" y="219.654212" style="fill: #2b737e; fill-opacity: 0.82; stroke: #ffffff; stroke-opacity: 0.82; stroke-width: 0.4"/>
     <use xlink:href="#m3cedd765b0" x="361.455852" y="212.206014" style="fill: #2b737e; fill-opacity: 0.82; stroke: #ffffff; stroke-opacity: 0.82; stroke-width: 0.4"/>
     <use xlink:href="#m3cedd765b0" x="216.673003" y="211.80107" style="fill: #2b737e; fill-opacity: 0.82; stroke: #ffffff; stroke-opacity: 0.82; stroke-width: 0.4"/>
     <use xlink:href="#m3cedd765b0" x="120.285158" y="243.654378" style="fill: #2b737e; fill-opacity: 0.82; stroke: #ffffff; stroke-opacity: 0.82; stroke-width: 0.4"/>
    </g>
   </g>
   <g id="PathCollection_8">
    <defs>
     <path id="ma5d338f24a" d="M 0 3 
C 0.795609 3 1.55874 2.683901 2.12132 2.12132 
C 2.683901 1.55874 3 0.795609 3 0 
C 3 -0.795609 2.683901 -1.55874 2.12132 -2.12132 
C 1.55874 -2.683901 0.795609 -3 0 -3 
C -0.795609 -3 -1.55874 -2.683901 -2.12132 -2.12132 
C -2.683901 -1.55874 -3 -0.795609 -3 0 
C -3 0.795609 -2.683901 1.55874 -2.12132 2.12132 
C -1.55874 2.683901 -0.795609 3 0 3 
z
" style="stroke: #ffffff; stroke-opacity: 0.82; stroke-width: 0.4"/>
    </defs>
    <g clip-path="url(#p0aa7b8cfc6)">
     <use xlink:href="#ma5d338f24a" x="320.589669" y="209.710537" style="fill: #194579; fill-opacity: 0.82; stroke: #ffffff; stroke-opacity: 0.82; stroke-width: 0.4"/>
     <use xlink:href="#ma5d338f24a" x="261.796538" y="225.236817" style="fill: #194579; fill-opacity: 0.82; stroke: #ffffff; stroke-opacity: 0.82; stroke-width: 0.4"/>
     <use xlink:href="#ma5d338f24a" x="269.139874" y="206.948588" style="fill: #194579; fill-opacity: 0.82; stroke: #ffffff; stroke-opacity: 0.82; stroke-width: 0.4"/>
     <use xlink:href="#ma5d338f24a" x="401.387178" y="59.667738" style="fill: #194579; fill-opacity: 0.82; stroke: #ffffff; stroke-opacity: 0.82; stroke-width: 0.4"/>
     <use xlink:href="#ma5d338f24a" x="184.406306" y="222.3676" style="fill: #194579; fill-opacity: 0.82; stroke: #ffffff; stroke-opacity: 0.82; stroke-width: 0.4"/>
     <use xlink:href="#ma5d338f24a" x="366.810595" y="107.452591" style="fill: #194579; fill-opacity: 0.82; stroke: #ffffff; stroke-opacity: 0.82; stroke-width: 0.4"/>
     <use xlink:href="#ma5d338f24a" x="459.408446" y="42.385739" style="fill: #194579; fill-opacity: 0.82; stroke: #ffffff; stroke-opacity: 0.82; stroke-width: 0.4"/>
     <use xlink:href="#ma5d338f24a" x="327.014929" y="245.279098" style="fill: #194579; fill-opacity: 0.82; stroke: #ffffff; stroke-opacity: 0.82; stroke-width: 0.4"/>
     <use xlink:href="#ma5d338f24a" x="416.374694" y="234.788814" style="fill: #194579; fill-opacity: 0.82; stroke: #ffffff; stroke-opacity: 0.82; stroke-width: 0.4"/>
     <use xlink:href="#ma5d338f24a" x="521.521215" y="180.266997" style="fill: #194579; fill-opacity: 0.82; stroke: #ffffff; stroke-opacity: 0.82; stroke-width: 0.4"/>
     <use xlink:href="#ma5d338f24a" x="460.880677" y="192.661024" style="fill: #194579; fill-opacity: 0.82; stroke: #ffffff; stroke-opacity: 0.82; stroke-width: 0.4"/>
     <use xlink:href="#ma5d338f24a" x="584.611443" y="218.448077" style="fill: #194579; fill-opacity: 0.82; stroke: #ffffff; stroke-opacity: 0.82; stroke-width: 0.4"/>
     <use xlink:href="#ma5d338f24a" x="346.043586" y="218.519141" style="fill: #194579; fill-opacity: 0.82; stroke: #ffffff; stroke-opacity: 0.82; stroke-width: 0.4"/>
     <use xlink:href="#ma5d338f24a" x="299.524505" y="219.943595" style="fill: #194579; fill-opacity: 0.82; stroke: #ffffff; stroke-opacity: 0.82; stroke-width: 0.4"/>
     <use xlink:href="#ma5d338f24a" x="488.303739" y="85.93427" style="fill: #194579; fill-opacity: 0.82; stroke: #ffffff; stroke-opacity: 0.82; stroke-width: 0.4"/>
     <use xlink:href="#ma5d338f24a" x="404.710579" y="248.289028" style="fill: #194579; fill-opacity: 0.82; stroke: #ffffff; stroke-opacity: 0.82; stroke-width: 0.4"/>
     <use xlink:href="#ma5d338f24a" x="413.850842" y="200.841566" style="fill: #194579; fill-opacity: 0.82; stroke: #ffffff; stroke-opacity: 0.82; stroke-width: 0.4"/>
     <use xlink:href="#ma5d338f24a" x="465.877926" y="185.643424" style="fill: #194579; fill-opacity: 0.82; stroke: #ffffff; stroke-opacity: 0.82; stroke-width: 0.4"/>
     <use xlink:href="#ma5d338f24a" x="571.720454" y="311.56247" style="fill: #194579; fill-opacity: 0.82; stroke: #ffffff; stroke-opacity: 0.82; stroke-width: 0.4"/>
     <use xlink:href="#ma5d338f24a" x="447.998627" y="312.555145" style="fill: #194579; fill-opacity: 0.82; stroke: #ffffff; stroke-opacity: 0.82; stroke-width: 0.4"/>
     <use xlink:href="#ma5d338f24a" x="480.042652" y="172.015021" style="fill: #194579; fill-opacity: 0.82; stroke: #ffffff; stroke-opacity: 0.82; stroke-width: 0.4"/>
     <use xlink:href="#ma5d338f24a" x="239.258316" y="167.3806" style="fill: #194579; fill-opacity: 0.82; stroke: #ffffff; stroke-opacity: 0.82; stroke-width: 0.4"/>
     <use xlink:href="#ma5d338f24a" x="255.068628" y="191.864469" style="fill: #194579; fill-opacity: 0.82; stroke: #ffffff; stroke-opacity: 0.82; stroke-width: 0.4"/>
     <use xlink:href="#ma5d338f24a" x="510.6339" y="181.950543" style="fill: #194579; fill-opacity: 0.82; stroke: #ffffff; stroke-opacity: 0.82; stroke-width: 0.4"/>
     <use xlink:href="#ma5d338f24a" x="209.419286" y="214.403464" style="fill: #194579; fill-opacity: 0.82; stroke: #ffffff; stroke-opacity: 0.82; stroke-width: 0.4"/>
     <use xlink:href="#ma5d338f24a" x="208.915354" y="210.911874" style="fill: #194579; fill-opacity: 0.82; stroke: #ffffff; stroke-opacity: 0.82; stroke-width: 0.4"/>
     <use xlink:href="#ma5d338f24a" x="333.004494" y="235.483476" style="fill: #194579; fill-opacity: 0.82; stroke: #ffffff; stroke-opacity: 0.82; stroke-width: 0.4"/>
     <use xlink:href="#ma5d338f24a" x="404.68242" y="221.831453" style="fill: #194579; fill-opacity: 0.82; stroke: #ffffff; stroke-opacity: 0.82; stroke-width: 0.4"/>
     <use xlink:href="#ma5d338f24a" x="208.024791" y="204.268193" style="fill: #194579; fill-opacity: 0.82; stroke: #ffffff; stroke-opacity: 0.82; stroke-width: 0.4"/>
     <use xlink:href="#ma5d338f24a" x="77.924659" y="266.534034" style="fill: #194579; fill-opacity: 0.82; stroke: #ffffff; stroke-opacity: 0.82; stroke-width: 0.4"/>
    </g>
   </g>
   <g id="line2d_13">
    <path d="M 77.924659 229.91223 
L 623.130341 172.723009 
L 623.130341 172.723009 
" clip-path="url(#p0aa7b8cfc6)" style="fill: none; stroke: #1f2933; stroke-width: 2; stroke-linecap: round"/>
   </g>
   <g id="line2d_14">
    <path d="M 77.924659 252.266012 
L 120.285158 240.894265 
L 184.406306 223.943948 
L 201.06112 219.260286 
L 209.419286 217.229895 
L 216.980524 215.882556 
L 219.78205 215.691061 
L 239.258316 213.471135 
L 255.823793 211.995704 
L 271.884908 210.431076 
L 282.719545 209.831778 
L 288.495574 209.758028 
L 293.600627 209.844067 
L 300.70778 210.3679 
L 302.76487 210.393555 
L 304.677675 210.002384 
L 307.960176 209.746459 
L 311.57922 208.965568 
L 320.589669 206.267499 
L 333.65588 202.402928 
L 339.731838 200.892106 
L 341.31931 200.544359 
L 343.770401 200.074448 
L 348.934714 199.340021 
L 353.829432 198.811163 
L 357.105598 198.596423 
L 366.904203 198.050057 
L 371.944323 197.904471 
L 380.613636 198.243484 
L 387.475516 198.567439 
L 396.538408 198.721589 
L 404.836416 198.542832 
L 411.726341 198.015109 
L 412.123268 197.967341 
L 415.820934 197.114557 
L 418.420891 196.161381 
L 424.131601 193.910733 
L 434.146858 189.50333 
L 435.953263 188.791283 
L 443.82728 185.240025 
L 450.528234 182.638323 
L 457.824152 180.418882 
L 465.877926 178.114166 
L 475.014415 176.600749 
L 480.042652 175.988112 
L 488.573206 175.272903 
L 491.726219 175.202169 
L 501.069705 175.164198 
L 510.6339 175.914598 
L 521.521215 177.674365 
L 548.250209 181.54852 
L 556.563588 182.495458 
L 584.611443 185.491827 
L 623.130341 190.41092 
L 623.130341 190.41092 
" clip-path="url(#p0aa7b8cfc6)" style="fill: none; stroke-dasharray: 6.66,2.88; stroke-dashoffset: 0; stroke: #c26d00; stroke-width: 1.8"/>
   </g>
   <g id="line2d_15">
    <path d="M 50.664375 199.83818 
L 650.390625 199.83818 
" clip-path="url(#p0aa7b8cfc6)" style="fill: none; stroke-dasharray: 1,1.65; stroke-dashoffset: 0; stroke: #9ca3af"/>
   </g>
   <g id="line2d_16">
    <path d="M 364.631544 448.291875 
L 364.631544 23.056875 
" clip-path="url(#p0aa7b8cfc6)" style="fill: none; stroke-dasharray: 1,1.65; stroke-dashoffset: 0; stroke: #9ca3af"/>
   </g>
   <g id="patch_3">
    <path d="M 50.664375 448.291875 
L 50.664375 23.056875 
" style="fill: none; stroke: #cccccc; stroke-width: 1.25; stroke-linejoin: miter; stroke-linecap: square"/>
   </g>
   <g id="patch_4">
    <path d="M 650.390625 448.291875 
L 650.390625 23.056875 
" style="fill: none; stroke: #cccccc; stroke-width: 1.25; stroke-linejoin: miter; stroke-linecap: square"/>
   </g>
   <g id="patch_5">
    <path d="M 50.664375 448.291875 
L 650.390625 448.291875 
" style="fill: none; stroke: #cccccc; stroke-width: 1.25; stroke-linejoin: miter; stroke-linecap: square"/>
   </g>
   <g id="patch_6">
    <path d="M 50.664375 23.056875 
L 650.390625 23.056875 
" style="fill: none; stroke: #cccccc; stroke-width: 1.25; stroke-linejoin: miter; stroke-linecap: square"/>
   </g>
   <g id="text_15">
    <!-- 控制双固定效应后的 lntl 净关系图 -->
    <g style="fill: #262626" transform="translate(246.693438 17.056875) scale(0.14 -0.14)">
     <defs>
      <path id="SimSun-63a7" d="M 2625 1875 
L 4825 1875 
L 5125 2175 
L 5575 1725 
L 4200 1725 
L 4200 50 
L 5325 50 
L 5650 375 
L 6125 -100 
L 2950 -100 
Q 2625 -100 2350 -175 
L 2125 50 
L 3850 50 
L 3850 1725 
L 3100 1725 
L 2825 1675 
L 2625 1875 
z
M 3775 3100 
Q 3000 2350 2325 2000 
L 2275 2075 
Q 3150 2775 3600 3575 
L 4025 3175 
L 3775 3100 
z
M 4350 3300 
L 4400 3375 
Q 5150 3075 5425 2887 
Q 5700 2700 5712 2500 
Q 5725 2300 5637 2200 
Q 5550 2100 5525 2100 
Q 5425 2100 5275 2400 
Q 5075 2775 4350 3300 
z
M 5225 3300 
L 5450 3875 
L 2925 3875 
Q 2925 3650 2900 3512 
Q 2875 3375 2762 3325 
Q 2650 3275 2600 3275 
Q 2550 3275 2475 3312 
Q 2400 3350 2400 3375 
Q 2400 3450 2550 3625 
Q 2750 3875 2825 4325 
L 2925 4325 
L 2925 4025 
L 5450 4025 
L 5650 4275 
L 6050 3875 
Q 5750 3875 5300 3250 
L 5225 3300 
z
M 3525 5000 
L 3575 5075 
Q 4100 4850 4287 4725 
Q 4475 4600 4437 4425 
Q 4400 4250 4337 4200 
Q 4275 4150 4225 4150 
Q 4150 4150 4075 4325 
Q 3950 4575 3525 5000 
z
M 2475 2675 
L 1650 2175 
L 1650 0 
Q 1625 -400 1175 -625 
Q 1175 -350 400 -100 
L 400 0 
Q 950 -100 1125 -75 
Q 1300 -50 1300 300 
L 1300 2000 
Q 600 1600 525 1450 
L 225 1900 
Q 525 1975 1300 2300 
L 1300 3700 
L 775 3700 
L 475 3650 
L 275 3850 
L 1300 3850 
Q 1300 4750 1275 5225 
L 1900 4950 
L 1650 4750 
L 1650 3850 
L 1850 3850 
L 2100 4100 
L 2500 3700 
L 1650 3700 
L 1650 2425 
L 2425 2775 
L 2475 2675 
z
" transform="scale(0.015625)"/>
      <path id="SimSun-5236" d="M 4200 850 
Q 4225 1375 4225 2462 
Q 4225 3550 4200 4275 
L 4725 4025 
L 4525 3875 
L 4525 1575 
Q 4525 1400 4550 1050 
L 4200 850 
z
M 5350 4450 
Q 5350 4850 5325 5225 
L 5850 4975 
L 5675 4800 
L 5675 125 
Q 5700 -400 5200 -625 
Q 5150 -225 4375 -100 
L 4375 0 
Q 4850 -25 5100 -25 
Q 5350 -25 5350 225 
L 5350 4450 
z
M 1925 3900 
L 1925 4275 
Q 1925 4875 1900 5200 
L 2425 4975 
L 2225 4800 
L 2225 3900 
L 2800 3900 
L 3075 4200 
L 3525 3750 
L 2225 3750 
L 2225 3000 
L 3125 3000 
L 3425 3300 
L 3875 2850 
L 2225 2850 
L 2225 2175 
L 3050 2175 
L 3225 2425 
L 3600 2150 
L 3400 1975 
L 3400 750 
Q 3425 300 2925 125 
Q 2975 400 2400 575 
L 2400 675 
Q 2775 625 2937 625 
Q 3100 625 3100 875 
L 3100 2025 
L 2225 2025 
L 2225 300 
Q 2225 -125 2250 -450 
L 1900 -625 
Q 1925 225 1925 475 
L 1925 2025 
L 1050 2025 
L 1050 250 
L 725 75 
Q 750 725 750 1300 
Q 750 1875 725 2375 
L 1075 2175 
L 1925 2175 
L 1925 2850 
L 1100 2850 
Q 775 2850 500 2775 
L 275 3000 
L 1925 3000 
L 1925 3750 
L 1025 3750 
Q 775 3325 525 3050 
L 450 3075 
Q 700 3600 825 4000 
Q 950 4400 975 4675 
L 1450 4425 
Q 1275 4350 1075 3900 
L 1925 3900 
z
" transform="scale(0.015625)"/>
      <path id="SimSun-53cc" d="M 500 4375 
L 2625 4375 
L 2800 4625 
L 3225 4300 
L 3000 4125 
Q 2650 2850 2300 2100 
Q 2725 1600 2875 1312 
Q 3025 1025 3025 825 
Q 3025 675 2962 537 
Q 2900 400 2875 400 
Q 2800 400 2700 700 
Q 2525 1150 2100 1800 
Q 1375 650 300 -50 
L 250 25 
Q 1325 1000 1875 2050 
Q 1550 2600 825 3500 
L 900 3550 
Q 1500 2975 2050 2350 
Q 2450 3325 2650 4225 
L 1325 4225 
Q 1000 4225 725 4150 
L 500 4375 
z
M 3200 4400 
L 5125 4400 
L 5325 4675 
L 5725 4350 
L 5500 4175 
Q 5200 2275 4675 1275 
Q 5275 325 6025 75 
L 6025 -25 
Q 5600 -75 5500 -300 
Q 4875 275 4450 1000 
Q 3650 50 2425 -475 
L 2375 -400 
Q 3725 450 4275 1325 
Q 3725 2650 3625 4250 
L 3425 4175 
L 3200 4400 
z
M 3750 4250 
Q 3925 2700 4475 1625 
Q 4875 2525 5150 4250 
L 3750 4250 
z
" transform="scale(0.015625)"/>
      <path id="SimSun-56fa" d="M 4350 2325 
Q 4350 1100 4375 625 
L 4025 475 
L 4025 1000 
L 2425 1000 
L 2425 625 
L 2075 450 
Q 2100 1050 2100 1625 
Q 2100 2200 2075 2775 
L 2400 2550 
L 3025 2550 
L 3025 3450 
L 2225 3450 
Q 1900 3450 1625 3375 
L 1400 3600 
L 3025 3600 
Q 3025 4075 3000 4650 
L 3550 4375 
L 3350 4225 
L 3350 3600 
L 4250 3600 
L 4550 3900 
L 5000 3450 
L 3350 3450 
L 3350 2550 
L 3975 2550 
L 4175 2775 
L 4550 2475 
L 4350 2325 
z
M 2425 2400 
L 2425 1150 
L 4025 1150 
L 4025 2400 
L 2425 2400 
z
M 800 -625 
Q 825 25 825 325 
L 825 4075 
Q 825 4500 800 5150 
L 1150 4925 
L 5125 4925 
L 5350 5175 
L 5750 4850 
L 5525 4675 
L 5525 725 
Q 5525 225 5550 -400 
L 5175 -575 
L 5175 -25 
L 1175 -25 
L 1175 -450 
L 800 -625 
z
M 1175 4775 
L 1175 125 
L 5175 125 
L 5175 4775 
L 1175 4775 
z
" transform="scale(0.015625)"/>
      <path id="SimSun-5b9a" d="M 1975 1775 
Q 1875 1450 1825 1200 
Q 2075 800 2400 537 
Q 2725 275 3025 175 
L 3025 2750 
L 1625 2750 
Q 1300 2750 1025 2675 
L 800 2900 
L 4700 2900 
L 5050 3250 
L 5550 2750 
L 3375 2750 
L 3375 1525 
L 4500 1525 
L 4825 1850 
L 5300 1375 
L 3375 1375 
L 3375 75 
Q 4075 -50 4750 -37 
Q 5425 -25 5975 25 
L 5975 -75 
Q 5550 -150 5450 -475 
Q 4150 -450 3512 -312 
Q 2875 -175 2487 162 
Q 2100 500 1775 1050 
Q 1550 475 1275 112 
Q 1000 -250 450 -625 
L 400 -550 
Q 875 -100 1125 375 
Q 1375 850 1462 1312 
Q 1550 1775 1575 2250 
L 2175 1950 
L 1975 1775 
z
M 2725 5150 
L 2775 5200 
Q 3250 4950 3375 4812 
Q 3500 4675 3500 4550 
Q 3500 4425 3387 4300 
Q 3275 4175 3250 4175 
Q 3150 4175 3125 4400 
Q 3050 4725 2725 5150 
z
M 4900 3325 
L 5225 3950 
L 1250 3950 
Q 1275 3375 1112 3287 
Q 950 3200 875 3200 
Q 775 3200 687 3262 
Q 600 3325 600 3350 
Q 600 3450 800 3625 
Q 1050 3850 1150 4425 
L 1250 4425 
L 1250 4100 
L 5175 4100 
L 5450 4375 
L 5875 3875 
Q 5525 3875 4975 3275 
L 4900 3325 
z
" transform="scale(0.015625)"/>
      <path id="SimSun-6548" d="M 575 4025 
L 1975 4025 
Q 1950 4250 1837 4500 
Q 1725 4750 1450 5100 
L 1525 5150 
Q 2000 4875 2175 4687 
Q 2350 4500 2350 4350 
Q 2350 4200 2200 4025 
L 2850 4025 
L 3150 4325 
L 3600 3875 
L 1400 3875 
Q 1075 3875 800 3800 
L 575 4025 
z
M 1425 3675 
L 1900 3350 
L 1675 3250 
Q 950 2225 475 1875 
L 400 1925 
Q 1075 2700 1425 3675 
z
M 2300 3575 
L 2350 3650 
Q 2900 3400 3075 3250 
Q 3250 3100 3250 2950 
Q 3250 2850 3187 2700 
Q 3125 2550 3075 2550 
Q 3000 2550 2900 2775 
Q 2725 3150 2300 3575 
z
M 1250 2225 
Q 1675 1950 2075 1625 
Q 2375 2250 2450 2650 
L 2900 2275 
Q 2725 2225 2300 1425 
Q 2700 1075 2862 862 
Q 3025 650 3025 475 
Q 3025 375 2962 237 
Q 2900 100 2875 100 
Q 2800 100 2700 350 
Q 2525 700 2150 1175 
Q 1425 100 475 -475 
L 425 -400 
Q 1300 300 1950 1400 
Q 1525 1850 1200 2150 
L 1250 2225 
z
M 4050 3500 
L 3950 3250 
Q 4150 2050 4525 1275 
Q 4950 2100 5125 3500 
L 4050 3500 
z
M 4175 5250 
L 4775 4950 
Q 4600 4875 4525 4725 
Q 4450 4575 4100 3650 
L 5375 3650 
L 5675 3950 
L 6125 3500 
L 5475 3500 
Q 5275 1975 4700 950 
Q 5350 0 6100 -125 
L 6100 -225 
Q 5650 -250 5550 -500 
Q 4975 -75 4475 725 
Q 3650 -125 2450 -625 
L 2400 -550 
Q 3650 125 4325 1000 
Q 3925 2025 3850 3050 
Q 3550 2400 3225 2000 
L 3150 2050 
Q 3825 3350 4175 5250 
z
" transform="scale(0.015625)"/>
      <path id="SimSun-5e94" d="M 1850 3225 
Q 2650 2125 2750 1850 
Q 2850 1575 2850 1400 
Q 2850 1275 2812 1137 
Q 2775 1000 2637 925 
Q 2500 850 2400 1475 
Q 2275 2075 1775 3175 
L 1850 3225 
z
M 3100 3425 
Q 3650 2675 3862 2287 
Q 4075 1900 4037 1637 
Q 4000 1375 3900 1300 
Q 3800 1225 3775 1225 
Q 3625 1225 3575 1725 
Q 3475 2350 3000 3375 
L 3100 3425 
z
M 1175 75 
L 4075 75 
Q 4600 1400 4800 2087 
Q 5000 2775 5125 3450 
L 5700 3100 
Q 5525 3025 5150 2100 
Q 4750 1175 4250 75 
L 5125 75 
L 5550 500 
L 6125 -75 
L 2000 -75 
Q 1675 -75 1400 -150 
L 1175 75 
z
M 975 4475 
L 1350 4225 
L 5075 4225 
L 5475 4625 
L 6025 4075 
L 1350 4075 
Q 1350 3200 1337 2387 
Q 1325 1575 1100 850 
Q 875 125 325 -575 
L 250 -525 
Q 750 375 875 1225 
Q 1000 2075 1000 2850 
Q 1000 3625 975 4475 
z
M 3175 5225 
Q 3725 4925 3787 4812 
Q 3850 4700 3850 4625 
Q 3850 4525 3787 4412 
Q 3725 4300 3612 4250 
Q 3500 4200 3450 4450 
Q 3400 4700 3100 5175 
L 3175 5225 
z
" transform="scale(0.015625)"/>
      <path id="SimSun-540e" d="M 300 -550 
Q 925 225 1112 925 
Q 1300 1625 1312 2612 
Q 1325 3600 1300 4650 
L 1700 4400 
Q 3125 4525 4050 4725 
Q 4975 4925 5275 5100 
L 5625 4625 
Q 5300 4650 4150 4500 
Q 2975 4325 1675 4250 
L 1675 3225 
L 5150 3225 
L 5475 3550 
L 5925 3075 
L 1675 3075 
Q 1700 1575 1375 787 
Q 1050 0 375 -625 
L 300 -550 
z
M 5225 1775 
L 5225 500 
Q 5225 125 5250 -175 
L 4875 -325 
L 4875 125 
L 2625 125 
L 2625 -275 
L 2225 -450 
Q 2275 125 2275 912 
Q 2275 1700 2250 2250 
L 2675 2025 
L 4825 2025 
L 5075 2275 
L 5425 1925 
L 5225 1775 
z
M 2625 1875 
L 2625 275 
L 4875 275 
L 4875 1875 
L 2625 1875 
z
" transform="scale(0.015625)"/>
      <path id="SimSun-7684" d="M 1125 3775 
L 1125 2175 
L 2425 2175 
L 2425 3775 
L 1125 3775 
z
M 1125 2025 
L 1125 275 
L 2425 275 
L 2425 2025 
L 1125 2025 
z
M 2750 3625 
Q 2750 700 2775 -200 
L 2425 -400 
L 2425 125 
L 1125 125 
L 1125 -300 
L 775 -500 
Q 800 675 800 1837 
Q 800 3000 775 4150 
L 1150 3925 
L 1400 3925 
Q 1650 4775 1675 5225 
L 2225 4925 
Q 1975 4800 1550 3925 
L 2375 3925 
L 2625 4175 
L 3000 3800 
L 2750 3625 
z
M 3975 5200 
L 4525 4875 
Q 4325 4750 3900 3850 
L 5250 3850 
L 5525 4125 
L 5900 3750 
L 5675 3575 
Q 5625 650 5537 262 
Q 5450 -125 5287 -275 
Q 5125 -425 4775 -550 
Q 4650 -150 3950 50 
L 3950 175 
Q 4575 50 4850 50 
Q 5125 50 5187 475 
Q 5250 900 5300 3700 
L 3850 3700 
Q 3400 2975 2900 2475 
L 2825 2525 
Q 3350 3325 3600 3950 
Q 3850 4575 3975 5200 
z
M 3525 2750 
Q 4125 2300 4225 2087 
Q 4325 1875 4325 1775 
Q 4325 1600 4225 1475 
Q 4125 1350 4075 1350 
Q 3975 1350 3925 1700 
Q 3825 2200 3475 2675 
L 3525 2750 
z
" transform="scale(0.015625)"/>
      <path id="SimSun-51c0" d="M 3900 3450 
L 4375 4275 
L 3200 4275 
Q 2850 3850 2350 3475 
L 2300 3550 
Q 2650 3925 2950 4437 
Q 3250 4950 3350 5225 
L 3825 4900 
L 3600 4800 
Q 3450 4625 3300 4425 
L 4375 4425 
L 4625 4675 
L 5025 4275 
Q 4825 4225 4625 4062 
Q 4425 3900 4050 3450 
L 5025 3450 
L 5250 3700 
L 5625 3375 
L 5400 3225 
L 5400 2450 
L 5675 2725 
L 6100 2300 
L 5400 2300 
Q 5400 1450 5425 1200 
L 5075 1050 
L 5075 1300 
L 4050 1300 
L 4050 -25 
Q 4050 -450 3550 -625 
Q 3450 -275 2725 -75 
L 2725 25 
Q 3425 -50 3575 -37 
Q 3725 -25 3725 150 
L 3725 1300 
L 2950 1300 
L 2650 1250 
L 2450 1450 
L 3725 1450 
L 3725 2300 
L 2575 2300 
L 2275 2225 
L 2050 2450 
L 3725 2450 
L 3725 3300 
L 3025 3300 
L 2700 3250 
L 2500 3450 
L 3900 3450 
z
M 4050 3300 
L 4050 2450 
L 5075 2450 
L 5075 3300 
L 4050 3300 
z
M 4050 2300 
L 4050 1450 
L 5075 1450 
L 5075 2300 
L 4050 2300 
z
M 700 4800 
L 750 4875 
Q 1550 4375 1587 4212 
Q 1625 4050 1625 3975 
Q 1625 3775 1537 3712 
Q 1450 3650 1400 3650 
Q 1300 3650 1225 3950 
Q 1100 4325 700 4800 
z
M 2250 4025 
Q 1375 1725 1350 1462 
Q 1325 1200 1325 1050 
Q 1325 725 1375 350 
Q 1425 -225 1250 -250 
Q 1075 -275 962 -150 
Q 850 -25 850 125 
Q 850 225 875 325 
Q 950 625 975 1037 
Q 1000 1450 325 1575 
L 325 1700 
Q 650 1650 775 1650 
Q 1000 1650 1125 1762 
Q 1250 1875 2125 4050 
L 2250 4025 
z
" transform="scale(0.015625)"/>
      <path id="SimSun-5173" d="M 1750 5100 
L 1800 5175 
Q 2300 4900 2550 4675 
Q 2800 4450 2800 4250 
Q 2800 4125 2712 3975 
Q 2625 3825 2600 3825 
Q 2500 3825 2375 4175 
Q 2175 4675 1750 5100 
z
M 3375 3500 
Q 3350 2850 3300 2150 
L 5200 2150 
L 5575 2525 
L 6100 2000 
L 3625 2000 
Q 3850 1350 4425 750 
Q 5000 150 6100 -150 
L 6100 -225 
Q 5700 -250 5550 -550 
Q 4875 -200 4312 387 
Q 3750 975 3475 2000 
L 3275 2000 
Q 3050 1075 2312 412 
Q 1575 -250 375 -625 
L 350 -525 
Q 1625 25 2175 687 
Q 2725 1350 2900 2000 
L 1175 2000 
Q 850 2000 575 1925 
L 350 2150 
L 2925 2150 
Q 2975 2700 2975 3500 
L 1500 3500 
Q 1175 3500 900 3425 
L 675 3650 
L 3500 3650 
Q 3700 4000 3875 4462 
Q 4050 4925 4125 5225 
L 4725 4825 
L 4425 4700 
Q 4000 4050 3675 3650 
L 4975 3650 
L 5325 4000 
L 5825 3500 
L 3375 3500 
z
" transform="scale(0.015625)"/>
      <path id="SimSun-7cfb" d="M 4975 1950 
L 3600 1850 
L 3600 200 
Q 3650 -400 3025 -575 
Q 3025 -175 2250 0 
L 2250 100 
Q 2900 25 3087 25 
Q 3275 25 3250 375 
L 3250 1800 
Q 2550 1750 2112 1662 
Q 1675 1575 1425 1475 
L 1175 1950 
Q 1450 1975 2037 2250 
Q 2625 2525 3675 3175 
Q 2675 3075 2275 2987 
Q 1875 2900 1625 2775 
L 1375 3275 
Q 1725 3300 2237 3687 
Q 2750 4075 3075 4550 
Q 1600 4450 1025 4450 
L 1025 4550 
Q 2525 4675 3475 4837 
Q 4425 5000 5075 5250 
L 5450 4775 
Q 5075 4800 4437 4725 
Q 3800 4650 3175 4575 
L 3675 4325 
Q 3350 4275 2800 3825 
Q 2225 3375 1925 3250 
L 3900 3325 
Q 4375 3650 4625 3975 
L 5100 3575 
Q 4825 3550 4475 3350 
Q 4100 3125 3212 2625 
Q 2325 2125 1900 1925 
L 4875 2075 
Q 4500 2450 4250 2625 
L 4300 2700 
Q 4975 2450 5287 2262 
Q 5600 2075 5612 1862 
Q 5625 1650 5512 1475 
Q 5400 1300 5287 1500 
Q 5175 1700 4975 1950 
z
M 4000 1300 
Q 5175 800 5462 600 
Q 5750 400 5775 162 
Q 5800 -75 5712 -200 
Q 5625 -325 5600 -325 
Q 5475 -325 5325 -25 
Q 5075 425 3950 1225 
L 4000 1300 
z
M 2250 1400 
L 2700 950 
Q 2500 950 1875 475 
Q 1250 -25 425 -375 
L 375 -300 
Q 925 25 1437 462 
Q 1950 900 2250 1400 
z
" transform="scale(0.015625)"/>
      <path id="SimSun-56fe" d="M 5675 4700 
L 5675 550 
Q 5675 50 5700 -350 
L 5325 -550 
L 5325 -50 
L 1250 -50 
L 1250 -450 
L 875 -600 
Q 900 -100 900 425 
L 900 4200 
Q 900 4625 875 5150 
L 1250 4925 
L 5275 4925 
L 5450 5175 
L 5850 4850 
L 5675 4700 
z
M 1250 4775 
L 1250 1700 
Q 2425 2200 3075 2825 
Q 2750 3275 2500 3850 
Q 2100 3225 1650 2800 
L 1575 2850 
Q 1975 3375 2250 3937 
Q 2525 4500 2575 4775 
L 1250 4775 
z
M 1250 100 
L 5325 100 
L 5325 4775 
L 2625 4775 
L 3050 4550 
L 2900 4475 
Q 2750 4250 2675 4125 
L 4000 4125 
L 4175 4350 
L 4550 4000 
L 4350 3875 
Q 3925 3275 3475 2775 
Q 4250 2200 5250 2100 
L 5250 2000 
Q 4875 1975 4775 1700 
Q 3900 2025 3250 2600 
Q 2375 1900 1250 1575 
L 1250 100 
z
M 2600 3975 
Q 2950 3350 3275 3000 
Q 3625 3400 3975 3975 
L 2600 3975 
z
M 2750 2050 
Q 3350 1925 3600 1825 
Q 3850 1725 3825 1487 
Q 3800 1250 3725 1250 
Q 3650 1250 3550 1375 
Q 3300 1625 2725 1975 
L 2750 2050 
z
M 2275 1150 
Q 3425 1025 3787 912 
Q 4150 800 4175 525 
Q 4200 250 4075 250 
Q 4000 250 3825 400 
Q 3450 700 2275 1050 
L 2275 1150 
z
" transform="scale(0.015625)"/>
     </defs>
     <use xlink:href="#SimSun-63a7"/>
     <use xlink:href="#SimSun-5236" transform="translate(100 0)"/>
     <use xlink:href="#SimSun-53cc" transform="translate(200 0)"/>
     <use xlink:href="#SimSun-56fa" transform="translate(300 0)"/>
     <use xlink:href="#SimSun-5b9a" transform="translate(400 0)"/>
     <use xlink:href="#SimSun-6548" transform="translate(500 0)"/>
     <use xlink:href="#SimSun-5e94" transform="translate(600 0)"/>
     <use xlink:href="#SimSun-540e" transform="translate(700 0)"/>
     <use xlink:href="#SimSun-7684" transform="translate(800 0)"/>
     <use xlink:href="#TimesNewRomanPSMT-20" transform="translate(900 0)"/>
     <use xlink:href="#TimesNewRomanPSMT-6c" transform="translate(925 0)"/>
     <use xlink:href="#TimesNewRomanPSMT-6e" transform="translate(952.783203 0)"/>
     <use xlink:href="#TimesNewRomanPSMT-74" transform="translate(1002.783203 0)"/>
     <use xlink:href="#TimesNewRomanPSMT-6c" transform="translate(1030.566406 0)"/>
     <use xlink:href="#TimesNewRomanPSMT-20" transform="translate(1058.349609 0)"/>
     <use xlink:href="#SimSun-51c0" transform="translate(1083.349609 0)"/>
     <use xlink:href="#SimSun-5173" transform="translate(1183.349609 0)"/>
     <use xlink:href="#SimSun-7cfb" transform="translate(1283.349609 0)"/>
     <use xlink:href="#SimSun-56fe" transform="translate(1383.349609 0)"/>
    </g>
   </g>
   <g id="legend_1">
    <g id="patch_7">
     <path d="M 61.664375 112.966406 
L 226.664375 112.966406 
Q 228.864375 112.966406 228.864375 110.766406 
L 228.864375 34.056875 
Q 228.864375 31.856875 226.664375 31.856875 
L 61.664375 31.856875 
Q 59.464375 31.856875 59.464375 34.056875 
L 59.464375 110.766406 
Q 59.464375 112.966406 61.664375 112.966406 
z
" style="fill: #ffffff; opacity: 0.8; stroke: #cccccc; stroke-linejoin: miter"/>
    </g>
    <g id="PathCollection_9">
     <g>
      <use xlink:href="#mdfa6abf670" x="74.864375" y="41.069375" style="fill: #d3af8f; fill-opacity: 0.82; stroke: #ffffff; stroke-opacity: 0.82; stroke-width: 0.4"/>
     </g>
    </g>
    <g id="text_16">
     <!-- 2015 -->
     <g style="fill: #262626" transform="translate(94.664375 43.956875) scale(0.11 -0.11)">
      <use xlink:href="#TimesNewRomanPSMT-32"/>
      <use xlink:href="#TimesNewRomanPSMT-30" transform="translate(50 0)"/>
      <use xlink:href="#TimesNewRomanPSMT-31" transform="translate(100 0)"/>
      <use xlink:href="#TimesNewRomanPSMT-35" transform="translate(150 0)"/>
     </g>
    </g>
    <g id="PathCollection_10">
     <g>
      <use xlink:href="#m882c083798" x="74.864375" y="56.622344" style="fill: #bdab62; fill-opacity: 0.82; stroke: #ffffff; stroke-opacity: 0.82; stroke-width: 0.4"/>
     </g>
    </g>
    <g id="text_17">
     <!-- 2016 -->
     <g style="fill: #262626" transform="translate(94.664375 59.509844) scale(0.11 -0.11)">
      <defs>
       <path id="TimesNewRomanPSMT-36" d="M 2869 4325 
L 2869 4209 
Q 2456 4169 2195 4045 
Q 1934 3922 1679 3669 
Q 1425 3416 1258 3105 
Q 1091 2794 978 2366 
Q 1428 2675 1881 2675 
Q 2316 2675 2634 2325 
Q 2953 1975 2953 1425 
Q 2953 894 2631 456 
Q 2244 -75 1606 -75 
Q 1172 -75 869 213 
Q 275 772 275 1663 
Q 275 2231 503 2743 
Q 731 3256 1154 3653 
Q 1578 4050 1965 4187 
Q 2353 4325 2688 4325 
L 2869 4325 
z
M 925 2138 
Q 869 1716 869 1456 
Q 869 1156 980 804 
Q 1091 453 1309 247 
Q 1469 100 1697 100 
Q 1969 100 2183 356 
Q 2397 613 2397 1088 
Q 2397 1622 2184 2012 
Q 1972 2403 1581 2403 
Q 1463 2403 1327 2353 
Q 1191 2303 925 2138 
z
" transform="scale(0.015625)"/>
      </defs>
      <use xlink:href="#TimesNewRomanPSMT-32"/>
      <use xlink:href="#TimesNewRomanPSMT-30" transform="translate(50 0)"/>
      <use xlink:href="#TimesNewRomanPSMT-31" transform="translate(100 0)"/>
      <use xlink:href="#TimesNewRomanPSMT-36" transform="translate(150 0)"/>
     </g>
    </g>
    <g id="PathCollection_11">
     <g>
      <use xlink:href="#m11059f624c" x="74.864375" y="72.175312" style="fill: #a3b25a; fill-opacity: 0.82; stroke: #ffffff; stroke-opacity: 0.82; stroke-width: 0.4"/>
     </g>
    </g>
    <g id="text_18">
     <!-- 2017 -->
     <g style="fill: #262626" transform="translate(94.664375 75.062812) scale(0.11 -0.11)">
      <defs>
       <path id="TimesNewRomanPSMT-37" d="M 644 4238 
L 2916 4238 
L 2916 4119 
L 1503 -88 
L 1153 -88 
L 2419 3728 
L 1253 3728 
Q 900 3728 750 3644 
Q 488 3500 328 3200 
L 238 3234 
L 644 4238 
z
" transform="scale(0.015625)"/>
      </defs>
      <use xlink:href="#TimesNewRomanPSMT-32"/>
      <use xlink:href="#TimesNewRomanPSMT-30" transform="translate(50 0)"/>
      <use xlink:href="#TimesNewRomanPSMT-31" transform="translate(100 0)"/>
      <use xlink:href="#TimesNewRomanPSMT-37" transform="translate(150 0)"/>
     </g>
    </g>
    <g id="PathCollection_12">
     <g>
      <use xlink:href="#md4e35558f6" x="74.864375" y="87.728281" style="fill: #78a652; fill-opacity: 0.82; stroke: #ffffff; stroke-opacity: 0.82; stroke-width: 0.4"/>
     </g>
    </g>
    <g id="text_19">
     <!-- 2018 -->
     <g style="fill: #262626" transform="translate(94.664375 90.615781) scale(0.11 -0.11)">
      <defs>
       <path id="TimesNewRomanPSMT-38" d="M 1228 2134 
Q 725 2547 579 2797 
Q 434 3047 434 3316 
Q 434 3728 753 4026 
Q 1072 4325 1600 4325 
Q 2113 4325 2425 4047 
Q 2738 3769 2738 3413 
Q 2738 3175 2569 2928 
Q 2400 2681 1866 2347 
Q 2416 1922 2594 1678 
Q 2831 1359 2831 1006 
Q 2831 559 2490 242 
Q 2150 -75 1597 -75 
Q 994 -75 656 303 
Q 388 606 388 966 
Q 388 1247 577 1523 
Q 766 1800 1228 2134 
z
M 1719 2469 
Q 2094 2806 2194 3001 
Q 2294 3197 2294 3444 
Q 2294 3772 2109 3958 
Q 1925 4144 1606 4144 
Q 1288 4144 1088 3959 
Q 888 3775 888 3528 
Q 888 3366 970 3203 
Q 1053 3041 1206 2894 
L 1719 2469 
z
M 1375 2016 
Q 1116 1797 991 1539 
Q 866 1281 866 981 
Q 866 578 1086 336 
Q 1306 94 1647 94 
Q 1984 94 2187 284 
Q 2391 475 2391 747 
Q 2391 972 2272 1150 
Q 2050 1481 1375 2016 
z
" transform="scale(0.015625)"/>
      </defs>
      <use xlink:href="#TimesNewRomanPSMT-32"/>
      <use xlink:href="#TimesNewRomanPSMT-30" transform="translate(50 0)"/>
      <use xlink:href="#TimesNewRomanPSMT-31" transform="translate(100 0)"/>
      <use xlink:href="#TimesNewRomanPSMT-38" transform="translate(150 0)"/>
     </g>
    </g>
    <g id="PathCollection_13">
     <g>
      <use xlink:href="#m5ee8b5d0eb" x="74.864375" y="103.28125" style="fill: #44994b; fill-opacity: 0.82; stroke: #ffffff; stroke-opacity: 0.82; stroke-width: 0.4"/>
     </g>
    </g>
    <g id="text_20">
     <!-- 2019 -->
     <g style="fill: #262626" transform="translate(94.664375 106.16875) scale(0.11 -0.11)">
      <defs>
       <path id="TimesNewRomanPSMT-39" d="M 338 -88 
L 338 28 
Q 744 34 1094 217 
Q 1444 400 1770 856 
Q 2097 1313 2225 1859 
Q 1734 1544 1338 1544 
Q 891 1544 572 1889 
Q 253 2234 253 2806 
Q 253 3363 572 3797 
Q 956 4325 1575 4325 
Q 2097 4325 2469 3894 
Q 2925 3359 2925 2575 
Q 2925 1869 2578 1258 
Q 2231 647 1613 244 
Q 1109 -88 516 -88 
L 338 -88 
z
M 2275 2091 
Q 2331 2497 2331 2741 
Q 2331 3044 2228 3395 
Q 2125 3747 1936 3934 
Q 1747 4122 1506 4122 
Q 1228 4122 1018 3872 
Q 809 3622 809 3128 
Q 809 2469 1088 2097 
Q 1291 1828 1588 1828 
Q 1731 1828 1928 1897 
Q 2125 1966 2275 2091 
z
" transform="scale(0.015625)"/>
      </defs>
      <use xlink:href="#TimesNewRomanPSMT-32"/>
      <use xlink:href="#TimesNewRomanPSMT-30" transform="translate(50 0)"/>
      <use xlink:href="#TimesNewRomanPSMT-31" transform="translate(100 0)"/>
      <use xlink:href="#TimesNewRomanPSMT-39" transform="translate(150 0)"/>
     </g>
    </g>
    <g id="PathCollection_14">
     <g>
      <use xlink:href="#m562d328f83" x="149.664375" y="41.069375" style="fill: #388a6b; fill-opacity: 0.82; stroke: #ffffff; stroke-opacity: 0.82; stroke-width: 0.4"/>
     </g>
    </g>
    <g id="text_21">
     <!-- 2020 -->
     <g style="fill: #262626" transform="translate(169.464375 43.956875) scale(0.11 -0.11)">
      <use xlink:href="#TimesNewRomanPSMT-32"/>
      <use xlink:href="#TimesNewRomanPSMT-30" transform="translate(50 0)"/>
      <use xlink:href="#TimesNewRomanPSMT-32" transform="translate(100 0)"/>
      <use xlink:href="#TimesNewRomanPSMT-30" transform="translate(150 0)"/>
     </g>
    </g>
    <g id="PathCollection_15">
     <g>
      <use xlink:href="#m3cedd765b0" x="149.664375" y="56.622344" style="fill: #2b737e; fill-opacity: 0.82; stroke: #ffffff; stroke-opacity: 0.82; stroke-width: 0.4"/>
     </g>
    </g>
    <g id="text_22">
     <!-- 2021 -->
     <g style="fill: #262626" transform="translate(169.464375 59.509844) scale(0.11 -0.11)">
      <use xlink:href="#TimesNewRomanPSMT-32"/>
      <use xlink:href="#TimesNewRomanPSMT-30" transform="translate(50 0)"/>
      <use xlink:href="#TimesNewRomanPSMT-32" transform="translate(100 0)"/>
      <use xlink:href="#TimesNewRomanPSMT-31" transform="translate(150 0)"/>
     </g>
    </g>
    <g id="PathCollection_16">
     <g>
      <use xlink:href="#ma5d338f24a" x="149.664375" y="72.175312" style="fill: #194579; fill-opacity: 0.82; stroke: #ffffff; stroke-opacity: 0.82; stroke-width: 0.4"/>
     </g>
    </g>
    <g id="text_23">
     <!-- 2022 -->
     <g style="fill: #262626" transform="translate(169.464375 75.062812) scale(0.11 -0.11)">
      <use xlink:href="#TimesNewRomanPSMT-32"/>
      <use xlink:href="#TimesNewRomanPSMT-30" transform="translate(50 0)"/>
      <use xlink:href="#TimesNewRomanPSMT-32" transform="translate(100 0)"/>
      <use xlink:href="#TimesNewRomanPSMT-32" transform="translate(150 0)"/>
     </g>
    </g>
    <g id="line2d_17">
     <path d="M 138.664375 86.810469 
L 149.664375 86.810469 
L 160.664375 86.810469 
" style="fill: none; stroke: #1f2933; stroke-width: 2; stroke-linecap: round"/>
    </g>
    <g id="text_24">
     <!-- 线性净效应 -->
     <g style="fill: #262626" transform="translate(169.464375 90.660469) scale(0.11 -0.11)">
      <defs>
       <path id="SimSun-7ebf" d="M 3900 3400 
Q 3900 3050 3950 2475 
L 5125 2600 
L 5450 2975 
L 5950 2550 
L 3975 2350 
Q 4050 1575 4225 1125 
Q 4775 1625 5100 2175 
L 5550 1725 
L 5325 1700 
Q 4850 1250 4375 800 
Q 4825 175 5425 -75 
L 5775 1125 
L 5875 1100 
Q 5825 525 5812 150 
Q 5800 -225 5925 -450 
Q 5950 -500 5950 -525 
Q 5950 -625 5687 -587 
Q 5425 -550 4987 -287 
Q 4550 -25 4100 550 
Q 3650 250 3187 50 
Q 2725 -150 2025 -350 
L 2000 -250 
Q 3075 150 3925 850 
Q 3700 1525 3625 2300 
L 2600 2175 
L 2400 2075 
L 2125 2275 
L 3600 2425 
Q 3575 2775 3550 3375 
L 2825 3325 
L 2675 3225 
L 2450 3425 
L 3550 3500 
Q 3525 4375 3500 5250 
L 4075 4975 
L 3875 4800 
Q 3875 4275 3900 3525 
L 4975 3625 
L 5300 4000 
L 5800 3550 
L 3900 3400 
z
M 4275 4825 
L 4300 4900 
Q 5075 4700 5150 4562 
Q 5225 4425 5225 4325 
Q 5225 4200 5175 4075 
Q 5125 3950 5075 3950 
Q 5025 3950 4925 4150 
Q 4750 4425 4275 4825 
z
M 1525 5150 
L 2025 4825 
Q 1825 4750 1600 4325 
Q 1375 3875 775 3050 
L 1800 3150 
Q 2100 3650 2275 4150 
L 2725 3825 
Q 2550 3725 2125 3100 
Q 1700 2475 1025 1600 
Q 1375 1650 2575 1875 
L 2575 1775 
Q 1900 1600 1525 1462 
Q 1150 1325 775 1075 
L 475 1600 
Q 750 1675 1112 2137 
Q 1475 2600 1750 3050 
Q 1475 3000 1175 2912 
Q 875 2825 625 2600 
L 350 3075 
Q 625 3125 987 3787 
Q 1350 4450 1525 5150 
z
M 325 375 
Q 1025 475 1450 550 
Q 1875 625 2825 825 
L 2850 725 
Q 1725 400 1212 212 
Q 700 25 575 -100 
L 325 375 
z
" transform="scale(0.015625)"/>
       <path id="SimSun-6027" d="M 3975 3450 
Q 3975 4800 3950 5200 
L 4575 4925 
L 4325 4750 
L 4325 3450 
L 5050 3450 
L 5400 3800 
L 5900 3300 
L 4325 3300 
L 4325 1925 
L 4975 1925 
L 5300 2250 
L 5775 1775 
L 4325 1775 
L 4325 25 
L 5300 25 
L 5650 375 
L 6150 -125 
L 2875 -125 
Q 2550 -125 2275 -200 
L 2050 25 
L 3975 25 
L 3975 1775 
L 3450 1775 
Q 3125 1775 2850 1700 
L 2625 1925 
L 3975 1925 
L 3975 3300 
L 2950 3300 
Q 2625 2500 2225 2000 
L 2150 2050 
Q 2450 2650 2650 3387 
Q 2850 4125 2900 4600 
L 3475 4325 
L 3250 4175 
L 3000 3450 
L 3975 3450 
z
M 875 3625 
Q 950 2875 900 2687 
Q 850 2500 737 2437 
Q 625 2375 550 2375 
Q 500 2375 412 2412 
Q 325 2450 325 2475 
Q 325 2575 500 2775 
Q 725 3050 775 3625 
L 875 3625 
z
M 1575 3950 
Q 1975 3800 2150 3675 
Q 2325 3550 2300 3350 
Q 2275 3150 2175 3075 
Q 2075 3000 1975 3275 
Q 1850 3550 1575 3825 
L 1575 500 
Q 1575 75 1600 -425 
L 1200 -600 
Q 1225 125 1225 700 
L 1225 4225 
Q 1225 4650 1200 5250 
L 1800 4975 
L 1575 4800 
L 1575 3950 
z
" transform="scale(0.015625)"/>
      </defs>
      <use xlink:href="#SimSun-7ebf"/>
      <use xlink:href="#SimSun-6027" transform="translate(100 0)"/>
      <use xlink:href="#SimSun-51c0" transform="translate(200 0)"/>
      <use xlink:href="#SimSun-6548" transform="translate(300 0)"/>
      <use xlink:href="#SimSun-5e94" transform="translate(400 0)"/>
     </g>
    </g>
    <g id="line2d_18">
     <path d="M 138.664375 102.363437 
L 149.664375 102.363437 
L 160.664375 102.363437 
" style="fill: none; stroke-dasharray: 6.66,2.88; stroke-dashoffset: 0; stroke: #c26d00; stroke-width: 1.8"/>
    </g>
    <g id="text_25">
     <!-- LOWESS -->
     <g style="fill: #262626" transform="translate(169.464375 106.213437) scale(0.11 -0.11)">
      <defs>
       <path id="TimesNewRomanPSMT-4c" d="M 3669 1172 
L 3772 1150 
L 3409 0 
L 128 0 
L 128 116 
L 288 116 
Q 556 116 672 291 
Q 738 391 738 753 
L 738 3488 
Q 738 3884 650 3984 
Q 528 4122 288 4122 
L 128 4122 
L 128 4238 
L 2047 4238 
L 2047 4122 
Q 1709 4125 1573 4059 
Q 1438 3994 1388 3894 
Q 1338 3794 1338 3416 
L 1338 753 
Q 1338 494 1388 397 
Q 1425 331 1503 300 
Q 1581 269 1991 269 
L 2300 269 
Q 2788 269 2984 341 
Q 3181 413 3343 595 
Q 3506 778 3669 1172 
z
" transform="scale(0.015625)"/>
       <path id="TimesNewRomanPSMT-4f" d="M 2341 4334 
Q 3166 4334 3770 3707 
Q 4375 3081 4375 2144 
Q 4375 1178 3765 540 
Q 3156 -97 2291 -97 
Q 1416 -97 820 525 
Q 225 1147 225 2134 
Q 225 3144 913 3781 
Q 1509 4334 2341 4334 
z
M 2281 4106 
Q 1713 4106 1369 3684 
Q 941 3159 941 2147 
Q 941 1109 1384 550 
Q 1725 125 2284 125 
Q 2881 125 3270 590 
Q 3659 1056 3659 2059 
Q 3659 3147 3231 3681 
Q 2888 4106 2281 4106 
z
" transform="scale(0.015625)"/>
       <path id="TimesNewRomanPSMT-57" d="M 5991 4238 
L 5991 4122 
Q 5825 4122 5722 4062 
Q 5619 4003 5525 3841 
Q 5463 3731 5328 3319 
L 4147 -97 
L 4022 -97 
L 3056 2613 
L 2097 -97 
L 1984 -97 
L 725 3422 
Q 584 3816 547 3888 
Q 484 4006 376 4064 
Q 269 4122 84 4122 
L 84 4238 
L 1653 4238 
L 1653 4122 
L 1578 4122 
Q 1413 4122 1325 4047 
Q 1238 3972 1238 3866 
Q 1238 3756 1375 3363 
L 2209 984 
L 2913 3006 
L 2788 3363 
L 2688 3647 
Q 2622 3803 2541 3922 
Q 2500 3981 2441 4022 
Q 2363 4078 2284 4103 
Q 2225 4122 2097 4122 
L 2097 4238 
L 3747 4238 
L 3747 4122 
L 3634 4122 
Q 3459 4122 3378 4047 
Q 3297 3972 3297 3844 
Q 3297 3684 3438 3288 
L 4250 984 
L 5056 3319 
Q 5194 3706 5194 3856 
Q 5194 3928 5148 3990 
Q 5103 4053 5034 4078 
Q 4916 4122 4725 4122 
L 4725 4238 
L 5991 4238 
z
" transform="scale(0.015625)"/>
       <path id="TimesNewRomanPSMT-45" d="M 1338 4006 
L 1338 2331 
L 2269 2331 
Q 2631 2331 2753 2441 
Q 2916 2584 2934 2947 
L 3050 2947 
L 3050 1472 
L 2934 1472 
Q 2891 1781 2847 1869 
Q 2791 1978 2662 2040 
Q 2534 2103 2269 2103 
L 1338 2103 
L 1338 706 
Q 1338 425 1363 364 
Q 1388 303 1450 267 
Q 1513 231 1688 231 
L 2406 231 
Q 2766 231 2928 281 
Q 3091 331 3241 478 
Q 3434 672 3638 1063 
L 3763 1063 
L 3397 0 
L 131 0 
L 131 116 
L 281 116 
Q 431 116 566 188 
Q 666 238 702 338 
Q 738 438 738 747 
L 738 3500 
Q 738 3903 656 3997 
Q 544 4122 281 4122 
L 131 4122 
L 131 4238 
L 3397 4238 
L 3444 3309 
L 3322 3309 
Q 3256 3644 3176 3769 
Q 3097 3894 2941 3959 
Q 2816 4006 2500 4006 
L 1338 4006 
z
" transform="scale(0.015625)"/>
       <path id="TimesNewRomanPSMT-53" d="M 2934 4334 
L 2934 2869 
L 2819 2869 
Q 2763 3291 2617 3541 
Q 2472 3791 2203 3937 
Q 1934 4084 1647 4084 
Q 1322 4084 1109 3886 
Q 897 3688 897 3434 
Q 897 3241 1031 3081 
Q 1225 2847 1953 2456 
Q 2547 2138 2764 1967 
Q 2981 1797 3098 1565 
Q 3216 1334 3216 1081 
Q 3216 600 2842 251 
Q 2469 -97 1881 -97 
Q 1697 -97 1534 -69 
Q 1438 -53 1133 45 
Q 828 144 747 144 
Q 669 144 623 97 
Q 578 50 556 -97 
L 441 -97 
L 441 1356 
L 556 1356 
Q 638 900 775 673 
Q 913 447 1195 297 
Q 1478 147 1816 147 
Q 2206 147 2432 353 
Q 2659 559 2659 841 
Q 2659 997 2573 1156 
Q 2488 1316 2306 1453 
Q 2184 1547 1640 1851 
Q 1097 2156 867 2337 
Q 638 2519 519 2737 
Q 400 2956 400 3219 
Q 400 3675 750 4004 
Q 1100 4334 1641 4334 
Q 1978 4334 2356 4169 
Q 2531 4091 2603 4091 
Q 2684 4091 2736 4139 
Q 2788 4188 2819 4334 
L 2934 4334 
z
" transform="scale(0.015625)"/>
      </defs>
      <use xlink:href="#TimesNewRomanPSMT-4c"/>
      <use xlink:href="#TimesNewRomanPSMT-4f" transform="translate(61.083984 0)"/>
      <use xlink:href="#TimesNewRomanPSMT-57" transform="translate(133.300781 0)"/>
      <use xlink:href="#TimesNewRomanPSMT-45" transform="translate(227.685547 0)"/>
      <use xlink:href="#TimesNewRomanPSMT-53" transform="translate(288.769531 0)"/>
      <use xlink:href="#TimesNewRomanPSMT-53" transform="translate(344.384766 0)"/>
     </g>
    </g>
   </g>
  </g>
 </g>
 <defs>
  <clipPath id="p0aa7b8cfc6">
   <rect x="50.664375" y="23.056875" width="599.72625" height="425.235"/>
  </clipPath>
 </defs>
</svg>
