<?xml version="1.0" encoding="utf-8" standalone="no"?>
<!DOCTYPE svg PUBLIC "-//W3C//DTD SVG 1.1//EN"
  "http://www.w3.org/Graphics/SVG/1.1/DTD/svg11.dtd">
<svg xmlns:xlink="http://www.w3.org/1999/xlink" width="1099.85pt" height="436.795594pt" viewBox="0 0 1099.85 436.795594" xmlns="http://www.w3.org/2000/svg" version="1.1">
 <metadata>
  <rdf:RDF xmlns:dc="http://purl.org/dc/elements/1.1/" xmlns:cc="http://creativecommons.org/ns#" xmlns:rdf="http://www.w3.org/1999/02/22-rdf-syntax-ns#">
   <cc:Work>
    <dc:type rdf:resource="http://purl.org/dc/dcmitype/StillImage"/>
    <dc:date>2026-05-06T21:51:01.862228</dc:date>
    <dc:format>image/svg+xml</dc:format>
    <dc:creator>
     <cc:Agent>
      <dc:title>Matplotlib v3.10.8, https://matplotlib.org/</dc:title>
     </cc:Agent>
    </dc:creator>
   </cc:Work>
  </rdf:RDF>
 </metadata>
 <defs>
  <style type="text/css">*{stroke-linejoin: round; stroke-linecap: butt}</style>
 </defs>
 <g id="figure_1">
  <g id="patch_1">
   <path d="M 0 436.795594 
L 1099.85 436.795594 
L 1099.85 0 
L 0 0 
z
" style="fill: #ffffff"/>
  </g>
  <g id="axes_1">
   <g id="patch_2">
    <path d="M 46.60625 391.572 
L 496.31375 391.572 
L 496.31375 85.272 
L 46.60625 85.272 
z
" style="fill: #ffffff"/>
   </g>
   <g id="matplotlib.axis_1">
    <g id="xtick_1">
     <g id="line2d_1">
      <path d="M 46.60625 391.572 
L 46.60625 85.272 
" clip-path="url(#p1543468119)" style="fill: none; stroke: #cccccc; stroke-linecap: round"/>
     </g>
     <g id="text_1">
      <!-- 0 -->
      <g style="fill: #262626" transform="translate(43.35625 410.098875) scale(0.13 -0.13)">
       <defs>
        <path id="TimesNewRomanPSMT-30" d="M 231 2094 
Q 231 2819 450 3342 
Q 669 3866 1031 4122 
Q 1313 4325 1613 4325 
Q 2100 4325 2488 3828 
Q 2972 3213 2972 2159 
Q 2972 1422 2759 906 
Q 2547 391 2217 158 
Q 1888 -75 1581 -75 
Q 975 -75 572 641 
Q 231 1244 231 2094 
z
M 844 2016 
Q 844 1141 1059 588 
Q 1238 122 1591 122 
Q 1759 122 1940 273 
Q 2122 425 2216 781 
Q 2359 1319 2359 2297 
Q 2359 3022 2209 3506 
Q 2097 3866 1919 4016 
Q 1791 4119 1609 4119 
Q 1397 4119 1231 3928 
Q 1006 3669 925 3112 
Q 844 2556 844 2016 
z
" transform="scale(0.015625)"/>
       </defs>
       <use xlink:href="#TimesNewRomanPSMT-30"/>
      </g>
     </g>
    </g>
    <g id="xtick_2">
     <g id="line2d_2">
      <path d="M 97.678739 391.572 
L 97.678739 85.272 
" clip-path="url(#p1543468119)" style="fill: none; stroke: #cccccc; stroke-linecap: round"/>
     </g>
     <g id="text_2">
      <!-- 2 -->
      <g style="fill: #262626" transform="translate(94.428739 410.098875) scale(0.13 -0.13)">
       <defs>
        <path id="TimesNewRomanPSMT-32" d="M 2934 816 
L 2638 0 
L 138 0 
L 138 116 
Q 1241 1122 1691 1759 
Q 2141 2397 2141 2925 
Q 2141 3328 1894 3587 
Q 1647 3847 1303 3847 
Q 991 3847 742 3664 
Q 494 3481 375 3128 
L 259 3128 
Q 338 3706 661 4015 
Q 984 4325 1469 4325 
Q 1984 4325 2329 3994 
Q 2675 3663 2675 3213 
Q 2675 2891 2525 2569 
Q 2294 2063 1775 1497 
Q 997 647 803 472 
L 1909 472 
Q 2247 472 2383 497 
Q 2519 522 2628 598 
Q 2738 675 2819 816 
L 2934 816 
z
" transform="scale(0.015625)"/>
       </defs>
       <use xlink:href="#TimesNewRomanPSMT-32"/>
      </g>
     </g>
    </g>
    <g id="xtick_3">
     <g id="line2d_3">
      <path d="M 148.751227 391.572 
L 148.751227 85.272 
" clip-path="url(#p1543468119)" style="fill: none; stroke: #cccccc; stroke-linecap: round"/>
     </g>
     <g id="text_3">
      <!-- 4 -->
      <g style="fill: #262626" transform="translate(145.501227 410.098875) scale(0.13 -0.13)">
       <defs>
        <path id="TimesNewRomanPSMT-34" d="M 2978 1563 
L 2978 1119 
L 2409 1119 
L 2409 0 
L 1894 0 
L 1894 1119 
L 100 1119 
L 100 1519 
L 2066 4325 
L 2409 4325 
L 2409 1563 
L 2978 1563 
z
M 1894 1563 
L 1894 3666 
L 406 1563 
L 1894 1563 
z
" transform="scale(0.015625)"/>
       </defs>
       <use xlink:href="#TimesNewRomanPSMT-34"/>
      </g>
     </g>
    </g>
    <g id="xtick_4">
     <g id="line2d_4">
      <path d="M 199.823716 391.572 
L 199.823716 85.272 
" clip-path="url(#p1543468119)" style="fill: none; stroke: #cccccc; stroke-linecap: round"/>
     </g>
     <g id="text_4">
      <!-- 6 -->
      <g style="fill: #262626" transform="translate(196.573716 410.098875) scale(0.13 -0.13)">
       <defs>
        <path id="TimesNewRomanPSMT-36" d="M 2869 4325 
L 2869 4209 
Q 2456 4169 2195 4045 
Q 1934 3922 1679 3669 
Q 1425 3416 1258 3105 
Q 1091 2794 978 2366 
Q 1428 2675 1881 2675 
Q 2316 2675 2634 2325 
Q 2953 1975 2953 1425 
Q 2953 894 2631 456 
Q 2244 -75 1606 -75 
Q 1172 -75 869 213 
Q 275 772 275 1663 
Q 275 2231 503 2743 
Q 731 3256 1154 3653 
Q 1578 4050 1965 4187 
Q 2353 4325 2688 4325 
L 2869 4325 
z
M 925 2138 
Q 869 1716 869 1456 
Q 869 1156 980 804 
Q 1091 453 1309 247 
Q 1469 100 1697 100 
Q 1969 100 2183 356 
Q 2397 613 2397 1088 
Q 2397 1622 2184 2012 
Q 1972 2403 1581 2403 
Q 1463 2403 1327 2353 
Q 1191 2303 925 2138 
z
" transform="scale(0.015625)"/>
       </defs>
       <use xlink:href="#TimesNewRomanPSMT-36"/>
      </g>
     </g>
    </g>
    <g id="xtick_5">
     <g id="line2d_5">
      <path d="M 250.896205 391.572 
L 250.896205 85.272 
" clip-path="url(#p1543468119)" style="fill: none; stroke: #cccccc; stroke-linecap: round"/>
     </g>
     <g id="text_5">
      <!-- 8 -->
      <g style="fill: #262626" transform="translate(247.646205 410.098875) scale(0.13 -0.13)">
       <defs>
        <path id="TimesNewRomanPSMT-38" d="M 1228 2134 
Q 725 2547 579 2797 
Q 434 3047 434 3316 
Q 434 3728 753 4026 
Q 1072 4325 1600 4325 
Q 2113 4325 2425 4047 
Q 2738 3769 2738 3413 
Q 2738 3175 2569 2928 
Q 2400 2681 1866 2347 
Q 2416 1922 2594 1678 
Q 2831 1359 2831 1006 
Q 2831 559 2490 242 
Q 2150 -75 1597 -75 
Q 994 -75 656 303 
Q 388 606 388 966 
Q 388 1247 577 1523 
Q 766 1800 1228 2134 
z
M 1719 2469 
Q 2094 2806 2194 3001 
Q 2294 3197 2294 3444 
Q 2294 3772 2109 3958 
Q 1925 4144 1606 4144 
Q 1288 4144 1088 3959 
Q 888 3775 888 3528 
Q 888 3366 970 3203 
Q 1053 3041 1206 2894 
L 1719 2469 
z
M 1375 2016 
Q 1116 1797 991 1539 
Q 866 1281 866 981 
Q 866 578 1086 336 
Q 1306 94 1647 94 
Q 1984 94 2187 284 
Q 2391 475 2391 747 
Q 2391 972 2272 1150 
Q 2050 1481 1375 2016 
z
" transform="scale(0.015625)"/>
       </defs>
       <use xlink:href="#TimesNewRomanPSMT-38"/>
      </g>
     </g>
    </g>
    <g id="xtick_6">
     <g id="line2d_6">
      <path d="M 301.968694 391.572 
L 301.968694 85.272 
" clip-path="url(#p1543468119)" style="fill: none; stroke: #cccccc; stroke-linecap: round"/>
     </g>
     <g id="text_6">
      <!-- 10 -->
      <g style="fill: #262626" transform="translate(295.468694 410.098875) scale(0.13 -0.13)">
       <defs>
        <path id="TimesNewRomanPSMT-31" d="M 750 3822 
L 1781 4325 
L 1884 4325 
L 1884 747 
Q 1884 391 1914 303 
Q 1944 216 2037 169 
Q 2131 122 2419 116 
L 2419 0 
L 825 0 
L 825 116 
Q 1125 122 1212 167 
Q 1300 213 1334 289 
Q 1369 366 1369 747 
L 1369 3034 
Q 1369 3497 1338 3628 
Q 1316 3728 1258 3775 
Q 1200 3822 1119 3822 
Q 1003 3822 797 3725 
L 750 3822 
z
" transform="scale(0.015625)"/>
       </defs>
       <use xlink:href="#TimesNewRomanPSMT-31"/>
       <use xlink:href="#TimesNewRomanPSMT-30" transform="translate(50 0)"/>
      </g>
     </g>
    </g>
    <g id="xtick_7">
     <g id="line2d_7">
      <path d="M 353.041182 391.572 
L 353.041182 85.272 
" clip-path="url(#p1543468119)" style="fill: none; stroke: #cccccc; stroke-linecap: round"/>
     </g>
     <g id="text_7">
      <!-- 12 -->
      <g style="fill: #262626" transform="translate(346.541182 410.098875) scale(0.13 -0.13)">
       <use xlink:href="#TimesNewRomanPSMT-31"/>
       <use xlink:href="#TimesNewRomanPSMT-32" transform="translate(50 0)"/>
      </g>
     </g>
    </g>
    <g id="xtick_8">
     <g id="line2d_8">
      <path d="M 404.113671 391.572 
L 404.113671 85.272 
" clip-path="url(#p1543468119)" style="fill: none; stroke: #cccccc; stroke-linecap: round"/>
     </g>
     <g id="text_8">
      <!-- 14 -->
      <g style="fill: #262626" transform="translate(397.613671 410.098875) scale(0.13 -0.13)">
       <use xlink:href="#TimesNewRomanPSMT-31"/>
       <use xlink:href="#TimesNewRomanPSMT-34" transform="translate(50 0)"/>
      </g>
     </g>
    </g>
    <g id="xtick_9">
     <g id="line2d_9">
      <path d="M 455.18616 391.572 
L 455.18616 85.272 
" clip-path="url(#p1543468119)" style="fill: none; stroke: #cccccc; stroke-linecap: round"/>
     </g>
     <g id="text_9">
      <!-- 16 -->
      <g style="fill: #262626" transform="translate(448.68616 410.098875) scale(0.13 -0.13)">
       <use xlink:href="#TimesNewRomanPSMT-31"/>
       <use xlink:href="#TimesNewRomanPSMT-36" transform="translate(50 0)"/>
      </g>
     </g>
    </g>
    <g id="text_10">
     <!-- ntl -->
     <g style="fill: #262626" transform="translate(264.070625 426.600906) scale(0.14 -0.14)">
      <defs>
       <path id="TimesNewRomanPSMT-6e" d="M 1034 2341 
Q 1538 2947 1994 2947 
Q 2228 2947 2397 2830 
Q 2566 2713 2666 2444 
Q 2734 2256 2734 1869 
L 2734 647 
Q 2734 375 2778 278 
Q 2813 200 2889 156 
Q 2966 113 3172 113 
L 3172 0 
L 1756 0 
L 1756 113 
L 1816 113 
Q 2016 113 2095 173 
Q 2175 234 2206 353 
Q 2219 400 2219 647 
L 2219 1819 
Q 2219 2209 2117 2386 
Q 2016 2563 1775 2563 
Q 1403 2563 1034 2156 
L 1034 647 
Q 1034 356 1069 288 
Q 1113 197 1189 155 
Q 1266 113 1500 113 
L 1500 0 
L 84 0 
L 84 113 
L 147 113 
Q 366 113 442 223 
Q 519 334 519 647 
L 519 1709 
Q 519 2225 495 2337 
Q 472 2450 423 2490 
Q 375 2531 294 2531 
Q 206 2531 84 2484 
L 38 2597 
L 900 2947 
L 1034 2947 
L 1034 2341 
z
" transform="scale(0.015625)"/>
       <path id="TimesNewRomanPSMT-74" d="M 1031 3803 
L 1031 2863 
L 1700 2863 
L 1700 2644 
L 1031 2644 
L 1031 788 
Q 1031 509 1111 412 
Q 1191 316 1316 316 
Q 1419 316 1516 380 
Q 1613 444 1666 569 
L 1788 569 
Q 1678 263 1478 108 
Q 1278 -47 1066 -47 
Q 922 -47 784 33 
Q 647 113 581 261 
Q 516 409 516 719 
L 516 2644 
L 63 2644 
L 63 2747 
Q 234 2816 414 2980 
Q 594 3144 734 3369 
Q 806 3488 934 3803 
L 1031 3803 
z
" transform="scale(0.015625)"/>
       <path id="TimesNewRomanPSMT-6c" d="M 1184 4444 
L 1184 647 
Q 1184 378 1223 290 
Q 1263 203 1344 158 
Q 1425 113 1647 113 
L 1647 0 
L 244 0 
L 244 113 
Q 441 113 512 153 
Q 584 194 625 287 
Q 666 381 666 647 
L 666 3247 
Q 666 3731 644 3842 
Q 622 3953 573 3993 
Q 525 4034 450 4034 
Q 369 4034 244 3984 
L 191 4094 
L 1044 4444 
L 1184 4444 
z
" transform="scale(0.015625)"/>
      </defs>
      <use xlink:href="#TimesNewRomanPSMT-6e"/>
      <use xlink:href="#TimesNewRomanPSMT-74" transform="translate(50 0)"/>
      <use xlink:href="#TimesNewRomanPSMT-6c" transform="translate(77.783203 0)"/>
     </g>
    </g>
   </g>
   <g id="matplotlib.axis_2">
    <g id="ytick_1">
     <g id="line2d_10">
      <path d="M 46.60625 391.572 
L 496.31375 391.572 
" clip-path="url(#p1543468119)" style="fill: none; stroke: #cccccc; stroke-linecap: round"/>
     </g>
     <g id="line2d_11">
      <defs>
       <path id="mdbc37174e8" d="M 0 0 
L -6 0 
" style="stroke: #262626; stroke-width: 1.25"/>
      </defs>
      <g>
       <use xlink:href="#mdbc37174e8" x="46.60625" y="391.572" style="fill: #262626; stroke: #262626; stroke-width: 1.25"/>
      </g>
     </g>
     <g id="text_11">
      <!-- 0 -->
      <g style="fill: #262626" transform="translate(30.60625 396.085438) scale(0.13 -0.13)">
       <use xlink:href="#TimesNewRomanPSMT-30"/>
      </g>
     </g>
    </g>
    <g id="ytick_2">
     <g id="line2d_12">
      <path d="M 46.60625 357.252672 
L 496.31375 357.252672 
" clip-path="url(#p1543468119)" style="fill: none; stroke: #cccccc; stroke-linecap: round"/>
     </g>
     <g id="line2d_13">
      <g>
       <use xlink:href="#mdbc37174e8" x="46.60625" y="357.252672" style="fill: #262626; stroke: #262626; stroke-width: 1.25"/>
      </g>
     </g>
     <g id="text_12">
      <!-- 10 -->
      <g style="fill: #262626" transform="translate(24.10625 361.76611) scale(0.13 -0.13)">
       <use xlink:href="#TimesNewRomanPSMT-31"/>
       <use xlink:href="#TimesNewRomanPSMT-30" transform="translate(50 0)"/>
      </g>
     </g>
    </g>
    <g id="ytick_3">
     <g id="line2d_14">
      <path d="M 46.60625 322.933345 
L 496.31375 322.933345 
" clip-path="url(#p1543468119)" style="fill: none; stroke: #cccccc; stroke-linecap: round"/>
     </g>
     <g id="line2d_15">
      <g>
       <use xlink:href="#mdbc37174e8" x="46.60625" y="322.933345" style="fill: #262626; stroke: #262626; stroke-width: 1.25"/>
      </g>
     </g>
     <g id="text_13">
      <!-- 20 -->
      <g style="fill: #262626" transform="translate(24.10625 327.446782) scale(0.13 -0.13)">
       <use xlink:href="#TimesNewRomanPSMT-32"/>
       <use xlink:href="#TimesNewRomanPSMT-30" transform="translate(50 0)"/>
      </g>
     </g>
    </g>
    <g id="ytick_4">
     <g id="line2d_16">
      <path d="M 46.60625 288.614017 
L 496.31375 288.614017 
" clip-path="url(#p1543468119)" style="fill: none; stroke: #cccccc; stroke-linecap: round"/>
     </g>
     <g id="line2d_17">
      <g>
       <use xlink:href="#mdbc37174e8" x="46.60625" y="288.614017" style="fill: #262626; stroke: #262626; stroke-width: 1.25"/>
      </g>
     </g>
     <g id="text_14">
      <!-- 30 -->
      <g style="fill: #262626" transform="translate(24.10625 293.127454) scale(0.13 -0.13)">
       <defs>
        <path id="TimesNewRomanPSMT-33" d="M 325 3431 
Q 506 3859 782 4092 
Q 1059 4325 1472 4325 
Q 1981 4325 2253 3994 
Q 2459 3747 2459 3466 
Q 2459 3003 1878 2509 
Q 2269 2356 2469 2072 
Q 2669 1788 2669 1403 
Q 2669 853 2319 450 
Q 1863 -75 997 -75 
Q 569 -75 414 31 
Q 259 138 259 259 
Q 259 350 332 419 
Q 406 488 509 488 
Q 588 488 669 463 
Q 722 447 909 348 
Q 1097 250 1169 231 
Q 1284 197 1416 197 
Q 1734 197 1970 444 
Q 2206 691 2206 1028 
Q 2206 1275 2097 1509 
Q 2016 1684 1919 1775 
Q 1784 1900 1550 2001 
Q 1316 2103 1072 2103 
L 972 2103 
L 972 2197 
Q 1219 2228 1467 2375 
Q 1716 2522 1828 2728 
Q 1941 2934 1941 3181 
Q 1941 3503 1739 3701 
Q 1538 3900 1238 3900 
Q 753 3900 428 3381 
L 325 3431 
z
" transform="scale(0.015625)"/>
       </defs>
       <use xlink:href="#TimesNewRomanPSMT-33"/>
       <use xlink:href="#TimesNewRomanPSMT-30" transform="translate(50 0)"/>
      </g>
     </g>
    </g>
    <g id="ytick_5">
     <g id="line2d_18">
      <path d="M 46.60625 254.294689 
L 496.31375 254.294689 
" clip-path="url(#p1543468119)" style="fill: none; stroke: #cccccc; stroke-linecap: round"/>
     </g>
     <g id="line2d_19">
      <g>
       <use xlink:href="#mdbc37174e8" x="46.60625" y="254.294689" style="fill: #262626; stroke: #262626; stroke-width: 1.25"/>
      </g>
     </g>
     <g id="text_15">
      <!-- 40 -->
      <g style="fill: #262626" transform="translate(24.10625 258.808127) scale(0.13 -0.13)">
       <use xlink:href="#TimesNewRomanPSMT-34"/>
       <use xlink:href="#TimesNewRomanPSMT-30" transform="translate(50 0)"/>
      </g>
     </g>
    </g>
    <g id="ytick_6">
     <g id="line2d_20">
      <path d="M 46.60625 219.975361 
L 496.31375 219.975361 
" clip-path="url(#p1543468119)" style="fill: none; stroke: #cccccc; stroke-linecap: round"/>
     </g>
     <g id="line2d_21">
      <g>
       <use xlink:href="#mdbc37174e8" x="46.60625" y="219.975361" style="fill: #262626; stroke: #262626; stroke-width: 1.25"/>
      </g>
     </g>
     <g id="text_16">
      <!-- 50 -->
      <g style="fill: #262626" transform="translate(24.10625 224.488799) scale(0.13 -0.13)">
       <defs>
        <path id="TimesNewRomanPSMT-35" d="M 2778 4238 
L 2534 3706 
L 1259 3706 
L 981 3138 
Q 1809 3016 2294 2522 
Q 2709 2097 2709 1522 
Q 2709 1188 2573 903 
Q 2438 619 2231 419 
Q 2025 219 1772 97 
Q 1413 -75 1034 -75 
Q 653 -75 479 54 
Q 306 184 306 341 
Q 306 428 378 495 
Q 450 563 559 563 
Q 641 563 702 538 
Q 763 513 909 409 
Q 1144 247 1384 247 
Q 1750 247 2026 523 
Q 2303 800 2303 1197 
Q 2303 1581 2056 1914 
Q 1809 2247 1375 2428 
Q 1034 2569 447 2591 
L 1259 4238 
L 2778 4238 
z
" transform="scale(0.015625)"/>
       </defs>
       <use xlink:href="#TimesNewRomanPSMT-35"/>
       <use xlink:href="#TimesNewRomanPSMT-30" transform="translate(50 0)"/>
      </g>
     </g>
    </g>
    <g id="ytick_7">
     <g id="line2d_22">
      <path d="M 46.60625 185.656034 
L 496.31375 185.656034 
" clip-path="url(#p1543468119)" style="fill: none; stroke: #cccccc; stroke-linecap: round"/>
     </g>
     <g id="line2d_23">
      <g>
       <use xlink:href="#mdbc37174e8" x="46.60625" y="185.656034" style="fill: #262626; stroke: #262626; stroke-width: 1.25"/>
      </g>
     </g>
     <g id="text_17">
      <!-- 60 -->
      <g style="fill: #262626" transform="translate(24.10625 190.169471) scale(0.13 -0.13)">
       <use xlink:href="#TimesNewRomanPSMT-36"/>
       <use xlink:href="#TimesNewRomanPSMT-30" transform="translate(50 0)"/>
      </g>
     </g>
    </g>
    <g id="ytick_8">
     <g id="line2d_24">
      <path d="M 46.60625 151.336706 
L 496.31375 151.336706 
" clip-path="url(#p1543468119)" style="fill: none; stroke: #cccccc; stroke-linecap: round"/>
     </g>
     <g id="line2d_25">
      <g>
       <use xlink:href="#mdbc37174e8" x="46.60625" y="151.336706" style="fill: #262626; stroke: #262626; stroke-width: 1.25"/>
      </g>
     </g>
     <g id="text_18">
      <!-- 70 -->
      <g style="fill: #262626" transform="translate(24.10625 155.850143) scale(0.13 -0.13)">
       <defs>
        <path id="TimesNewRomanPSMT-37" d="M 644 4238 
L 2916 4238 
L 2916 4119 
L 1503 -88 
L 1153 -88 
L 2419 3728 
L 1253 3728 
Q 900 3728 750 3644 
Q 488 3500 328 3200 
L 238 3234 
L 644 4238 
z
" transform="scale(0.015625)"/>
       </defs>
       <use xlink:href="#TimesNewRomanPSMT-37"/>
       <use xlink:href="#TimesNewRomanPSMT-30" transform="translate(50 0)"/>
      </g>
     </g>
    </g>
    <g id="ytick_9">
     <g id="line2d_26">
      <path d="M 46.60625 117.017378 
L 496.31375 117.017378 
" clip-path="url(#p1543468119)" style="fill: none; stroke: #cccccc; stroke-linecap: round"/>
     </g>
     <g id="line2d_27">
      <g>
       <use xlink:href="#mdbc37174e8" x="46.60625" y="117.017378" style="fill: #262626; stroke: #262626; stroke-width: 1.25"/>
      </g>
     </g>
     <g id="text_19">
      <!-- 80 -->
      <g style="fill: #262626" transform="translate(24.10625 121.530816) scale(0.13 -0.13)">
       <use xlink:href="#TimesNewRomanPSMT-38"/>
       <use xlink:href="#TimesNewRomanPSMT-30" transform="translate(50 0)"/>
      </g>
     </g>
    </g>
    <g id="text_20">
     <!-- 频数 -->
     <g style="fill: #262626" transform="translate(17.111563 252.422) rotate(-90) scale(0.14 -0.14)">
      <defs>
       <path id="SimSun-9891" d="M 2800 2050 
L 3225 1675 
L 3000 1550 
Q 2400 625 1862 200 
Q 1325 -225 400 -575 
L 375 -500 
Q 1475 100 2000 712 
Q 2525 1325 2800 2050 
z
M 1800 2950 
L 1800 4375 
Q 1800 4700 1775 5250 
L 2300 5025 
L 2100 4850 
L 2100 4075 
L 2500 4075 
L 2775 4350 
L 3150 3925 
L 2100 3925 
L 2100 2950 
L 2575 2950 
L 2875 3225 
L 3275 2800 
L 1800 2800 
L 2250 2550 
L 2075 2425 
L 2075 1150 
L 1750 950 
L 1750 2800 
L 1150 2800 
Q 825 2800 550 2725 
L 325 2950 
L 1000 2950 
L 1000 3900 
Q 1000 4200 975 4500 
L 1500 4275 
L 1300 4100 
L 1300 2950 
L 1800 2950 
z
M 1100 2325 
L 1550 2025 
Q 1375 1975 1100 1500 
Q 800 1000 325 575 
L 275 650 
Q 825 1400 1100 2325 
z
M 3375 800 
Q 3400 1450 3400 2312 
Q 3400 3175 3375 3925 
L 3725 3725 
L 4200 3725 
Q 4300 4425 4325 4700 
L 3775 4700 
Q 3450 4700 3175 4625 
L 2950 4850 
L 5400 4850 
L 5725 5150 
L 6150 4700 
L 4800 4700 
Q 4625 4500 4325 3725 
L 5425 3725 
L 5625 3950 
L 6000 3650 
L 5800 3500 
L 5800 1975 
Q 5800 1550 5825 1100 
L 5475 900 
L 5475 3575 
L 3725 3575 
L 3725 1025 
L 3375 800 
z
M 5000 2875 
L 4775 2700 
Q 4775 1500 4612 987 
Q 4450 475 3987 100 
Q 3525 -275 2575 -575 
L 2550 -500 
Q 3550 -50 3937 400 
Q 4325 850 4387 1587 
Q 4450 2325 4425 3150 
L 5000 2875 
z
M 4725 875 
Q 5700 425 5862 250 
Q 6025 75 6025 -100 
Q 6025 -225 5975 -362 
Q 5925 -500 5875 -500 
Q 5825 -500 5775 -400 
Q 5650 -175 5437 87 
Q 5225 350 4675 800 
L 4725 875 
z
" transform="scale(0.015625)"/>
       <path id="SimSun-6570" d="M 1875 1525 
Q 1675 1200 1500 900 
Q 1825 825 2275 725 
Q 2500 975 2725 1525 
L 1875 1525 
z
M 850 4900 
Q 1325 4600 1425 4450 
Q 1525 4300 1525 4225 
Q 1525 4100 1437 3975 
Q 1350 3850 1300 3850 
Q 1225 3850 1150 4100 
Q 1050 4450 775 4850 
L 850 4900 
z
M 3000 4975 
L 3450 4675 
Q 3250 4625 3100 4425 
Q 2925 4225 2525 3825 
L 2450 3875 
Q 2925 4625 3000 4975 
z
M 1875 5250 
L 2425 5000 
L 2225 4825 
L 2225 3675 
L 2850 3675 
L 3125 3950 
L 3550 3525 
L 2225 3525 
L 2225 3300 
Q 2800 3175 2937 3062 
Q 3075 2950 3075 2775 
Q 3075 2700 3050 2587 
Q 3025 2475 2975 2475 
Q 2925 2475 2800 2650 
Q 2600 2925 2225 3175 
L 2225 2400 
L 1925 2200 
L 2275 2050 
Q 2150 2000 1950 1675 
L 2725 1675 
L 2900 1900 
L 3275 1575 
L 3050 1450 
Q 2800 875 2600 650 
Q 3000 550 3137 437 
Q 3275 325 3275 150 
Q 3275 -25 3200 -25 
Q 3125 -25 3025 75 
Q 2750 275 2400 425 
Q 1525 -275 325 -500 
L 300 -425 
Q 1450 -50 2100 550 
Q 1600 725 1125 800 
Q 1225 950 1525 1525 
L 1200 1525 
Q 875 1525 600 1450 
L 375 1675 
L 1575 1675 
Q 1675 1925 1775 2275 
L 1900 2225 
L 1900 3250 
Q 1225 2475 350 2050 
L 300 2125 
Q 1225 2775 1700 3525 
L 1250 3525 
Q 925 3525 650 3450 
L 425 3675 
L 1900 3675 
Q 1900 4575 1875 5250 
z
M 3925 3525 
Q 4050 2075 4525 1100 
Q 4925 1950 5025 3525 
L 3925 3525 
z
M 4050 5250 
L 4625 4925 
Q 4425 4850 4325 4625 
Q 4225 4400 3950 3675 
L 5375 3675 
L 5675 3975 
L 6125 3525 
L 5400 3525 
Q 5250 1675 4750 775 
Q 5325 75 6100 -100 
L 6100 -200 
Q 5625 -275 5600 -500 
Q 4950 -50 4525 525 
Q 3700 -275 2550 -650 
L 2500 -575 
Q 3650 -50 4325 800 
Q 3850 1975 3825 3375 
Q 3575 2725 3100 2150 
L 3025 2200 
Q 3625 3200 4050 5250 
z
" transform="scale(0.015625)"/>
      </defs>
      <use xlink:href="#SimSun-9891"/>
      <use xlink:href="#SimSun-6570" transform="translate(100 0)"/>
     </g>
    </g>
   </g>
   <g id="patch_3">
    <path d="M 51.793988 391.572 
L 65.905727 391.572 
L 65.905727 99.857714 
L 51.793988 99.857714 
z
" clip-path="url(#p1543468119)" style="fill: #a6cee4; stroke: #ffffff; stroke-width: 0.6; stroke-linejoin: miter"/>
   </g>
   <g id="patch_4">
    <path d="M 65.905727 391.572 
L 80.017465 391.572 
L 80.017465 178.792168 
L 65.905727 178.792168 
z
" clip-path="url(#p1543468119)" style="fill: #a0cbe2; stroke: #ffffff; stroke-width: 0.6; stroke-linejoin: miter"/>
   </g>
   <g id="patch_5">
    <path d="M 80.017465 391.572 
L 94.129204 391.572 
L 94.129204 316.069479 
L 80.017465 316.069479 
z
" clip-path="url(#p1543468119)" style="fill: #99c7e0; stroke: #ffffff; stroke-width: 0.6; stroke-linejoin: miter"/>
   </g>
   <g id="patch_6">
    <path d="M 94.129204 391.572 
L 108.240942 391.572 
L 108.240942 343.524941 
L 94.129204 343.524941 
z
" clip-path="url(#p1543468119)" style="fill: #91c3de; stroke: #ffffff; stroke-width: 0.6; stroke-linejoin: miter"/>
   </g>
   <g id="patch_7">
    <path d="M 108.240942 391.572 
L 122.352681 391.572 
L 122.352681 367.548471 
L 108.240942 367.548471 
z
" clip-path="url(#p1543468119)" style="fill: #89bedc; stroke: #ffffff; stroke-width: 0.6; stroke-linejoin: miter"/>
   </g>
   <g id="patch_8">
    <path d="M 122.352681 391.572 
L 136.464419 391.572 
L 136.464419 360.684605 
L 122.352681 360.684605 
z
" clip-path="url(#p1543468119)" style="fill: #82bbdb; stroke: #ffffff; stroke-width: 0.6; stroke-linejoin: miter"/>
   </g>
   <g id="patch_9">
    <path d="M 136.464419 391.572 
L 150.576157 391.572 
L 150.576157 367.548471 
L 136.464419 367.548471 
z
" clip-path="url(#p1543468119)" style="fill: #7ab6d9; stroke: #ffffff; stroke-width: 0.6; stroke-linejoin: miter"/>
   </g>
   <g id="patch_10">
    <path d="M 150.576157 391.572 
L 164.687896 391.572 
L 164.687896 370.980403 
L 150.576157 370.980403 
z
" clip-path="url(#p1543468119)" style="fill: #72b2d8; stroke: #ffffff; stroke-width: 0.6; stroke-linejoin: miter"/>
   </g>
   <g id="patch_11">
    <path d="M 164.687896 391.572 
L 178.799634 391.572 
L 178.799634 374.412336 
L 164.687896 374.412336 
z
" clip-path="url(#p1543468119)" style="fill: #6aaed6; stroke: #ffffff; stroke-width: 0.6; stroke-linejoin: miter"/>
   </g>
   <g id="patch_12">
    <path d="M 178.799634 391.572 
L 192.911373 391.572 
L 192.911373 370.980403 
L 178.799634 370.980403 
z
" clip-path="url(#p1543468119)" style="fill: #64a9d3; stroke: #ffffff; stroke-width: 0.6; stroke-linejoin: miter"/>
   </g>
   <g id="patch_13">
    <path d="M 192.911373 391.572 
L 207.023111 391.572 
L 207.023111 374.412336 
L 192.911373 374.412336 
z
" clip-path="url(#p1543468119)" style="fill: #5da5d1; stroke: #ffffff; stroke-width: 0.6; stroke-linejoin: miter"/>
   </g>
   <g id="patch_14">
    <path d="M 207.023111 391.572 
L 221.13485 391.572 
L 221.13485 384.708134 
L 207.023111 384.708134 
z
" clip-path="url(#p1543468119)" style="fill: #57a0ce; stroke: #ffffff; stroke-width: 0.6; stroke-linejoin: miter"/>
   </g>
   <g id="patch_15">
    <path d="M 221.13485 391.572 
L 235.246588 391.572 
L 235.246588 384.708134 
L 221.13485 384.708134 
z
" clip-path="url(#p1543468119)" style="fill: #529dcc; stroke: #ffffff; stroke-width: 0.6; stroke-linejoin: miter"/>
   </g>
   <g id="patch_16">
    <path d="M 235.246588 391.572 
L 249.358327 391.572 
L 249.358327 391.572 
L 235.246588 391.572 
z
" clip-path="url(#p1543468119)" style="fill: #4b98ca; stroke: #ffffff; stroke-width: 0.6; stroke-linejoin: miter"/>
   </g>
   <g id="patch_17">
    <path d="M 249.358327 391.572 
L 263.470065 391.572 
L 263.470065 391.572 
L 249.358327 391.572 
z
" clip-path="url(#p1543468119)" style="fill: #4594c7; stroke: #ffffff; stroke-width: 0.6; stroke-linejoin: miter"/>
   </g>
   <g id="patch_18">
    <path d="M 263.470065 391.572 
L 277.581804 391.572 
L 277.581804 391.572 
L 263.470065 391.572 
z
" clip-path="url(#p1543468119)" style="fill: #3f8fc5; stroke: #ffffff; stroke-width: 0.6; stroke-linejoin: miter"/>
   </g>
   <g id="patch_19">
    <path d="M 277.581804 391.572 
L 291.693542 391.572 
L 291.693542 391.572 
L 277.581804 391.572 
z
" clip-path="url(#p1543468119)" style="fill: #3a8ac2; stroke: #ffffff; stroke-width: 0.6; stroke-linejoin: miter"/>
   </g>
   <g id="patch_20">
    <path d="M 291.693542 391.572 
L 305.805281 391.572 
L 305.805281 391.572 
L 291.693542 391.572 
z
" clip-path="url(#p1543468119)" style="fill: #3585bf; stroke: #ffffff; stroke-width: 0.6; stroke-linejoin: miter"/>
   </g>
   <g id="patch_21">
    <path d="M 305.805281 391.572 
L 319.917019 391.572 
L 319.917019 391.572 
L 305.805281 391.572 
z
" clip-path="url(#p1543468119)" style="fill: #3181bd; stroke: #ffffff; stroke-width: 0.6; stroke-linejoin: miter"/>
   </g>
   <g id="patch_22">
    <path d="M 319.917019 391.572 
L 334.028758 391.572 
L 334.028758 391.572 
L 319.917019 391.572 
z
" clip-path="url(#p1543468119)" style="fill: #2c7cba; stroke: #ffffff; stroke-width: 0.6; stroke-linejoin: miter"/>
   </g>
   <g id="patch_23">
    <path d="M 334.028758 391.572 
L 348.140496 391.572 
L 348.140496 391.572 
L 334.028758 391.572 
z
" clip-path="url(#p1543468119)" style="fill: #2676b8; stroke: #ffffff; stroke-width: 0.6; stroke-linejoin: miter"/>
   </g>
   <g id="patch_24">
    <path d="M 348.140496 391.572 
L 362.252235 391.572 
L 362.252235 391.572 
L 348.140496 391.572 
z
" clip-path="url(#p1543468119)" style="fill: #2171b5; stroke: #ffffff; stroke-width: 0.6; stroke-linejoin: miter"/>
   </g>
   <g id="patch_25">
    <path d="M 362.252235 391.572 
L 376.363973 391.572 
L 376.363973 391.572 
L 362.252235 391.572 
z
" clip-path="url(#p1543468119)" style="fill: #1d6cb1; stroke: #ffffff; stroke-width: 0.6; stroke-linejoin: miter"/>
   </g>
   <g id="patch_26">
    <path d="M 376.363973 391.572 
L 390.475711 391.572 
L 390.475711 391.572 
L 376.363973 391.572 
z
" clip-path="url(#p1543468119)" style="fill: #1967ad; stroke: #ffffff; stroke-width: 0.6; stroke-linejoin: miter"/>
   </g>
   <g id="patch_27">
    <path d="M 390.475711 391.572 
L 404.58745 391.572 
L 404.58745 391.572 
L 390.475711 391.572 
z
" clip-path="url(#p1543468119)" style="fill: #1562a9; stroke: #ffffff; stroke-width: 0.6; stroke-linejoin: miter"/>
   </g>
   <g id="patch_28">
    <path d="M 404.58745 391.572 
L 418.699188 391.572 
L 418.699188 391.572 
L 404.58745 391.572 
z
" clip-path="url(#p1543468119)" style="fill: #125ea6; stroke: #ffffff; stroke-width: 0.6; stroke-linejoin: miter"/>
   </g>
   <g id="patch_29">
    <path d="M 418.699188 391.572 
L 432.810927 391.572 
L 432.810927 384.708134 
L 418.699188 384.708134 
z
" clip-path="url(#p1543468119)" style="fill: #0e59a2; stroke: #ffffff; stroke-width: 0.6; stroke-linejoin: miter"/>
   </g>
   <g id="patch_30">
    <path d="M 432.810927 391.572 
L 446.922665 391.572 
L 446.922665 391.572 
L 432.810927 391.572 
z
" clip-path="url(#p1543468119)" style="fill: #0a549e; stroke: #ffffff; stroke-width: 0.6; stroke-linejoin: miter"/>
   </g>
   <g id="patch_31">
    <path d="M 446.922665 391.572 
L 461.034404 391.572 
L 461.034404 388.140067 
L 446.922665 388.140067 
z
" clip-path="url(#p1543468119)" style="fill: #084f99; stroke: #ffffff; stroke-width: 0.6; stroke-linejoin: miter"/>
   </g>
   <g id="patch_32">
    <path d="M 461.034404 391.572 
L 475.146142 391.572 
L 475.146142 374.412336 
L 461.034404 374.412336 
z
" clip-path="url(#p1543468119)" style="fill: #084a91; stroke: #ffffff; stroke-width: 0.6; stroke-linejoin: miter"/>
   </g>
   <g id="patch_33">
    <path d="M 46.60625 391.572 
L 46.60625 85.272 
" style="fill: none; stroke: #cccccc; stroke-width: 1.25; stroke-linejoin: miter; stroke-linecap: square"/>
   </g>
   <g id="patch_34">
    <path d="M 496.31375 391.572 
L 496.31375 85.272 
" style="fill: none; stroke: #cccccc; stroke-width: 1.25; stroke-linejoin: miter; stroke-linecap: square"/>
   </g>
   <g id="patch_35">
    <path d="M 46.60625 391.572 
L 496.31375 391.572 
" style="fill: none; stroke: #cccccc; stroke-width: 1.25; stroke-linejoin: miter; stroke-linecap: square"/>
   </g>
   <g id="patch_36">
    <path d="M 46.60625 85.272 
L 496.31375 85.272 
" style="fill: none; stroke: #cccccc; stroke-width: 1.25; stroke-linejoin: miter; stroke-linecap: square"/>
   </g>
   <g id="text_21">
    <!-- ntl 分布 -->
    <g style="fill: #262626" transform="translate(245.015 79.272) scale(0.16 -0.16)">
     <defs>
      <path id="TimesNewRomanPSMT-20" transform="scale(0.015625)"/>
      <path id="SimSun-5206" d="M 2350 5050 
L 2850 4675 
L 2625 4550 
Q 2200 3750 1687 3125 
Q 1175 2500 375 2025 
L 325 2100 
Q 975 2625 1475 3337 
Q 1975 4050 2350 5050 
z
M 4100 4975 
L 3900 4850 
Q 4175 3850 4800 3300 
Q 5425 2750 6125 2625 
L 6125 2550 
Q 5750 2500 5600 2225 
Q 4775 2675 4287 3425 
Q 3800 4175 3625 5175 
L 4100 4975 
z
M 1375 2625 
L 4225 2625 
L 4475 2875 
L 4825 2525 
L 4625 2375 
Q 4575 400 4375 -12 
Q 4175 -425 3675 -600 
Q 3600 -200 2975 -25 
L 2975 75 
Q 3600 -25 3787 -12 
Q 3975 0 4075 275 
Q 4175 550 4275 2475 
L 2975 2475 
Q 2825 1400 2375 662 
Q 1925 -75 650 -625 
L 600 -525 
Q 1725 50 2112 837 
Q 2500 1625 2575 2475 
L 1800 2475 
L 1575 2425 
L 1375 2625 
z
" transform="scale(0.015625)"/>
      <path id="SimSun-5e03" d="M 3425 2725 
Q 3425 3225 3400 3625 
L 3975 3375 
L 3775 3200 
L 3775 2725 
L 4950 2725 
L 5150 2975 
L 5575 2650 
L 5350 2500 
L 5350 500 
Q 5300 100 4800 -50 
Q 4800 225 4175 475 
L 4175 575 
Q 4625 500 4812 500 
Q 5000 500 5000 700 
L 5000 2575 
L 3775 2575 
L 3775 550 
Q 3775 -25 3800 -500 
L 3400 -675 
Q 3425 250 3425 1025 
L 3425 2575 
L 2275 2575 
L 2275 125 
L 1900 -25 
Q 1925 775 1925 2525 
Q 1225 1650 300 1025 
L 250 1100 
Q 1300 2050 1762 2800 
Q 2225 3550 2375 3875 
L 825 3875 
L 600 3825 
L 400 4025 
L 2425 4025 
Q 2750 4725 2850 5225 
L 3450 4850 
L 3200 4725 
L 2825 4025 
L 5175 4025 
L 5550 4400 
L 6075 3875 
L 2775 3875 
Q 2500 3350 2175 2850 
L 2250 2725 
L 3425 2725 
z
" transform="scale(0.015625)"/>
     </defs>
     <use xlink:href="#TimesNewRomanPSMT-6e"/>
     <use xlink:href="#TimesNewRomanPSMT-74" transform="translate(50 0)"/>
     <use xlink:href="#TimesNewRomanPSMT-6c" transform="translate(77.783203 0)"/>
     <use xlink:href="#TimesNewRomanPSMT-20" transform="translate(105.566406 0)"/>
     <use xlink:href="#SimSun-5206" transform="translate(130.566406 0)"/>
     <use xlink:href="#SimSun-5e03" transform="translate(230.566406 0)"/>
    </g>
   </g>
   <g id="legend_1">
    <g id="patch_37">
     <path d="M 376.71375 136.54075 
L 483.31375 136.54075 
Q 485.91375 136.54075 485.91375 133.94075 
L 485.91375 98.272 
Q 485.91375 95.672 483.31375 95.672 
L 376.71375 95.672 
Q 374.11375 95.672 374.11375 98.272 
L 374.11375 133.94075 
Q 374.11375 136.54075 376.71375 136.54075 
z
" style="fill: #ffffff; opacity: 0.8; stroke: #cccccc; stroke-linejoin: miter"/>
    </g>
    <g id="patch_38">
     <path d="M 379.31375 110.075594 
L 405.31375 110.075594 
L 405.31375 100.975594 
L 379.31375 100.975594 
z
" style="fill: #a6cee4; stroke: #ffffff; stroke-width: 0.6; stroke-linejoin: miter"/>
    </g>
    <g id="text_22">
     <!-- 频数柱 -->
     <g style="fill: #262626" transform="translate(415.71375 110.075594) scale(0.13 -0.13)">
      <defs>
       <path id="SimSun-67f1" d="M 3650 5125 
Q 4225 4800 4362 4625 
Q 4500 4450 4500 4325 
Q 4500 4200 4375 4037 
Q 4250 3875 4200 3875 
Q 4125 3875 4050 4150 
Q 3950 4575 3600 5050 
L 3650 5125 
z
M 2675 3750 
L 5200 3750 
L 5550 4100 
L 6050 3600 
L 4350 3600 
L 4350 1975 
L 5050 1975 
L 5375 2300 
L 5850 1825 
L 4350 1825 
L 4350 -125 
L 5225 -125 
L 5575 225 
L 6075 -275 
L 3025 -275 
Q 2700 -275 2425 -350 
L 2200 -125 
L 4000 -125 
L 4000 1825 
L 3550 1825 
Q 3225 1825 2950 1750 
L 2725 1975 
L 4000 1975 
L 4000 3600 
L 3500 3600 
Q 3175 3600 2900 3525 
L 2675 3750 
z
M 1700 2675 
Q 1700 25 1725 -475 
L 1325 -625 
Q 1350 450 1350 2225 
Q 1000 1500 325 675 
L 250 725 
Q 1075 2025 1350 3475 
L 1125 3475 
Q 800 3475 525 3400 
L 300 3625 
L 1350 3625 
Q 1350 4450 1325 5200 
L 1925 4900 
L 1700 4725 
L 1700 3625 
L 2000 3625 
L 2275 3900 
L 2700 3475 
L 1700 3475 
L 1700 2800 
Q 2225 2600 2400 2450 
Q 2575 2300 2575 2125 
Q 2575 2050 2512 1887 
Q 2450 1725 2400 1725 
Q 2325 1725 2225 1950 
Q 2050 2300 1700 2675 
z
" transform="scale(0.015625)"/>
      </defs>
      <use xlink:href="#SimSun-9891"/>
      <use xlink:href="#SimSun-6570" transform="translate(100 0)"/>
      <use xlink:href="#SimSun-67f1" transform="translate(200 0)"/>
     </g>
    </g>
    <g id="line2d_28">
     <path d="M 379.31375 124.009969 
L 392.31375 124.009969 
L 405.31375 124.009969 
" style="fill: none; stroke: #1f4e79; stroke-width: 2.2; stroke-linecap: round"/>
    </g>
    <g id="text_23">
     <!-- 核密度曲线 -->
     <g style="fill: #262626" transform="translate(415.71375 128.559969) scale(0.13 -0.13)">
      <defs>
       <path id="SimSun-6838" d="M 3625 5200 
L 3700 5250 
Q 4225 4950 4287 4837 
Q 4350 4725 4350 4625 
Q 4350 4475 4262 4362 
Q 4175 4250 4125 4250 
Q 4050 4250 4000 4500 
Q 3900 4850 3625 5200 
z
M 3100 2575 
L 4300 2575 
Q 4475 2825 4587 3025 
Q 4700 3225 4825 3525 
L 5300 3125 
L 5050 3025 
Q 3875 1300 2325 525 
L 2300 625 
Q 3350 1275 4225 2450 
Q 3150 2350 2950 2125 
L 2725 2600 
Q 2975 2625 3275 3075 
Q 3575 3525 3750 4025 
L 2950 4025 
L 2725 3975 
L 2525 4175 
L 5275 4175 
L 5575 4475 
L 6025 4025 
L 3850 4025 
L 4275 3725 
L 4050 3650 
Q 3625 3050 3100 2575 
z
M 5250 2375 
L 5725 2000 
L 5500 1925 
Q 5050 1350 4550 875 
Q 5425 375 5600 175 
Q 5775 -25 5775 -200 
Q 5775 -275 5712 -400 
Q 5650 -525 5600 -525 
Q 5500 -525 5350 -200 
Q 5100 275 4450 775 
Q 3400 -175 2100 -575 
L 2075 -475 
Q 4175 425 5250 2375 
z
M 1700 775 
Q 1700 450 1725 -425 
L 1325 -625 
Q 1350 850 1350 2425 
Q 950 1475 375 800 
L 325 875 
Q 1000 2025 1325 3575 
L 775 3575 
L 550 3525 
L 350 3725 
L 1350 3725 
Q 1350 4550 1325 5275 
L 1900 5000 
L 1700 4825 
L 1700 3725 
L 2025 3725 
L 2300 4000 
L 2725 3575 
L 1700 3575 
L 1700 2950 
Q 2225 2750 2362 2612 
Q 2500 2475 2500 2325 
Q 2500 2200 2450 2075 
Q 2400 1950 2375 1950 
Q 2275 1950 2150 2225 
Q 1950 2600 1700 2825 
L 1700 775 
z
" transform="scale(0.015625)"/>
       <path id="SimSun-5bc6" d="M 1050 4650 
L 1075 4375 
L 3075 4375 
Q 3050 4775 2775 5175 
L 2825 5225 
Q 3325 4975 3375 4862 
Q 3425 4750 3425 4675 
Q 3425 4525 3275 4375 
L 5325 4375 
L 5575 4625 
L 6000 4150 
Q 5650 4200 5100 3575 
L 5025 3625 
L 5350 4225 
L 1075 4225 
Q 1075 3850 1025 3725 
Q 975 3600 850 3562 
Q 725 3525 650 3525 
Q 575 3525 525 3550 
Q 475 3575 475 3600 
Q 475 3675 625 3850 
Q 850 4100 950 4650 
L 1050 4650 
z
M 1500 3275 
Q 1475 2600 1387 2462 
Q 1300 2325 1162 2275 
Q 1025 2225 887 2275 
Q 750 2325 750 2375 
Q 750 2425 925 2575 
Q 1175 2775 1400 3300 
L 1500 3275 
z
M 2050 2700 
Q 2050 3225 2025 3625 
L 2625 3375 
L 2375 3200 
L 2375 2350 
Q 2800 2575 3350 3012 
Q 3900 3450 4325 4000 
L 4700 3550 
L 4450 3500 
Q 3900 3025 3462 2712 
Q 3025 2400 2425 2100 
Q 2400 2050 2800 2050 
L 4025 2050 
Q 4175 2075 4225 2237 
Q 4275 2400 4300 2825 
L 4400 2825 
Q 4400 2500 4437 2325 
Q 4475 2150 4700 2050 
Q 4550 1750 3950 1775 
L 2575 1775 
Q 2400 1775 2262 1775 
Q 2125 1775 2075 1950 
Q 1350 1700 300 1550 
L 275 1625 
Q 1175 1825 2050 2200 
L 2050 2700 
z
M 2600 4050 
L 2650 4100 
Q 3200 3775 3237 3662 
Q 3275 3550 3275 3500 
Q 3275 3350 3175 3237 
Q 3075 3125 3025 3125 
Q 2950 3125 2900 3375 
Q 2825 3725 2600 4050 
z
M 4725 3200 
L 4775 3275 
Q 5350 3000 5525 2837 
Q 5700 2675 5712 2525 
Q 5725 2375 5625 2250 
Q 5525 2125 5475 2125 
Q 5400 2125 5325 2350 
Q 5200 2700 4725 3200 
z
M 2975 -50 
Q 2975 1200 2950 1625 
L 3550 1350 
L 3300 1175 
L 3300 -50 
L 4750 -50 
Q 4750 950 4725 1300 
L 5275 1025 
L 5075 850 
Q 5075 75 5100 -400 
L 4750 -500 
L 4750 -200 
L 1575 -200 
L 1400 -375 
L 1075 -75 
L 1250 50 
Q 1250 850 1225 1275 
L 1800 1025 
L 1575 875 
L 1575 -50 
L 2975 -50 
z
" transform="scale(0.015625)"/>
       <path id="SimSun-5ea6" d="M 2550 2025 
Q 2575 2525 2575 3175 
L 1925 3175 
L 1625 3125 
L 1425 3325 
L 2575 3325 
Q 2575 3700 2550 4150 
L 3100 3875 
L 2900 3750 
L 2900 3325 
L 4300 3325 
Q 4300 3750 4275 4125 
L 4850 3875 
L 4625 3725 
L 4625 3325 
L 5100 3325 
L 5425 3650 
L 5900 3175 
L 4625 3175 
Q 4625 2450 4650 2225 
L 4300 2075 
L 4300 2300 
L 2900 2300 
L 2900 2175 
L 2550 2025 
z
M 4875 1500 
Q 4300 775 3900 425 
Q 4700 -75 6025 -125 
L 6025 -225 
Q 5625 -300 5550 -550 
Q 4375 -325 3675 225 
Q 2475 -450 1075 -625 
L 1050 -525 
Q 2375 -275 3450 450 
Q 2975 925 2575 1625 
L 2325 1625 
L 2100 1575 
L 1900 1775 
L 4525 1775 
L 4750 2000 
L 5125 1625 
L 4875 1500 
z
M 2700 1625 
Q 3175 975 3650 625 
Q 4150 1100 4500 1625 
L 2700 1625 
z
M 2900 3175 
L 2900 2450 
L 4300 2450 
L 4300 3175 
L 2900 3175 
z
M 975 4650 
L 1400 4400 
L 3375 4400 
Q 3350 4550 3262 4725 
Q 3175 4900 2900 5225 
L 2975 5275 
Q 3550 5025 3637 4887 
Q 3725 4750 3725 4725 
Q 3725 4575 3525 4400 
L 5150 4400 
L 5500 4750 
L 6000 4250 
L 1375 4250 
Q 1400 2750 1287 1912 
Q 1175 1075 925 475 
Q 675 -125 300 -625 
L 225 -575 
Q 725 300 862 1250 
Q 1000 2200 1012 3187 
Q 1025 4175 975 4650 
z
" transform="scale(0.015625)"/>
       <path id="SimSun-66f2" d="M 4050 2000 
L 4050 200 
L 5075 200 
L 5075 2000 
L 4050 2000 
z
M 1000 4050 
L 1400 3825 
L 2375 3825 
Q 2375 4750 2350 5250 
L 2925 4975 
L 2700 4800 
L 2700 3825 
L 3725 3825 
Q 3725 4850 3700 5250 
L 4300 4950 
L 4050 4800 
L 4050 3825 
L 5025 3825 
L 5250 4075 
L 5650 3750 
L 5425 3575 
Q 5425 325 5450 -250 
L 5075 -425 
L 5075 50 
L 1375 50 
L 1375 -350 
L 1000 -525 
Q 1025 650 1025 1812 
Q 1025 2975 1000 4050 
z
M 1375 3675 
L 1375 2150 
L 2375 2150 
L 2375 3675 
L 1375 3675 
z
M 2700 3675 
L 2700 2150 
L 3725 2150 
L 3725 3675 
L 2700 3675 
z
M 4050 3675 
L 4050 2150 
L 5075 2150 
L 5075 3675 
L 4050 3675 
z
M 1375 2000 
L 1375 200 
L 2375 200 
L 2375 2000 
L 1375 2000 
z
M 2700 2000 
L 2700 200 
L 3725 200 
L 3725 2000 
L 2700 2000 
z
" transform="scale(0.015625)"/>
       <path id="SimSun-7ebf" d="M 3900 3400 
Q 3900 3050 3950 2475 
L 5125 2600 
L 5450 2975 
L 5950 2550 
L 3975 2350 
Q 4050 1575 4225 1125 
Q 4775 1625 5100 2175 
L 5550 1725 
L 5325 1700 
Q 4850 1250 4375 800 
Q 4825 175 5425 -75 
L 5775 1125 
L 5875 1100 
Q 5825 525 5812 150 
Q 5800 -225 5925 -450 
Q 5950 -500 5950 -525 
Q 5950 -625 5687 -587 
Q 5425 -550 4987 -287 
Q 4550 -25 4100 550 
Q 3650 250 3187 50 
Q 2725 -150 2025 -350 
L 2000 -250 
Q 3075 150 3925 850 
Q 3700 1525 3625 2300 
L 2600 2175 
L 2400 2075 
L 2125 2275 
L 3600 2425 
Q 3575 2775 3550 3375 
L 2825 3325 
L 2675 3225 
L 2450 3425 
L 3550 3500 
Q 3525 4375 3500 5250 
L 4075 4975 
L 3875 4800 
Q 3875 4275 3900 3525 
L 4975 3625 
L 5300 4000 
L 5800 3550 
L 3900 3400 
z
M 4275 4825 
L 4300 4900 
Q 5075 4700 5150 4562 
Q 5225 4425 5225 4325 
Q 5225 4200 5175 4075 
Q 5125 3950 5075 3950 
Q 5025 3950 4925 4150 
Q 4750 4425 4275 4825 
z
M 1525 5150 
L 2025 4825 
Q 1825 4750 1600 4325 
Q 1375 3875 775 3050 
L 1800 3150 
Q 2100 3650 2275 4150 
L 2725 3825 
Q 2550 3725 2125 3100 
Q 1700 2475 1025 1600 
Q 1375 1650 2575 1875 
L 2575 1775 
Q 1900 1600 1525 1462 
Q 1150 1325 775 1075 
L 475 1600 
Q 750 1675 1112 2137 
Q 1475 2600 1750 3050 
Q 1475 3000 1175 2912 
Q 875 2825 625 2600 
L 350 3075 
Q 625 3125 987 3787 
Q 1350 4450 1525 5150 
z
M 325 375 
Q 1025 475 1450 550 
Q 1875 625 2825 825 
L 2850 725 
Q 1725 400 1212 212 
Q 700 25 575 -100 
L 325 375 
z
" transform="scale(0.015625)"/>
      </defs>
      <use xlink:href="#SimSun-6838"/>
      <use xlink:href="#SimSun-5bc6" transform="translate(100 0)"/>
      <use xlink:href="#SimSun-5ea6" transform="translate(200 0)"/>
      <use xlink:href="#SimSun-66f2" transform="translate(300 0)"/>
      <use xlink:href="#SimSun-7ebf" transform="translate(400 0)"/>
     </g>
    </g>
   </g>
  </g>
  <g id="axes_2">
   <g id="patch_39">
    <path d="M 600.28625 391.572 
L 1049.99375 391.572 
L 1049.99375 85.272 
L 600.28625 85.272 
z
" style="fill: #ffffff"/>
   </g>
   <g id="matplotlib.axis_3">
    <g id="xtick_10">
     <g id="line2d_29">
      <path d="M 600.28625 391.572 
L 600.28625 85.272 
" clip-path="url(#pdf81c791f2)" style="fill: none; stroke: #cccccc; stroke-linecap: round"/>
     </g>
     <g id="text_24">
      <!-- 0.0 -->
      <g style="fill: #262626" transform="translate(592.16125 410.098875) scale(0.13 -0.13)">
       <defs>
        <path id="TimesNewRomanPSMT-2e" d="M 800 606 
Q 947 606 1047 504 
Q 1147 403 1147 259 
Q 1147 116 1045 14 
Q 944 -88 800 -88 
Q 656 -88 554 14 
Q 453 116 453 259 
Q 453 406 554 506 
Q 656 606 800 606 
z
" transform="scale(0.015625)"/>
       </defs>
       <use xlink:href="#TimesNewRomanPSMT-30"/>
       <use xlink:href="#TimesNewRomanPSMT-2e" transform="translate(50 0)"/>
       <use xlink:href="#TimesNewRomanPSMT-30" transform="translate(75 0)"/>
      </g>
     </g>
    </g>
    <g id="xtick_11">
     <g id="line2d_30">
      <path d="M 674.918394 391.572 
L 674.918394 85.272 
" clip-path="url(#pdf81c791f2)" style="fill: none; stroke: #cccccc; stroke-linecap: round"/>
     </g>
     <g id="text_25">
      <!-- 0.5 -->
      <g style="fill: #262626" transform="translate(666.793394 410.098875) scale(0.13 -0.13)">
       <use xlink:href="#TimesNewRomanPSMT-30"/>
       <use xlink:href="#TimesNewRomanPSMT-2e" transform="translate(50 0)"/>
       <use xlink:href="#TimesNewRomanPSMT-35" transform="translate(75 0)"/>
      </g>
     </g>
    </g>
    <g id="xtick_12">
     <g id="line2d_31">
      <path d="M 749.550538 391.572 
L 749.550538 85.272 
" clip-path="url(#pdf81c791f2)" style="fill: none; stroke: #cccccc; stroke-linecap: round"/>
     </g>
     <g id="text_26">
      <!-- 1.0 -->
      <g style="fill: #262626" transform="translate(741.425538 410.098875) scale(0.13 -0.13)">
       <use xlink:href="#TimesNewRomanPSMT-31"/>
       <use xlink:href="#TimesNewRomanPSMT-2e" transform="translate(50 0)"/>
       <use xlink:href="#TimesNewRomanPSMT-30" transform="translate(75 0)"/>
      </g>
     </g>
    </g>
    <g id="xtick_13">
     <g id="line2d_32">
      <path d="M 824.182681 391.572 
L 824.182681 85.272 
" clip-path="url(#pdf81c791f2)" style="fill: none; stroke: #cccccc; stroke-linecap: round"/>
     </g>
     <g id="text_27">
      <!-- 1.5 -->
      <g style="fill: #262626" transform="translate(816.057681 410.098875) scale(0.13 -0.13)">
       <use xlink:href="#TimesNewRomanPSMT-31"/>
       <use xlink:href="#TimesNewRomanPSMT-2e" transform="translate(50 0)"/>
       <use xlink:href="#TimesNewRomanPSMT-35" transform="translate(75 0)"/>
      </g>
     </g>
    </g>
    <g id="xtick_14">
     <g id="line2d_33">
      <path d="M 898.814825 391.572 
L 898.814825 85.272 
" clip-path="url(#pdf81c791f2)" style="fill: none; stroke: #cccccc; stroke-linecap: round"/>
     </g>
     <g id="text_28">
      <!-- 2.0 -->
      <g style="fill: #262626" transform="translate(890.689825 410.098875) scale(0.13 -0.13)">
       <use xlink:href="#TimesNewRomanPSMT-32"/>
       <use xlink:href="#TimesNewRomanPSMT-2e" transform="translate(50 0)"/>
       <use xlink:href="#TimesNewRomanPSMT-30" transform="translate(75 0)"/>
      </g>
     </g>
    </g>
    <g id="xtick_15">
     <g id="line2d_34">
      <path d="M 973.446969 391.572 
L 973.446969 85.272 
" clip-path="url(#pdf81c791f2)" style="fill: none; stroke: #cccccc; stroke-linecap: round"/>
     </g>
     <g id="text_29">
      <!-- 2.5 -->
      <g style="fill: #262626" transform="translate(965.321969 410.098875) scale(0.13 -0.13)">
       <use xlink:href="#TimesNewRomanPSMT-32"/>
       <use xlink:href="#TimesNewRomanPSMT-2e" transform="translate(50 0)"/>
       <use xlink:href="#TimesNewRomanPSMT-35" transform="translate(75 0)"/>
      </g>
     </g>
    </g>
    <g id="xtick_16">
     <g id="line2d_35">
      <path d="M 1048.079113 391.572 
L 1048.079113 85.272 
" clip-path="url(#pdf81c791f2)" style="fill: none; stroke: #cccccc; stroke-linecap: round"/>
     </g>
     <g id="text_30">
      <!-- 3.0 -->
      <g style="fill: #262626" transform="translate(1039.954113 410.098875) scale(0.13 -0.13)">
       <use xlink:href="#TimesNewRomanPSMT-33"/>
       <use xlink:href="#TimesNewRomanPSMT-2e" transform="translate(50 0)"/>
       <use xlink:href="#TimesNewRomanPSMT-30" transform="translate(75 0)"/>
      </g>
     </g>
    </g>
    <g id="text_31">
     <!-- lntl -->
     <g style="fill: #262626" transform="translate(815.805937 426.600906) scale(0.14 -0.14)">
      <use xlink:href="#TimesNewRomanPSMT-6c"/>
      <use xlink:href="#TimesNewRomanPSMT-6e" transform="translate(27.783203 0)"/>
      <use xlink:href="#TimesNewRomanPSMT-74" transform="translate(77.783203 0)"/>
      <use xlink:href="#TimesNewRomanPSMT-6c" transform="translate(105.566406 0)"/>
     </g>
    </g>
   </g>
   <g id="matplotlib.axis_4">
    <g id="ytick_10">
     <g id="line2d_36">
      <path d="M 600.28625 391.572 
L 1049.99375 391.572 
" clip-path="url(#pdf81c791f2)" style="fill: none; stroke: #cccccc; stroke-linecap: round"/>
     </g>
     <g id="line2d_37">
      <g>
       <use xlink:href="#mdbc37174e8" x="600.28625" y="391.572" style="fill: #262626; stroke: #262626; stroke-width: 1.25"/>
      </g>
     </g>
     <g id="text_32">
      <!-- 0 -->
      <g style="fill: #262626" transform="translate(584.28625 396.085438) scale(0.13 -0.13)">
       <use xlink:href="#TimesNewRomanPSMT-30"/>
      </g>
     </g>
    </g>
    <g id="ytick_11">
     <g id="line2d_38">
      <path d="M 600.28625 342.952952 
L 1049.99375 342.952952 
" clip-path="url(#pdf81c791f2)" style="fill: none; stroke: #cccccc; stroke-linecap: round"/>
     </g>
     <g id="line2d_39">
      <g>
       <use xlink:href="#mdbc37174e8" x="600.28625" y="342.952952" style="fill: #262626; stroke: #262626; stroke-width: 1.25"/>
      </g>
     </g>
     <g id="text_33">
      <!-- 5 -->
      <g style="fill: #262626" transform="translate(584.28625 347.46639) scale(0.13 -0.13)">
       <use xlink:href="#TimesNewRomanPSMT-35"/>
      </g>
     </g>
    </g>
    <g id="ytick_12">
     <g id="line2d_40">
      <path d="M 600.28625 294.333905 
L 1049.99375 294.333905 
" clip-path="url(#pdf81c791f2)" style="fill: none; stroke: #cccccc; stroke-linecap: round"/>
     </g>
     <g id="line2d_41">
      <g>
       <use xlink:href="#mdbc37174e8" x="600.28625" y="294.333905" style="fill: #262626; stroke: #262626; stroke-width: 1.25"/>
      </g>
     </g>
     <g id="text_34">
      <!-- 10 -->
      <g style="fill: #262626" transform="translate(577.78625 298.847342) scale(0.13 -0.13)">
       <use xlink:href="#TimesNewRomanPSMT-31"/>
       <use xlink:href="#TimesNewRomanPSMT-30" transform="translate(50 0)"/>
      </g>
     </g>
    </g>
    <g id="ytick_13">
     <g id="line2d_42">
      <path d="M 600.28625 245.714857 
L 1049.99375 245.714857 
" clip-path="url(#pdf81c791f2)" style="fill: none; stroke: #cccccc; stroke-linecap: round"/>
     </g>
     <g id="line2d_43">
      <g>
       <use xlink:href="#mdbc37174e8" x="600.28625" y="245.714857" style="fill: #262626; stroke: #262626; stroke-width: 1.25"/>
      </g>
     </g>
     <g id="text_35">
      <!-- 15 -->
      <g style="fill: #262626" transform="translate(577.78625 250.228295) scale(0.13 -0.13)">
       <use xlink:href="#TimesNewRomanPSMT-31"/>
       <use xlink:href="#TimesNewRomanPSMT-35" transform="translate(50 0)"/>
      </g>
     </g>
    </g>
    <g id="ytick_14">
     <g id="line2d_44">
      <path d="M 600.28625 197.09581 
L 1049.99375 197.09581 
" clip-path="url(#pdf81c791f2)" style="fill: none; stroke: #cccccc; stroke-linecap: round"/>
     </g>
     <g id="line2d_45">
      <g>
       <use xlink:href="#mdbc37174e8" x="600.28625" y="197.09581" style="fill: #262626; stroke: #262626; stroke-width: 1.25"/>
      </g>
     </g>
     <g id="text_36">
      <!-- 20 -->
      <g style="fill: #262626" transform="translate(577.78625 201.609247) scale(0.13 -0.13)">
       <use xlink:href="#TimesNewRomanPSMT-32"/>
       <use xlink:href="#TimesNewRomanPSMT-30" transform="translate(50 0)"/>
      </g>
     </g>
    </g>
    <g id="ytick_15">
     <g id="line2d_46">
      <path d="M 600.28625 148.476762 
L 1049.99375 148.476762 
" clip-path="url(#pdf81c791f2)" style="fill: none; stroke: #cccccc; stroke-linecap: round"/>
     </g>
     <g id="line2d_47">
      <g>
       <use xlink:href="#mdbc37174e8" x="600.28625" y="148.476762" style="fill: #262626; stroke: #262626; stroke-width: 1.25"/>
      </g>
     </g>
     <g id="text_37">
      <!-- 25 -->
      <g style="fill: #262626" transform="translate(577.78625 152.990199) scale(0.13 -0.13)">
       <use xlink:href="#TimesNewRomanPSMT-32"/>
       <use xlink:href="#TimesNewRomanPSMT-35" transform="translate(50 0)"/>
      </g>
     </g>
    </g>
    <g id="ytick_16">
     <g id="line2d_48">
      <path d="M 600.28625 99.857714 
L 1049.99375 99.857714 
" clip-path="url(#pdf81c791f2)" style="fill: none; stroke: #cccccc; stroke-linecap: round"/>
     </g>
     <g id="line2d_49">
      <g>
       <use xlink:href="#mdbc37174e8" x="600.28625" y="99.857714" style="fill: #262626; stroke: #262626; stroke-width: 1.25"/>
      </g>
     </g>
     <g id="text_38">
      <!-- 30 -->
      <g style="fill: #262626" transform="translate(577.78625 104.371152) scale(0.13 -0.13)">
       <use xlink:href="#TimesNewRomanPSMT-33"/>
       <use xlink:href="#TimesNewRomanPSMT-30" transform="translate(50 0)"/>
      </g>
     </g>
    </g>
    <g id="text_39">
     <!-- 频数 -->
     <g style="fill: #262626" transform="translate(570.791562 252.422) rotate(-90) scale(0.14 -0.14)">
      <use xlink:href="#SimSun-9891"/>
      <use xlink:href="#SimSun-6570" transform="translate(100 0)"/>
     </g>
    </g>
   </g>
   <g id="patch_40">
    <path d="M 627.891896 391.572 
L 641.291955 391.572 
L 641.291955 304.057714 
L 627.891896 304.057714 
z
" clip-path="url(#pdf81c791f2)" style="fill: #fdb576; stroke: #ffffff; stroke-width: 0.6; stroke-linejoin: miter"/>
   </g>
   <g id="patch_41">
    <path d="M 641.291955 391.572 
L 654.692014 391.572 
L 654.692014 235.991048 
L 641.291955 235.991048 
z
" clip-path="url(#pdf81c791f2)" style="fill: #fdb06e; stroke: #ffffff; stroke-width: 0.6; stroke-linejoin: miter"/>
   </g>
   <g id="patch_42">
    <path d="M 654.692014 391.572 
L 668.092073 391.572 
L 668.092073 167.924381 
L 654.692014 167.924381 
z
" clip-path="url(#pdf81c791f2)" style="fill: #fdab66; stroke: #ffffff; stroke-width: 0.6; stroke-linejoin: miter"/>
   </g>
   <g id="patch_43">
    <path d="M 668.092073 391.572 
L 681.492132 391.572 
L 681.492132 99.857714 
L 668.092073 99.857714 
z
" clip-path="url(#pdf81c791f2)" style="fill: #fda55f; stroke: #ffffff; stroke-width: 0.6; stroke-linejoin: miter"/>
   </g>
   <g id="patch_44">
    <path d="M 681.492132 391.572 
L 694.89219 391.572 
L 694.89219 138.752952 
L 681.492132 138.752952 
z
" clip-path="url(#pdf81c791f2)" style="fill: #fda057; stroke: #ffffff; stroke-width: 0.6; stroke-linejoin: miter"/>
   </g>
   <g id="patch_45">
    <path d="M 694.89219 391.572 
L 708.292249 391.572 
L 708.292249 158.200571 
L 694.89219 158.200571 
z
" clip-path="url(#pdf81c791f2)" style="fill: #fd9c51; stroke: #ffffff; stroke-width: 0.6; stroke-linejoin: miter"/>
   </g>
   <g id="patch_46">
    <path d="M 708.292249 391.572 
L 721.692308 391.572 
L 721.692308 235.991048 
L 708.292249 235.991048 
z
" clip-path="url(#pdf81c791f2)" style="fill: #fd974a; stroke: #ffffff; stroke-width: 0.6; stroke-linejoin: miter"/>
   </g>
   <g id="patch_47">
    <path d="M 721.692308 391.572 
L 735.092367 391.572 
L 735.092367 284.610095 
L 721.692308 284.610095 
z
" clip-path="url(#pdf81c791f2)" style="fill: #fd9243; stroke: #ffffff; stroke-width: 0.6; stroke-linejoin: miter"/>
   </g>
   <g id="patch_48">
    <path d="M 735.092367 391.572 
L 748.492426 391.572 
L 748.492426 323.505333 
L 735.092367 323.505333 
z
" clip-path="url(#pdf81c791f2)" style="fill: #fd8c3b; stroke: #ffffff; stroke-width: 0.6; stroke-linejoin: miter"/>
   </g>
   <g id="patch_49">
    <path d="M 748.492426 391.572 
L 761.892485 391.572 
L 761.892485 294.333905 
L 748.492426 294.333905 
z
" clip-path="url(#pdf81c791f2)" style="fill: #fb8735; stroke: #ffffff; stroke-width: 0.6; stroke-linejoin: miter"/>
   </g>
   <g id="patch_50">
    <path d="M 761.892485 391.572 
L 775.292544 391.572 
L 775.292544 333.229143 
L 761.892485 333.229143 
z
" clip-path="url(#pdf81c791f2)" style="fill: #f9812e; stroke: #ffffff; stroke-width: 0.6; stroke-linejoin: miter"/>
   </g>
   <g id="patch_51">
    <path d="M 775.292544 391.572 
L 788.692602 391.572 
L 788.692602 313.781524 
L 775.292544 313.781524 
z
" clip-path="url(#pdf81c791f2)" style="fill: #f77b28; stroke: #ffffff; stroke-width: 0.6; stroke-linejoin: miter"/>
   </g>
   <g id="patch_52">
    <path d="M 788.692602 391.572 
L 802.092661 391.572 
L 802.092661 381.84819 
L 788.692602 381.84819 
z
" clip-path="url(#pdf81c791f2)" style="fill: #f67723; stroke: #ffffff; stroke-width: 0.6; stroke-linejoin: miter"/>
   </g>
   <g id="patch_53">
    <path d="M 802.092661 391.572 
L 815.49272 391.572 
L 815.49272 323.505333 
L 802.092661 323.505333 
z
" clip-path="url(#pdf81c791f2)" style="fill: #f4711c; stroke: #ffffff; stroke-width: 0.6; stroke-linejoin: miter"/>
   </g>
   <g id="patch_54">
    <path d="M 815.49272 391.572 
L 828.892779 391.572 
L 828.892779 323.505333 
L 815.49272 323.505333 
z
" clip-path="url(#pdf81c791f2)" style="fill: #f26c16; stroke: #ffffff; stroke-width: 0.6; stroke-linejoin: miter"/>
   </g>
   <g id="patch_55">
    <path d="M 828.892779 391.572 
L 842.292838 391.572 
L 842.292838 342.952952 
L 828.892779 342.952952 
z
" clip-path="url(#pdf81c791f2)" style="fill: #ef6612; stroke: #ffffff; stroke-width: 0.6; stroke-linejoin: miter"/>
   </g>
   <g id="patch_56">
    <path d="M 842.292838 391.572 
L 855.692897 391.572 
L 855.692897 342.952952 
L 842.292838 342.952952 
z
" clip-path="url(#pdf81c791f2)" style="fill: #eb610f; stroke: #ffffff; stroke-width: 0.6; stroke-linejoin: miter"/>
   </g>
   <g id="patch_57">
    <path d="M 855.692897 391.572 
L 869.092956 391.572 
L 869.092956 333.229143 
L 855.692897 333.229143 
z
" clip-path="url(#pdf81c791f2)" style="fill: #e75c0c; stroke: #ffffff; stroke-width: 0.6; stroke-linejoin: miter"/>
   </g>
   <g id="patch_58">
    <path d="M 869.092956 391.572 
L 882.493014 391.572 
L 882.493014 342.952952 
L 869.092956 342.952952 
z
" clip-path="url(#pdf81c791f2)" style="fill: #e4580a; stroke: #ffffff; stroke-width: 0.6; stroke-linejoin: miter"/>
   </g>
   <g id="patch_59">
    <path d="M 882.493014 391.572 
L 895.893073 391.572 
L 895.893073 333.229143 
L 882.493014 333.229143 
z
" clip-path="url(#pdf81c791f2)" style="fill: #e15307; stroke: #ffffff; stroke-width: 0.6; stroke-linejoin: miter"/>
   </g>
   <g id="patch_60">
    <path d="M 895.893073 391.572 
L 909.293132 391.572 
L 909.293132 372.124381 
L 895.893073 372.124381 
z
" clip-path="url(#pdf81c791f2)" style="fill: #dd4d04; stroke: #ffffff; stroke-width: 0.6; stroke-linejoin: miter"/>
   </g>
   <g id="patch_61">
    <path d="M 909.293132 391.572 
L 922.693191 391.572 
L 922.693191 372.124381 
L 909.293132 372.124381 
z
" clip-path="url(#pdf81c791f2)" style="fill: #d94801; stroke: #ffffff; stroke-width: 0.6; stroke-linejoin: miter"/>
   </g>
   <g id="patch_62">
    <path d="M 922.693191 391.572 
L 936.09325 391.572 
L 936.09325 391.572 
L 922.693191 391.572 
z
" clip-path="url(#pdf81c791f2)" style="fill: #d14501; stroke: #ffffff; stroke-width: 0.6; stroke-linejoin: miter"/>
   </g>
   <g id="patch_63">
    <path d="M 936.09325 391.572 
L 949.493309 391.572 
L 949.493309 391.572 
L 936.09325 391.572 
z
" clip-path="url(#pdf81c791f2)" style="fill: #c94202; stroke: #ffffff; stroke-width: 0.6; stroke-linejoin: miter"/>
   </g>
   <g id="patch_64">
    <path d="M 949.493309 391.572 
L 962.893367 391.572 
L 962.893367 391.572 
L 949.493309 391.572 
z
" clip-path="url(#pdf81c791f2)" style="fill: #c14002; stroke: #ffffff; stroke-width: 0.6; stroke-linejoin: miter"/>
   </g>
   <g id="patch_65">
    <path d="M 962.893367 391.572 
L 976.293426 391.572 
L 976.293426 391.572 
L 962.893367 391.572 
z
" clip-path="url(#pdf81c791f2)" style="fill: #bb3d02; stroke: #ffffff; stroke-width: 0.6; stroke-linejoin: miter"/>
   </g>
   <g id="patch_66">
    <path d="M 976.293426 391.572 
L 989.693485 391.572 
L 989.693485 391.572 
L 976.293426 391.572 
z
" clip-path="url(#pdf81c791f2)" style="fill: #b33b02; stroke: #ffffff; stroke-width: 0.6; stroke-linejoin: miter"/>
   </g>
   <g id="patch_67">
    <path d="M 989.693485 391.572 
L 1003.093544 391.572 
L 1003.093544 391.572 
L 989.693485 391.572 
z
" clip-path="url(#pdf81c791f2)" style="fill: #ab3803; stroke: #ffffff; stroke-width: 0.6; stroke-linejoin: miter"/>
   </g>
   <g id="patch_68">
    <path d="M 1003.093544 391.572 
L 1016.493603 391.572 
L 1016.493603 372.124381 
L 1003.093544 372.124381 
z
" clip-path="url(#pdf81c791f2)" style="fill: #a43503; stroke: #ffffff; stroke-width: 0.6; stroke-linejoin: miter"/>
   </g>
   <g id="patch_69">
    <path d="M 1016.493603 391.572 
L 1029.893662 391.572 
L 1029.893662 333.229143 
L 1016.493603 333.229143 
z
" clip-path="url(#pdf81c791f2)" style="fill: #9e3303; stroke: #ffffff; stroke-width: 0.6; stroke-linejoin: miter"/>
   </g>
   <g id="patch_70">
    <path d="M 600.28625 391.572 
L 600.28625 85.272 
" style="fill: none; stroke: #cccccc; stroke-width: 1.25; stroke-linejoin: miter; stroke-linecap: square"/>
   </g>
   <g id="patch_71">
    <path d="M 1049.99375 391.572 
L 1049.99375 85.272 
" style="fill: none; stroke: #cccccc; stroke-width: 1.25; stroke-linejoin: miter; stroke-linecap: square"/>
   </g>
   <g id="patch_72">
    <path d="M 600.28625 391.572 
L 1049.99375 391.572 
" style="fill: none; stroke: #cccccc; stroke-width: 1.25; stroke-linejoin: miter; stroke-linecap: square"/>
   </g>
   <g id="patch_73">
    <path d="M 600.28625 85.272 
L 1049.99375 85.272 
" style="fill: none; stroke: #cccccc; stroke-width: 1.25; stroke-linejoin: miter; stroke-linecap: square"/>
   </g>
   <g id="text_40">
    <!-- lntl 分布 -->
    <g style="fill: #262626" transform="translate(796.4725 79.272) scale(0.16 -0.16)">
     <use xlink:href="#TimesNewRomanPSMT-6c"/>
     <use xlink:href="#TimesNewRomanPSMT-6e" transform="translate(27.783203 0)"/>
     <use xlink:href="#TimesNewRomanPSMT-74" transform="translate(77.783203 0)"/>
     <use xlink:href="#TimesNewRomanPSMT-6c" transform="translate(105.566406 0)"/>
     <use xlink:href="#TimesNewRomanPSMT-20" transform="translate(133.349609 0)"/>
     <use xlink:href="#SimSun-5206" transform="translate(158.349609 0)"/>
     <use xlink:href="#SimSun-5e03" transform="translate(258.349609 0)"/>
    </g>
   </g>
   <g id="legend_2">
    <g id="patch_74">
     <path d="M 930.39375 136.54075 
L 1036.99375 136.54075 
Q 1039.59375 136.54075 1039.59375 133.94075 
L 1039.59375 98.272 
Q 1039.59375 95.672 1036.99375 95.672 
L 930.39375 95.672 
Q 927.79375 95.672 927.79375 98.272 
L 927.79375 133.94075 
Q 927.79375 136.54075 930.39375 136.54075 
z
" style="fill: #ffffff; opacity: 0.8; stroke: #cccccc; stroke-linejoin: miter"/>
    </g>
    <g id="patch_75">
     <path d="M 932.99375 110.075594 
L 958.99375 110.075594 
L 958.99375 100.975594 
L 932.99375 100.975594 
z
" style="fill: #fdb576; stroke: #ffffff; stroke-width: 0.6; stroke-linejoin: miter"/>
    </g>
    <g id="text_41">
     <!-- 频数柱 -->
     <g style="fill: #262626" transform="translate(969.39375 110.075594) scale(0.13 -0.13)">
      <use xlink:href="#SimSun-9891"/>
      <use xlink:href="#SimSun-6570" transform="translate(100 0)"/>
      <use xlink:href="#SimSun-67f1" transform="translate(200 0)"/>
     </g>
    </g>
    <g id="line2d_50">
     <path d="M 932.99375 124.009969 
L 945.99375 124.009969 
L 958.99375 124.009969 
" style="fill: none; stroke: #c65d00; stroke-width: 2.2; stroke-linecap: round"/>
    </g>
    <g id="text_42">
     <!-- 核密度曲线 -->
     <g style="fill: #262626" transform="translate(969.39375 128.559969) scale(0.13 -0.13)">
      <use xlink:href="#SimSun-6838"/>
      <use xlink:href="#SimSun-5bc6" transform="translate(100 0)"/>
      <use xlink:href="#SimSun-5ea6" transform="translate(200 0)"/>
      <use xlink:href="#SimSun-66f2" transform="translate(300 0)"/>
      <use xlink:href="#SimSun-7ebf" transform="translate(400 0)"/>
     </g>
    </g>
   </g>
  </g>
  <g id="axes_3">
   <g id="matplotlib.axis_5">
    <g id="ytick_17">
     <g id="line2d_51">
      <defs>
       <path id="md33ce67bf4" d="M 0 0 
L 6 0 
" style="stroke: #262626; stroke-width: 1.25"/>
      </defs>
      <g>
       <use xlink:href="#md33ce67bf4" x="496.31375" y="391.572" style="fill: #262626; stroke: #262626; stroke-width: 1.25"/>
      </g>
     </g>
     <g id="text_43">
      <!-- 0.00 -->
      <g style="fill: #262626" transform="translate(505.81375 396.085438) scale(0.13 -0.13)">
       <use xlink:href="#TimesNewRomanPSMT-30"/>
       <use xlink:href="#TimesNewRomanPSMT-2e" transform="translate(50 0)"/>
       <use xlink:href="#TimesNewRomanPSMT-30" transform="translate(75 0)"/>
       <use xlink:href="#TimesNewRomanPSMT-30" transform="translate(125 0)"/>
      </g>
     </g>
    </g>
    <g id="ytick_18">
     <g id="line2d_52">
      <g>
       <use xlink:href="#md33ce67bf4" x="496.31375" y="338.222625" style="fill: #262626; stroke: #262626; stroke-width: 1.25"/>
      </g>
     </g>
     <g id="text_44">
      <!-- 0.05 -->
      <g style="fill: #262626" transform="translate(505.81375 342.736063) scale(0.13 -0.13)">
       <use xlink:href="#TimesNewRomanPSMT-30"/>
       <use xlink:href="#TimesNewRomanPSMT-2e" transform="translate(50 0)"/>
       <use xlink:href="#TimesNewRomanPSMT-30" transform="translate(75 0)"/>
       <use xlink:href="#TimesNewRomanPSMT-35" transform="translate(125 0)"/>
      </g>
     </g>
    </g>
    <g id="ytick_19">
     <g id="line2d_53">
      <g>
       <use xlink:href="#md33ce67bf4" x="496.31375" y="284.87325" style="fill: #262626; stroke: #262626; stroke-width: 1.25"/>
      </g>
     </g>
     <g id="text_45">
      <!-- 0.10 -->
      <g style="fill: #262626" transform="translate(505.81375 289.386688) scale(0.13 -0.13)">
       <use xlink:href="#TimesNewRomanPSMT-30"/>
       <use xlink:href="#TimesNewRomanPSMT-2e" transform="translate(50 0)"/>
       <use xlink:href="#TimesNewRomanPSMT-31" transform="translate(75 0)"/>
       <use xlink:href="#TimesNewRomanPSMT-30" transform="translate(125 0)"/>
      </g>
     </g>
    </g>
    <g id="ytick_20">
     <g id="line2d_54">
      <g>
       <use xlink:href="#md33ce67bf4" x="496.31375" y="231.523875" style="fill: #262626; stroke: #262626; stroke-width: 1.25"/>
      </g>
     </g>
     <g id="text_46">
      <!-- 0.15 -->
      <g style="fill: #262626" transform="translate(505.81375 236.037313) scale(0.13 -0.13)">
       <use xlink:href="#TimesNewRomanPSMT-30"/>
       <use xlink:href="#TimesNewRomanPSMT-2e" transform="translate(50 0)"/>
       <use xlink:href="#TimesNewRomanPSMT-31" transform="translate(75 0)"/>
       <use xlink:href="#TimesNewRomanPSMT-35" transform="translate(125 0)"/>
      </g>
     </g>
    </g>
    <g id="ytick_21">
     <g id="line2d_55">
      <g>
       <use xlink:href="#md33ce67bf4" x="496.31375" y="178.1745" style="fill: #262626; stroke: #262626; stroke-width: 1.25"/>
      </g>
     </g>
     <g id="text_47">
      <!-- 0.20 -->
      <g style="fill: #262626" transform="translate(505.81375 182.687938) scale(0.13 -0.13)">
       <use xlink:href="#TimesNewRomanPSMT-30"/>
       <use xlink:href="#TimesNewRomanPSMT-2e" transform="translate(50 0)"/>
       <use xlink:href="#TimesNewRomanPSMT-32" transform="translate(75 0)"/>
       <use xlink:href="#TimesNewRomanPSMT-30" transform="translate(125 0)"/>
      </g>
     </g>
    </g>
    <g id="ytick_22">
     <g id="line2d_56">
      <g>
       <use xlink:href="#md33ce67bf4" x="496.31375" y="124.825125" style="fill: #262626; stroke: #262626; stroke-width: 1.25"/>
      </g>
     </g>
     <g id="text_48">
      <!-- 0.25 -->
      <g style="fill: #262626" transform="translate(505.81375 129.338563) scale(0.13 -0.13)">
       <use xlink:href="#TimesNewRomanPSMT-30"/>
       <use xlink:href="#TimesNewRomanPSMT-2e" transform="translate(50 0)"/>
       <use xlink:href="#TimesNewRomanPSMT-32" transform="translate(75 0)"/>
       <use xlink:href="#TimesNewRomanPSMT-35" transform="translate(125 0)"/>
      </g>
     </g>
    </g>
    <g id="text_49">
     <!-- 密度 -->
     <g style="fill: #262626" transform="translate(542.475312 252.422) rotate(-90) scale(0.14 -0.14)">
      <use xlink:href="#SimSun-5bc6"/>
      <use xlink:href="#SimSun-5ea6" transform="translate(100 0)"/>
     </g>
    </g>
   </g>
   <g id="line2d_57">
    <path d="M 65.905727 102.171121 
L 67.962211 100.30574 
L 70.018696 99.857417 
L 72.07518 100.805626 
L 74.131665 103.107388 
L 76.188149 106.69877 
L 78.244634 111.496922 
L 80.301118 117.402563 
L 82.357603 124.302831 
L 84.414087 132.074358 
L 86.470572 140.586492 
L 90.583541 159.292848 
L 96.752994 189.569737 
L 102.922448 219.670307 
L 107.035417 238.403474 
L 111.148386 255.491449 
L 113.20487 263.325722 
L 115.261355 270.660169 
L 117.317839 277.487396 
L 119.374324 283.808774 
L 121.430808 289.633249 
L 123.487293 294.976129 
L 125.543777 299.857895 
L 127.600262 304.303067 
L 129.656746 308.339136 
L 131.713231 311.995599 
L 133.769715 315.303099 
L 135.8262 318.292676 
L 137.882684 320.995133 
L 139.939169 323.440517 
L 141.995653 325.657697 
L 144.052138 327.674057 
L 146.108622 329.515256 
L 150.221591 332.765388 
L 154.33456 335.574888 
L 158.447529 338.079537 
L 164.616983 341.491914 
L 191.351281 355.67732 
L 201.633704 361.615621 
L 222.198549 373.644823 
L 228.368002 376.953209 
L 234.537456 379.973107 
L 238.650425 381.793278 
L 242.763394 383.442546 
L 246.876363 384.912687 
L 250.989332 386.200924 
L 255.102301 387.309789 
L 259.21527 388.246674 
L 265.384723 389.355647 
L 271.554177 390.155602 
L 277.72363 390.705887 
L 285.949568 391.153609 
L 296.231991 391.422627 
L 312.683867 391.550178 
L 347.644103 391.52487 
L 364.095979 391.321421 
L 374.378402 390.984629 
L 382.60434 390.523925 
L 390.830278 389.855186 
L 399.056216 388.970891 
L 407.282154 387.890591 
L 417.564576 386.315605 
L 429.903483 384.192105 
L 444.298875 381.73176 
L 450.468328 380.904569 
L 454.581297 380.510137 
L 458.694266 380.279622 
L 462.807235 380.239118 
L 466.920204 380.404459 
L 471.033173 380.778388 
L 475.146142 381.349294 
L 475.146142 381.349294 
" clip-path="url(#p1543468119)" style="fill: none; stroke: #1f4e79; stroke-width: 2.2; stroke-linecap: round"/>
   </g>
   <g id="patch_76">
    <path d="M 46.60625 391.572 
L 46.60625 85.272 
" style="fill: none; stroke: #cccccc; stroke-width: 1.25; stroke-linejoin: miter; stroke-linecap: square"/>
   </g>
   <g id="patch_77">
    <path d="M 496.31375 391.572 
L 496.31375 85.272 
" style="fill: none; stroke: #cccccc; stroke-width: 1.25; stroke-linejoin: miter; stroke-linecap: square"/>
   </g>
   <g id="patch_78">
    <path d="M 46.60625 85.272 
L 496.31375 85.272 
" style="fill: none; stroke: #cccccc; stroke-width: 1.25; stroke-linejoin: miter; stroke-linecap: square"/>
   </g>
  </g>
  <g id="axes_4">
   <g id="matplotlib.axis_6">
    <g id="ytick_23">
     <g id="line2d_58">
      <g>
       <use xlink:href="#md33ce67bf4" x="1049.99375" y="391.572" style="fill: #262626; stroke: #262626; stroke-width: 1.25"/>
      </g>
     </g>
     <g id="text_50">
      <!-- 0.0 -->
      <g style="fill: #262626" transform="translate(1059.49375 396.085438) scale(0.13 -0.13)">
       <use xlink:href="#TimesNewRomanPSMT-30"/>
       <use xlink:href="#TimesNewRomanPSMT-2e" transform="translate(50 0)"/>
       <use xlink:href="#TimesNewRomanPSMT-30" transform="translate(75 0)"/>
      </g>
     </g>
    </g>
    <g id="ytick_24">
     <g id="line2d_59">
      <g>
       <use xlink:href="#md33ce67bf4" x="1049.99375" y="331.213457" style="fill: #262626; stroke: #262626; stroke-width: 1.25"/>
      </g>
     </g>
     <g id="text_51">
      <!-- 0.2 -->
      <g style="fill: #262626" transform="translate(1059.49375 335.726895) scale(0.13 -0.13)">
       <use xlink:href="#TimesNewRomanPSMT-30"/>
       <use xlink:href="#TimesNewRomanPSMT-2e" transform="translate(50 0)"/>
       <use xlink:href="#TimesNewRomanPSMT-32" transform="translate(75 0)"/>
      </g>
     </g>
    </g>
    <g id="ytick_25">
     <g id="line2d_60">
      <g>
       <use xlink:href="#md33ce67bf4" x="1049.99375" y="270.854914" style="fill: #262626; stroke: #262626; stroke-width: 1.25"/>
      </g>
     </g>
     <g id="text_52">
      <!-- 0.4 -->
      <g style="fill: #262626" transform="translate(1059.49375 275.368352) scale(0.13 -0.13)">
       <use xlink:href="#TimesNewRomanPSMT-30"/>
       <use xlink:href="#TimesNewRomanPSMT-2e" transform="translate(50 0)"/>
       <use xlink:href="#TimesNewRomanPSMT-34" transform="translate(75 0)"/>
      </g>
     </g>
    </g>
    <g id="ytick_26">
     <g id="line2d_61">
      <g>
       <use xlink:href="#md33ce67bf4" x="1049.99375" y="210.496372" style="fill: #262626; stroke: #262626; stroke-width: 1.25"/>
      </g>
     </g>
     <g id="text_53">
      <!-- 0.6 -->
      <g style="fill: #262626" transform="translate(1059.49375 215.009809) scale(0.13 -0.13)">
       <use xlink:href="#TimesNewRomanPSMT-30"/>
       <use xlink:href="#TimesNewRomanPSMT-2e" transform="translate(50 0)"/>
       <use xlink:href="#TimesNewRomanPSMT-36" transform="translate(75 0)"/>
      </g>
     </g>
    </g>
    <g id="ytick_27">
     <g id="line2d_62">
      <g>
       <use xlink:href="#md33ce67bf4" x="1049.99375" y="150.137829" style="fill: #262626; stroke: #262626; stroke-width: 1.25"/>
      </g>
     </g>
     <g id="text_54">
      <!-- 0.8 -->
      <g style="fill: #262626" transform="translate(1059.49375 154.651266) scale(0.13 -0.13)">
       <use xlink:href="#TimesNewRomanPSMT-30"/>
       <use xlink:href="#TimesNewRomanPSMT-2e" transform="translate(50 0)"/>
       <use xlink:href="#TimesNewRomanPSMT-38" transform="translate(75 0)"/>
      </g>
     </g>
    </g>
    <g id="ytick_28">
     <g id="line2d_63">
      <g>
       <use xlink:href="#md33ce67bf4" x="1049.99375" y="89.779286" style="fill: #262626; stroke: #262626; stroke-width: 1.25"/>
      </g>
     </g>
     <g id="text_55">
      <!-- 1.0 -->
      <g style="fill: #262626" transform="translate(1059.49375 94.292724) scale(0.13 -0.13)">
       <use xlink:href="#TimesNewRomanPSMT-31"/>
       <use xlink:href="#TimesNewRomanPSMT-2e" transform="translate(50 0)"/>
       <use xlink:href="#TimesNewRomanPSMT-30" transform="translate(75 0)"/>
      </g>
     </g>
    </g>
    <g id="text_56">
     <!-- 密度 -->
     <g style="fill: #262626" transform="translate(1089.655312 252.422) rotate(-90) scale(0.14 -0.14)">
      <use xlink:href="#SimSun-5bc6"/>
      <use xlink:href="#SimSun-5ea6" transform="translate(100 0)"/>
     </g>
    </g>
   </g>
   <g id="line2d_64">
    <path d="M 641.291955 214.244391 
L 647.150272 188.621496 
L 651.055817 172.297606 
L 654.961362 156.977088 
L 658.866907 142.980905 
L 660.819679 136.571462 
L 662.772451 130.598565 
L 664.725224 125.09163 
L 666.677996 120.07682 
L 668.630769 115.57682 
L 670.583541 111.610662 
L 672.536313 108.193602 
L 674.489086 105.337031 
L 676.441858 103.048441 
L 678.394631 101.331433 
L 680.347403 100.185758 
L 682.300175 99.60741 
L 684.252948 99.588743 
L 686.20572 100.118628 
L 688.158493 101.182629 
L 690.111265 102.763212 
L 692.064037 104.839973 
L 694.01681 107.389881 
L 695.969582 110.387541 
L 697.922355 113.805462 
L 699.875127 117.614341 
L 701.827899 121.78335 
L 703.780672 126.28043 
L 707.686216 136.126178 
L 711.591761 146.881706 
L 715.497306 158.276216 
L 725.261168 187.87565 
L 731.119485 205.275569 
L 735.02503 216.349567 
L 738.930575 226.852493 
L 742.83612 236.695804 
L 746.741664 245.824903 
L 750.647209 254.21553 
L 754.552754 261.868808 
L 758.458299 268.805464 
L 762.363844 275.059816 
L 766.269388 280.674089 
L 770.174933 285.693536 
L 774.080478 290.162716 
L 777.986023 294.123077 
L 781.891568 297.611853 
L 785.797112 300.662085 
L 789.702657 303.30351 
L 793.608202 305.563955 
L 797.513747 307.470906 
L 801.419291 309.052959 
L 805.324836 310.340929 
L 809.230381 311.368508 
L 813.135926 312.172437 
L 817.041471 312.792255 
L 822.899788 313.468559 
L 842.427512 315.284892 
L 846.333057 315.878482 
L 850.238601 316.635479 
L 854.144146 317.586904 
L 858.049691 318.759822 
L 861.955236 320.176775 
L 865.860781 321.855163 
L 869.766325 323.806585 
L 873.67187 326.036176 
L 877.577415 328.541989 
L 881.48296 331.3145 
L 885.388504 334.336299 
L 889.294049 337.582059 
L 895.152366 342.796624 
L 902.963456 350.170463 
L 914.68009 361.31055 
L 920.538408 366.531334 
L 924.443952 369.772052 
L 928.349497 372.774398 
L 932.255042 375.506038 
L 936.160587 377.941803 
L 940.066132 380.06361 
L 943.971676 381.859987 
L 947.877221 383.325331 
L 951.782766 384.459046 
L 955.688311 385.264715 
L 959.593855 385.749461 
L 963.4994 385.923613 
L 967.404945 385.800744 
L 971.31049 385.39808 
L 975.216035 384.737215 
L 979.121579 383.844989 
L 983.027124 382.754338 
L 988.885441 380.83492 
L 1006.460393 374.693362 
L 1010.365938 373.629433 
L 1014.271483 372.795957 
L 1018.177027 372.234775 
L 1022.082572 371.975019 
L 1025.988117 372.031075 
L 1029.893662 372.401608 
L 1029.893662 372.401608 
" clip-path="url(#pdf81c791f2)" style="fill: none; stroke: #c65d00; stroke-width: 2.2; stroke-linecap: round"/>
   </g>
   <g id="patch_79">
    <path d="M 600.28625 391.572 
L 600.28625 85.272 
" style="fill: none; stroke: #cccccc; stroke-width: 1.25; stroke-linejoin: miter; stroke-linecap: square"/>
   </g>
   <g id="patch_80">
    <path d="M 1049.99375 391.572 
L 1049.99375 85.272 
" style="fill: none; stroke: #cccccc; stroke-width: 1.25; stroke-linejoin: miter; stroke-linecap: square"/>
   </g>
   <g id="patch_81">
    <path d="M 600.28625 85.272 
L 1049.99375 85.272 
" style="fill: none; stroke: #cccccc; stroke-width: 1.25; stroke-linejoin: miter; stroke-linecap: square"/>
   </g>
  </g>
  <g id="text_57">
   <!-- 夜间灯光指标分布检验 -->
   <g style="fill: #262626" transform="translate(459.86375 20.084063) scale(0.18 -0.18)">
    <defs>
     <path id="SimSun-591c" d="M 3425 2725 
L 3475 2800 
Q 4075 2450 4112 2350 
Q 4150 2250 4150 2175 
Q 4150 2025 4075 1912 
Q 4000 1800 3950 1800 
Q 3875 1800 3800 2025 
Q 3700 2375 3425 2725 
z
M 3275 3100 
Q 3125 2825 2925 2475 
Q 3300 1675 3950 950 
Q 4500 1775 4875 3100 
L 3275 3100 
z
M 2675 5175 
L 2725 5225 
Q 3425 5000 3500 4800 
Q 3575 4600 3450 4462 
Q 3325 4325 3300 4325 
Q 3225 4325 3150 4500 
Q 3050 4775 2675 5175 
z
M 375 4250 
L 5225 4250 
L 5600 4575 
L 6075 4100 
L 3375 4100 
L 3775 3875 
Q 3625 3800 3525 3637 
Q 3425 3475 3325 3250 
L 4875 3250 
L 5050 3525 
L 5450 3175 
L 5275 3025 
Q 4725 1475 4200 725 
Q 4975 25 6125 -75 
L 6125 -175 
Q 5750 -225 5625 -550 
Q 4625 -150 3975 475 
Q 3075 -300 1900 -650 
L 1875 -550 
Q 3175 50 3750 725 
Q 3125 1600 2850 2325 
Q 2475 1750 2025 1350 
L 1950 1425 
Q 2450 2075 2787 2837 
Q 3125 3600 3225 4100 
L 1925 4100 
L 2375 3825 
L 2150 3700 
Q 1875 3250 1625 2800 
L 1950 2625 
L 1750 2475 
L 1750 -475 
L 1375 -650 
Q 1400 -50 1400 200 
L 1400 2425 
Q 1025 1900 425 1325 
L 350 1400 
Q 950 2150 1325 2900 
Q 1700 3650 1825 4100 
L 1200 4100 
Q 875 4100 600 4025 
L 375 4250 
z
" transform="scale(0.015625)"/>
     <path id="SimSun-95f4" d="M 2150 525 
Q 2175 1325 2175 2112 
Q 2175 2900 2150 3675 
L 2525 3450 
L 3750 3450 
L 4000 3700 
L 4325 3375 
L 4125 3200 
Q 4125 1550 4150 775 
L 3800 575 
L 3800 975 
L 2500 975 
L 2500 700 
L 2150 525 
z
M 2500 3300 
L 2500 2325 
L 3800 2325 
L 3800 3300 
L 2500 3300 
z
M 2500 2175 
L 2500 1125 
L 3800 1125 
L 3800 2175 
L 2500 2175 
z
M 1275 5200 
Q 1850 4825 1950 4675 
Q 2050 4525 2050 4425 
Q 2050 4275 1950 4137 
Q 1850 4000 1825 4000 
Q 1750 4000 1675 4275 
Q 1550 4650 1200 5125 
L 1275 5200 
z
M 1125 425 
Q 1125 25 1150 -375 
L 750 -525 
Q 775 -150 775 1950 
Q 775 4050 750 4425 
L 1350 4125 
L 1125 3975 
L 1125 425 
z
M 4225 125 
Q 5025 0 5125 37 
Q 5225 75 5225 250 
L 5225 4450 
L 3225 4450 
Q 2900 4450 2625 4375 
L 2400 4600 
L 5175 4600 
L 5425 4850 
L 5775 4500 
L 5575 4350 
L 5575 225 
Q 5575 -100 5462 -250 
Q 5350 -400 5000 -550 
Q 4800 -125 4225 25 
L 4225 125 
z
" transform="scale(0.015625)"/>
     <path id="SimSun-706f" d="M 1400 5175 
L 1950 4950 
L 1775 4750 
L 1775 3150 
Q 2225 3675 2400 4100 
L 2825 3750 
Q 2625 3675 2400 3500 
Q 2175 3300 1775 3000 
Q 1750 2025 1675 1550 
Q 2275 1225 2475 975 
Q 2675 725 2637 525 
Q 2600 325 2500 300 
Q 2400 275 2225 700 
Q 2025 1125 1650 1425 
Q 1400 250 400 -525 
L 375 -425 
Q 1100 400 1275 1162 
Q 1450 1925 1437 2887 
Q 1425 3850 1400 5175 
z
M 900 3625 
Q 900 3275 887 3012 
Q 875 2750 787 2600 
Q 700 2450 550 2400 
Q 400 2350 337 2437 
Q 275 2525 275 2550 
Q 275 2650 425 2775 
Q 625 2950 800 3625 
L 900 3625 
z
M 3050 75 
Q 3750 -25 3937 -12 
Q 4125 0 4125 300 
L 4125 4275 
L 3375 4275 
Q 3050 4275 2775 4200 
L 2550 4425 
L 5200 4425 
L 5550 4775 
L 6025 4275 
L 4500 4275 
L 4500 100 
Q 4500 -175 4350 -350 
Q 4200 -525 3900 -625 
Q 3700 -200 3025 -25 
L 3050 75 
z
" transform="scale(0.015625)"/>
     <path id="SimSun-5149" d="M 1300 4475 
L 1350 4550 
Q 2175 3975 2287 3750 
Q 2400 3525 2400 3400 
Q 2400 3250 2312 3125 
Q 2225 3000 2175 3000 
Q 2075 3000 2000 3325 
Q 1850 3775 1300 4475 
z
M 3025 2700 
L 3025 4150 
Q 3025 4550 3000 5150 
L 3600 4900 
L 3375 4675 
L 3375 2700 
L 3800 2700 
Q 4300 3525 4625 4500 
L 5150 4125 
L 4925 4000 
Q 4375 3225 3950 2700 
L 5150 2700 
L 5500 3050 
L 5975 2550 
L 3925 2550 
L 3925 325 
Q 3925 -100 4300 -100 
L 5300 -100 
Q 5475 -100 5525 137 
Q 5575 375 5625 1275 
L 5750 1275 
Q 5750 625 5800 387 
Q 5850 150 6100 0 
Q 5925 -375 5475 -400 
L 4225 -400 
Q 3600 -400 3600 200 
L 3600 2550 
L 2625 2550 
Q 2550 1150 2100 487 
Q 1650 -175 325 -650 
L 300 -550 
Q 1500 0 1862 700 
Q 2225 1400 2250 2550 
L 1200 2550 
Q 875 2550 600 2475 
L 375 2700 
L 3025 2700 
z
" transform="scale(0.015625)"/>
     <path id="SimSun-6307" d="M 3000 3200 
Q 3000 4875 2975 5175 
L 3575 4900 
L 3350 4700 
L 3350 3800 
Q 3825 3975 4375 4287 
Q 4925 4600 5150 4850 
L 5525 4375 
Q 5325 4375 4825 4175 
Q 4300 3975 3350 3675 
L 3350 3250 
Q 3350 2925 3725 2950 
L 5200 2950 
Q 5400 2975 5450 3175 
Q 5500 3375 5550 4000 
L 5650 4000 
Q 5675 3600 5712 3362 
Q 5750 3125 5975 3050 
Q 5825 2675 5400 2675 
L 3475 2675 
Q 2975 2650 3000 3200 
z
M 5475 1850 
L 5475 225 
Q 5475 25 5500 -375 
L 5125 -525 
L 5125 -50 
L 3400 -50 
L 3400 -400 
L 3025 -575 
Q 3050 100 3050 925 
Q 3050 1750 3025 2300 
L 3400 2075 
L 5075 2075 
L 5250 2325 
L 5675 2025 
L 5475 1850 
z
M 3400 1925 
L 3400 1075 
L 5125 1075 
L 5125 1925 
L 3400 1925 
z
M 3400 925 
L 3400 100 
L 5125 100 
L 5125 925 
L 3400 925 
z
M 1450 3750 
Q 1450 4750 1425 5225 
L 2025 4925 
L 1800 4750 
L 1800 3750 
L 2125 3750 
L 2425 4050 
L 2875 3600 
L 1800 3600 
L 1800 2450 
L 2650 2900 
L 2700 2825 
L 1800 2200 
L 1800 75 
Q 1800 -375 1275 -600 
Q 1275 -300 550 -75 
L 550 25 
Q 1100 -50 1275 -37 
Q 1450 -25 1450 300 
L 1450 2000 
Q 1100 1775 725 1500 
L 650 1350 
L 325 1800 
Q 625 1900 1450 2300 
L 1450 3600 
L 1175 3600 
Q 850 3600 575 3525 
L 350 3750 
L 1450 3750 
z
" transform="scale(0.015625)"/>
     <path id="SimSun-6807" d="M 4775 2225 
Q 5725 1275 5825 1050 
Q 5925 825 5925 700 
Q 5925 525 5825 375 
Q 5725 225 5700 225 
Q 5575 225 5475 650 
Q 5300 1225 4700 2175 
L 4775 2225 
z
M 2750 4600 
L 4975 4600 
L 5275 4900 
L 5725 4450 
L 3175 4450 
L 2950 4400 
L 2750 4600 
z
M 3100 75 
Q 3775 -50 3900 -25 
Q 4025 0 4025 175 
L 4025 2950 
L 2800 2950 
L 2575 2900 
L 2375 3100 
L 5350 3100 
L 5675 3425 
L 6150 2950 
L 4400 2950 
L 4400 -25 
Q 4375 -425 3850 -600 
Q 3850 -300 3100 -50 
L 3100 75 
z
M 3125 2275 
L 3675 1950 
L 3425 1825 
Q 2800 700 2100 25 
L 2025 100 
Q 2725 1025 3125 2275 
z
M 1675 2725 
Q 1675 25 1700 -475 
L 1300 -625 
Q 1325 450 1325 2325 
Q 950 1450 350 700 
L 275 800 
Q 975 1925 1325 3475 
L 700 3475 
L 475 3425 
L 275 3625 
L 1325 3625 
Q 1325 4575 1300 5275 
L 1900 4975 
L 1675 4800 
L 1675 3625 
L 2000 3625 
L 2275 3900 
L 2700 3475 
L 1675 3475 
L 1675 2850 
Q 2150 2600 2312 2425 
Q 2475 2250 2475 2125 
Q 2475 2050 2400 1912 
Q 2325 1775 2275 1775 
Q 2200 1775 2100 2075 
Q 1925 2475 1675 2725 
z
" transform="scale(0.015625)"/>
     <path id="SimSun-68c0" d="M 3725 5275 
L 4275 4975 
L 4075 4850 
Q 4775 3450 6125 3250 
L 6125 3150 
Q 5725 3125 5625 2850 
Q 4450 3375 4000 4775 
Q 3500 3425 2275 2675 
L 2200 2750 
Q 3400 3725 3725 5275 
z
M 2725 2800 
L 4575 2800 
L 4825 3050 
L 5225 2650 
L 3525 2650 
Q 3150 2650 2950 2575 
L 2725 2800 
z
M 2650 1900 
L 2725 1925 
Q 3200 1200 3262 987 
Q 3325 775 3325 650 
Q 3325 450 3212 350 
Q 3100 250 3075 250 
Q 2975 250 2950 575 
Q 2925 1000 2650 1900 
z
M 3525 2350 
L 3600 2375 
Q 4175 1575 4250 1225 
Q 4325 875 4187 762 
Q 4050 650 4000 650 
Q 3900 650 3875 975 
Q 3850 1425 3525 2350 
z
M 5500 2125 
L 5275 2000 
Q 4925 625 4500 -125 
L 5275 -125 
L 5600 200 
L 6075 -275 
L 2875 -275 
Q 2550 -275 2275 -350 
L 2050 -125 
L 4350 -125 
Q 4800 1200 4950 2425 
L 5500 2125 
z
M 1650 750 
Q 1650 400 1675 -500 
L 1275 -650 
Q 1300 825 1300 2375 
Q 900 1475 300 850 
L 250 925 
Q 975 1950 1275 3550 
L 675 3550 
L 450 3500 
L 250 3700 
L 1300 3700 
Q 1300 4375 1275 5250 
L 1875 5000 
L 1650 4825 
L 1650 3700 
L 2025 3700 
L 2300 3975 
L 2725 3550 
L 1650 3550 
L 1650 2975 
Q 2050 2800 2250 2625 
Q 2450 2450 2450 2275 
Q 2450 2200 2375 2050 
Q 2300 1900 2275 1900 
Q 2200 1900 2100 2150 
Q 1925 2525 1650 2825 
L 1650 750 
z
" transform="scale(0.015625)"/>
     <path id="SimSun-9a8c" d="M 4050 5225 
L 4550 4925 
L 4350 4800 
Q 5050 3225 6125 2975 
L 6125 2900 
Q 5750 2850 5650 2600 
Q 4700 3325 4275 4725 
Q 3575 3225 2525 2475 
L 2475 2550 
Q 3075 3150 3500 3925 
Q 3925 4700 4050 5225 
z
M 3025 2800 
L 4650 2800 
L 4950 3100 
L 5350 2650 
L 3850 2650 
Q 3525 2650 3250 2575 
L 3025 2800 
z
M 2925 2000 
L 3000 2050 
Q 3475 1300 3537 1100 
Q 3600 900 3600 775 
Q 3600 625 3512 475 
Q 3425 325 3312 337 
Q 3200 350 3175 800 
Q 3150 1250 2925 2000 
z
M 3650 2225 
L 3725 2275 
Q 4375 1450 4425 1100 
Q 4475 750 4337 650 
Q 4200 550 4175 550 
Q 4075 550 4050 800 
Q 4025 1150 3900 1562 
Q 3775 1975 3650 2225 
z
M 5175 2300 
L 5700 1950 
Q 5525 1875 5325 1412 
Q 5125 950 4675 -150 
L 5300 -150 
L 5650 200 
L 6100 -300 
L 3375 -300 
Q 3050 -300 2775 -375 
L 2550 -150 
L 4525 -150 
Q 5175 1900 5175 2300 
z
M 400 4675 
L 1950 4675 
L 2150 4925 
L 2525 4600 
L 2300 4450 
L 2050 2275 
L 2225 2275 
L 2375 2475 
L 2750 2175 
L 2550 2025 
Q 2425 500 2300 175 
Q 2175 -150 1975 -287 
Q 1775 -425 1550 -475 
Q 1525 -125 825 100 
L 850 200 
Q 1550 50 1725 62 
Q 1900 75 2012 437 
Q 2125 800 2225 2125 
L 1000 2125 
L 825 1925 
L 500 2225 
L 675 2325 
Q 875 3750 900 4200 
L 1400 3925 
L 1200 3775 
L 1000 2275 
L 1725 2275 
L 1975 4525 
L 1225 4525 
Q 900 4525 625 4450 
L 400 4675 
z
M 225 1075 
Q 725 1125 2000 1375 
L 2025 1275 
Q 600 850 500 650 
L 225 1075 
z
" transform="scale(0.015625)"/>
    </defs>
    <use xlink:href="#SimSun-591c"/>
    <use xlink:href="#SimSun-95f4" transform="translate(100 0)"/>
    <use xlink:href="#SimSun-706f" transform="translate(200 0)"/>
    <use xlink:href="#SimSun-5149" transform="translate(300 0)"/>
    <use xlink:href="#SimSun-6307" transform="translate(400 0)"/>
    <use xlink:href="#SimSun-6807" transform="translate(500 0)"/>
    <use xlink:href="#SimSun-5206" transform="translate(600 0)"/>
    <use xlink:href="#SimSun-5e03" transform="translate(700 0)"/>
    <use xlink:href="#SimSun-68c0" transform="translate(800 0)"/>
    <use xlink:href="#SimSun-9a8c" transform="translate(900 0)"/>
   </g>
  </g>
 </g>
 <defs>
  <clipPath id="p1543468119">
   <rect x="46.60625" y="85.272" width="449.7075" height="306.3"/>
  </clipPath>
  <clipPath id="pdf81c791f2">
   <rect x="600.28625" y="85.272" width="449.7075" height="306.3"/>
  </clipPath>
 </defs>
</svg>
