<?xml version="1.0" encoding="utf-8" standalone="no"?>
<!DOCTYPE svg PUBLIC "-//W3C//DTD SVG 1.1//EN"
  "http://www.w3.org/Graphics/SVG/1.1/DTD/svg11.dtd">
<svg xmlns:xlink="http://www.w3.org/1999/xlink" width="671.93375pt" height="390.717748pt" viewBox="0 0 671.93375 390.717748" xmlns="http://www.w3.org/2000/svg" version="1.1">
 <metadata>
  <rdf:RDF xmlns:dc="http://purl.org/dc/elements/1.1/" xmlns:cc="http://creativecommons.org/ns#" xmlns:rdf="http://www.w3.org/1999/02/22-rdf-syntax-ns#">
   <cc:Work>
    <dc:type rdf:resource="http://purl.org/dc/dcmitype/StillImage"/>
    <dc:date>2026-05-07T18:09:05.182361</dc:date>
    <dc:format>image/svg+xml</dc:format>
    <dc:creator>
     <cc:Agent>
      <dc:title>Matplotlib v3.10.8, https://matplotlib.org/</dc:title>
     </cc:Agent>
    </dc:creator>
   </cc:Work>
  </rdf:RDF>
 </metadata>
 <defs>
  <style type="text/css">*{stroke-linejoin: round; stroke-linecap: butt}</style>
 </defs>
 <g id="figure_1">
  <g id="patch_1">
   <path d="M 0 390.717748 
L 671.93375 390.717748 
L 671.93375 0 
L 0 0 
z
" style="fill: #ffffff"/>
  </g>
  <g id="axes_1">
   <g id="patch_2">
    <path d="M 51.0125 329.850883 
L 664.73375 329.850883 
L 664.73375 23.16625 
L 51.0125 23.16625 
z
" style="fill: #ffffff"/>
   </g>
   <g id="matplotlib.axis_1">
    <g id="xtick_1">
     <g id="line2d_1">
      <path d="M 78.90892 329.850883 
L 78.90892 23.16625 
" clip-path="url(#p3b6e5cdaa2)" style="fill: none; stroke: #cccccc; stroke-linecap: round"/>
     </g>
     <g id="text_1">
      <!-- 2015-2016 -->
      <g style="fill: #262626" transform="translate(34.717476 366.416484) rotate(-25) scale(0.11 -0.11)">
       <defs>
        <path id="TimesNewRomanPSMT-32" d="M 2934 816 
L 2638 0 
L 138 0 
L 138 116 
Q 1241 1122 1691 1759 
Q 2141 2397 2141 2925 
Q 2141 3328 1894 3587 
Q 1647 3847 1303 3847 
Q 991 3847 742 3664 
Q 494 3481 375 3128 
L 259 3128 
Q 338 3706 661 4015 
Q 984 4325 1469 4325 
Q 1984 4325 2329 3994 
Q 2675 3663 2675 3213 
Q 2675 2891 2525 2569 
Q 2294 2063 1775 1497 
Q 997 647 803 472 
L 1909 472 
Q 2247 472 2383 497 
Q 2519 522 2628 598 
Q 2738 675 2819 816 
L 2934 816 
z
" transform="scale(0.015625)"/>
        <path id="TimesNewRomanPSMT-30" d="M 231 2094 
Q 231 2819 450 3342 
Q 669 3866 1031 4122 
Q 1313 4325 1613 4325 
Q 2100 4325 2488 3828 
Q 2972 3213 2972 2159 
Q 2972 1422 2759 906 
Q 2547 391 2217 158 
Q 1888 -75 1581 -75 
Q 975 -75 572 641 
Q 231 1244 231 2094 
z
M 844 2016 
Q 844 1141 1059 588 
Q 1238 122 1591 122 
Q 1759 122 1940 273 
Q 2122 425 2216 781 
Q 2359 1319 2359 2297 
Q 2359 3022 2209 3506 
Q 2097 3866 1919 4016 
Q 1791 4119 1609 4119 
Q 1397 4119 1231 3928 
Q 1006 3669 925 3112 
Q 844 2556 844 2016 
z
" transform="scale(0.015625)"/>
        <path id="TimesNewRomanPSMT-31" d="M 750 3822 
L 1781 4325 
L 1884 4325 
L 1884 747 
Q 1884 391 1914 303 
Q 1944 216 2037 169 
Q 2131 122 2419 116 
L 2419 0 
L 825 0 
L 825 116 
Q 1125 122 1212 167 
Q 1300 213 1334 289 
Q 1369 366 1369 747 
L 1369 3034 
Q 1369 3497 1338 3628 
Q 1316 3728 1258 3775 
Q 1200 3822 1119 3822 
Q 1003 3822 797 3725 
L 750 3822 
z
" transform="scale(0.015625)"/>
        <path id="TimesNewRomanPSMT-35" d="M 2778 4238 
L 2534 3706 
L 1259 3706 
L 981 3138 
Q 1809 3016 2294 2522 
Q 2709 2097 2709 1522 
Q 2709 1188 2573 903 
Q 2438 619 2231 419 
Q 2025 219 1772 97 
Q 1413 -75 1034 -75 
Q 653 -75 479 54 
Q 306 184 306 341 
Q 306 428 378 495 
Q 450 563 559 563 
Q 641 563 702 538 
Q 763 513 909 409 
Q 1144 247 1384 247 
Q 1750 247 2026 523 
Q 2303 800 2303 1197 
Q 2303 1581 2056 1914 
Q 1809 2247 1375 2428 
Q 1034 2569 447 2591 
L 1259 4238 
L 2778 4238 
z
" transform="scale(0.015625)"/>
        <path id="TimesNewRomanPSMT-2d" d="M 259 1672 
L 1875 1672 
L 1875 1200 
L 259 1200 
L 259 1672 
z
" transform="scale(0.015625)"/>
        <path id="TimesNewRomanPSMT-36" d="M 2869 4325 
L 2869 4209 
Q 2456 4169 2195 4045 
Q 1934 3922 1679 3669 
Q 1425 3416 1258 3105 
Q 1091 2794 978 2366 
Q 1428 2675 1881 2675 
Q 2316 2675 2634 2325 
Q 2953 1975 2953 1425 
Q 2953 894 2631 456 
Q 2244 -75 1606 -75 
Q 1172 -75 869 213 
Q 275 772 275 1663 
Q 275 2231 503 2743 
Q 731 3256 1154 3653 
Q 1578 4050 1965 4187 
Q 2353 4325 2688 4325 
L 2869 4325 
z
M 925 2138 
Q 869 1716 869 1456 
Q 869 1156 980 804 
Q 1091 453 1309 247 
Q 1469 100 1697 100 
Q 1969 100 2183 356 
Q 2397 613 2397 1088 
Q 2397 1622 2184 2012 
Q 1972 2403 1581 2403 
Q 1463 2403 1327 2353 
Q 1191 2303 925 2138 
z
" transform="scale(0.015625)"/>
       </defs>
       <use xlink:href="#TimesNewRomanPSMT-32"/>
       <use xlink:href="#TimesNewRomanPSMT-30" transform="translate(50 0)"/>
       <use xlink:href="#TimesNewRomanPSMT-31" transform="translate(100 0)"/>
       <use xlink:href="#TimesNewRomanPSMT-35" transform="translate(150 0)"/>
       <use xlink:href="#TimesNewRomanPSMT-2d" transform="translate(200 0)"/>
       <use xlink:href="#TimesNewRomanPSMT-32" transform="translate(233.300781 0)"/>
       <use xlink:href="#TimesNewRomanPSMT-30" transform="translate(283.300781 0)"/>
       <use xlink:href="#TimesNewRomanPSMT-31" transform="translate(333.300781 0)"/>
       <use xlink:href="#TimesNewRomanPSMT-36" transform="translate(383.300781 0)"/>
      </g>
     </g>
    </g>
    <g id="xtick_2">
     <g id="line2d_2">
      <path d="M 171.896989 329.850883 
L 171.896989 23.16625 
" clip-path="url(#p3b6e5cdaa2)" style="fill: none; stroke: #cccccc; stroke-linecap: round"/>
     </g>
     <g id="text_2">
      <!-- 2016-2017 -->
      <g style="fill: #262626" transform="translate(127.705545 366.416484) rotate(-25) scale(0.11 -0.11)">
       <defs>
        <path id="TimesNewRomanPSMT-37" d="M 644 4238 
L 2916 4238 
L 2916 4119 
L 1503 -88 
L 1153 -88 
L 2419 3728 
L 1253 3728 
Q 900 3728 750 3644 
Q 488 3500 328 3200 
L 238 3234 
L 644 4238 
z
" transform="scale(0.015625)"/>
       </defs>
       <use xlink:href="#TimesNewRomanPSMT-32"/>
       <use xlink:href="#TimesNewRomanPSMT-30" transform="translate(50 0)"/>
       <use xlink:href="#TimesNewRomanPSMT-31" transform="translate(100 0)"/>
       <use xlink:href="#TimesNewRomanPSMT-36" transform="translate(150 0)"/>
       <use xlink:href="#TimesNewRomanPSMT-2d" transform="translate(200 0)"/>
       <use xlink:href="#TimesNewRomanPSMT-32" transform="translate(233.300781 0)"/>
       <use xlink:href="#TimesNewRomanPSMT-30" transform="translate(283.300781 0)"/>
       <use xlink:href="#TimesNewRomanPSMT-31" transform="translate(333.300781 0)"/>
       <use xlink:href="#TimesNewRomanPSMT-37" transform="translate(383.300781 0)"/>
      </g>
     </g>
    </g>
    <g id="xtick_3">
     <g id="line2d_3">
      <path d="M 264.885057 329.850883 
L 264.885057 23.16625 
" clip-path="url(#p3b6e5cdaa2)" style="fill: none; stroke: #cccccc; stroke-linecap: round"/>
     </g>
     <g id="text_3">
      <!-- 2017-2018 -->
      <g style="fill: #262626" transform="translate(220.693613 366.416484) rotate(-25) scale(0.11 -0.11)">
       <defs>
        <path id="TimesNewRomanPSMT-38" d="M 1228 2134 
Q 725 2547 579 2797 
Q 434 3047 434 3316 
Q 434 3728 753 4026 
Q 1072 4325 1600 4325 
Q 2113 4325 2425 4047 
Q 2738 3769 2738 3413 
Q 2738 3175 2569 2928 
Q 2400 2681 1866 2347 
Q 2416 1922 2594 1678 
Q 2831 1359 2831 1006 
Q 2831 559 2490 242 
Q 2150 -75 1597 -75 
Q 994 -75 656 303 
Q 388 606 388 966 
Q 388 1247 577 1523 
Q 766 1800 1228 2134 
z
M 1719 2469 
Q 2094 2806 2194 3001 
Q 2294 3197 2294 3444 
Q 2294 3772 2109 3958 
Q 1925 4144 1606 4144 
Q 1288 4144 1088 3959 
Q 888 3775 888 3528 
Q 888 3366 970 3203 
Q 1053 3041 1206 2894 
L 1719 2469 
z
M 1375 2016 
Q 1116 1797 991 1539 
Q 866 1281 866 981 
Q 866 578 1086 336 
Q 1306 94 1647 94 
Q 1984 94 2187 284 
Q 2391 475 2391 747 
Q 2391 972 2272 1150 
Q 2050 1481 1375 2016 
z
" transform="scale(0.015625)"/>
       </defs>
       <use xlink:href="#TimesNewRomanPSMT-32"/>
       <use xlink:href="#TimesNewRomanPSMT-30" transform="translate(50 0)"/>
       <use xlink:href="#TimesNewRomanPSMT-31" transform="translate(100 0)"/>
       <use xlink:href="#TimesNewRomanPSMT-37" transform="translate(150 0)"/>
       <use xlink:href="#TimesNewRomanPSMT-2d" transform="translate(200 0)"/>
       <use xlink:href="#TimesNewRomanPSMT-32" transform="translate(233.300781 0)"/>
       <use xlink:href="#TimesNewRomanPSMT-30" transform="translate(283.300781 0)"/>
       <use xlink:href="#TimesNewRomanPSMT-31" transform="translate(333.300781 0)"/>
       <use xlink:href="#TimesNewRomanPSMT-38" transform="translate(383.300781 0)"/>
      </g>
     </g>
    </g>
    <g id="xtick_4">
     <g id="line2d_4">
      <path d="M 357.873125 329.850883 
L 357.873125 23.16625 
" clip-path="url(#p3b6e5cdaa2)" style="fill: none; stroke: #cccccc; stroke-linecap: round"/>
     </g>
     <g id="text_4">
      <!-- 2018-2019 -->
      <g style="fill: #262626" transform="translate(313.681681 366.416484) rotate(-25) scale(0.11 -0.11)">
       <defs>
        <path id="TimesNewRomanPSMT-39" d="M 338 -88 
L 338 28 
Q 744 34 1094 217 
Q 1444 400 1770 856 
Q 2097 1313 2225 1859 
Q 1734 1544 1338 1544 
Q 891 1544 572 1889 
Q 253 2234 253 2806 
Q 253 3363 572 3797 
Q 956 4325 1575 4325 
Q 2097 4325 2469 3894 
Q 2925 3359 2925 2575 
Q 2925 1869 2578 1258 
Q 2231 647 1613 244 
Q 1109 -88 516 -88 
L 338 -88 
z
M 2275 2091 
Q 2331 2497 2331 2741 
Q 2331 3044 2228 3395 
Q 2125 3747 1936 3934 
Q 1747 4122 1506 4122 
Q 1228 4122 1018 3872 
Q 809 3622 809 3128 
Q 809 2469 1088 2097 
Q 1291 1828 1588 1828 
Q 1731 1828 1928 1897 
Q 2125 1966 2275 2091 
z
" transform="scale(0.015625)"/>
       </defs>
       <use xlink:href="#TimesNewRomanPSMT-32"/>
       <use xlink:href="#TimesNewRomanPSMT-30" transform="translate(50 0)"/>
       <use xlink:href="#TimesNewRomanPSMT-31" transform="translate(100 0)"/>
       <use xlink:href="#TimesNewRomanPSMT-38" transform="translate(150 0)"/>
       <use xlink:href="#TimesNewRomanPSMT-2d" transform="translate(200 0)"/>
       <use xlink:href="#TimesNewRomanPSMT-32" transform="translate(233.300781 0)"/>
       <use xlink:href="#TimesNewRomanPSMT-30" transform="translate(283.300781 0)"/>
       <use xlink:href="#TimesNewRomanPSMT-31" transform="translate(333.300781 0)"/>
       <use xlink:href="#TimesNewRomanPSMT-39" transform="translate(383.300781 0)"/>
      </g>
     </g>
    </g>
    <g id="xtick_5">
     <g id="line2d_5">
      <path d="M 450.861193 329.850883 
L 450.861193 23.16625 
" clip-path="url(#p3b6e5cdaa2)" style="fill: none; stroke: #cccccc; stroke-linecap: round"/>
     </g>
     <g id="text_5">
      <!-- 2019-2020 -->
      <g style="fill: #262626" transform="translate(406.669749 366.416484) rotate(-25) scale(0.11 -0.11)">
       <use xlink:href="#TimesNewRomanPSMT-32"/>
       <use xlink:href="#TimesNewRomanPSMT-30" transform="translate(50 0)"/>
       <use xlink:href="#TimesNewRomanPSMT-31" transform="translate(100 0)"/>
       <use xlink:href="#TimesNewRomanPSMT-39" transform="translate(150 0)"/>
       <use xlink:href="#TimesNewRomanPSMT-2d" transform="translate(200 0)"/>
       <use xlink:href="#TimesNewRomanPSMT-32" transform="translate(233.300781 0)"/>
       <use xlink:href="#TimesNewRomanPSMT-30" transform="translate(283.300781 0)"/>
       <use xlink:href="#TimesNewRomanPSMT-32" transform="translate(333.300781 0)"/>
       <use xlink:href="#TimesNewRomanPSMT-30" transform="translate(383.300781 0)"/>
      </g>
     </g>
    </g>
    <g id="xtick_6">
     <g id="line2d_6">
      <path d="M 543.849261 329.850883 
L 543.849261 23.16625 
" clip-path="url(#p3b6e5cdaa2)" style="fill: none; stroke: #cccccc; stroke-linecap: round"/>
     </g>
     <g id="text_6">
      <!-- 2020-2021 -->
      <g style="fill: #262626" transform="translate(499.657817 366.416484) rotate(-25) scale(0.11 -0.11)">
       <use xlink:href="#TimesNewRomanPSMT-32"/>
       <use xlink:href="#TimesNewRomanPSMT-30" transform="translate(50 0)"/>
       <use xlink:href="#TimesNewRomanPSMT-32" transform="translate(100 0)"/>
       <use xlink:href="#TimesNewRomanPSMT-30" transform="translate(150 0)"/>
       <use xlink:href="#TimesNewRomanPSMT-2d" transform="translate(200 0)"/>
       <use xlink:href="#TimesNewRomanPSMT-32" transform="translate(233.300781 0)"/>
       <use xlink:href="#TimesNewRomanPSMT-30" transform="translate(283.300781 0)"/>
       <use xlink:href="#TimesNewRomanPSMT-32" transform="translate(333.300781 0)"/>
       <use xlink:href="#TimesNewRomanPSMT-31" transform="translate(383.300781 0)"/>
      </g>
     </g>
    </g>
    <g id="xtick_7">
     <g id="line2d_7">
      <path d="M 636.83733 329.850883 
L 636.83733 23.16625 
" clip-path="url(#p3b6e5cdaa2)" style="fill: none; stroke: #cccccc; stroke-linecap: round"/>
     </g>
     <g id="text_7">
      <!-- 2021-2022 -->
      <g style="fill: #262626" transform="translate(592.645885 366.416484) rotate(-25) scale(0.11 -0.11)">
       <use xlink:href="#TimesNewRomanPSMT-32"/>
       <use xlink:href="#TimesNewRomanPSMT-30" transform="translate(50 0)"/>
       <use xlink:href="#TimesNewRomanPSMT-32" transform="translate(100 0)"/>
       <use xlink:href="#TimesNewRomanPSMT-31" transform="translate(150 0)"/>
       <use xlink:href="#TimesNewRomanPSMT-2d" transform="translate(200 0)"/>
       <use xlink:href="#TimesNewRomanPSMT-32" transform="translate(233.300781 0)"/>
       <use xlink:href="#TimesNewRomanPSMT-30" transform="translate(283.300781 0)"/>
       <use xlink:href="#TimesNewRomanPSMT-32" transform="translate(333.300781 0)"/>
       <use xlink:href="#TimesNewRomanPSMT-32" transform="translate(383.300781 0)"/>
      </g>
     </g>
    </g>
    <g id="text_8">
     <!-- 时期 -->
     <g style="fill: #262626" transform="translate(345.873125 380.950873) scale(0.12 -0.12)">
      <defs>
       <path id="SimSun-65f6" d="M 4500 3600 
Q 4500 4575 4475 5225 
L 5100 4900 
L 4850 4725 
L 4850 3600 
L 5225 3600 
L 5550 3925 
L 6025 3450 
L 4850 3450 
L 4850 100 
Q 4850 -375 4300 -575 
Q 4275 -200 3475 -25 
L 3475 100 
Q 4150 0 4325 25 
Q 4500 50 4500 325 
L 4500 3450 
L 3200 3450 
Q 2875 3450 2600 3375 
L 2375 3600 
L 4500 3600 
z
M 2875 2825 
Q 3525 2375 3637 2200 
Q 3750 2025 3750 1925 
Q 3750 1800 3637 1637 
Q 3525 1475 3475 1475 
Q 3400 1475 3325 1775 
Q 3200 2225 2800 2750 
L 2875 2825 
z
M 925 4150 
L 925 2650 
L 1950 2650 
L 1950 4150 
L 925 4150 
z
M 925 2500 
L 925 900 
L 1950 900 
L 1950 2500 
L 925 2500 
z
M 2300 2000 
Q 2300 800 2325 450 
L 1950 250 
L 1950 750 
L 925 750 
L 925 225 
L 550 25 
Q 575 825 575 2425 
Q 575 4025 550 4500 
L 950 4300 
L 1900 4300 
L 2100 4550 
L 2500 4225 
L 2300 4050 
L 2300 2000 
z
" transform="scale(0.015625)"/>
       <path id="SimSun-671f" d="M 1575 3975 
L 1575 3325 
L 2600 3325 
L 2600 3975 
L 1575 3975 
z
M 1575 3175 
L 1575 2425 
L 2600 2425 
L 2600 3175 
L 1575 3175 
z
M 1575 2275 
L 1575 1500 
L 2600 1500 
L 2600 2275 
L 1575 2275 
z
M 1225 4125 
Q 1225 4750 1200 5175 
L 1775 4850 
L 1575 4700 
L 1575 4125 
L 2600 4125 
Q 2600 4575 2575 5175 
L 3150 4875 
L 2950 4725 
L 2950 4125 
L 3025 4125 
L 3300 4400 
L 3725 3975 
L 2950 3975 
L 2950 1500 
L 2975 1500 
L 3250 1775 
L 3675 1350 
L 950 1350 
L 600 1300 
L 400 1500 
L 1225 1500 
L 1225 3975 
L 1000 3975 
L 650 3925 
L 450 4125 
L 1225 4125 
z
M 1550 1250 
L 2000 850 
L 1775 775 
Q 1100 -25 375 -475 
L 325 -400 
Q 700 -50 1012 350 
Q 1325 750 1550 1250 
z
M 2375 1150 
Q 2975 825 3075 700 
Q 3175 575 3175 475 
Q 3175 350 3100 225 
Q 3025 100 2975 100 
Q 2900 100 2825 300 
Q 2700 625 2325 1100 
L 2375 1150 
z
M 4225 4550 
L 4225 3300 
L 5450 3300 
L 5450 4550 
L 4225 4550 
z
M 4225 3150 
Q 4225 2450 4200 1875 
L 5450 1875 
L 5450 3150 
L 4225 3150 
z
M 4550 50 
Q 5025 -25 5237 -37 
Q 5450 -50 5450 225 
L 5450 1725 
L 4200 1725 
Q 4150 850 3737 300 
Q 3325 -250 2700 -625 
L 2650 -550 
Q 3075 -200 3350 212 
Q 3625 625 3750 1175 
Q 3875 1725 3875 3000 
Q 3875 4275 3850 4925 
L 4225 4700 
L 5400 4700 
L 5575 4950 
L 5975 4650 
L 5800 4475 
L 5800 125 
Q 5825 -375 5250 -575 
Q 5250 -250 4550 -50 
L 4550 50 
z
" transform="scale(0.015625)"/>
      </defs>
      <use xlink:href="#SimSun-65f6"/>
      <use xlink:href="#SimSun-671f" transform="translate(100 0)"/>
     </g>
    </g>
   </g>
   <g id="matplotlib.axis_2">
    <g id="ytick_1">
     <g id="line2d_8">
      <path d="M 51.0125 316.015255 
L 664.73375 316.015255 
" clip-path="url(#p3b6e5cdaa2)" style="fill: none; stroke: #cccccc; stroke-linecap: round"/>
     </g>
     <g id="text_9">
      <!-- 0.96 -->
      <g style="fill: #262626" transform="translate(22.2625 319.834318) scale(0.11 -0.11)">
       <defs>
        <path id="TimesNewRomanPSMT-2e" d="M 800 606 
Q 947 606 1047 504 
Q 1147 403 1147 259 
Q 1147 116 1045 14 
Q 944 -88 800 -88 
Q 656 -88 554 14 
Q 453 116 453 259 
Q 453 406 554 506 
Q 656 606 800 606 
z
" transform="scale(0.015625)"/>
       </defs>
       <use xlink:href="#TimesNewRomanPSMT-30"/>
       <use xlink:href="#TimesNewRomanPSMT-2e" transform="translate(50 0)"/>
       <use xlink:href="#TimesNewRomanPSMT-39" transform="translate(75 0)"/>
       <use xlink:href="#TimesNewRomanPSMT-36" transform="translate(125 0)"/>
      </g>
     </g>
    </g>
    <g id="ytick_2">
     <g id="line2d_9">
      <path d="M 51.0125 260.672742 
L 664.73375 260.672742 
" clip-path="url(#p3b6e5cdaa2)" style="fill: none; stroke: #cccccc; stroke-linecap: round"/>
     </g>
     <g id="text_10">
      <!-- 1.00 -->
      <g style="fill: #262626" transform="translate(22.2625 264.491804) scale(0.11 -0.11)">
       <use xlink:href="#TimesNewRomanPSMT-31"/>
       <use xlink:href="#TimesNewRomanPSMT-2e" transform="translate(50 0)"/>
       <use xlink:href="#TimesNewRomanPSMT-30" transform="translate(75 0)"/>
       <use xlink:href="#TimesNewRomanPSMT-30" transform="translate(125 0)"/>
      </g>
     </g>
    </g>
    <g id="ytick_3">
     <g id="line2d_10">
      <path d="M 51.0125 205.330229 
L 664.73375 205.330229 
" clip-path="url(#p3b6e5cdaa2)" style="fill: none; stroke: #cccccc; stroke-linecap: round"/>
     </g>
     <g id="text_11">
      <!-- 1.04 -->
      <g style="fill: #262626" transform="translate(22.2625 209.149291) scale(0.11 -0.11)">
       <defs>
        <path id="TimesNewRomanPSMT-34" d="M 2978 1563 
L 2978 1119 
L 2409 1119 
L 2409 0 
L 1894 0 
L 1894 1119 
L 100 1119 
L 100 1519 
L 2066 4325 
L 2409 4325 
L 2409 1563 
L 2978 1563 
z
M 1894 1563 
L 1894 3666 
L 406 1563 
L 1894 1563 
z
" transform="scale(0.015625)"/>
       </defs>
       <use xlink:href="#TimesNewRomanPSMT-31"/>
       <use xlink:href="#TimesNewRomanPSMT-2e" transform="translate(50 0)"/>
       <use xlink:href="#TimesNewRomanPSMT-30" transform="translate(75 0)"/>
       <use xlink:href="#TimesNewRomanPSMT-34" transform="translate(125 0)"/>
      </g>
     </g>
    </g>
    <g id="ytick_4">
     <g id="line2d_11">
      <path d="M 51.0125 149.987715 
L 664.73375 149.987715 
" clip-path="url(#p3b6e5cdaa2)" style="fill: none; stroke: #cccccc; stroke-linecap: round"/>
     </g>
     <g id="text_12">
      <!-- 1.08 -->
      <g style="fill: #262626" transform="translate(22.2625 153.806778) scale(0.11 -0.11)">
       <use xlink:href="#TimesNewRomanPSMT-31"/>
       <use xlink:href="#TimesNewRomanPSMT-2e" transform="translate(50 0)"/>
       <use xlink:href="#TimesNewRomanPSMT-30" transform="translate(75 0)"/>
       <use xlink:href="#TimesNewRomanPSMT-38" transform="translate(125 0)"/>
      </g>
     </g>
    </g>
    <g id="ytick_5">
     <g id="line2d_12">
      <path d="M 51.0125 94.645202 
L 664.73375 94.645202 
" clip-path="url(#p3b6e5cdaa2)" style="fill: none; stroke: #cccccc; stroke-linecap: round"/>
     </g>
     <g id="text_13">
      <!-- 1.12 -->
      <g style="fill: #262626" transform="translate(22.2625 98.464265) scale(0.11 -0.11)">
       <use xlink:href="#TimesNewRomanPSMT-31"/>
       <use xlink:href="#TimesNewRomanPSMT-2e" transform="translate(50 0)"/>
       <use xlink:href="#TimesNewRomanPSMT-31" transform="translate(75 0)"/>
       <use xlink:href="#TimesNewRomanPSMT-32" transform="translate(125 0)"/>
      </g>
     </g>
    </g>
    <g id="ytick_6">
     <g id="line2d_13">
      <path d="M 51.0125 39.302689 
L 664.73375 39.302689 
" clip-path="url(#p3b6e5cdaa2)" style="fill: none; stroke: #cccccc; stroke-linecap: round"/>
     </g>
     <g id="text_14">
      <!-- 1.16 -->
      <g style="fill: #262626" transform="translate(22.2625 43.121751) scale(0.11 -0.11)">
       <use xlink:href="#TimesNewRomanPSMT-31"/>
       <use xlink:href="#TimesNewRomanPSMT-2e" transform="translate(50 0)"/>
       <use xlink:href="#TimesNewRomanPSMT-31" transform="translate(75 0)"/>
       <use xlink:href="#TimesNewRomanPSMT-36" transform="translate(125 0)"/>
      </g>
     </g>
    </g>
    <g id="text_15">
     <!-- 指数均值 -->
     <g style="fill: #262626" transform="translate(15.695625 200.508567) rotate(-90) scale(0.12 -0.12)">
      <defs>
       <path id="SimSun-6307" d="M 3000 3200 
Q 3000 4875 2975 5175 
L 3575 4900 
L 3350 4700 
L 3350 3800 
Q 3825 3975 4375 4287 
Q 4925 4600 5150 4850 
L 5525 4375 
Q 5325 4375 4825 4175 
Q 4300 3975 3350 3675 
L 3350 3250 
Q 3350 2925 3725 2950 
L 5200 2950 
Q 5400 2975 5450 3175 
Q 5500 3375 5550 4000 
L 5650 4000 
Q 5675 3600 5712 3362 
Q 5750 3125 5975 3050 
Q 5825 2675 5400 2675 
L 3475 2675 
Q 2975 2650 3000 3200 
z
M 5475 1850 
L 5475 225 
Q 5475 25 5500 -375 
L 5125 -525 
L 5125 -50 
L 3400 -50 
L 3400 -400 
L 3025 -575 
Q 3050 100 3050 925 
Q 3050 1750 3025 2300 
L 3400 2075 
L 5075 2075 
L 5250 2325 
L 5675 2025 
L 5475 1850 
z
M 3400 1925 
L 3400 1075 
L 5125 1075 
L 5125 1925 
L 3400 1925 
z
M 3400 925 
L 3400 100 
L 5125 100 
L 5125 925 
L 3400 925 
z
M 1450 3750 
Q 1450 4750 1425 5225 
L 2025 4925 
L 1800 4750 
L 1800 3750 
L 2125 3750 
L 2425 4050 
L 2875 3600 
L 1800 3600 
L 1800 2450 
L 2650 2900 
L 2700 2825 
L 1800 2200 
L 1800 75 
Q 1800 -375 1275 -600 
Q 1275 -300 550 -75 
L 550 25 
Q 1100 -50 1275 -37 
Q 1450 -25 1450 300 
L 1450 2000 
Q 1100 1775 725 1500 
L 650 1350 
L 325 1800 
Q 625 1900 1450 2300 
L 1450 3600 
L 1175 3600 
Q 850 3600 575 3525 
L 350 3750 
L 1450 3750 
z
" transform="scale(0.015625)"/>
       <path id="SimSun-6570" d="M 1875 1525 
Q 1675 1200 1500 900 
Q 1825 825 2275 725 
Q 2500 975 2725 1525 
L 1875 1525 
z
M 850 4900 
Q 1325 4600 1425 4450 
Q 1525 4300 1525 4225 
Q 1525 4100 1437 3975 
Q 1350 3850 1300 3850 
Q 1225 3850 1150 4100 
Q 1050 4450 775 4850 
L 850 4900 
z
M 3000 4975 
L 3450 4675 
Q 3250 4625 3100 4425 
Q 2925 4225 2525 3825 
L 2450 3875 
Q 2925 4625 3000 4975 
z
M 1875 5250 
L 2425 5000 
L 2225 4825 
L 2225 3675 
L 2850 3675 
L 3125 3950 
L 3550 3525 
L 2225 3525 
L 2225 3300 
Q 2800 3175 2937 3062 
Q 3075 2950 3075 2775 
Q 3075 2700 3050 2587 
Q 3025 2475 2975 2475 
Q 2925 2475 2800 2650 
Q 2600 2925 2225 3175 
L 2225 2400 
L 1925 2200 
L 2275 2050 
Q 2150 2000 1950 1675 
L 2725 1675 
L 2900 1900 
L 3275 1575 
L 3050 1450 
Q 2800 875 2600 650 
Q 3000 550 3137 437 
Q 3275 325 3275 150 
Q 3275 -25 3200 -25 
Q 3125 -25 3025 75 
Q 2750 275 2400 425 
Q 1525 -275 325 -500 
L 300 -425 
Q 1450 -50 2100 550 
Q 1600 725 1125 800 
Q 1225 950 1525 1525 
L 1200 1525 
Q 875 1525 600 1450 
L 375 1675 
L 1575 1675 
Q 1675 1925 1775 2275 
L 1900 2225 
L 1900 3250 
Q 1225 2475 350 2050 
L 300 2125 
Q 1225 2775 1700 3525 
L 1250 3525 
Q 925 3525 650 3450 
L 425 3675 
L 1900 3675 
Q 1900 4575 1875 5250 
z
M 3925 3525 
Q 4050 2075 4525 1100 
Q 4925 1950 5025 3525 
L 3925 3525 
z
M 4050 5250 
L 4625 4925 
Q 4425 4850 4325 4625 
Q 4225 4400 3950 3675 
L 5375 3675 
L 5675 3975 
L 6125 3525 
L 5400 3525 
Q 5250 1675 4750 775 
Q 5325 75 6100 -100 
L 6100 -200 
Q 5625 -275 5600 -500 
Q 4950 -50 4525 525 
Q 3700 -275 2550 -650 
L 2500 -575 
Q 3650 -50 4325 800 
Q 3850 1975 3825 3375 
Q 3575 2725 3100 2150 
L 3025 2200 
Q 3625 3200 4050 5250 
z
" transform="scale(0.015625)"/>
       <path id="SimSun-5747" d="M 4075 4875 
L 3825 4725 
Q 3650 4325 3475 3925 
L 5400 3925 
L 5625 4175 
L 5975 3850 
L 5775 3675 
Q 5725 800 5612 337 
Q 5500 -125 5275 -312 
Q 5050 -500 4725 -625 
Q 4625 -250 3800 -25 
L 3800 100 
Q 4575 -50 4887 -12 
Q 5200 25 5287 750 
Q 5375 1475 5425 3775 
L 3425 3775 
Q 2975 2950 2500 2450 
L 2400 2500 
Q 2875 3200 3150 3950 
Q 3425 4700 3475 5200 
L 4075 4875 
z
M 3500 3175 
Q 4075 2850 4237 2637 
Q 4400 2425 4400 2300 
Q 4400 2175 4287 2025 
Q 4175 1875 4125 1875 
Q 4050 1875 3975 2125 
Q 3875 2500 3425 3100 
L 3500 3175 
z
M 4975 1750 
Q 4525 1425 3850 1000 
Q 3150 550 2900 225 
L 2525 700 
Q 2875 800 3462 1075 
Q 4050 1350 4925 1850 
L 4975 1750 
z
M 1700 1100 
L 2775 1500 
L 2825 1375 
Q 1875 925 1325 637 
Q 775 350 650 175 
L 275 675 
Q 950 850 1350 1000 
L 1350 3150 
L 750 3150 
L 525 3100 
L 325 3300 
L 1350 3300 
Q 1350 4700 1325 5175 
L 1925 4875 
L 1700 4675 
L 1700 3300 
L 1975 3300 
L 2250 3575 
L 2650 3150 
L 1700 3150 
L 1700 1100 
z
" transform="scale(0.015625)"/>
       <path id="SimSun-503c" d="M 1525 650 
Q 1525 -225 1550 -525 
L 1175 -650 
Q 1200 250 1200 550 
L 1200 3025 
Q 750 2300 325 1850 
L 250 1900 
Q 725 2625 1100 3525 
Q 1475 4425 1675 5200 
L 2200 4875 
L 1950 4725 
Q 1550 3800 1425 3475 
L 1725 3300 
L 1525 3150 
L 1525 650 
z
M 2875 3225 
L 2875 2475 
L 4800 2475 
L 4800 3225 
L 2875 3225 
z
M 2875 2325 
L 2875 1575 
L 4800 1575 
L 4800 2325 
L 2875 2325 
z
M 2875 1425 
L 2875 675 
L 4800 675 
L 4800 1425 
L 2875 1425 
z
M 2875 525 
L 2875 -225 
L 4800 -225 
L 4800 525 
L 2875 525 
z
M 3550 4250 
Q 3575 4825 3550 5225 
L 4125 4950 
L 3925 4800 
L 3900 4250 
L 5025 4250 
L 5350 4575 
L 5825 4100 
L 3900 4100 
L 3875 3375 
L 4750 3375 
L 4975 3625 
L 5350 3300 
L 5125 3150 
L 5125 -225 
L 5350 -225 
L 5675 100 
L 6150 -375 
L 2450 -375 
Q 2125 -375 1850 -450 
L 1625 -225 
L 2550 -225 
L 2550 2550 
Q 2550 2850 2525 3575 
L 2875 3375 
L 3525 3375 
L 3550 4100 
L 2800 4100 
Q 2475 4100 2200 4025 
L 1975 4250 
L 3550 4250 
z
" transform="scale(0.015625)"/>
      </defs>
      <use xlink:href="#SimSun-6307"/>
      <use xlink:href="#SimSun-6570" transform="translate(100 0)"/>
      <use xlink:href="#SimSun-5747" transform="translate(200 0)"/>
      <use xlink:href="#SimSun-503c" transform="translate(300 0)"/>
     </g>
    </g>
   </g>
   <g id="FillBetweenPolyCollection_1"/>
   <g id="FillBetweenPolyCollection_2"/>
   <g id="FillBetweenPolyCollection_3"/>
   <g id="line2d_14">
    <path d="M 78.90892 286.715673 
L 171.896989 240.363146 
L 264.885057 196.341625 
L 357.873125 206.391636 
L 450.861193 249.293181 
L 543.849261 206.259082 
L 636.83733 225.304025 
" clip-path="url(#p3b6e5cdaa2)" style="fill: none; stroke: #2e8b57; stroke-width: 2.2; stroke-linecap: round"/>
    <defs>
     <path id="mbb4b5a6960" d="M 0 3 
C 0.795609 3 1.55874 2.683901 2.12132 2.12132 
C 2.683901 1.55874 3 0.795609 3 0 
C 3 -0.795609 2.683901 -1.55874 2.12132 -2.12132 
C 1.55874 -2.683901 0.795609 -3 0 -3 
C -0.795609 -3 -1.55874 -2.683901 -2.12132 -2.12132 
C -2.683901 -1.55874 -3 -0.795609 -3 0 
C -3 0.795609 -2.683901 1.55874 -2.12132 2.12132 
C -1.55874 2.683901 -0.795609 3 0 3 
z
" style="stroke: #ffffff; stroke-width: 0.75"/>
    </defs>
    <g clip-path="url(#p3b6e5cdaa2)">
     <use xlink:href="#mbb4b5a6960" x="78.90892" y="286.715673" style="fill: #2e8b57; stroke: #ffffff; stroke-width: 0.75"/>
     <use xlink:href="#mbb4b5a6960" x="171.896989" y="240.363146" style="fill: #2e8b57; stroke: #ffffff; stroke-width: 0.75"/>
     <use xlink:href="#mbb4b5a6960" x="264.885057" y="196.341625" style="fill: #2e8b57; stroke: #ffffff; stroke-width: 0.75"/>
     <use xlink:href="#mbb4b5a6960" x="357.873125" y="206.391636" style="fill: #2e8b57; stroke: #ffffff; stroke-width: 0.75"/>
     <use xlink:href="#mbb4b5a6960" x="450.861193" y="249.293181" style="fill: #2e8b57; stroke: #ffffff; stroke-width: 0.75"/>
     <use xlink:href="#mbb4b5a6960" x="543.849261" y="206.259082" style="fill: #2e8b57; stroke: #ffffff; stroke-width: 0.75"/>
     <use xlink:href="#mbb4b5a6960" x="636.83733" y="225.304025" style="fill: #2e8b57; stroke: #ffffff; stroke-width: 0.75"/>
    </g>
   </g>
   <g id="line2d_15">
    <path d="M 78.90892 204.734907 
L 171.896989 277.996279 
L 264.885057 283.676973 
L 357.873125 282.240108 
L 450.861193 248.623332 
L 543.849261 220.832919 
L 636.83733 297.744274 
" clip-path="url(#p3b6e5cdaa2)" style="fill: none; stroke: #5dade2; stroke-width: 2.2; stroke-linecap: round"/>
    <defs>
     <path id="md173f16c05" d="M 0 3 
C 0.795609 3 1.55874 2.683901 2.12132 2.12132 
C 2.683901 1.55874 3 0.795609 3 0 
C 3 -0.795609 2.683901 -1.55874 2.12132 -2.12132 
C 1.55874 -2.683901 0.795609 -3 0 -3 
C -0.795609 -3 -1.55874 -2.683901 -2.12132 -2.12132 
C -2.683901 -1.55874 -3 -0.795609 -3 0 
C -3 0.795609 -2.683901 1.55874 -2.12132 2.12132 
C -1.55874 2.683901 -0.795609 3 0 3 
z
" style="stroke: #ffffff; stroke-width: 0.75"/>
    </defs>
    <g clip-path="url(#p3b6e5cdaa2)">
     <use xlink:href="#md173f16c05" x="78.90892" y="204.734907" style="fill: #5dade2; stroke: #ffffff; stroke-width: 0.75"/>
     <use xlink:href="#md173f16c05" x="171.896989" y="277.996279" style="fill: #5dade2; stroke: #ffffff; stroke-width: 0.75"/>
     <use xlink:href="#md173f16c05" x="264.885057" y="283.676973" style="fill: #5dade2; stroke: #ffffff; stroke-width: 0.75"/>
     <use xlink:href="#md173f16c05" x="357.873125" y="282.240108" style="fill: #5dade2; stroke: #ffffff; stroke-width: 0.75"/>
     <use xlink:href="#md173f16c05" x="450.861193" y="248.623332" style="fill: #5dade2; stroke: #ffffff; stroke-width: 0.75"/>
     <use xlink:href="#md173f16c05" x="543.849261" y="220.832919" style="fill: #5dade2; stroke: #ffffff; stroke-width: 0.75"/>
     <use xlink:href="#md173f16c05" x="636.83733" y="297.744274" style="fill: #5dade2; stroke: #ffffff; stroke-width: 0.75"/>
    </g>
   </g>
   <g id="line2d_16">
    <path d="M 78.90892 302.48233 
L 171.896989 183.441279 
L 264.885057 143.245459 
L 357.873125 177.438978 
L 450.861193 245.741649 
L 543.849261 239.922383 
L 636.83733 181.976215 
" clip-path="url(#p3b6e5cdaa2)" style="fill: none; stroke: #e67e22; stroke-width: 2.2; stroke-linecap: round"/>
    <defs>
     <path id="md8f20509c5" d="M 0 3 
C 0.795609 3 1.55874 2.683901 2.12132 2.12132 
C 2.683901 1.55874 3 0.795609 3 0 
C 3 -0.795609 2.683901 -1.55874 2.12132 -2.12132 
C 1.55874 -2.683901 0.795609 -3 0 -3 
C -0.795609 -3 -1.55874 -2.683901 -2.12132 -2.12132 
C -2.683901 -1.55874 -3 -0.795609 -3 0 
C -3 0.795609 -2.683901 1.55874 -2.12132 2.12132 
C -1.55874 2.683901 -0.795609 3 0 3 
z
" style="stroke: #ffffff; stroke-width: 0.75"/>
    </defs>
    <g clip-path="url(#p3b6e5cdaa2)">
     <use xlink:href="#md8f20509c5" x="78.90892" y="302.48233" style="fill: #e67e22; stroke: #ffffff; stroke-width: 0.75"/>
     <use xlink:href="#md8f20509c5" x="171.896989" y="183.441279" style="fill: #e67e22; stroke: #ffffff; stroke-width: 0.75"/>
     <use xlink:href="#md8f20509c5" x="264.885057" y="143.245459" style="fill: #e67e22; stroke: #ffffff; stroke-width: 0.75"/>
     <use xlink:href="#md8f20509c5" x="357.873125" y="177.438978" style="fill: #e67e22; stroke: #ffffff; stroke-width: 0.75"/>
     <use xlink:href="#md8f20509c5" x="450.861193" y="245.741649" style="fill: #e67e22; stroke: #ffffff; stroke-width: 0.75"/>
     <use xlink:href="#md8f20509c5" x="543.849261" y="239.922383" style="fill: #e67e22; stroke: #ffffff; stroke-width: 0.75"/>
     <use xlink:href="#md8f20509c5" x="636.83733" y="181.976215" style="fill: #e67e22; stroke: #ffffff; stroke-width: 0.75"/>
    </g>
   </g>
   <g id="line2d_17">
    <path d="M 51.0125 260.672742 
L 664.73375 260.672742 
" clip-path="url(#p3b6e5cdaa2)" style="fill: none; stroke-dasharray: 4.44,1.92; stroke-dashoffset: 0; stroke: #666666; stroke-width: 1.2"/>
   </g>
   <g id="patch_3">
    <path d="M 51.0125 329.850883 
L 51.0125 23.16625 
" style="fill: none; stroke: #cccccc; stroke-width: 1.25; stroke-linejoin: miter; stroke-linecap: square"/>
   </g>
   <g id="patch_4">
    <path d="M 664.73375 329.850883 
L 664.73375 23.16625 
" style="fill: none; stroke: #cccccc; stroke-width: 1.25; stroke-linejoin: miter; stroke-linecap: square"/>
   </g>
   <g id="patch_5">
    <path d="M 51.0125 329.850883 
L 664.73375 329.850883 
" style="fill: none; stroke: #cccccc; stroke-width: 1.25; stroke-linejoin: miter; stroke-linecap: square"/>
   </g>
   <g id="patch_6">
    <path d="M 51.0125 23.16625 
L 664.73375 23.16625 
" style="fill: none; stroke: #cccccc; stroke-width: 1.25; stroke-linejoin: miter; stroke-linecap: square"/>
   </g>
   <g id="text_16">
    <!-- GM 及其分解项年度趋势图 -->
    <g style="fill: #262626" transform="translate(274.843281 17.16625) scale(0.14 -0.14)">
     <defs>
      <path id="TimesNewRomanPSMT-47" d="M 3928 4334 
L 4038 2997 
L 3928 2997 
Q 3763 3497 3500 3750 
Q 3122 4116 2528 4116 
Q 1719 4116 1297 3475 
Q 944 2934 944 2188 
Q 944 1581 1178 1081 
Q 1413 581 1792 348 
Q 2172 116 2572 116 
Q 2806 116 3025 175 
Q 3244 234 3447 350 
L 3447 1575 
Q 3447 1894 3398 1992 
Q 3350 2091 3248 2142 
Q 3147 2194 2891 2194 
L 2891 2313 
L 4531 2313 
L 4531 2194 
L 4453 2194 
Q 4209 2194 4119 2031 
Q 4056 1916 4056 1575 
L 4056 278 
Q 3697 84 3347 -6 
Q 2997 -97 2569 -97 
Q 1341 -97 703 691 
Q 225 1281 225 2053 
Q 225 2613 494 3125 
Q 813 3734 1369 4063 
Q 1834 4334 2469 4334 
Q 2700 4334 2889 4296 
Q 3078 4259 3425 4131 
Q 3600 4066 3659 4066 
Q 3719 4066 3761 4120 
Q 3803 4175 3813 4334 
L 3928 4334 
z
" transform="scale(0.015625)"/>
      <path id="TimesNewRomanPSMT-4d" d="M 2619 0 
L 981 3566 
L 981 734 
Q 981 344 1066 247 
Q 1181 116 1431 116 
L 1581 116 
L 1581 0 
L 106 0 
L 106 116 
L 256 116 
Q 525 116 638 278 
Q 706 378 706 734 
L 706 3503 
Q 706 3784 644 3909 
Q 600 4000 483 4061 
Q 366 4122 106 4122 
L 106 4238 
L 1306 4238 
L 2844 922 
L 4356 4238 
L 5556 4238 
L 5556 4122 
L 5409 4122 
Q 5138 4122 5025 3959 
Q 4956 3859 4956 3503 
L 4956 734 
Q 4956 344 5044 247 
Q 5159 116 5409 116 
L 5556 116 
L 5556 0 
L 3756 0 
L 3756 116 
L 3906 116 
Q 4178 116 4288 278 
Q 4356 378 4356 734 
L 4356 3566 
L 2722 0 
L 2619 0 
z
" transform="scale(0.015625)"/>
      <path id="TimesNewRomanPSMT-20" transform="scale(0.015625)"/>
      <path id="SimSun-53ca" d="M 4625 4450 
L 4100 3075 
L 4925 3075 
L 5150 3300 
L 5525 2900 
L 5300 2775 
Q 4700 1550 4075 900 
Q 4500 475 5037 237 
Q 5575 0 6050 -50 
L 6050 -125 
Q 5700 -175 5550 -475 
Q 4450 0 3850 675 
Q 2875 -150 1025 -550 
L 1000 -450 
Q 2750 50 3650 900 
Q 2800 2125 2525 3425 
Q 2425 2575 1987 1550 
Q 1550 525 275 -475 
L 225 -400 
Q 1000 375 1425 1112 
Q 1850 1850 2062 2825 
Q 2275 3800 2325 4600 
L 1500 4600 
L 1275 4550 
L 1075 4750 
L 4250 4750 
L 4475 4975 
L 4900 4625 
L 4625 4450 
z
M 3600 3075 
Q 3825 3225 3975 3687 
Q 4125 4150 4250 4600 
L 2700 4600 
Q 2650 4275 2575 3575 
Q 3050 2075 3875 1150 
Q 4575 1925 4950 2925 
L 4100 2925 
L 3925 2750 
L 3600 3075 
z
" transform="scale(0.015625)"/>
      <path id="SimSun-5176" d="M 4025 4275 
Q 4025 4775 4000 5250 
L 4575 4975 
L 4375 4775 
L 4375 4275 
L 4975 4275 
L 5325 4625 
L 5825 4125 
L 4375 4125 
L 4375 1300 
L 5125 1300 
L 5550 1725 
L 6125 1150 
L 1100 1150 
Q 775 1150 500 1075 
L 275 1300 
L 1975 1300 
L 1975 4125 
L 1425 4125 
Q 1100 4125 825 4050 
L 600 4275 
L 1975 4275 
Q 1975 4675 1950 5225 
L 2525 4975 
L 2325 4825 
L 2325 4275 
L 4025 4275 
z
M 2325 4125 
L 2325 3325 
L 4025 3325 
L 4025 4125 
L 2325 4125 
z
M 2325 3175 
L 2325 2350 
L 4025 2350 
L 4025 3175 
L 2325 3175 
z
M 2325 2200 
L 2325 1300 
L 4025 1300 
L 4025 2200 
L 2325 2200 
z
M 2325 1075 
L 2825 650 
Q 2625 625 1975 150 
Q 1300 -325 475 -600 
L 425 -525 
Q 925 -250 1525 225 
Q 2125 700 2325 1075 
z
M 3750 900 
L 3825 975 
Q 5275 300 5412 112 
Q 5550 -75 5550 -250 
Q 5550 -350 5500 -475 
Q 5450 -600 5400 -600 
Q 5300 -600 5125 -375 
Q 4850 0 3750 900 
z
" transform="scale(0.015625)"/>
      <path id="SimSun-5206" d="M 2350 5050 
L 2850 4675 
L 2625 4550 
Q 2200 3750 1687 3125 
Q 1175 2500 375 2025 
L 325 2100 
Q 975 2625 1475 3337 
Q 1975 4050 2350 5050 
z
M 4100 4975 
L 3900 4850 
Q 4175 3850 4800 3300 
Q 5425 2750 6125 2625 
L 6125 2550 
Q 5750 2500 5600 2225 
Q 4775 2675 4287 3425 
Q 3800 4175 3625 5175 
L 4100 4975 
z
M 1375 2625 
L 4225 2625 
L 4475 2875 
L 4825 2525 
L 4625 2375 
Q 4575 400 4375 -12 
Q 4175 -425 3675 -600 
Q 3600 -200 2975 -25 
L 2975 75 
Q 3600 -25 3787 -12 
Q 3975 0 4075 275 
Q 4175 550 4275 2475 
L 2975 2475 
Q 2825 1400 2375 662 
Q 1925 -75 650 -625 
L 600 -525 
Q 1725 50 2112 837 
Q 2500 1625 2575 2475 
L 1800 2475 
L 1575 2425 
L 1375 2625 
z
" transform="scale(0.015625)"/>
      <path id="SimSun-89e3" d="M 5700 4550 
Q 5675 3850 5637 3625 
Q 5600 3400 5500 3262 
Q 5400 3125 5075 3025 
Q 5100 3250 4475 3450 
L 4500 3550 
Q 4875 3475 5062 3462 
Q 5250 3450 5300 3625 
Q 5350 3800 5375 4625 
L 4375 4625 
Q 4350 4100 4075 3675 
Q 3800 3250 3075 2900 
L 3000 2975 
Q 3550 3325 3775 3787 
Q 4000 4250 4000 4625 
L 3650 4625 
L 3425 4550 
L 3200 4775 
L 5350 4775 
L 5550 5000 
L 5900 4700 
L 5700 4550 
z
M 4400 -625 
Q 4425 -100 4425 975 
L 3775 975 
Q 3450 975 3175 900 
L 2950 1125 
L 4425 1125 
L 4425 2025 
L 3750 2025 
Q 3400 1525 3100 1275 
L 3050 1325 
Q 3300 1700 3487 2200 
Q 3675 2700 3725 3000 
L 4200 2700 
L 3975 2575 
L 3800 2175 
L 4425 2175 
Q 4425 2825 4400 3175 
L 4950 2900 
L 4750 2750 
L 4750 2175 
L 5200 2175 
L 5475 2450 
L 5875 2025 
L 4750 2025 
L 4750 1125 
L 5450 1125 
L 5750 1425 
L 6175 975 
L 4750 975 
Q 4750 -50 4775 -450 
L 4400 -625 
z
M 1475 5200 
L 1975 4875 
L 1750 4775 
Q 1600 4525 1500 4275 
L 2175 4275 
L 2400 4500 
L 2775 4125 
Q 2550 4025 2437 3912 
Q 2325 3800 1975 3375 
L 2525 3375 
L 2750 3600 
L 3075 3275 
L 2875 3125 
L 2875 -200 
Q 2875 -325 2800 -425 
Q 2725 -525 2500 -625 
Q 2500 -425 2075 -250 
L 2075 -150 
Q 2375 -200 2475 -200 
Q 2575 -200 2575 -75 
L 2575 1300 
L 2000 1300 
Q 2000 400 2025 -50 
L 1675 -250 
Q 1700 250 1700 1300 
L 1125 1300 
Q 1075 150 275 -625 
L 225 -550 
Q 575 -50 687 412 
Q 800 875 812 1137 
Q 825 1400 825 3250 
Q 600 3000 350 2775 
L 300 2850 
Q 850 3550 1112 4162 
Q 1375 4775 1475 5200 
z
M 1125 2275 
L 1125 1450 
L 1700 1450 
L 1700 2275 
L 1125 2275 
z
M 1125 3225 
L 1125 2425 
L 1700 2425 
L 1700 3225 
L 1125 3225 
z
M 2000 3225 
L 2000 2425 
L 2575 2425 
L 2575 3225 
L 2000 3225 
z
M 2000 2275 
L 2000 1450 
L 2575 1450 
L 2575 2275 
L 2000 2275 
z
M 1450 4125 
Q 1275 3825 1050 3475 
L 1175 3375 
L 1850 3375 
L 2200 4125 
L 1450 4125 
z
" transform="scale(0.015625)"/>
      <path id="SimSun-9879" d="M 1700 1400 
L 2700 1725 
L 2750 1625 
Q 1200 950 950 787 
Q 700 625 650 500 
L 350 1000 
Q 625 1050 1375 1300 
L 1375 4100 
L 1175 4100 
Q 850 4100 575 4025 
L 350 4250 
L 2025 4250 
L 2350 4550 
L 2750 4100 
L 1700 4100 
L 1700 1400 
z
M 2900 825 
Q 2925 1475 2925 2337 
Q 2925 3200 2900 3950 
L 3250 3750 
L 3825 3750 
Q 3925 4450 3950 4725 
L 3250 4725 
Q 2925 4725 2650 4650 
L 2425 4875 
L 5225 4875 
L 5575 5200 
L 6000 4725 
L 4400 4725 
Q 4250 4475 3950 3750 
L 5175 3750 
L 5400 4000 
L 5800 3675 
L 5575 3525 
L 5575 2000 
Q 5575 1575 5600 1125 
L 5250 925 
L 5250 3600 
L 3250 3600 
L 3250 1050 
L 2900 825 
z
M 4625 2900 
L 4425 2700 
Q 4425 1350 4212 837 
Q 4000 325 3525 -25 
Q 3050 -375 2150 -625 
L 2100 -550 
Q 3275 -25 3600 425 
Q 3925 875 4012 1537 
Q 4100 2200 4050 3175 
L 4625 2900 
z
M 4450 1025 
Q 5500 475 5700 312 
Q 5900 150 5900 -75 
Q 5900 -200 5850 -362 
Q 5800 -525 5775 -525 
Q 5700 -525 5600 -350 
Q 5400 -50 5150 237 
Q 4900 525 4400 950 
L 4450 1025 
z
" transform="scale(0.015625)"/>
      <path id="SimSun-5e74" d="M 1775 2675 
L 1775 1375 
L 3225 1375 
L 3225 2675 
L 1775 2675 
z
M 1825 5275 
L 2375 4925 
L 2150 4825 
Q 1950 4525 1750 4225 
L 5000 4225 
L 5375 4600 
L 5900 4075 
L 3600 4075 
L 3600 2825 
L 4625 2825 
L 4975 3175 
L 5475 2675 
L 3600 2675 
L 3600 1375 
L 5225 1375 
L 5600 1750 
L 6125 1225 
L 3600 1225 
L 3600 275 
Q 3600 -150 3625 -475 
L 3200 -650 
Q 3225 125 3225 475 
L 3225 1225 
L 1100 1225 
Q 775 1225 500 1150 
L 275 1375 
L 1400 1375 
Q 1400 2525 1375 3050 
L 1775 2825 
L 3225 2825 
L 3225 4075 
L 1675 4075 
Q 1425 3700 1150 3387 
Q 875 3075 400 2700 
L 325 2750 
Q 775 3225 1175 3862 
Q 1575 4500 1825 5275 
z
" transform="scale(0.015625)"/>
      <path id="SimSun-5ea6" d="M 2550 2025 
Q 2575 2525 2575 3175 
L 1925 3175 
L 1625 3125 
L 1425 3325 
L 2575 3325 
Q 2575 3700 2550 4150 
L 3100 3875 
L 2900 3750 
L 2900 3325 
L 4300 3325 
Q 4300 3750 4275 4125 
L 4850 3875 
L 4625 3725 
L 4625 3325 
L 5100 3325 
L 5425 3650 
L 5900 3175 
L 4625 3175 
Q 4625 2450 4650 2225 
L 4300 2075 
L 4300 2300 
L 2900 2300 
L 2900 2175 
L 2550 2025 
z
M 4875 1500 
Q 4300 775 3900 425 
Q 4700 -75 6025 -125 
L 6025 -225 
Q 5625 -300 5550 -550 
Q 4375 -325 3675 225 
Q 2475 -450 1075 -625 
L 1050 -525 
Q 2375 -275 3450 450 
Q 2975 925 2575 1625 
L 2325 1625 
L 2100 1575 
L 1900 1775 
L 4525 1775 
L 4750 2000 
L 5125 1625 
L 4875 1500 
z
M 2700 1625 
Q 3175 975 3650 625 
Q 4150 1100 4500 1625 
L 2700 1625 
z
M 2900 3175 
L 2900 2450 
L 4300 2450 
L 4300 3175 
L 2900 3175 
z
M 975 4650 
L 1400 4400 
L 3375 4400 
Q 3350 4550 3262 4725 
Q 3175 4900 2900 5225 
L 2975 5275 
Q 3550 5025 3637 4887 
Q 3725 4750 3725 4725 
Q 3725 4575 3525 4400 
L 5150 4400 
L 5500 4750 
L 6000 4250 
L 1375 4250 
Q 1400 2750 1287 1912 
Q 1175 1075 925 475 
Q 675 -125 300 -625 
L 225 -575 
Q 725 300 862 1250 
Q 1000 2200 1012 3187 
Q 1025 4175 975 4650 
z
" transform="scale(0.015625)"/>
      <path id="SimSun-8d8b" d="M 3900 5225 
L 4425 4900 
L 4225 4825 
Q 4000 4475 3800 4150 
L 4750 4150 
L 4975 4425 
L 5400 4025 
Q 5100 4000 4475 3075 
L 5350 3075 
L 5500 3325 
L 5900 3050 
L 5725 2875 
Q 5725 1050 5750 525 
L 5400 375 
L 5400 800 
L 3725 800 
Q 3525 800 3250 725 
L 3025 950 
L 5400 950 
L 5400 1900 
L 4050 1900 
Q 3850 1900 3575 1825 
L 3350 2050 
L 5400 2050 
L 5400 2925 
L 3900 2925 
Q 3700 2925 3425 2850 
L 3200 3075 
L 4350 3075 
L 4775 4000 
L 3725 4000 
Q 3450 3625 3000 3200 
L 2950 3250 
Q 3650 4250 3900 5225 
z
M 300 -550 
L 225 -500 
Q 675 275 787 1112 
Q 900 1950 850 2425 
L 1400 2150 
Q 1250 2075 1212 1812 
Q 1175 1550 1125 1075 
Q 1500 750 1725 625 
L 1725 2825 
L 950 2825 
Q 750 2825 475 2750 
L 250 2975 
L 1600 2975 
L 1600 4025 
L 1225 4025 
Q 1025 4025 750 3950 
L 525 4175 
L 1600 4175 
Q 1600 4675 1575 5225 
L 2125 4975 
L 1925 4800 
L 1925 4175 
L 2400 4175 
L 2700 4475 
L 3100 4025 
L 1925 4025 
L 1925 2975 
L 2475 2975 
L 2800 3275 
L 3200 2825 
L 1750 2825 
L 2250 2600 
L 2050 2400 
L 2050 1800 
L 2625 1800 
L 2925 2100 
L 3300 1650 
L 2050 1650 
L 2050 425 
Q 2925 25 3737 0 
Q 4550 -25 4925 -25 
Q 5625 -25 6150 25 
L 6150 -50 
Q 5700 -250 5700 -475 
Q 4950 -500 4012 -412 
Q 3075 -325 2325 -12 
Q 1575 300 1100 900 
Q 775 -25 300 -550 
z
" transform="scale(0.015625)"/>
      <path id="SimSun-52bf" d="M 1650 4175 
Q 1650 4775 1625 5200 
L 2150 4950 
L 1975 4800 
L 1975 4175 
L 2200 4175 
L 2475 4450 
L 2900 4025 
L 1975 4025 
L 1975 3425 
Q 2400 3525 2800 3625 
L 2825 3525 
Q 2400 3375 1975 3225 
L 1975 2150 
Q 2000 1800 1475 1575 
Q 1450 1850 800 2025 
L 800 2150 
Q 1225 2100 1437 2087 
Q 1650 2075 1650 2325 
L 1650 3100 
Q 700 2750 700 2650 
L 400 3100 
Q 575 3100 1650 3350 
L 1650 4025 
L 1300 4025 
Q 975 4025 700 3950 
L 475 4175 
L 1650 4175 
z
M 3650 4175 
L 3650 4525 
Q 3650 4875 3625 5225 
L 4175 4975 
L 3975 4800 
L 3975 4200 
L 4700 4250 
L 4850 4475 
L 5200 4200 
L 5025 4050 
Q 5000 3900 5000 3575 
Q 5000 3225 5050 2812 
Q 5100 2400 5425 2175 
Q 5600 2650 5700 3050 
L 5800 3025 
Q 5725 2525 5725 2250 
Q 5725 1975 5825 1775 
Q 5900 1650 5775 1650 
Q 5725 1650 5475 1750 
Q 5225 1850 5012 2137 
Q 4800 2425 4737 2750 
Q 4675 3075 4675 3475 
Q 4675 3850 4700 4100 
L 3975 4050 
Q 3925 3450 3750 3050 
Q 4100 2900 4262 2787 
Q 4425 2675 4387 2475 
Q 4350 2275 4275 2275 
Q 4225 2275 4125 2400 
Q 3925 2625 3625 2825 
Q 3225 2225 2100 1800 
L 2050 1875 
Q 3075 2400 3375 2975 
Q 3225 3100 2850 3300 
L 2900 3375 
Q 3225 3275 3475 3175 
Q 3600 3500 3650 4025 
L 3300 4000 
L 3125 3925 
L 2875 4125 
L 3650 4175 
z
M 2600 1425 
Q 2675 1700 2700 2025 
L 3175 1775 
L 3000 1650 
L 2950 1425 
L 4725 1425 
L 4875 1675 
L 5325 1375 
L 5125 1225 
Q 5050 400 4987 112 
Q 4925 -175 4750 -350 
Q 4575 -525 4225 -600 
Q 4250 -350 3650 -50 
L 3675 50 
Q 4225 -100 4412 -87 
Q 4600 -75 4675 312 
Q 4750 700 4775 1275 
L 2925 1275 
Q 2800 775 2575 450 
Q 2350 125 1875 -162 
Q 1400 -450 450 -650 
L 400 -550 
Q 1500 -225 1950 200 
Q 2400 625 2575 1275 
L 1450 1275 
Q 1125 1275 850 1200 
L 625 1425 
L 2600 1425 
z
" transform="scale(0.015625)"/>
      <path id="SimSun-56fe" d="M 5675 4700 
L 5675 550 
Q 5675 50 5700 -350 
L 5325 -550 
L 5325 -50 
L 1250 -50 
L 1250 -450 
L 875 -600 
Q 900 -100 900 425 
L 900 4200 
Q 900 4625 875 5150 
L 1250 4925 
L 5275 4925 
L 5450 5175 
L 5850 4850 
L 5675 4700 
z
M 1250 4775 
L 1250 1700 
Q 2425 2200 3075 2825 
Q 2750 3275 2500 3850 
Q 2100 3225 1650 2800 
L 1575 2850 
Q 1975 3375 2250 3937 
Q 2525 4500 2575 4775 
L 1250 4775 
z
M 1250 100 
L 5325 100 
L 5325 4775 
L 2625 4775 
L 3050 4550 
L 2900 4475 
Q 2750 4250 2675 4125 
L 4000 4125 
L 4175 4350 
L 4550 4000 
L 4350 3875 
Q 3925 3275 3475 2775 
Q 4250 2200 5250 2100 
L 5250 2000 
Q 4875 1975 4775 1700 
Q 3900 2025 3250 2600 
Q 2375 1900 1250 1575 
L 1250 100 
z
M 2600 3975 
Q 2950 3350 3275 3000 
Q 3625 3400 3975 3975 
L 2600 3975 
z
M 2750 2050 
Q 3350 1925 3600 1825 
Q 3850 1725 3825 1487 
Q 3800 1250 3725 1250 
Q 3650 1250 3550 1375 
Q 3300 1625 2725 1975 
L 2750 2050 
z
M 2275 1150 
Q 3425 1025 3787 912 
Q 4150 800 4175 525 
Q 4200 250 4075 250 
Q 4000 250 3825 400 
Q 3450 700 2275 1050 
L 2275 1150 
z
" transform="scale(0.015625)"/>
     </defs>
     <use xlink:href="#TimesNewRomanPSMT-47"/>
     <use xlink:href="#TimesNewRomanPSMT-4d" transform="translate(72.216797 0)"/>
     <use xlink:href="#TimesNewRomanPSMT-20" transform="translate(161.132812 0)"/>
     <use xlink:href="#SimSun-53ca" transform="translate(186.132812 0)"/>
     <use xlink:href="#SimSun-5176" transform="translate(286.132812 0)"/>
     <use xlink:href="#SimSun-5206" transform="translate(386.132812 0)"/>
     <use xlink:href="#SimSun-89e3" transform="translate(486.132812 0)"/>
     <use xlink:href="#SimSun-9879" transform="translate(586.132812 0)"/>
     <use xlink:href="#SimSun-5e74" transform="translate(686.132812 0)"/>
     <use xlink:href="#SimSun-5ea6" transform="translate(786.132812 0)"/>
     <use xlink:href="#SimSun-8d8b" transform="translate(886.132812 0)"/>
     <use xlink:href="#SimSun-52bf" transform="translate(986.132812 0)"/>
     <use xlink:href="#SimSun-56fe" transform="translate(1086.132812 0)"/>
    </g>
   </g>
   <g id="legend_1">
    <g id="patch_7">
     <path d="M 385.930156 65.138125 
L 657.03375 65.138125 
Q 659.23375 65.138125 659.23375 62.938125 
L 659.23375 30.86625 
Q 659.23375 28.66625 657.03375 28.66625 
L 385.930156 28.66625 
Q 383.730156 28.66625 383.730156 30.86625 
L 383.730156 62.938125 
Q 383.730156 65.138125 385.930156 65.138125 
z
" style="fill: #ffffff; opacity: 0.8; stroke: #cccccc; stroke-linejoin: miter"/>
    </g>
    <g id="line2d_18">
     <path d="M 388.130156 37.638125 
L 399.130156 37.638125 
L 410.130156 37.638125 
" style="fill: none; stroke: #2e8b57; stroke-width: 2.2; stroke-linecap: round"/>
     <g>
      <use xlink:href="#mbb4b5a6960" x="399.130156" y="37.638125" style="fill: #2e8b57; stroke: #ffffff; stroke-width: 0.75"/>
     </g>
    </g>
    <g id="text_17">
     <!-- GM（tfpch） -->
     <g style="fill: #262626" transform="translate(418.930156 41.488125) scale(0.11 -0.11)">
      <defs>
       <path id="SimSun-ff08" d="M 5087 200 
Q 5475 -100 5425 -150 
Q 5375 -200 4950 87 
Q 4525 375 4137 850 
Q 3750 1325 3687 2100 
Q 3625 2875 4000 3487 
Q 4375 4100 4887 4462 
Q 5400 4825 5412 4762 
Q 5425 4700 5075 4425 
Q 4725 4125 4387 3600 
Q 4050 3075 4050 2250 
Q 4050 1425 4375 962 
Q 4700 500 5087 200 
z
" transform="scale(0.015625)"/>
       <path id="TimesNewRomanPSMT-74" d="M 1031 3803 
L 1031 2863 
L 1700 2863 
L 1700 2644 
L 1031 2644 
L 1031 788 
Q 1031 509 1111 412 
Q 1191 316 1316 316 
Q 1419 316 1516 380 
Q 1613 444 1666 569 
L 1788 569 
Q 1678 263 1478 108 
Q 1278 -47 1066 -47 
Q 922 -47 784 33 
Q 647 113 581 261 
Q 516 409 516 719 
L 516 2644 
L 63 2644 
L 63 2747 
Q 234 2816 414 2980 
Q 594 3144 734 3369 
Q 806 3488 934 3803 
L 1031 3803 
z
" transform="scale(0.015625)"/>
       <path id="TimesNewRomanPSMT-66" d="M 1319 2638 
L 1319 756 
Q 1319 356 1406 250 
Q 1522 113 1716 113 
L 1975 113 
L 1975 0 
L 266 0 
L 266 113 
L 394 113 
Q 519 113 622 175 
Q 725 238 764 344 
Q 803 450 803 756 
L 803 2638 
L 247 2638 
L 247 2863 
L 803 2863 
L 803 3050 
Q 803 3478 940 3775 
Q 1078 4072 1361 4255 
Q 1644 4438 1997 4438 
Q 2325 4438 2600 4225 
Q 2781 4084 2781 3909 
Q 2781 3816 2700 3733 
Q 2619 3650 2525 3650 
Q 2453 3650 2373 3701 
Q 2294 3753 2178 3923 
Q 2063 4094 1966 4153 
Q 1869 4213 1750 4213 
Q 1606 4213 1506 4136 
Q 1406 4059 1362 3898 
Q 1319 3738 1319 3069 
L 1319 2863 
L 2056 2863 
L 2056 2638 
L 1319 2638 
z
" transform="scale(0.015625)"/>
       <path id="TimesNewRomanPSMT-70" d="M -6 2578 
L 875 2934 
L 994 2934 
L 994 2266 
Q 1216 2644 1439 2795 
Q 1663 2947 1909 2947 
Q 2341 2947 2628 2609 
Q 2981 2197 2981 1534 
Q 2981 794 2556 309 
Q 2206 -88 1675 -88 
Q 1444 -88 1275 -22 
Q 1150 25 994 166 
L 994 -706 
Q 994 -1000 1030 -1079 
Q 1066 -1159 1155 -1206 
Q 1244 -1253 1478 -1253 
L 1478 -1369 
L -22 -1369 
L -22 -1253 
L 56 -1253 
Q 228 -1256 350 -1188 
Q 409 -1153 442 -1076 
Q 475 -1000 475 -688 
L 475 2019 
Q 475 2297 450 2372 
Q 425 2447 370 2484 
Q 316 2522 222 2522 
Q 147 2522 31 2478 
L -6 2578 
z
M 994 2081 
L 994 1013 
Q 994 666 1022 556 
Q 1066 375 1236 237 
Q 1406 100 1666 100 
Q 1978 100 2172 344 
Q 2425 663 2425 1241 
Q 2425 1897 2138 2250 
Q 1938 2494 1663 2494 
Q 1513 2494 1366 2419 
Q 1253 2363 994 2081 
z
" transform="scale(0.015625)"/>
       <path id="TimesNewRomanPSMT-63" d="M 2631 1088 
Q 2516 522 2178 217 
Q 1841 -88 1431 -88 
Q 944 -88 581 321 
Q 219 731 219 1428 
Q 219 2103 620 2525 
Q 1022 2947 1584 2947 
Q 2006 2947 2278 2723 
Q 2550 2500 2550 2259 
Q 2550 2141 2473 2067 
Q 2397 1994 2259 1994 
Q 2075 1994 1981 2113 
Q 1928 2178 1911 2362 
Q 1894 2547 1784 2644 
Q 1675 2738 1481 2738 
Q 1169 2738 978 2506 
Q 725 2200 725 1697 
Q 725 1184 976 792 
Q 1228 400 1656 400 
Q 1963 400 2206 609 
Q 2378 753 2541 1131 
L 2631 1088 
z
" transform="scale(0.015625)"/>
       <path id="TimesNewRomanPSMT-68" d="M 1041 4444 
L 1041 2350 
Q 1388 2731 1591 2839 
Q 1794 2947 1997 2947 
Q 2241 2947 2416 2812 
Q 2591 2678 2675 2391 
Q 2734 2191 2734 1659 
L 2734 647 
Q 2734 375 2778 275 
Q 2809 200 2884 156 
Q 2959 113 3159 113 
L 3159 0 
L 1753 0 
L 1753 113 
L 1819 113 
Q 2019 113 2097 173 
Q 2175 234 2206 353 
Q 2216 403 2216 647 
L 2216 1659 
Q 2216 2128 2167 2275 
Q 2119 2422 2012 2495 
Q 1906 2569 1756 2569 
Q 1603 2569 1437 2487 
Q 1272 2406 1041 2159 
L 1041 647 
Q 1041 353 1073 281 
Q 1106 209 1195 161 
Q 1284 113 1503 113 
L 1503 0 
L 84 0 
L 84 113 
Q 275 113 384 172 
Q 447 203 484 290 
Q 522 378 522 647 
L 522 3238 
Q 522 3728 498 3840 
Q 475 3953 426 3993 
Q 378 4034 297 4034 
Q 231 4034 84 3984 
L 41 4094 
L 897 4444 
L 1041 4444 
z
" transform="scale(0.015625)"/>
       <path id="SimSun-ff09" d="M 2337 875 
Q 1925 350 1437 62 
Q 950 -225 937 -162 
Q 925 -100 1300 175 
Q 1650 425 2037 1012 
Q 2425 1600 2375 2375 
Q 2325 3150 1987 3662 
Q 1650 4175 1300 4475 
Q 925 4775 937 4837 
Q 950 4900 1412 4587 
Q 1875 4275 2325 3662 
Q 2775 3050 2762 2225 
Q 2750 1400 2337 875 
z
" transform="scale(0.015625)"/>
      </defs>
      <use xlink:href="#TimesNewRomanPSMT-47"/>
      <use xlink:href="#TimesNewRomanPSMT-4d" transform="translate(72.216797 0)"/>
      <use xlink:href="#SimSun-ff08" transform="translate(161.132812 0)"/>
      <use xlink:href="#TimesNewRomanPSMT-74" transform="translate(261.132812 0)"/>
      <use xlink:href="#TimesNewRomanPSMT-66" transform="translate(288.916016 0)"/>
      <use xlink:href="#TimesNewRomanPSMT-70" transform="translate(322.216797 0)"/>
      <use xlink:href="#TimesNewRomanPSMT-63" transform="translate(372.216797 0)"/>
      <use xlink:href="#TimesNewRomanPSMT-68" transform="translate(416.601562 0)"/>
      <use xlink:href="#SimSun-ff09" transform="translate(466.601562 0)"/>
     </g>
    </g>
    <g id="line2d_19">
     <path d="M 388.130156 53.321719 
L 399.130156 53.321719 
L 410.130156 53.321719 
" style="fill: none; stroke: #5dade2; stroke-width: 2.2; stroke-linecap: round"/>
     <g>
      <use xlink:href="#md173f16c05" x="399.130156" y="53.321719" style="fill: #5dade2; stroke: #ffffff; stroke-width: 0.75"/>
     </g>
    </g>
    <g id="text_18">
     <!-- 效率变化（effch） -->
     <g style="fill: #262626" transform="translate(418.930156 57.171719) scale(0.11 -0.11)">
      <defs>
       <path id="SimSun-6548" d="M 575 4025 
L 1975 4025 
Q 1950 4250 1837 4500 
Q 1725 4750 1450 5100 
L 1525 5150 
Q 2000 4875 2175 4687 
Q 2350 4500 2350 4350 
Q 2350 4200 2200 4025 
L 2850 4025 
L 3150 4325 
L 3600 3875 
L 1400 3875 
Q 1075 3875 800 3800 
L 575 4025 
z
M 1425 3675 
L 1900 3350 
L 1675 3250 
Q 950 2225 475 1875 
L 400 1925 
Q 1075 2700 1425 3675 
z
M 2300 3575 
L 2350 3650 
Q 2900 3400 3075 3250 
Q 3250 3100 3250 2950 
Q 3250 2850 3187 2700 
Q 3125 2550 3075 2550 
Q 3000 2550 2900 2775 
Q 2725 3150 2300 3575 
z
M 1250 2225 
Q 1675 1950 2075 1625 
Q 2375 2250 2450 2650 
L 2900 2275 
Q 2725 2225 2300 1425 
Q 2700 1075 2862 862 
Q 3025 650 3025 475 
Q 3025 375 2962 237 
Q 2900 100 2875 100 
Q 2800 100 2700 350 
Q 2525 700 2150 1175 
Q 1425 100 475 -475 
L 425 -400 
Q 1300 300 1950 1400 
Q 1525 1850 1200 2150 
L 1250 2225 
z
M 4050 3500 
L 3950 3250 
Q 4150 2050 4525 1275 
Q 4950 2100 5125 3500 
L 4050 3500 
z
M 4175 5250 
L 4775 4950 
Q 4600 4875 4525 4725 
Q 4450 4575 4100 3650 
L 5375 3650 
L 5675 3950 
L 6125 3500 
L 5475 3500 
Q 5275 1975 4700 950 
Q 5350 0 6100 -125 
L 6100 -225 
Q 5650 -250 5550 -500 
Q 4975 -75 4475 725 
Q 3650 -125 2450 -625 
L 2400 -550 
Q 3650 125 4325 1000 
Q 3925 2025 3850 3050 
Q 3550 2400 3225 2000 
L 3150 2050 
Q 3825 3350 4175 5250 
z
" transform="scale(0.015625)"/>
       <path id="SimSun-7387" d="M 875 3725 
L 925 3800 
Q 1375 3650 1550 3525 
Q 1725 3400 1725 3250 
Q 1725 3175 1662 3025 
Q 1600 2875 1550 2875 
Q 1500 2875 1425 3050 
Q 1275 3325 875 3725 
z
M 550 1850 
Q 875 1925 2000 2575 
L 2050 2500 
Q 1675 2225 1337 1937 
Q 1000 1650 875 1425 
L 550 1850 
z
M 5200 3450 
Q 4800 3150 4275 2800 
L 4225 2875 
Q 4775 3400 5050 3925 
L 5450 3525 
L 5200 3450 
z
M 4325 2500 
L 4350 2575 
Q 5225 2350 5375 2212 
Q 5525 2075 5525 1900 
Q 5525 1775 5487 1662 
Q 5450 1550 5400 1550 
Q 5325 1550 5200 1800 
Q 4975 2150 4325 2500 
z
M 3150 3900 
Q 2500 3300 2300 3150 
Q 2800 3150 3400 3175 
Q 3700 3500 3850 3825 
L 4250 3450 
Q 4050 3400 3450 2825 
Q 2850 2250 2475 1950 
Q 3150 1975 3850 2000 
Q 3750 2175 3550 2450 
L 3600 2500 
Q 4050 2250 4200 2100 
Q 4350 1950 4350 1850 
Q 4350 1775 4250 1625 
Q 4150 1475 4100 1475 
Q 4075 1475 4050 1550 
Q 4000 1700 3900 1900 
Q 3650 1875 3075 1800 
L 3500 1550 
L 3325 1425 
L 3325 975 
L 5325 975 
L 5650 1300 
L 6100 825 
L 3325 825 
Q 3325 -275 3350 -525 
L 2975 -650 
Q 3000 0 3000 825 
L 1125 825 
Q 800 825 525 750 
L 300 975 
L 3000 975 
L 3000 1775 
Q 2450 1700 2200 1525 
L 1950 1950 
Q 2275 1950 2675 2350 
Q 3075 2750 3325 3050 
Q 2400 2950 2150 2775 
L 1950 3175 
Q 2150 3150 2475 3575 
Q 2800 4000 2900 4225 
L 1450 4225 
Q 1125 4225 850 4150 
L 625 4375 
L 3100 4375 
Q 3050 4800 2675 5200 
L 2725 5250 
Q 3225 5050 3337 4912 
Q 3450 4775 3450 4700 
Q 3450 4550 3250 4375 
L 5025 4375 
L 5350 4675 
L 5775 4225 
L 3050 4225 
L 3375 3950 
L 3150 3900 
z
" transform="scale(0.015625)"/>
       <path id="SimSun-53d8" d="M 2750 4225 
L 2750 2225 
L 3650 2225 
L 3650 4225 
L 2750 4225 
z
M 375 4375 
L 3100 4375 
Q 3050 4750 2650 5200 
L 2700 5275 
Q 3150 5075 3325 4925 
Q 3500 4775 3500 4700 
Q 3500 4550 3300 4375 
L 5125 4375 
L 5525 4775 
L 6075 4225 
L 4000 4225 
L 4000 2225 
L 4425 2225 
L 4675 2500 
L 5100 2100 
L 4825 1975 
Q 4300 1325 3525 650 
Q 4500 -50 6125 -175 
L 6125 -275 
Q 5750 -325 5625 -575 
Q 4175 -250 3300 450 
Q 2150 -300 350 -600 
L 325 -500 
Q 2050 -100 3075 675 
Q 2525 1250 2100 2075 
L 1650 2075 
L 1375 2025 
L 1175 2225 
L 2400 2225 
L 2400 4225 
L 1200 4225 
Q 875 4225 600 4150 
L 375 4375 
z
M 2275 2075 
Q 2725 1350 3300 850 
Q 3800 1300 4425 2075 
L 2275 2075 
z
M 1675 3850 
L 2125 3450 
L 1875 3350 
Q 1150 2575 325 1950 
L 250 2025 
Q 700 2425 1087 2937 
Q 1475 3450 1675 3850 
z
M 4350 3700 
Q 5675 3050 5812 2875 
Q 5950 2700 5950 2575 
Q 5950 2475 5900 2375 
Q 5850 2275 5800 2275 
Q 5700 2275 5500 2550 
Q 5200 2950 4275 3625 
L 4350 3700 
z
" transform="scale(0.015625)"/>
       <path id="SimSun-5316" d="M 1375 -600 
Q 1400 200 1400 925 
L 1400 3125 
Q 850 2300 350 1775 
L 275 1850 
Q 825 2625 1300 3650 
Q 1775 4675 1900 5200 
L 2450 4875 
L 2200 4725 
Q 1875 4000 1600 3475 
L 1950 3275 
L 1750 3075 
L 1750 350 
Q 1750 75 1775 -400 
L 1375 -600 
z
M 3450 2125 
L 3450 3925 
Q 3450 4475 3425 5200 
L 4000 4925 
L 3800 4725 
L 3800 2400 
Q 4150 2725 4562 3225 
Q 4975 3725 5150 4025 
L 5600 3600 
L 5325 3525 
Q 4600 2700 3800 2000 
L 3800 425 
Q 3800 0 4225 0 
L 5300 0 
Q 5500 0 5550 325 
Q 5600 650 5600 1325 
L 5725 1325 
Q 5775 650 5850 425 
Q 5925 200 6125 125 
Q 5900 -325 5400 -325 
L 4075 -325 
Q 3450 -325 3450 250 
L 3450 1775 
Q 2800 1275 1950 925 
L 1925 1025 
Q 2800 1525 3450 2125 
z
" transform="scale(0.015625)"/>
       <path id="TimesNewRomanPSMT-65" d="M 681 1784 
Q 678 1147 991 784 
Q 1303 422 1725 422 
Q 2006 422 2214 576 
Q 2422 731 2563 1106 
L 2659 1044 
Q 2594 616 2278 264 
Q 1963 -88 1488 -88 
Q 972 -88 605 314 
Q 238 716 238 1394 
Q 238 2128 614 2539 
Q 991 2950 1559 2950 
Q 2041 2950 2350 2633 
Q 2659 2316 2659 1784 
L 681 1784 
z
M 681 1966 
L 2006 1966 
Q 1991 2241 1941 2353 
Q 1863 2528 1708 2628 
Q 1553 2728 1384 2728 
Q 1125 2728 920 2526 
Q 716 2325 681 1966 
z
" transform="scale(0.015625)"/>
      </defs>
      <use xlink:href="#SimSun-6548"/>
      <use xlink:href="#SimSun-7387" transform="translate(100 0)"/>
      <use xlink:href="#SimSun-53d8" transform="translate(200 0)"/>
      <use xlink:href="#SimSun-5316" transform="translate(300 0)"/>
      <use xlink:href="#SimSun-ff08" transform="translate(400 0)"/>
      <use xlink:href="#TimesNewRomanPSMT-65" transform="translate(500 0)"/>
      <use xlink:href="#TimesNewRomanPSMT-66" transform="translate(544.384766 0)"/>
      <use xlink:href="#TimesNewRomanPSMT-66" transform="translate(575.935547 0)"/>
      <use xlink:href="#TimesNewRomanPSMT-63" transform="translate(609.236328 0)"/>
      <use xlink:href="#TimesNewRomanPSMT-68" transform="translate(653.621094 0)"/>
      <use xlink:href="#SimSun-ff09" transform="translate(703.621094 0)"/>
     </g>
    </g>
    <g id="line2d_20">
     <path d="M 529.328906 37.638125 
L 540.328906 37.638125 
L 551.328906 37.638125 
" style="fill: none; stroke: #e67e22; stroke-width: 2.2; stroke-linecap: round"/>
     <g>
      <use xlink:href="#md8f20509c5" x="540.328906" y="37.638125" style="fill: #e67e22; stroke: #ffffff; stroke-width: 0.75"/>
     </g>
    </g>
    <g id="text_19">
     <!-- 技术变化（techch） -->
     <g style="fill: #262626" transform="translate(560.128906 41.488125) scale(0.11 -0.11)">
      <defs>
       <path id="SimSun-6280" d="M 5625 2475 
L 5400 2350 
Q 4975 1175 4400 600 
Q 4750 300 5212 100 
Q 5675 -100 6125 -125 
L 6125 -225 
Q 5725 -325 5675 -550 
Q 4800 -250 4175 400 
Q 3250 -300 1975 -600 
L 1925 -500 
Q 3100 -125 3975 650 
Q 3475 1350 3200 2450 
L 2975 2400 
L 2775 2600 
L 4025 2600 
L 4025 3650 
L 3275 3650 
L 3000 3600 
L 2800 3800 
L 4025 3800 
Q 4025 4700 4000 5225 
L 4625 4950 
L 4375 4750 
L 4375 3800 
L 5275 3800 
L 5575 4100 
L 6025 3650 
L 4375 3650 
L 4375 2600 
L 5025 2600 
L 5250 2825 
L 5625 2475 
z
M 3350 2450 
Q 3675 1450 4175 850 
Q 4775 1525 5050 2450 
L 3350 2450 
z
M 300 1975 
Q 475 1975 1450 2350 
L 1450 3650 
L 775 3650 
L 475 3600 
L 275 3800 
L 1450 3800 
Q 1450 4575 1425 5250 
L 2025 4950 
L 1800 4800 
L 1800 3800 
L 2125 3800 
L 2400 4075 
L 2825 3650 
L 1800 3650 
L 1800 2450 
L 2700 2800 
L 2750 2700 
L 1800 2200 
L 1800 -25 
Q 1775 -425 1250 -600 
Q 1300 -325 500 -25 
L 500 75 
Q 1125 -25 1287 -12 
Q 1450 0 1450 225 
L 1450 2050 
Q 725 1700 600 1525 
L 300 1975 
z
" transform="scale(0.015625)"/>
       <path id="SimSun-672f" d="M 3975 4800 
L 4025 4875 
Q 4675 4650 4887 4512 
Q 5100 4375 5100 4175 
Q 5100 4075 5025 3912 
Q 4950 3750 4900 3750 
Q 4825 3750 4725 3975 
Q 4525 4325 3975 4800 
z
M 3000 3500 
Q 3000 4225 2975 5225 
L 3650 4925 
L 3375 4750 
L 3375 3500 
L 5100 3500 
L 5475 3875 
L 6000 3350 
L 3600 3350 
Q 4300 1250 6100 675 
L 6100 575 
Q 5600 525 5500 250 
Q 3875 1400 3475 3350 
L 3375 3350 
Q 3375 0 3400 -450 
L 2975 -650 
Q 3000 650 3000 2900 
Q 1975 975 350 25 
L 300 100 
Q 1825 1250 2775 3350 
L 1200 3350 
Q 875 3350 600 3275 
L 375 3500 
L 3000 3500 
z
" transform="scale(0.015625)"/>
      </defs>
      <use xlink:href="#SimSun-6280"/>
      <use xlink:href="#SimSun-672f" transform="translate(100 0)"/>
      <use xlink:href="#SimSun-53d8" transform="translate(200 0)"/>
      <use xlink:href="#SimSun-5316" transform="translate(300 0)"/>
      <use xlink:href="#SimSun-ff08" transform="translate(400 0)"/>
      <use xlink:href="#TimesNewRomanPSMT-74" transform="translate(500 0)"/>
      <use xlink:href="#TimesNewRomanPSMT-65" transform="translate(527.783203 0)"/>
      <use xlink:href="#TimesNewRomanPSMT-63" transform="translate(572.167969 0)"/>
      <use xlink:href="#TimesNewRomanPSMT-68" transform="translate(616.552734 0)"/>
      <use xlink:href="#TimesNewRomanPSMT-63" transform="translate(666.552734 0)"/>
      <use xlink:href="#TimesNewRomanPSMT-68" transform="translate(710.9375 0)"/>
      <use xlink:href="#SimSun-ff09" transform="translate(760.9375 0)"/>
     </g>
    </g>
    <g id="line2d_21">
     <path d="M 529.328906 54.514531 
L 540.328906 54.514531 
L 551.328906 54.514531 
" style="fill: none; stroke-dasharray: 4.44,1.92; stroke-dashoffset: 0; stroke: #666666; stroke-width: 1.2"/>
    </g>
    <g id="text_20">
     <!-- 基线 y=1 -->
     <g style="fill: #262626" transform="translate(560.128906 58.364531) scale(0.11 -0.11)">
      <defs>
       <path id="SimSun-57fa" d="M 2925 875 
Q 2925 1500 2900 1975 
L 3475 1700 
L 3250 1550 
L 3250 875 
L 3925 875 
L 4225 1175 
L 4675 725 
L 3250 725 
L 3250 -200 
L 4825 -200 
L 5200 175 
L 5725 -350 
L 1400 -350 
Q 1075 -350 800 -425 
L 575 -200 
L 2925 -200 
L 2925 725 
L 2075 725 
L 1800 675 
L 1600 875 
L 2925 875 
z
M 4100 4400 
Q 4100 4850 4075 5225 
L 4650 4975 
L 4450 4800 
L 4450 4400 
L 5025 4400 
L 5350 4725 
L 5825 4250 
L 4450 4250 
L 4450 2225 
L 5050 2225 
L 5475 2650 
L 6050 2075 
L 4000 2075 
Q 4425 1575 5000 1350 
Q 5575 1125 6125 1075 
L 6125 975 
Q 5725 900 5675 650 
Q 5025 900 4550 1262 
Q 4075 1625 3850 2075 
L 2500 2075 
Q 2125 1475 1525 1062 
Q 925 650 275 450 
L 250 550 
Q 1000 900 1437 1312 
Q 1875 1725 2050 2075 
L 1125 2075 
Q 800 2075 525 2000 
L 300 2225 
L 1875 2225 
L 1875 4250 
L 1075 4250 
L 800 4200 
L 600 4400 
L 1875 4400 
Q 1875 4800 1850 5200 
L 2425 4925 
L 2225 4750 
L 2225 4400 
L 4100 4400 
z
M 2225 4250 
L 2225 3675 
L 4100 3675 
L 4100 4250 
L 2225 4250 
z
M 2225 3525 
L 2225 2950 
L 4100 2950 
L 4100 3525 
L 2225 3525 
z
M 2225 2800 
L 2225 2225 
L 4100 2225 
L 4100 2800 
L 2225 2800 
z
" transform="scale(0.015625)"/>
       <path id="SimSun-7ebf" d="M 3900 3400 
Q 3900 3050 3950 2475 
L 5125 2600 
L 5450 2975 
L 5950 2550 
L 3975 2350 
Q 4050 1575 4225 1125 
Q 4775 1625 5100 2175 
L 5550 1725 
L 5325 1700 
Q 4850 1250 4375 800 
Q 4825 175 5425 -75 
L 5775 1125 
L 5875 1100 
Q 5825 525 5812 150 
Q 5800 -225 5925 -450 
Q 5950 -500 5950 -525 
Q 5950 -625 5687 -587 
Q 5425 -550 4987 -287 
Q 4550 -25 4100 550 
Q 3650 250 3187 50 
Q 2725 -150 2025 -350 
L 2000 -250 
Q 3075 150 3925 850 
Q 3700 1525 3625 2300 
L 2600 2175 
L 2400 2075 
L 2125 2275 
L 3600 2425 
Q 3575 2775 3550 3375 
L 2825 3325 
L 2675 3225 
L 2450 3425 
L 3550 3500 
Q 3525 4375 3500 5250 
L 4075 4975 
L 3875 4800 
Q 3875 4275 3900 3525 
L 4975 3625 
L 5300 4000 
L 5800 3550 
L 3900 3400 
z
M 4275 4825 
L 4300 4900 
Q 5075 4700 5150 4562 
Q 5225 4425 5225 4325 
Q 5225 4200 5175 4075 
Q 5125 3950 5075 3950 
Q 5025 3950 4925 4150 
Q 4750 4425 4275 4825 
z
M 1525 5150 
L 2025 4825 
Q 1825 4750 1600 4325 
Q 1375 3875 775 3050 
L 1800 3150 
Q 2100 3650 2275 4150 
L 2725 3825 
Q 2550 3725 2125 3100 
Q 1700 2475 1025 1600 
Q 1375 1650 2575 1875 
L 2575 1775 
Q 1900 1600 1525 1462 
Q 1150 1325 775 1075 
L 475 1600 
Q 750 1675 1112 2137 
Q 1475 2600 1750 3050 
Q 1475 3000 1175 2912 
Q 875 2825 625 2600 
L 350 3075 
Q 625 3125 987 3787 
Q 1350 4450 1525 5150 
z
M 325 375 
Q 1025 475 1450 550 
Q 1875 625 2825 825 
L 2850 725 
Q 1725 400 1212 212 
Q 700 25 575 -100 
L 325 375 
z
" transform="scale(0.015625)"/>
       <path id="TimesNewRomanPSMT-79" d="M 38 2863 
L 1372 2863 
L 1372 2747 
L 1306 2747 
Q 1166 2747 1095 2686 
Q 1025 2625 1025 2534 
Q 1025 2413 1128 2197 
L 1825 753 
L 2466 2334 
Q 2519 2463 2519 2588 
Q 2519 2644 2497 2672 
Q 2472 2706 2419 2726 
Q 2366 2747 2231 2747 
L 2231 2863 
L 3163 2863 
L 3163 2747 
Q 3047 2734 2984 2696 
Q 2922 2659 2847 2556 
Q 2819 2513 2741 2316 
L 1575 -541 
Q 1406 -956 1132 -1168 
Q 859 -1381 606 -1381 
Q 422 -1381 303 -1275 
Q 184 -1169 184 -1031 
Q 184 -900 270 -820 
Q 356 -741 506 -741 
Q 609 -741 788 -809 
Q 913 -856 944 -856 
Q 1038 -856 1148 -759 
Q 1259 -663 1372 -384 
L 1575 113 
L 547 2272 
Q 500 2369 397 2513 
Q 319 2622 269 2659 
Q 197 2709 38 2747 
L 38 2863 
z
" transform="scale(0.015625)"/>
       <path id="TimesNewRomanPSMT-3d" d="M 116 2759 
L 3488 2759 
L 3488 2503 
L 116 2503 
L 116 2759 
z
M 116 1741 
L 3488 1741 
L 3488 1484 
L 116 1484 
L 116 1741 
z
" transform="scale(0.015625)"/>
      </defs>
      <use xlink:href="#SimSun-57fa"/>
      <use xlink:href="#SimSun-7ebf" transform="translate(100 0)"/>
      <use xlink:href="#TimesNewRomanPSMT-20" transform="translate(200 0)"/>
      <use xlink:href="#TimesNewRomanPSMT-79" transform="translate(225 0)"/>
      <use xlink:href="#TimesNewRomanPSMT-3d" transform="translate(275 0)"/>
      <use xlink:href="#TimesNewRomanPSMT-31" transform="translate(331.396484 0)"/>
     </g>
    </g>
   </g>
  </g>
 </g>
 <defs>
  <clipPath id="p3b6e5cdaa2">
   <rect x="51.0125" y="23.16625" width="613.72125" height="306.684633"/>
  </clipPath>
 </defs>
</svg>
